<?xml version="1.0" encoding="UTF-8" standalone="no"?>
<!DOCTYPE svg PUBLIC "-//W3C//DTD SVG 1.1//EN" "http://www.w3.org/Graphics/SVG/1.1/DTD/svg11.dtd"
[
<!ATTLIST g
  xmlns:vectornator CDATA #FIXED "http://vectornator.io"
  vectornator:layerName CDATA #IMPLIED >
<!ATTLIST g
  xmlns:vectornator CDATA #FIXED "http://vectornator.io"
  vectornator:mask CDATA #IMPLIED >
<!ATTLIST text
  xmlns:vectornator CDATA #FIXED "http://vectornator.io"
  vectornator:width CDATA #IMPLIED >

<!ATTLIST path
  xmlns:vectornator CDATA #FIXED "http://vectornator.io"
  vectornator:blendMode CDATA #IMPLIED >
<!ATTLIST path
  xmlns:vectornator CDATA #FIXED "http://vectornator.io"
  vectornator:shadowColor CDATA #IMPLIED >
<!ATTLIST path
  xmlns:vectornator CDATA #FIXED "http://vectornator.io"
  vectornator:shadowOpacity CDATA #IMPLIED >
<!ATTLIST path
  xmlns:vectornator CDATA #FIXED "http://vectornator.io"
  vectornator:shadowRadius CDATA #IMPLIED >
<!ATTLIST path
  xmlns:vectornator CDATA #FIXED "http://vectornator.io"
  vectornator:shadowOffset CDATA #IMPLIED >
<!ATTLIST path
  xmlns:vectornator CDATA #FIXED "http://vectornator.io"
  vectornator:shadowAngle CDATA #IMPLIED >

<!ATTLIST image
  xmlns:vectornator CDATA #FIXED "http://vectornator.io"
  vectornator:blendMode CDATA #IMPLIED >
<!ATTLIST image
  xmlns:vectornator CDATA #FIXED "http://vectornator.io"
  vectornator:shadowColor CDATA #IMPLIED >
<!ATTLIST image
  xmlns:vectornator CDATA #FIXED "http://vectornator.io"
  vectornator:shadowOpacity CDATA #IMPLIED >
<!ATTLIST image
  xmlns:vectornator CDATA #FIXED "http://vectornator.io"
  vectornator:shadowRadius CDATA #IMPLIED >
<!ATTLIST image
  xmlns:vectornator CDATA #FIXED "http://vectornator.io"
  vectornator:shadowOffset CDATA #IMPLIED >
<!ATTLIST image
  xmlns:vectornator CDATA #FIXED "http://vectornator.io"
  vectornator:shadowAngle CDATA #IMPLIED >

<!ATTLIST g
  xmlns:vectornator CDATA #FIXED "http://vectornator.io"
  vectornator:blendMode CDATA #IMPLIED >
<!ATTLIST g
  xmlns:vectornator CDATA #FIXED "http://vectornator.io"
  vectornator:shadowColor CDATA #IMPLIED >
<!ATTLIST g
  xmlns:vectornator CDATA #FIXED "http://vectornator.io"
  vectornator:shadowOpacity CDATA #IMPLIED >
<!ATTLIST g
  xmlns:vectornator CDATA #FIXED "http://vectornator.io"
  vectornator:shadowRadius CDATA #IMPLIED >
<!ATTLIST g
  xmlns:vectornator CDATA #FIXED "http://vectornator.io"
  vectornator:shadowOffset CDATA #IMPLIED >
<!ATTLIST g
  xmlns:vectornator CDATA #FIXED "http://vectornator.io"
  vectornator:shadowAngle CDATA #IMPLIED >

<!ENTITY % SVG.filter.extra.content  "| feDropShadow" >
<!ELEMENT feDropShadow EMPTY>
<!ATTLIST feDropShadow
  xmlns:svg CDATA #FIXED "http://www.w3.org/Graphics/SVG/1.1/DTD/svg11.dtd"
  dx CDATA #IMPLIED>
<!ATTLIST feDropShadow
  xmlns:svg CDATA #FIXED "http://www.w3.org/Graphics/SVG/1.1/DTD/svg11.dtd"
  dy CDATA #IMPLIED>
<!ATTLIST feDropShadow
  xmlns:svg CDATA #FIXED "http://www.w3.org/Graphics/SVG/1.1/DTD/svg11.dtd"
  stdDeviation CDATA #IMPLIED>
<!ATTLIST feDropShadow
  xmlns:svg CDATA #FIXED "http://www.w3.org/Graphics/SVG/1.1/DTD/svg11.dtd"
  flood-opacity CDATA #IMPLIED>
<!ATTLIST feDropShadow
  xmlns:svg CDATA #FIXED "http://www.w3.org/Graphics/SVG/1.1/DTD/svg11.dtd"
  in CDATA #IMPLIED>
<!ATTLIST feDropShadow
  xmlns:svg CDATA #FIXED "http://www.w3.org/Graphics/SVG/1.1/DTD/svg11.dtd"
  result CDATA #IMPLIED>
<!ATTLIST feDropShadow
  xmlns:svg CDATA #FIXED "http://www.w3.org/Graphics/SVG/1.1/DTD/svg11.dtd"
  flood-color CDATA #IMPLIED>
]
>
<!-- Created with Vectornator (http://vectornator.io/) -->
<svg height="100%" stroke-miterlimit="10" style="fill-rule:nonzero;clip-rule:evenodd;stroke-linecap:round;stroke-linejoin:round;" version="1.1" viewBox="0 0 1024 1024" width="100%" xml:space="preserve" xmlns="http://www.w3.org/2000/svg" xmlns:vectornator="http://vectornator.io" xmlns:xlink="http://www.w3.org/1999/xlink">
<defs/>
<g id="레이어-7" vectornator:layerName="레이어 7">
<g opacity="1">
<path d="M797.719 398.688C789.039 398.733 780.346 399.314 771.719 400.25C761.567 401.351 751.45 402.89 741.281 403.844C734.485 404.482 727.661 404.701 720.844 405C710.757 405.443 700.687 405.832 690.594 406.094C676.456 406.46 662.309 406.895 648.188 407.688C633.369 408.519 618.549 409.586 603.719 410.188C567.424 411.661 531.096 411.953 494.812 413.719C470.32 414.911 445.842 416.655 421.344 417.75C410.99 418.213 400.647 418.663 390.281 418.688C372.225 418.73 354.18 417.606 336.188 416.188C328.11 415.551 320.044 414.848 311.969 414.188C306.114 413.709 300.249 413.328 294.406 412.719C285.329 411.773 276.293 410.452 267.156 410.188C253.636 409.796 240.112 411.081 226.594 411.031C221.069 411.011 215.557 410.62 210.031 410.625C205.919 410.629 201.841 410.839 197.75 411.25C189.305 412.099 181.329 414.055 174.344 419.125C164.278 426.431 158.844 438.012 158.469 450.312C158.376 453.34 158.588 456.343 158.969 459.344C159.186 461.059 159.54 462.784 159.75 464.5C160.118 467.509 160.517 470.501 160.938 473.5C159.921 484.884 159.118 496.354 159.062 507.781C159.032 513.944 159.227 520.091 159.438 526.25C159.622 531.629 159.764 537.043 160.219 542.406C160.41 544.657 160.824 546.923 161.156 549.156C161.725 552.982 162.332 556.779 162.969 560.594C163.598 564.367 164.269 568.139 164.938 571.906C165.278 573.824 165.693 575.76 165.969 577.688C166.283 579.882 166.415 582.093 166.781 584.281C166.851 584.699 166.917 585.116 167 585.531C167.093 585.996 167.104 586.481 167.312 586.906C169.536 591.445 171.958 595.887 174.281 600.375C174.795 600.923 175.249 601.535 175.812 602.031C177.312 603.353 178.765 604.798 180.469 605.844C182.922 607.35 185.45 608.834 188.219 609.625C191.827 610.656 195.627 611.383 199.375 611.219C203.287 611.047 207.166 610.083 210.812 608.656C213.786 607.493 216.426 605.534 218.938 603.562C220.715 602.167 222.171 600.381 223.594 598.625C224.57 597.419 225.32 596.063 226.094 594.719C226.602 593.837 227.029 592.901 227.438 591.969C256.133 591.233 284.863 590.988 313.562 591.531C334.58 591.929 355.557 592.669 376.562 593.469C386.33 593.841 396.108 594.17 405.875 594.562C421.672 595.197 437.469 596.075 453.25 597.031C459.894 597.434 466.55 597.778 473.188 598.281C481.657 598.923 490.109 599.804 498.562 600.625C501.569 600.917 504.581 601.274 507.594 601.5C516.059 602.136 524.534 602.627 533 603.25C536.838 603.532 540.709 603.704 544.531 604.156C549.749 604.774 554.874 605.942 560.094 606.562C564.086 607.037 568.122 607.317 572.125 607.688C576.677 608.109 581.23 608.578 585.781 609C604.649 610.749 623.522 612.141 642.406 613.688C666.576 615.668 690.741 617.748 714.906 619.781C740.763 621.956 766.643 623.872 792.562 625.125C796.255 625.304 799.967 625.425 803.656 625.656C813.185 626.253 822.663 627.028 832.188 625.875C837.913 625.182 843.633 624.391 848.875 621.812C853.922 619.33 858.337 615.584 861.406 610.844C864.832 605.554 866.572 599.216 866.75 592.938C866.859 589.086 866.435 585.299 865.656 581.531C865.188 579.264 864.447 577.058 864.031 574.781C863.721 573.081 863.49 571.355 863.156 569.656C862.878 568.242 862.538 566.831 862.312 565.406C862.071 563.876 861.979 562.321 861.812 560.781C861.55 558.357 861.286 555.925 861.031 553.5C857.652 521.314 854.85 488.986 853.938 456.625C853.782 451.094 853.598 445.579 853.156 440.062C852.982 437.883 852.775 435.701 852.5 433.531C852.501 433.243 852.503 432.945 852.5 432.656C852.488 431.512 852.484 430.751 852.406 429.594C852.263 427.446 851.968 425.306 851.438 423.219C849.804 416.795 846.307 410.973 841.219 406.688C835.851 402.168 828.978 399.556 822.031 398.875C818.468 398.526 815.022 398.865 811.469 398.969C811.063 398.981 810.656 398.89 810.25 398.875C808.875 398.823 807.5 398.779 806.125 398.75C803.323 398.691 800.521 398.673 797.719 398.688ZM799.125 454.656C799.258 457.289 799.44 459.93 799.562 462.562C799.78 467.23 800.051 471.899 800.344 476.562C801.514 495.227 802.973 513.883 804.75 532.5C805.603 541.435 806.515 550.36 807.5 559.281C807.992 563.737 808.425 568.219 809.062 572.656C809.091 572.858 809.156 573.049 809.188 573.25C804.627 573.119 800.062 573.093 795.5 573.062C772.977 572.912 750.457 572.519 727.938 572.125C699.619 571.63 671.304 571.176 643 570.094C632.097 569.677 621.173 569.069 610.281 568.438C601.308 567.917 592.341 567.318 583.375 566.688C577.215 566.254 571.044 565.869 564.906 565.188C561.053 564.76 557.241 563.995 553.406 563.438C550.601 563.03 547.796 562.707 544.969 562.5C538.12 561.998 531.236 561.845 524.375 561.562C518.841 561.335 513.29 560.998 507.75 560.969C496.1 560.908 484.429 561.341 472.781 561.219C450.793 560.988 428.8 561.058 406.812 560.719C366.809 560.102 326.823 559.058 286.812 559.031C267.497 559.018 248.18 559.378 228.875 559.938C228.85 555.994 228.989 552.037 228.969 548.094C228.926 539.888 228.64 531.672 228.438 523.469C228.241 515.499 227.967 507.528 227.625 499.562C227.402 494.359 227.185 489.123 226.688 483.938C226.441 481.366 225.945 478.835 225.562 476.281C225.568 475.823 225.555 475.365 225.562 474.906C225.57 474.768 225.526 474.638 225.531 474.5C226.437 474.51 227.343 474.569 228.25 474.562C236.729 474.504 245.183 474.042 253.656 473.781C257.568 473.661 261.523 473.5 265.438 473.594C269.633 473.694 273.801 474.133 277.969 474.594C293.679 476.332 309.448 477.455 325.219 478.5C344.1 479.751 363.01 480.733 381.938 480.688C397.924 480.649 413.929 479.717 429.875 478.656C454.248 477.035 478.572 474.829 502.969 473.594C537.414 471.849 571.924 471.354 606.375 469.719C621.497 469.001 636.58 467.795 651.688 466.844C664.09 466.063 676.492 465.528 688.906 464.969C701.087 464.42 713.275 463.713 725.438 462.844C730.904 462.453 736.391 462.123 741.844 461.562C753.375 460.378 764.788 458.418 776.25 456.719C780.006 456.162 783.789 455.673 787.562 455.25C789.047 455.084 790.572 455.072 792.062 454.969C794.422 454.806 796.769 454.752 799.125 454.656Z" fill="#000000" stroke="none"/>
</g>
</g>
</svg>
