<?xml version="1.0" encoding="UTF-8" standalone="no"?>
<!DOCTYPE svg PUBLIC "-//W3C//DTD SVG 1.1//EN" "http://www.w3.org/Graphics/SVG/1.1/DTD/svg11.dtd"
[
<!ATTLIST g
  xmlns:vectornator CDATA #FIXED "http://vectornator.io"
  vectornator:layerName CDATA #IMPLIED >
<!ATTLIST g
  xmlns:vectornator CDATA #FIXED "http://vectornator.io"
  vectornator:mask CDATA #IMPLIED >
<!ATTLIST text
  xmlns:vectornator CDATA #FIXED "http://vectornator.io"
  vectornator:width CDATA #IMPLIED >

<!ATTLIST path
  xmlns:vectornator CDATA #FIXED "http://vectornator.io"
  vectornator:blendMode CDATA #IMPLIED >
<!ATTLIST path
  xmlns:vectornator CDATA #FIXED "http://vectornator.io"
  vectornator:shadowColor CDATA #IMPLIED >
<!ATTLIST path
  xmlns:vectornator CDATA #FIXED "http://vectornator.io"
  vectornator:shadowOpacity CDATA #IMPLIED >
<!ATTLIST path
  xmlns:vectornator CDATA #FIXED "http://vectornator.io"
  vectornator:shadowRadius CDATA #IMPLIED >
<!ATTLIST path
  xmlns:vectornator CDATA #FIXED "http://vectornator.io"
  vectornator:shadowOffset CDATA #IMPLIED >
<!ATTLIST path
  xmlns:vectornator CDATA #FIXED "http://vectornator.io"
  vectornator:shadowAngle CDATA #IMPLIED >

<!ATTLIST image
  xmlns:vectornator CDATA #FIXED "http://vectornator.io"
  vectornator:blendMode CDATA #IMPLIED >
<!ATTLIST image
  xmlns:vectornator CDATA #FIXED "http://vectornator.io"
  vectornator:shadowColor CDATA #IMPLIED >
<!ATTLIST image
  xmlns:vectornator CDATA #FIXED "http://vectornator.io"
  vectornator:shadowOpacity CDATA #IMPLIED >
<!ATTLIST image
  xmlns:vectornator CDATA #FIXED "http://vectornator.io"
  vectornator:shadowRadius CDATA #IMPLIED >
<!ATTLIST image
  xmlns:vectornator CDATA #FIXED "http://vectornator.io"
  vectornator:shadowOffset CDATA #IMPLIED >
<!ATTLIST image
  xmlns:vectornator CDATA #FIXED "http://vectornator.io"
  vectornator:shadowAngle CDATA #IMPLIED >

<!ATTLIST g
  xmlns:vectornator CDATA #FIXED "http://vectornator.io"
  vectornator:blendMode CDATA #IMPLIED >
<!ATTLIST g
  xmlns:vectornator CDATA #FIXED "http://vectornator.io"
  vectornator:shadowColor CDATA #IMPLIED >
<!ATTLIST g
  xmlns:vectornator CDATA #FIXED "http://vectornator.io"
  vectornator:shadowOpacity CDATA #IMPLIED >
<!ATTLIST g
  xmlns:vectornator CDATA #FIXED "http://vectornator.io"
  vectornator:shadowRadius CDATA #IMPLIED >
<!ATTLIST g
  xmlns:vectornator CDATA #FIXED "http://vectornator.io"
  vectornator:shadowOffset CDATA #IMPLIED >
<!ATTLIST g
  xmlns:vectornator CDATA #FIXED "http://vectornator.io"
  vectornator:shadowAngle CDATA #IMPLIED >

<!ENTITY % SVG.filter.extra.content  "| feDropShadow" >
<!ELEMENT feDropShadow EMPTY>
<!ATTLIST feDropShadow
  xmlns:svg CDATA #FIXED "http://www.w3.org/Graphics/SVG/1.1/DTD/svg11.dtd"
  dx CDATA #IMPLIED>
<!ATTLIST feDropShadow
  xmlns:svg CDATA #FIXED "http://www.w3.org/Graphics/SVG/1.1/DTD/svg11.dtd"
  dy CDATA #IMPLIED>
<!ATTLIST feDropShadow
  xmlns:svg CDATA #FIXED "http://www.w3.org/Graphics/SVG/1.1/DTD/svg11.dtd"
  stdDeviation CDATA #IMPLIED>
<!ATTLIST feDropShadow
  xmlns:svg CDATA #FIXED "http://www.w3.org/Graphics/SVG/1.1/DTD/svg11.dtd"
  flood-opacity CDATA #IMPLIED>
<!ATTLIST feDropShadow
  xmlns:svg CDATA #FIXED "http://www.w3.org/Graphics/SVG/1.1/DTD/svg11.dtd"
  in CDATA #IMPLIED>
<!ATTLIST feDropShadow
  xmlns:svg CDATA #FIXED "http://www.w3.org/Graphics/SVG/1.1/DTD/svg11.dtd"
  result CDATA #IMPLIED>
<!ATTLIST feDropShadow
  xmlns:svg CDATA #FIXED "http://www.w3.org/Graphics/SVG/1.1/DTD/svg11.dtd"
  flood-color CDATA #IMPLIED>
]
>
<!-- Created with Vectornator (http://vectornator.io/) -->
<svg height="100%" stroke-miterlimit="10" style="fill-rule:nonzero;clip-rule:evenodd;stroke-linecap:round;stroke-linejoin:round;" version="1.1" viewBox="0 0 1024 1024" width="100%" xml:space="preserve" xmlns="http://www.w3.org/2000/svg" xmlns:vectornator="http://vectornator.io" xmlns:xlink="http://www.w3.org/1999/xlink">
<defs/>
<clipPath id="ArtboardFrame">
<rect height="1024" width="1024" x="0" y="0"/>
</clipPath>
<g clip-path="url(#ArtboardFrame)" id="레이어-11" vectornator:layerName="레이어 11">
<g opacity="1">
<path d="M400.438 238.188C394.028 237.427 387.7 240.242 383.281 244.781C381.612 246.496 380.244 248.445 378.938 250.438C378.224 251.526 377.57 252.65 376.781 253.688C376.17 254.491 375.368 255.186 374.688 255.938C372.905 257.907 371.184 259.968 369.438 261.969C366.696 265.108 364.032 268.246 361.625 271.656C357.823 277.043 354.438 282.689 351.219 288.438C347.975 294.228 344.699 300.018 341.75 305.969C339.366 310.78 337.186 315.687 334.938 320.562C333.588 323.49 332.235 326.41 330.969 329.375C330.307 330.924 329.754 332.574 329.031 334.094C328.532 335.143 327.819 336.068 327.125 337C326.749 337.505 326.31 337.967 326.031 338.531C325.765 339.07 325.693 339.671 325.531 340.25C325.369 340.831 325.199 341.443 325.062 342.031C324.65 343.809 324.441 345.595 324.25 347.406C321.504 357.173 327.202 367.316 336.969 370.062C346.735 372.809 356.879 367.11 359.625 357.344C360.437 355.785 361.302 354.272 362 352.656C362.168 352.268 362.426 351.917 362.5 351.5C362.578 351.058 362.445 350.604 362.438 350.156C362.43 349.669 362.422 349.173 362.469 348.688C362.599 347.324 363.199 346.12 363.719 344.875C367.079 336.82 371.006 329.008 374.406 320.969C376.359 316.353 378.187 311.68 380.281 307.125C381.977 303.437 383.91 299.824 386 296.344C388.679 291.882 391.598 287.617 394.469 283.281C394.92 285.124 395.346 286.952 395.719 288.812C396.105 290.738 396.469 292.779 397.156 294.625C397.587 295.782 398.246 296.86 398.719 298C399.635 300.207 400.326 302.554 401 304.844C401.563 306.757 402.004 308.725 402.5 310.656C403.981 316.42 405.243 322.236 406.594 328.031C407.67 332.911 412.495 335.983 417.375 334.906C422.255 333.83 425.326 329.005 424.25 324.125C423.052 318.368 421.804 312.62 420.875 306.812C420.567 304.889 420.239 302.968 420.031 301.031C419.781 298.704 419.506 296.312 419.531 293.969C419.548 292.357 419.823 290.799 419.656 289.188C419.416 286.863 418.987 284.596 418.688 282.281C418.239 278.814 417.882 275.308 417.812 271.812C417.761 269.222 417.888 266.647 417.656 264.062C417.502 262.344 417.083 260.695 416.812 259C416.787 258.841 416.903 258.591 416.906 258.438C416.911 258.166 416.888 257.897 416.875 257.625C416.834 256.768 416.733 255.909 416.594 255.062C415.719 249.757 413.403 244.709 408.938 241.469C406.425 239.646 403.518 238.553 400.438 238.188ZM386.969 260.812C386.969 260.807 387.021 260.776 387.156 261.188C387.184 261.271 387.193 261.353 387.219 261.438C387.138 261.214 386.97 261.013 386.969 260.812Z" fill="#000000" stroke="none"/>
</g>
<g opacity="1">
<path d="M447.094 309.562C444.24 309.528 441.373 309.749 438.531 309.969C436.57 310.12 434.59 310.165 432.625 310.25C429.644 310.379 426.72 310.778 423.781 311.281C422.441 311.511 421.124 311.757 419.781 311.969C419.454 312.02 419.112 312.109 418.781 312.125C418.458 312.141 418.113 312.184 417.812 312.062C417.406 311.898 417.166 311.419 416.75 311.281C416.464 311.187 416.131 311.315 415.844 311.406C415.161 311.622 414.605 312.086 414 312.469C403.927 313.682 396.724 322.834 397.938 332.906C399.151 342.979 408.302 350.183 418.375 348.969C419.281 349.273 419.793 349.499 420.781 349.5C421.198 349.5 421.665 349.541 422.031 349.344C422.474 349.105 422.672 348.555 423.094 348.281C423.435 348.059 423.854 347.97 424.25 347.875C425.359 347.608 426.561 347.531 427.688 347.344C429.489 347.044 431.271 346.729 433.062 346.375C435.639 345.866 438.112 345.06 440.656 344.438C443.629 343.71 446.681 343.567 449.688 343.062C451.803 342.708 453.863 342.039 456 341.812C458.462 341.552 460.96 341.934 463.406 341.531C465.754 341.144 467.906 340.017 470.25 339.656C471.189 339.512 472.27 339.467 473.219 339.5C474.157 339.532 475.226 339.771 476.156 339.5C476.53 339.391 476.825 339.143 477.188 339C477.893 338.722 478.563 338.619 479.312 338.531C482.646 338.14 486.053 338.968 489.312 339.562C494.199 340.607 499.018 337.512 500.062 332.625C501.107 327.738 497.98 322.92 493.094 321.875C489.954 321.104 486.716 320.467 483.688 319.312C482.654 318.919 481.608 318.344 480.719 317.688C480.369 317.429 480.091 317.1 479.719 316.875C479.396 316.68 479.015 316.554 478.656 316.438C477.951 316.208 477.222 316.137 476.5 315.969C475.43 315.719 474.278 315.386 473.25 315C470.649 314.023 468.359 312.436 465.656 311.688C462.695 310.867 459.505 310.992 456.469 310.656C453.328 310.309 450.268 309.601 447.094 309.562Z" fill="#000000" stroke="none"/>
</g>
<g opacity="1">
<path d="M523.406 253.688C522.239 253.824 521.086 254.164 520 254.781C516.938 256.404 513.948 258.27 510.812 259.75C509.95 260.157 509.071 260.511 508.156 260.781C507.236 261.053 506.043 261.197 505.156 261.594C504.195 262.024 503.571 262.651 502.75 263.281C501.549 264.204 500.319 265.124 499.062 265.969C496.282 267.839 493.276 269.337 491.031 271.906C489.325 273.859 488.132 276.113 487.156 278.5C486.445 280.239 485.989 282.097 485.219 283.812C484.817 284.708 484.295 285.534 483.844 286.406C482.979 288.077 482.195 289.788 481.562 291.562C480.149 295.531 479.186 299.675 477.906 303.688C477.374 305.355 476.837 307.021 476.406 308.719C475.84 310.951 475.428 313.203 475.031 315.469C474.838 316.573 474.658 317.676 474.469 318.781C474.372 319.349 474.453 319.988 474.188 320.5C473.882 321.089 473.108 321.375 472.812 321.969C472.565 322.465 472.582 323.041 472.625 323.594C472.672 324.198 472.942 324.788 473.094 325.375C471.42 335.381 478.181 344.858 488.188 346.531C498.194 348.205 507.639 341.444 509.312 331.438C509.647 330.932 510.103 330.463 510.344 329.906C510.564 329.398 510.76 328.831 510.688 328.281C510.601 327.623 509.98 327.124 509.875 326.469C509.791 325.945 510.035 325.43 510.125 324.906C510.214 324.388 510.316 323.862 510.406 323.344C510.766 321.29 511.13 319.245 511.469 317.188C511.973 314.122 511.996 311.005 512.469 307.938C512.921 305.003 513.791 302.157 514.219 299.219C514.61 296.532 514.884 293.853 515.438 291.188C515.565 290.574 515.745 289.957 515.875 289.344C515.93 289.083 515.844 288.794 515.875 288.531C515.971 287.733 516.129 286.921 516.25 286.125C516.392 285.19 516.547 284.278 516.938 283.406C517.311 282.572 517.888 281.738 518.5 281.062C519.006 280.503 519.428 280.302 519.812 279.625C520.4 278.59 520.546 277.465 521.25 276.469C523.067 273.898 526.296 272.137 528.938 270.531C533.282 268.062 534.813 262.532 532.344 258.188C530.492 254.929 526.908 253.277 523.406 253.688Z" fill="#000000" stroke="none"/>
</g>
<g opacity="1">
<path d="M531.969 246.688C528.447 247.025 524.997 248.392 522.062 250.812C514.236 257.268 513.107 268.83 519.562 276.656C519.643 277.051 519.735 277.449 519.812 277.844C519.857 278.069 519.806 278.343 519.938 278.531C520.068 278.717 520.31 278.821 520.531 278.875C520.876 278.959 521.267 278.8 521.594 278.938C521.775 279.014 521.78 279.265 521.875 279.438C521.975 279.62 522.094 279.814 522.188 280C523.216 282.051 523.74 284.27 524.344 286.469C524.626 287.496 524.947 288.501 525.219 289.531C525.659 291.202 526.086 292.896 526.406 294.594C527.02 297.85 527.393 301.154 528.031 304.406C528.642 307.518 529.661 310.552 530.156 313.688C530.585 316.402 530.564 319.182 531.125 321.875C531.81 325.163 533.488 328.093 534.25 331.344C534.526 332.521 534.694 333.797 534.812 335C534.892 335.809 534.901 336.641 535.062 337.438C535.147 337.855 535.243 338.263 535.406 338.656C535.582 339.079 535.867 339.43 536.062 339.844C536.596 340.976 536.937 342.304 537.156 343.531C537.81 347.196 537.745 351.011 537.844 354.719C537.852 359.716 541.909 363.758 546.906 363.75C551.903 363.742 555.946 359.685 555.938 354.688C556.025 350.908 555.972 347.062 556.531 343.312C556.719 342.056 557.02 340.678 557.5 339.5C557.681 339.056 557.963 338.67 558.125 338.219C558.269 337.818 558.338 337.389 558.406 336.969C558.542 336.132 558.525 335.284 558.562 334.438C558.618 333.186 558.733 331.893 558.938 330.656C559.512 327.176 560.883 323.913 561.219 320.375C561.505 317.358 561.087 314.303 561.094 311.281C561.102 307.773 561.488 304.292 561.375 300.781C561.259 297.184 560.699 293.614 560.406 290.031C560.204 287.559 560.159 285.066 559.938 282.594C559.468 277.355 558.16 272.238 556.156 267.375C555.395 265.528 554.529 263.718 553.562 261.969C553.225 261.358 552.767 260.814 552.531 260.156C552.275 259.44 552.365 258.628 552.125 257.906C551.895 257.215 551.555 256.557 551.125 255.969C550.304 254.846 549.066 254.048 547.906 253.281C543.872 248.39 537.839 246.125 531.969 246.688Z" fill="#000000" stroke="none"/>
</g>
<g opacity="1">
<path d="M545 344.875C536.475 344.305 528.45 349.754 526.094 358.312C523.401 368.094 529.156 378.214 538.938 380.906C539.735 381.245 540.532 381.55 541.344 381.844C542.486 383.898 543.512 386.029 544.531 388.125C546.057 391.264 547.652 394.366 549.25 397.469C551.705 402.235 554.224 406.924 556 412C557.946 417.563 559.337 423.285 560.75 429C561.896 433.636 563.145 438.267 563.625 443.031C564.106 447.809 563.684 452.591 563.656 457.375C563.646 459.056 563.627 460.725 563.594 462.406C563.544 464.915 563.505 467.465 562.844 469.906C562.094 472.675 560.613 475.056 559.031 477.406C558.367 478.393 558.051 479.476 557.469 480.5C557.043 481.248 556.4 481.969 555.812 482.594C551.551 487.129 544.735 488.747 538.812 489.562C533.853 490.174 530.326 494.697 530.938 499.656C531.549 504.616 536.072 508.143 541.031 507.531C547.763 506.784 554.396 505.182 560.594 502.406C564.448 500.68 568.036 498.516 571.625 496.312C572.982 495.48 574.381 494.769 575.594 493.719C577.539 492.033 579.117 489.901 580.594 487.812C582.666 484.881 584.466 481.848 586.219 478.719C589.253 473.302 591.857 467.636 593.25 461.562C594.867 454.509 594.721 447.128 594.594 439.938C594.494 434.286 594.33 428.611 593.594 423C592.634 415.687 590.766 408.484 588.625 401.438C587.688 398.354 586.762 395.269 585.719 392.219C584.69 389.214 583.563 386.232 582.312 383.312C581.091 380.46 579.693 377.699 578.344 374.906C576.009 370.073 573.797 365.129 570.906 360.594C569.991 359.157 569.012 357.76 567.938 356.438C567.314 355.67 566.624 354.955 566 354.188C565.266 353.285 564.653 352.304 563.812 351.5C563.103 350.822 562.331 350.204 561.562 349.594C560.58 348.814 559.67 347.9 558.562 347.312C557.38 346.686 556.063 346.352 554.781 345.969C553.936 345.716 553.053 345.609 552.188 345.438C551.268 345.255 550.372 345.104 549.438 345.219C549.034 345.268 549.075 345.431 548.688 345.5C547.465 345.163 546.218 344.956 545 344.875ZM539.938 379.406C540.232 379.82 540.452 380.286 540.719 380.719C540.552 380.574 540.365 380.446 540.219 380.281C540.015 380.053 539.999 379.71 539.938 379.406ZM541.938 382.062C542 382.085 542.063 382.102 542.125 382.125C542.425 382.237 543.087 382.48 543.406 382.656C543.456 382.684 543.523 382.827 543.469 382.812C543.036 382.697 542.557 382.628 542.188 382.375C542.075 382.298 542.015 382.175 541.938 382.062Z" fill="#000000" stroke="none"/>
</g>
<g opacity="1">
<path d="M339 344.062C334.299 344.021 329.587 345.758 325.969 349.312C324.538 350.204 322.872 351.059 321.656 352.25C321.246 352.652 320.864 353.074 320.562 353.562C320.241 354.083 320.128 354.726 319.812 355.25C318.9 356.766 317.397 357.873 316.125 359.062C310.373 364.443 304.57 369.937 299.781 376.219C292.824 385.345 288.035 396.116 283.281 406.5C282.144 408.985 281.08 411.521 280 414.031C279.43 415.355 279.013 416.754 278.344 418.031C277 420.595 275.267 422.931 273.875 425.469C271.258 430.239 269.075 435.876 268 441.219C267.207 445.159 266.978 449.146 267.281 453.156C267.616 457.594 268.767 461.969 270.125 466.188C270.805 468.301 271.575 470.354 272.5 472.375C273.821 475.262 275.259 478.082 277.219 480.594C277.501 480.956 277.773 481.328 278.094 481.656C279.392 482.984 281.028 484.073 282.438 485.281C287.322 489.469 292.866 493.489 298.75 496.094C301.717 497.407 304.847 498.253 307.906 499.312C312.603 501.018 317.795 498.603 319.5 493.906C321.205 489.209 318.791 484.018 314.094 482.312C311.527 481.343 308.82 480.603 306.344 479.406C305.117 478.814 304.006 477.993 302.938 477.156C300.747 475.439 298.574 473.337 297.469 470.719C297.15 469.963 297.1 469.144 296.844 468.375C296.426 467.121 295.656 465.975 295.156 464.75C294.628 463.454 294.318 461.962 294.25 460.562C294.139 458.276 294.891 456.1 295.594 453.969C295.957 452.868 296.26 451.795 296.688 450.719C297.851 447.789 298.623 444.669 300.125 441.875C300.583 441.022 301.207 440.279 301.812 439.531C302.759 438.362 303.76 437.216 304.688 436.031C306.643 433.535 308.324 430.802 309.969 428.094C313.693 421.961 316.406 415.281 320.031 409.094C322.219 405.36 324.933 402.021 327.781 398.781C329.732 396.562 331.703 394.384 333.781 392.281C336.077 389.958 338.459 387.731 340.844 385.5C341.701 384.698 342.489 383.827 343.406 383.094C343.88 382.715 344.371 382.348 344.906 382.062C345.492 381.75 346.173 381.641 346.75 381.312C348.992 380.036 350.364 377.623 351.719 375.531C355.338 371.976 357.177 367.295 357.219 362.594C357.261 357.893 355.524 353.181 351.969 349.562C348.414 345.944 343.701 344.104 339 344.062Z" fill="#000000" stroke="none"/>
</g>
<g opacity="1">
<path d="M296.594 484.094C291.904 484.42 287.329 486.517 284 490.344C282.347 491.837 280.699 493.333 279.062 494.844C278.771 495.113 278.419 495.45 278.094 495.688C277.977 495.773 277.81 495.794 277.719 495.906C277.564 496.095 277.46 496.333 277.375 496.562C277.356 496.613 277.443 496.634 277.438 496.688C277.406 497.011 276.741 498.084 276.5 498.281C276.069 498.634 275.42 498.891 274.906 499.094C270.072 501.001 263.937 500.185 258.938 499.531C251.827 498.601 244.814 497.093 237.656 496.531C234.51 496.284 231.422 496.116 228.281 496.562C221.72 497.495 215.737 500.769 211.438 505.812C209.857 507.666 208.564 509.699 207.312 511.781C206.967 512.356 206.604 512.93 206.25 513.5C206.191 513.596 206.151 513.684 206.094 513.781C206.06 513.838 205.935 513.961 206 513.969C205.981 513.981 205.956 513.988 205.938 514C205.786 514.099 205.622 514.186 205.469 514.281C205.159 514.474 204.786 514.696 204.469 514.875C203.326 515.518 202.139 516.101 200.938 516.625C197.12 518.291 193.149 519.599 189.312 521.219C181.591 524.477 174.522 529.035 169.25 535.625C166.667 538.854 164.581 542.488 162.75 546.188C161.163 549.394 160.138 552.816 159.969 556.406C159.838 559.187 160.224 562.01 160.969 564.688C161.587 566.91 162.469 569.033 163.562 571.062C164.885 573.518 166.507 575.791 168.531 577.719C175.604 584.454 186.297 587.07 195.75 587.938C201.461 588.462 207.229 588.507 212.906 587.625C214.995 587.301 217.063 586.83 219.125 586.375C220.08 586.164 221.051 586.047 222 585.812C223.097 585.541 224.272 585.28 225.406 585.156C229.462 584.715 233.218 586.205 237.094 587.219C241.529 588.379 245.952 589.119 250.531 588.562C251.959 588.389 253.408 588.129 254.781 587.688C257.022 586.967 259.119 585.805 261.156 584.656C264.333 582.865 267.394 580.896 270.562 579.094C272.633 577.916 274.818 576.929 276.938 575.844C279.538 574.512 282.11 573.12 284.656 571.688C290.869 568.192 296.738 564.232 302.156 559.594C305.976 556.372 306.44 550.664 303.219 546.844C299.997 543.024 294.289 542.529 290.469 545.75C286.59 548.966 282.468 551.861 278.062 554.312C272.968 557.148 267.578 559.362 262.188 561.562C259.172 562.794 256.137 564.381 252.938 565.094C251.499 565.414 249.907 565.411 248.438 565.344C244.362 565.158 240.566 563.107 236.75 561.875C231.765 560.266 226.564 559.558 221.344 559.344C217.534 559.187 213.686 559.386 209.875 559.188C206.418 559.007 202.937 558.368 199.531 557.781C197.833 557.489 196.149 557.106 194.469 556.719C194.868 556.377 195.197 555.955 195.625 555.656C197.236 554.533 199.066 553.743 200.875 553C203.347 551.984 205.862 551.094 208.375 550.188C214.949 547.817 221.777 545.124 227.344 540.781C230.388 538.406 232.913 535.492 235.125 532.344C235.177 532.27 235.23 532.199 235.281 532.125C235.354 532.137 235.427 532.143 235.5 532.156C238.134 532.621 240.774 533.118 243.406 533.594C255.502 535.778 267.852 537.727 280.062 535.156C283.385 534.457 286.637 533.452 289.75 532.094C291.368 531.388 292.899 530.515 294.469 529.719C296.736 528.569 299.071 527.68 301.25 526.344C301.837 525.984 302.458 525.674 303 525.25C304.114 524.377 305.042 523.292 306 522.25C306.822 521.356 307.633 520.462 308.375 519.5C309.604 517.907 310.617 516.149 311.719 514.469C318.378 506.814 317.561 495.221 309.906 488.562C306.079 485.233 301.284 483.768 296.594 484.094Z" fill="#000000" stroke="none"/>
</g>
<g opacity="1">
<path d="M480.062 528.062C477.479 528.169 474.907 528.386 472.344 528.688C471.615 528.773 470.915 529.05 470.219 529.281C468.849 529.737 467.45 530.181 466 530.281C464.321 530.397 462.555 530.239 460.875 530.188C458.944 530.128 457.025 530.044 455.094 530C452.5 529.941 449.906 529.942 447.312 529.875C439.413 529.672 431.471 529.474 423.75 531.469C419.511 532.564 415.631 534.315 412.094 536.906C410.909 537.774 409.772 538.703 408.656 539.656C408.075 540.153 407.493 540.748 406.844 541.156C405.68 541.889 404.4 542.543 403.125 543.062C402.969 543.126 402.816 543.195 402.656 543.25C401.173 543.355 399.668 543.28 398.188 543.281C395.576 543.284 392.986 543.447 390.406 543.875C386.473 544.528 382.591 545.722 378.844 547.062C373.071 549.127 367.398 551.73 362.281 555.125C359.551 556.936 356.923 558.971 354.719 561.406C353.726 562.503 352.789 563.726 351.969 564.969C351.817 565.088 351.656 565.198 351.5 565.312C351.024 565.663 350.459 566.056 349.969 566.375C348.901 567.071 347.812 567.751 346.719 568.406C343.078 570.588 339.402 572.763 336.094 575.438C332.536 578.314 329.395 581.663 327.031 585.594C322.215 593.605 320.774 603.836 324.406 612.594C325.633 615.553 327.424 618.209 329.625 620.531C330.878 621.854 332.269 623.033 333.75 624.094C341.939 629.958 352.172 630.522 361.844 629.406C365.047 629.037 368.244 628.541 371.438 628.094C373.646 627.784 375.86 627.453 378.094 627.5C378.747 627.514 379.856 627.863 380.531 628.062C381.884 628.462 383.199 628.913 384.531 629.375C387.863 630.53 391.259 631.494 394.75 632.031C397.137 632.399 399.476 632.428 401.875 632.188C402.987 632.076 404.081 631.797 405.188 631.688C407.471 631.461 409.884 631.778 412.156 632C416.51 632.426 420.86 633.118 425.188 633.75C429.16 634.331 433.161 634.739 437.156 635.125C440.696 635.467 444.282 635.831 447.844 635.719C451.274 635.61 454.968 635.329 458.25 634.25C460.875 633.387 463.37 632.144 465.906 631.062C468.272 630.054 470.614 629.033 472.969 628C477.243 626.124 481.537 624.233 485.969 622.75C487.647 622.188 489.394 621.743 491.094 621.25C492.837 620.745 494.855 620.872 496.625 620.969C499.626 621.133 502.616 621.512 505.625 621.5C507.978 621.491 510.4 621.361 512.688 620.781C515.547 620.056 518.159 618.636 520.875 617.531C524.355 616.139 526.493 612.838 526.562 609.312C526.586 608.137 526.37 606.941 525.906 605.781C524.051 601.142 518.796 598.894 514.156 600.75C512.645 601.347 511.147 601.981 509.656 602.625C509.271 602.791 508.901 602.941 508.5 603.062C508.42 603.087 508.332 603.136 508.25 603.156C508.208 603.163 508.166 603.162 508.125 603.156C507.306 603.187 506.476 603.258 505.656 603.25C503.642 603.23 501.63 602.982 499.625 602.812C495.773 602.487 491.891 602.274 488.062 602.938C478.233 604.642 469.076 608.981 459.344 611.062C456.466 611.678 453.442 611.959 450.5 612.094C446.063 612.298 441.668 611.662 437.312 610.906C434.755 610.463 432.179 610.053 429.656 609.438C424.307 608.132 419.101 606.244 413.75 604.938C410.794 604.216 407.797 603.562 404.75 603.406C403.499 603.343 402.252 603.385 401 603.375C400.732 603.373 400.342 603.347 400.062 603.312C399.949 603.298 399.69 603.329 399.719 603.219C399.728 603.182 399.805 603.186 399.844 603.188C400.072 603.199 400.726 603.402 400.531 603.281C399.942 602.917 399.175 602.912 398.531 602.656C397.838 602.381 397.188 602.038 396.5 601.75C392.951 600.266 389.412 598.734 385.656 597.844C383.094 597.236 380.478 596.898 377.844 596.844C372.732 596.739 367.708 597.608 362.656 598.25C364.507 597.191 366.39 596.158 368.188 595.031C371.36 593.043 374.432 590.84 377 588.094C378.01 587.013 378.723 586.053 379.594 584.906C379.655 584.826 379.689 584.737 379.75 584.656C379.869 584.564 379.971 584.463 380.094 584.375C380.387 584.164 380.76 583.942 381.062 583.75C381.868 583.238 382.711 582.775 383.562 582.344C386.598 580.807 389.906 579.721 393.219 578.969C393.967 578.799 394.793 578.541 395.562 578.5C396.971 578.424 398.369 578.611 399.781 578.688C401.933 578.804 404.068 578.847 406.219 578.688C411.597 578.289 416.795 576.495 421.594 574.094C424.572 572.603 427.386 570.875 430 568.812C430.884 568.115 431.723 567.37 432.594 566.656C432.629 566.627 432.717 566.552 432.781 566.5C433.205 566.401 433.633 566.317 434.062 566.25C435.337 566.05 436.619 565.972 437.906 565.938C442.188 565.822 446.499 566.074 450.781 566.125C454.443 566.169 458.089 566.314 461.75 566.406C463.172 566.442 464.61 566.4 466.031 566.469C469.151 566.619 472.241 567.27 475.375 567.25C476.829 567.241 478.293 566.907 479.719 566.656C480.895 566.449 482.081 566.245 483.25 566C484.973 565.639 486.661 565.129 488.406 564.875C498.55 564.715 506.629 556.363 506.469 546.219C506.309 536.075 497.957 527.965 487.812 528.125C485.235 527.961 482.646 527.956 480.062 528.062ZM403.094 543.219C403.149 543.219 403.305 543.243 403.25 543.25C403.095 543.268 402.937 543.238 402.781 543.25C402.858 543.233 403 543.218 403.094 543.219ZM352.25 598.281C352.409 598.316 352.546 598.423 352.688 598.5C352.485 598.452 352.263 598.461 352.156 598.344C352.13 598.315 352.211 598.273 352.25 598.281Z" fill="#000000" stroke="none"/>
</g>
<g opacity="1">
<path d="M293.312 551.375C286.177 551.948 279.737 556.684 277.344 563.906C275.777 567.242 274.049 570.6 272.938 574.125C272.17 576.559 272.365 579.13 271.781 581.594C271.498 582.79 271.007 583.925 270.625 585.094C269.857 587.441 269.107 589.776 268.344 592.125C265.864 599.753 263.396 607.377 261 615.031C259.708 619.159 258.377 623.288 257.156 627.438C254.87 635.208 252.851 643.074 250.562 650.844C248.482 657.906 245.855 664.768 244.25 671.969C242.477 679.92 241.909 688.185 242.188 696.312C242.604 708.464 245.287 720.332 246.438 732.406C247.01 738.412 247.093 744.476 247.312 750.5C247.525 756.33 247.921 762.146 248.625 767.938C249.528 775.367 250.757 782.787 252.781 790C253.419 792.272 254.264 794.47 255.219 796.625C255.571 797.42 256.065 798.261 256.312 799.094C256.341 799.19 256.358 799.307 256.375 799.406C256.379 801.051 255.318 802.62 254.688 804.031C253.618 806.425 252.431 808.757 251.375 811.156C250.329 813.532 249.572 815.95 248.969 818.469C248.618 819.935 248.416 821.486 247.594 822.781C245.563 825.982 242.553 828.559 239.625 830.906C234.907 834.689 229.819 837.965 224.812 841.344C220.65 844.108 219.486 849.743 222.25 853.906C225.014 858.069 230.65 859.202 234.812 856.438C241.673 851.958 248.621 847.563 254.906 842.281C257.953 839.721 260.913 836.962 263.25 833.719C264.678 831.738 265.786 829.615 266.75 827.375C267.516 825.594 267.987 823.458 269.062 821.812C270.623 819.425 272.929 817.69 274.625 815.406C276.633 812.702 278.251 809.477 279.125 806.219C280.088 802.625 280.392 798.909 279.844 795.219C279.343 791.854 277.92 788.852 277.094 785.594C276.497 783.239 276.485 780.666 276.5 778.25C276.52 775.076 276.789 771.917 276.969 768.75C277.178 765.057 277.388 761.351 277.562 757.656C277.9 750.522 277.831 743.385 277.531 736.25C277.04 724.535 275.774 712.858 275.656 701.125C275.601 695.572 275.709 689.974 276.5 684.469C277.304 678.875 279.16 673.529 281.031 668.219C282.714 663.442 284.424 658.699 286.062 653.906C287.848 648.686 289.68 643.48 291.438 638.25C295.724 625.497 299.692 612.631 303.875 599.844C304.448 598.091 305.02 596.346 305.594 594.594C305.785 594.01 305.948 593.41 306.188 592.844C307.156 590.552 308.802 588.648 309.625 586.281C310.839 582.79 311.483 579.08 312.219 575.469C315.41 565.838 310.162 555.441 300.531 552.25C298.124 551.452 295.691 551.184 293.312 551.375Z" fill="#000000" stroke="none"/>
</g>
<g opacity="1">
<path d="M535.656 490.344C532.158 489.906 528.565 491.538 526.688 494.781C524.184 499.106 525.644 504.653 529.969 507.156C530.519 507.473 531.086 507.753 531.656 508.031C531.645 508.167 531.6 508.307 531.594 508.438C531.47 510.885 531.978 513.255 532.656 515.594C533.114 517.171 533.768 518.72 534.062 520.344C535.041 525.737 535.227 531.274 537.438 536.375C538.85 539.634 540.844 542.582 542.844 545.5C544.333 547.673 545.836 549.84 546.719 552.344C548.543 557.519 548.522 563.178 549.25 568.562C549.644 571.478 550.285 574.37 550.875 577.25C551.703 581.293 552.501 585.341 553.375 589.375C554.991 596.832 556.779 604.237 558.125 611.75C558.766 615.325 559.375 618.912 559.938 622.5C560.704 627.394 561.309 632.317 562.031 637.219C562.53 640.604 563.261 643.941 563.844 647.312C564.702 652.275 565.368 657.33 565.281 662.375C565.169 668.904 564.141 675.433 563.156 681.875C561.784 690.851 560.194 699.816 559.188 708.844C557.839 720.941 557.822 733.31 560.906 745.156C562.468 751.155 564.819 756.831 567.75 762.281C570.274 766.975 573.082 771.54 576.562 775.594C579.212 778.68 582.265 781.327 585.344 783.969C589.96 787.93 594.759 791.674 599.656 795.281C603.621 798.202 607.708 800.97 611.875 803.594C616.187 806.309 620.561 808.815 625.312 810.688C635.18 814.575 645.697 816.051 655.938 818.594C670.935 822.318 686.164 825.709 701.625 826.688C711.223 827.295 720.738 826.726 730.281 825.625C736.243 824.937 742.223 823.943 747.938 822.062C750.399 821.252 752.787 820.265 755.156 819.219C757.565 818.155 759.92 816.941 762.406 816.062C764.323 815.386 766.386 815.046 768.375 814.656C771.334 814.076 774.296 813.608 777.281 813.188C773.978 816.462 769.894 819.032 765.906 821.281C759.482 824.905 752.786 827.949 745.656 829.875C731.931 833.583 717.55 833.791 703.438 834.375C694.419 834.748 685.431 835.07 676.438 834.062C672.825 833.658 669.307 832.693 665.719 832.125C660.681 831.328 655.531 831.061 650.438 830.906C638.42 830.541 626.417 831.464 614.406 831.625C603.578 831.77 592.711 831.266 581.969 829.875C580.652 829.705 579.3 829.562 578 829.281C575.883 828.824 573.84 828.065 571.75 827.5C568.08 826.508 564.402 825.436 560.688 824.625C556.998 823.819 553.249 823.344 549.469 823.344C548.285 823.344 547.144 823.458 545.969 823.531C539.713 823.92 533.656 825.432 528.812 829.656C527.051 831.193 525.511 832.989 524.312 835C522.168 838.598 521.171 842.398 521.188 846.219C521.204 850.04 522.239 853.876 524.125 857.531C524.375 858.017 524.681 858.507 524.969 859C525.145 859.809 525.317 860.625 525.469 861.438C526.057 864.595 526.562 867.744 527.281 870.875C528.937 879.597 536.519 885.691 545.062 885.812C546.283 885.83 547.535 885.736 548.781 885.5C558.749 883.608 565.298 873.999 563.406 864.031C563.348 863.61 563.33 863.174 563.281 862.75C564.677 863.144 566.071 863.566 567.469 863.938C570.108 864.64 572.765 865.124 575.469 865.5C587.297 867.144 599.281 867.838 611.219 867.844C618.435 867.847 625.634 867.502 632.844 867.25C641.476 866.949 650.142 866.791 658.75 867.625C662.366 867.975 665.909 868.999 669.5 869.531C673.457 870.118 677.475 870.398 681.469 870.594C691.489 871.085 701.472 870.329 711.469 869.719C725.24 868.878 739.032 867.67 752.406 864.094C761.191 861.745 769.541 858.329 777.562 854.062C792.716 846.004 808.08 835.229 813.844 818.281C817.241 808.292 817.7 796.533 810.781 787.875C809.452 786.212 807.908 784.721 806.188 783.469C804.262 782.067 802.14 780.976 799.906 780.156C796.689 778.976 793.259 778.398 789.844 778.25C783.928 777.994 777.991 778.877 772.156 779.75C765.75 780.709 759.211 781.828 753.031 783.812C749.906 784.816 746.927 786.15 743.969 787.562C741.733 788.63 739.516 789.768 737.188 790.625C734.635 791.564 731.92 792.115 729.25 792.594C720.65 794.136 711.898 795.034 703.156 794.781C689.619 794.389 676.305 791.614 663.156 788.562C658.268 787.428 653.344 786.454 648.438 785.406C644.406 784.545 640.353 783.615 636.5 782.125C633.028 780.782 629.86 778.788 626.719 776.812C622.613 774.231 618.633 771.506 614.688 768.688C611.156 766.164 607.678 763.536 604.25 760.875C602.289 759.353 600.223 757.86 598.5 756.062C596.192 753.655 594.347 750.855 592.594 748.031C590.238 744.236 588.243 740.275 586.906 736C582.146 720.782 584.707 704.462 586.625 689C587.594 681.189 588.472 673.393 588.906 665.531C589.59 653.133 586.575 640.943 583.406 629.062C581.976 623.699 580.618 618.301 579.312 612.906C578.28 608.638 577.257 604.376 576.156 600.125C575.023 595.747 573.696 591.418 572.594 587.031C571.042 580.857 569.609 574.633 568.281 568.406C567.548 564.967 567.291 561.448 566.812 557.969C566.256 553.924 565.51 549.874 564.094 546.031C563.158 543.493 561.908 541.101 560.469 538.812C558.433 535.577 556.067 532.607 554.281 529.219C553.44 527.623 553.219 525.36 552.969 523.625C552.546 520.694 552.272 517.71 551.5 514.844C551.096 513.344 550.549 511.89 550.094 510.406C549.968 509.995 549.881 509.574 549.781 509.156C549.808 508.987 549.848 508.825 549.875 508.656C549.923 508.358 549.964 508.05 550 507.75C550.081 507.067 550.222 506.375 550.219 505.688C550.214 504.601 550.171 503.505 549.969 502.438C549.789 501.489 549.436 500.578 549.062 499.688C548.79 499.038 548.428 498.446 548.062 497.844C546.854 495.854 544.789 494.338 542.781 493.25C541.574 492.595 540.244 492.195 539.062 491.5C537.981 490.874 536.822 490.49 535.656 490.344Z" fill="#000000" stroke="none"/>
</g>
<g opacity="1">
<path d="M361.281 830C358.124 830.083 354.956 830.4 351.812 830.688C348.603 830.981 345.403 831.301 342.219 831.812C335.324 832.92 328.789 835.171 322.188 837.375C317.331 838.997 312.456 840.65 307.562 842.156C303.57 843.385 299.54 844.486 295.531 845.656C293.739 846.179 291.992 846.831 290.25 847.5C289.691 847.715 289.145 847.94 288.562 848.094C285.775 848.828 282.831 848.954 279.969 849.062C276.982 849.176 273.979 849.243 271 849.5C268.419 849.722 265.851 850.119 263.281 850.438C261.44 850.666 259.576 850.875 257.719 850.719C254.158 850.419 250.731 849.01 247.438 847.719C243.578 846.205 239.72 844.708 235.781 843.406C231.046 841.809 225.91 844.359 224.312 849.094C222.715 853.829 225.265 858.965 230 860.562C231.153 860.959 232.327 861.324 233.469 861.75C239.827 864.123 245.897 867.185 252.594 868.562C256.166 869.297 259.774 869.383 263.406 869.188C266.761 869.007 270.106 868.525 273.469 868.5C277.791 868.468 282.086 869.069 286.406 869.156C289.836 869.226 293.243 868.951 296.656 868.656C298.108 868.531 299.027 868.473 300.469 868.25C305.109 867.531 309.633 866.193 314.156 864.969C321.307 863.033 328.545 861.094 335.875 859.969C337.434 859.729 338.988 859.506 340.562 859.406C345.128 859.116 349.75 859.558 354.312 859.719C356.022 859.779 357.729 859.787 359.438 859.875C363.821 860.102 368.214 860.616 372.531 861.406C378.442 862.489 384.272 864.031 390.062 865.625C394.839 866.94 399.612 868.211 404.312 869.781C414.654 873.235 424.769 877.286 434.781 881.594C439.096 883.45 443.363 885.43 447.594 887.469C454.274 890.688 460.905 893.955 467.906 896.438C472.631 898.113 477.463 899.259 482.469 899.688C485.373 899.936 488.28 899.95 491.188 900.125C492.809 900.223 494.462 900.372 496.031 900.812C497.328 901.177 498.547 901.934 499.75 902.531C501.747 903.524 503.782 904.446 505.875 905.219C507.093 905.668 508.347 906.078 509.594 906.438C510.013 906.558 510.424 906.663 510.844 906.781C510.908 906.799 510.967 906.825 511.031 906.844C511.419 907.081 512.085 907.539 512.406 907.75C513.637 908.557 514.863 909.367 516.125 910.125C519.491 912.145 523.162 913.702 527.031 914.438C531.026 915.196 535.25 915.067 539.25 914.375C542.592 913.797 545.857 912.744 548.812 911.062C553.267 908.528 556.651 904.744 559.344 900.438C562.975 894.631 565.166 888.11 565.469 881.25C565.596 878.377 565.397 875.46 564.906 872.625C564.625 871.004 564.281 869.427 563.969 867.812C563.505 865.414 563.055 863.046 562.406 860.688C562.203 859.948 562.023 859.185 561.75 858.469C560.993 856.487 559.791 854.573 558.719 852.75C556.859 849.588 554.636 846.687 552.406 843.781C547.032 835.176 535.699 832.563 527.094 837.938C518.489 843.312 515.876 854.645 521.25 863.25C522.544 865.872 523.789 868.525 525.062 871.156C525.543 872.148 525.915 873.291 526.469 874.25C525.453 873.763 524.448 873.283 523.375 872.906C521.715 872.323 519.963 872.03 518.312 871.438C515.48 870.419 512.801 868.967 509.969 867.938C505.655 866.369 501.167 865.484 496.594 865.156C494.005 864.971 491.407 864.98 488.812 865C486.285 865.02 483.799 865.067 481.312 864.594C479.737 864.294 478.155 863.679 476.656 863.125C474.475 862.318 472.341 861.42 470.219 860.469C464.763 858.024 459.386 855.425 453.906 853.031C440.709 847.266 427.053 842.824 413.094 839.312C406.834 837.738 400.521 836.339 394.25 834.812C386.181 832.849 378.081 830.929 369.781 830.25C366.961 830.019 364.111 829.926 361.281 830Z" fill="#000000" stroke="none"/>
</g>
<g opacity="1">
<path d="M380.656 422.812C375.782 422.7 371.284 426.079 370.125 430.844C369.873 431.879 369.761 432.91 369.781 433.938C369.801 434.965 369.931 436.001 370.156 437.031C370.428 438.272 370.887 439.474 371.344 440.656C371.906 442.111 372.514 443.56 373.312 444.906C373.311 445.659 373.202 446.391 373.375 447.156C374.583 452.51 379.777 455.836 385.125 454.906C385.076 454.976 385.141 454.876 385 455.094C384.821 455.371 384.355 455.189 384.031 455.25C383.887 455.277 383.732 455.295 383.594 455.344C383.551 455.359 383.483 455.396 383.5 455.438C383.613 455.718 384.074 455.562 384.375 455.594C384.591 455.616 384.815 455.684 385.031 455.656C386.223 455.504 387.41 455.264 388.594 455.062C389.938 454.833 391.598 453.659 392.562 452.75C393.186 452.163 393.75 451.498 394.219 450.781C395.072 449.476 396.075 447.284 395.875 445.719C395.666 444.086 395.649 442.409 395.25 440.812C395.151 440.416 394.643 440.239 394.406 439.906C394.099 439.475 393.897 438.985 393.625 438.531C393.139 437.72 392.54 437.016 391.969 436.281C391.919 435.963 391.838 435.66 391.781 435.344C391.761 434.986 391.707 434.636 391.656 434.281C391.536 433.445 391.372 432.62 391.125 431.812C389.658 427.007 386.001 422.936 380.656 422.812ZM386.125 431.438C386.306 431.323 386.459 431.736 386.531 431.938C386.597 432.121 386.654 432.308 386.688 432.5C386.735 432.778 386.788 433.062 386.781 433.344C386.78 433.377 386.751 433.404 386.75 433.438C386.573 433.045 386.448 432.629 386.281 432.219C386.181 431.971 385.899 431.581 386.125 431.438ZM385.031 434.125C385.078 434.118 384.868 434.159 384.906 434.188C384.983 434.244 385.196 434.124 385.188 434.219C385.178 434.316 384.972 434.268 384.875 434.281C384.69 434.307 384.529 434.323 384.344 434.344C384.055 434.376 383.757 434.401 383.469 434.438C383.04 434.492 383.139 434.507 381.281 434.875C381.274 434.863 381.257 434.856 381.25 434.844C381.329 434.814 381.389 434.747 381.469 434.719C382.653 434.517 383.845 434.311 385.031 434.125ZM373.25 437.812C373.289 437.808 373.495 438.241 373.5 438.25C373.467 438.194 373.407 438.15 373.375 438.094C373.323 438.002 373.145 437.825 373.25 437.812ZM375.281 447.594C375.433 447.774 375.553 447.958 375.719 448.156C375.728 448.168 375.741 448.176 375.75 448.188C375.604 448.212 375.404 448.477 375.375 448.344C375.321 448.098 375.323 447.841 375.281 447.594Z" fill="#000000" stroke="none"/>
</g>
<g opacity="1">
<path d="M384.125 436.938C378.477 436.527 373.567 440.759 373.156 446.406C372.89 447.333 372.657 448.333 372.625 449.312C372.315 449.407 372.005 449.499 371.688 449.562C370.13 449.875 368.55 449.843 366.969 449.875C366.444 449.886 365.931 449.889 365.406 449.906C364.775 449.927 364.131 449.959 363.5 450C362.897 450.04 362.288 450.091 361.688 450.156C360.058 450.333 358.451 450.625 356.812 450.719C355.073 450.818 353.331 450.61 351.594 450.656C350.529 450.684 349.464 450.82 348.406 450.938C347.81 451.004 347.258 451.058 346.656 450.938C345.571 450.719 344.87 450.004 343.875 449.719C342.781 449.405 342.114 449.235 341.25 448.406C339.726 446.945 338.75 444.998 337.844 443.125C336.681 440.59 333.692 439.463 331.156 440.625C329.255 441.497 328.16 443.408 328.219 445.375C328.238 446.031 328.366 446.679 328.656 447.312C330.097 450.614 331.924 453.667 333.875 456.688C334.611 457.827 335.191 459.1 336.156 460.062C337.736 461.638 339.81 462.781 341.719 463.906C344.159 465.344 346.65 466.705 349.438 467.344C352.333 468.007 355.37 467.894 358.312 468.188C362.312 468.586 366.257 468.889 370.281 468.906C372.107 468.914 373.965 468.92 375.781 468.719C381.839 468.048 387.478 465.071 390.781 459.812C391.165 459.202 391.543 458.561 391.844 457.906C392.232 457.062 392.591 456.207 392.844 455.312C393.092 454.433 393.167 453.522 393.344 452.625C393.468 451.997 393.595 451.371 393.75 450.75C393.946 449.964 394.22 449.459 394.031 448.656C393.953 448.323 393.741 448.209 393.594 447.906C394.004 442.258 389.773 437.348 384.125 436.938Z" fill="#000000" stroke="none"/>
</g>
<g opacity="1">
<path d="M388.062 442.031C386.731 442.004 385.377 442.256 384.062 442.781C380.118 444.356 377.706 448.099 377.625 452.094C377.598 453.425 377.819 454.779 378.344 456.094C378.41 456.623 378.415 457.167 378.531 457.688C378.651 458.223 378.774 458.783 379.062 459.25C379.388 459.777 379.998 460.08 380.344 460.594C380.681 461.095 380.812 461.7 381.062 462.25C381.326 462.829 381.594 463.398 381.875 463.969C383.607 467.492 385.712 470.919 388.531 473.688C391.249 476.357 394.542 478.277 398 479.812C401.264 481.262 404.728 482.357 408.25 482.969C410.299 483.325 412.395 483.488 414.469 483.625C418.835 483.913 423.389 484.037 427.594 482.656C430.641 481.656 433.329 479.899 436.031 478.219C437.538 477.282 439.238 476.381 440.562 475.188C441.894 473.987 442.948 472.416 444.156 471.094C446.531 468.495 448.857 465.915 450.969 463.094C452.675 460.888 452.269 457.706 450.062 456C447.856 454.294 444.675 454.7 442.969 456.906C441.208 459.102 439.363 461.334 436.969 462.875C435.779 463.64 434.526 463.866 433.25 464.406C431.729 465.05 430.474 465.957 428.812 466.281C427.305 466.576 425.713 466.485 424.188 466.5C422.535 466.517 420.869 466.741 419.219 466.594C416.894 466.386 414.677 465.506 412.469 464.812C409.547 463.896 406.224 463.098 403.938 460.906C402.259 459.297 401.008 457.12 400 455.062C399.81 454.675 399.646 454.299 399.469 453.906C399.28 453.489 398.983 453.076 398.906 452.625C398.818 452.106 399.073 451.578 398.969 451.062C398.871 450.58 398.572 450.169 398.312 449.75C398.039 449.308 397.718 448.917 397.406 448.5C395.832 444.556 392.057 442.112 388.062 442.031Z" fill="#000000" stroke="none"/>
</g>
<g opacity="1">
<path d="M599.125 394.75C596.452 394.898 593.788 395.268 591.156 395.75C586.774 396.553 582.455 397.791 578 398.156C577.595 398.189 577.185 397.979 576.781 397.938C576.521 397.911 575.745 397.855 575.531 397.844C574.1 397.766 572.638 397.808 571.219 398.031C569.495 398.302 567.874 398.777 566.219 399.312C565.74 399.467 565.264 399.638 564.781 399.781C564.684 399.81 564.598 399.817 564.5 399.844C564.439 399.86 564.258 399.874 564.312 399.906C564.16 399.927 563.997 399.929 563.844 399.938C562.465 400.012 561.068 399.896 559.688 399.969C557.691 400.074 555.544 400.353 553.625 400.906C552.763 401.155 551.895 401.409 551.094 401.812C550.293 402.216 549.577 402.723 548.875 403.281C548.4 403.659 548.013 404.155 547.594 404.594C547.217 404.987 546.923 405.311 546.625 405.75C546.395 406.088 546.317 406.443 546.125 406.781C541.923 410.578 541.579 417.048 545.375 421.25C547.273 423.351 549.848 424.492 552.469 424.625C555.089 424.758 557.743 423.898 559.844 422C560.491 421.537 561.101 421.031 561.719 420.531C561.882 420.399 562.054 420.256 562.219 420.125C562.491 420.13 562.759 420.158 563.031 420.156C565.25 420.145 567.41 419.961 569.562 419.406C570.883 419.066 572.174 418.61 573.469 418.188C573.758 418.093 574.05 418.017 574.344 417.938C575.758 417.856 577.202 418.091 578.625 418C580.691 417.868 582.682 417.391 584.688 416.906C589.02 415.859 593.308 414.518 597.719 413.812C600.892 413.305 604.17 413.062 607.375 412.844C609.74 412.682 612.098 412.603 614.469 412.625C618.293 412.661 622.13 412.888 625.938 412.406C629.329 411.977 632.635 411.168 636 410.594C637.485 410.34 638.975 410.1 640.469 409.906C641.917 409.718 643.423 409.639 644.844 409.281C645.801 409.041 646.734 408.629 647.688 408.375C649.091 408.001 650.535 407.755 651.969 407.531C656.252 406.863 660.583 406.744 664.906 406.594C667.695 406.528 669.878 404.195 669.812 401.406C669.747 398.618 667.445 396.403 664.656 396.469C662.629 396.494 660.589 396.498 658.562 396.562C655.063 396.674 651.565 396.929 648.062 396.844C646.553 396.807 645.093 396.542 643.594 396.469C642.149 396.399 640.658 396.633 639.219 396.719C637.291 396.833 635.335 396.878 633.406 396.781C630.036 396.612 626.707 396.091 623.344 395.812C619.33 395.481 615.27 395.483 611.25 395.219C607.218 394.953 603.171 394.526 599.125 394.75Z" fill="#000000" stroke="none"/>
</g>
<g opacity="1">
<path d="M573.281 429.125C569.88 429.024 566.453 429.038 563.031 429.312C561.579 429.429 560.131 429.584 558.688 429.781C558.197 429.848 557.714 429.989 557.219 430C556.178 430.024 555.157 429.733 554.125 429.875C552.626 430.081 551.112 430.825 549.75 431.438C544.271 432.868 540.975 438.49 542.406 443.969C543.837 449.448 549.459 452.712 554.938 451.281C556.002 451.222 557.341 451.336 558.375 451.031C559.097 450.819 559.634 450.22 560.344 449.969C561.024 449.728 561.783 449.771 562.5 449.688C568.776 448.954 575.162 449.194 581.469 449.156C583.707 449.143 585.95 449.066 588.188 449.125C589.636 449.163 591.114 449.194 592.531 449.531C594.08 449.9 595.6 450.521 597.094 451.062C600.069 452.142 602.979 453.369 605.812 454.781C608.969 456.355 612.018 458.207 615.281 459.562C617.735 460.582 620.401 461.422 623 461.969C625.926 462.584 628.961 462.899 631.938 463.156C633.285 463.273 634.647 463.425 636 463.438C637.299 463.45 638.58 463.232 639.875 463.125C641.079 463.026 642.294 463.017 643.5 463.094C647.7 463.36 651.796 464.622 655.875 465.562C658.585 466.221 661.311 464.554 661.969 461.844C662.627 459.133 660.96 456.377 658.25 455.719C655.177 454.934 652.142 454.105 649.062 453.344C646.408 452.687 643.666 452.266 641.031 451.531C640.387 451.352 639.769 451.086 639.125 450.906C636.043 450.046 632.799 450.086 629.812 448.844C628.359 448.239 627.146 447.327 625.844 446.469C624.527 445.601 623.164 444.783 621.812 443.969C618.899 442.212 615.896 440.642 612.969 438.906C609.756 437.001 606.592 434.994 603.188 433.438C600.385 432.156 597.477 431.127 594.438 430.594C590.823 429.959 587.15 430 583.5 429.719C580.087 429.456 576.683 429.226 573.281 429.125Z" fill="#000000" stroke="none"/>
</g>
<g opacity="1">
<path d="M565.594 1101.91C561.677 1102.69 558.413 1105.75 557.562 1109.91C557.153 1111.01 556.722 1112.12 556.406 1113.25C556.245 1113.83 556.052 1114.4 556 1115C555.947 1115.61 556.079 1116.2 556.094 1116.81C556.108 1117.42 556.115 1118.02 556.062 1118.62C555.959 1119.8 555.703 1120.96 555.531 1122.12C554.763 1127.36 554.165 1132.62 553.812 1137.91C553.541 1141.97 553.522 1146.06 553.469 1150.12C553.394 1155.87 553.171 1161.63 553.25 1167.38C553.313 1171.91 553.629 1176.46 553.688 1181C553.757 1186.41 553.381 1191.82 553.906 1197.22C554.246 1200.71 554.962 1204.15 555.469 1207.62C555.755 1209.59 555.995 1211.56 556.25 1213.53C556.401 1214.7 556.568 1216.26 556.844 1217.41C557.147 1218.67 557.643 1219.88 558 1221.12C558.343 1222.33 558.642 1223.65 558.906 1224.88C560.041 1230.12 560.858 1235.42 561.688 1240.72C562.092 1243.48 564.647 1245.4 567.406 1245C570.166 1244.6 572.092 1242.04 571.688 1239.28C570.964 1233.98 570.065 1228.65 569.656 1223.31C569.56 1222.06 569.484 1220.82 569.5 1219.56C569.516 1218.31 569.694 1217.06 569.688 1215.81C569.682 1214.7 569.49 1213.26 569.406 1212.16C569.268 1210.34 569.191 1208.51 569.219 1206.69C569.257 1204.17 569.584 1201.69 569.875 1199.19C570.236 1196.09 570.556 1192.99 570.688 1189.88C570.832 1186.46 570.919 1183.04 571.125 1179.62C571.364 1175.66 571.727 1171.71 571.938 1167.75C572.204 1162.73 572.29 1157.67 572.625 1152.66C572.99 1147.19 573.6 1141.73 574.156 1136.28C574.539 1132.53 574.984 1128.79 575.531 1125.06C575.687 1124 575.741 1122.95 576 1121.91C576.13 1121.38 576.326 1120.87 576.531 1120.38C576.741 1119.87 577.094 1119.4 577.25 1118.88C577.4 1118.37 577.385 1117.84 577.438 1117.31C577.547 1116.22 577.605 1115.1 577.656 1114C578.79 1108.45 575.204 1103.04 569.656 1101.91C568.269 1101.62 566.899 1101.64 565.594 1101.91Z" fill="#000000" stroke="none"/>
</g>
<g opacity="1">
<path d="M222.562 365.188C220.11 365.069 217.723 365.31 215.375 366.031C211.469 367.231 207.887 369.342 204.25 371.156C202.323 372.118 200.337 372.848 198.375 373.719C197.683 374.026 197.054 374.446 196.375 374.781C195.665 375.133 194.858 375.364 194.094 375.562C191.287 376.292 188.322 376.362 185.438 376.375C182.234 376.389 179.048 376.249 175.844 376.25C173.055 376.225 170.775 378.461 170.75 381.25C170.725 384.039 172.961 386.319 175.75 386.344C182.374 386.467 188.966 387.02 195.594 386.719C197.134 386.649 198.72 386.57 200.25 386.375C205.256 385.735 209.578 383.098 214.438 381.938C215.959 381.574 217.613 381.323 219.188 381.375C220.061 381.404 220.946 381.761 221.781 381.969C223.147 382.309 224.536 382.574 225.938 382.719C227.544 382.884 229.138 382.894 230.75 382.844C232.623 382.786 234.327 382.69 236.156 383.125C238.889 383.774 241.402 385.101 243.812 386.5C248.041 388.954 252.057 391.748 256.312 394.156C264.443 398.756 273.29 402.433 282.469 404.281C285.404 404.872 288.389 405.306 291.375 405.531C292.596 405.623 293.814 405.579 295.031 405.719C296.305 405.864 297.532 406.344 298.812 406.406C299.454 406.437 300.081 406.326 300.719 406.25C301.995 406.097 303.277 405.812 304.531 405.531C310.176 405.076 314.362 400.144 313.906 394.5C313.451 388.856 308.519 384.638 302.875 385.094C301.835 385.011 300.792 384.93 299.75 384.875C299.272 384.85 298.787 384.756 298.312 384.812C297.369 384.925 296.508 385.41 295.562 385.5C294.672 385.585 293.767 385.442 292.875 385.375C287.507 384.972 282.362 383.621 277.25 382C274.395 381.095 271.516 380.12 268.75 378.969C263.461 376.768 258.836 373.256 253.75 370.656C248.325 367.883 242.375 366.034 236.281 365.594C233.449 365.389 230.612 365.773 227.781 365.75C226.034 365.736 224.31 365.272 222.562 365.188Z" fill="#000000" stroke="none"/>
</g>
<g opacity="1">
<path d="M244.844 398.219C242.371 398.054 239.868 398.072 237.375 398.344C232.319 398.895 227.46 400.437 222.719 402.219C220.108 403.2 217.527 404.254 215 405.438C212 406.842 209.159 408.616 206.094 409.875C203.787 410.822 201.376 411.433 198.938 411.938C197.574 412.22 196.135 412.427 194.812 412.875C194.009 413.147 193.02 413.682 192.25 414.031C191.39 414.421 190.498 414.79 189.656 415.219C187.664 416.235 185.816 417.49 184.219 419.062C180.628 422.596 178.702 427.529 177.156 432.219C176.931 432.879 176.828 433.564 176.875 434.219C177.016 436.182 178.301 437.981 180.281 438.656C180.941 438.881 181.627 438.953 182.281 438.906C184.244 438.765 186.044 437.48 186.719 435.5C187.743 432.6 188.97 428.789 191.469 426.781C193.553 425.106 196.169 425.691 198.625 425.375C201.428 425.014 204.227 424.548 207.031 424.188C209.495 423.871 211.972 423.599 214.406 423.094C217.228 422.508 219.992 421.637 222.688 420.625C226.069 419.355 229.389 417.887 232.969 417.25C238.917 416.192 245.252 416.933 251.031 418.531C253.282 419.154 255.467 419.975 257.656 420.781C261.125 422.058 264.576 423.333 268.125 424.375C269.362 424.738 270.609 425.131 271.875 425.375C273.505 425.689 275.183 425.752 276.844 425.75C276.918 425.862 276.987 425.982 277.062 426.094C277.818 427.215 278.658 428.246 279.562 429.25C282.828 433.877 289.217 434.984 293.844 431.719C298.47 428.454 299.578 422.064 296.312 417.438C296.15 417.011 296.098 416.582 295.938 416.156C295.655 415.405 295.248 414.543 294.812 413.875C293.778 412.287 292.175 411.057 290.75 409.844C288.64 408.047 286.398 406.655 283.688 406C282.202 405.641 280.681 405.538 279.156 405.531C278.149 405.527 277.131 405.651 276.125 405.625C275.745 405.615 275.398 405.412 275.031 405.312C274.131 405.068 273.24 404.822 272.344 404.562C270.456 404.016 268.578 403.444 266.688 402.906C259.571 400.882 252.261 398.713 244.844 398.219Z" fill="#000000" stroke="none"/>
</g>
<g opacity="1">
<path d="M354.906 381.781C352.832 381.762 350.766 382.299 348.875 383.125C348.274 383.388 347.713 383.777 347.125 384.094C344.203 384.989 341.838 387.087 339.875 389.406C338.908 390.549 337.991 391.681 337.219 392.969C336.211 394.649 335.462 396.481 334.781 398.312C333.013 403.068 332.009 408.183 331.5 413.219C331.385 414.354 331.385 415.496 331.281 416.625C331.178 417.746 331.029 418.84 331.031 419.969C331.035 422.383 331.649 424.702 332.969 426.656C333.047 426.836 333.062 427.046 333.156 427.219C333.664 428.15 334.248 429.067 335.031 429.781C335.971 430.639 337.074 431.358 338.25 431.844C339.386 432.313 340.616 432.501 341.844 432.562C342.821 432.612 343.797 432.411 344.75 432.188C345.387 432.038 346.002 431.749 346.594 431.469C347.056 431.25 347.484 430.977 347.906 430.688C348.668 430.166 349.34 429.543 349.938 428.875C351.091 427.863 352.088 426.662 352.781 425.25C353.44 423.908 353.804 422.472 354.281 421.062C354.429 420.625 354.521 420.186 354.656 419.75C355.833 418.192 356.719 416.408 356.844 414.312C357.093 412.917 356.29 413.56 357.094 412.906C357.434 412.63 357.29 412.055 357.375 411.625C357.457 411.211 357.516 410.821 357.594 410.406C357.735 409.654 357.943 408.89 357.969 408.125C357.992 407.428 357.771 406.724 357.844 406.031C357.923 405.279 358.381 404.49 358.812 403.812C359.885 403.272 360.988 402.79 361.938 402.031C364.871 399.688 366.623 396.172 366.375 392.375C366.322 391.57 366.181 390.778 365.969 390C364.625 385.082 359.891 381.828 354.906 381.781Z" fill="#000000" stroke="none"/>
</g>
<g opacity="1">
<path d="M351.25 383.406C350.128 383.425 348.992 383.741 347.938 384.125C347.009 384.463 346.162 385.01 345.344 385.562C343.919 386.525 342.84 387.958 341.906 389.375C341.169 390.493 340.557 391.675 339.906 392.844C338.557 395.264 337.303 397.652 336.562 400.344C336.176 401.747 335.862 403.189 335.625 404.625C335.511 405.317 335.473 405.998 335.344 406.688C335.099 407.992 334.567 409.254 334.344 410.562C334.147 411.712 334.184 412.897 334.219 414.062C334.235 414.588 334.212 414.035 334.406 417.188C333.971 422.833 338.198 427.784 343.844 428.219C347.776 428.522 351.258 426.467 353.219 423.344C355.229 422.281 356.854 420.503 358.062 418.594C358.932 417.219 359.785 415.718 360.344 414.188C361.221 411.784 361.501 409.131 361.844 406.594C361.976 406.281 362.112 405.95 362.281 405.656C362.825 404.71 363.482 403.83 364.062 402.906C365.681 400.327 366.957 397.405 366.625 394.281C366.554 393.61 366.443 392.928 366.25 392.281C366.043 391.588 365.782 390.918 365.438 390.281C365.08 389.621 364.646 388.976 364.156 388.406C363.669 387.839 363.09 387.335 362.5 386.875C361.583 386.159 360.212 385.448 359.094 385.125C358.325 384.903 357.579 384.998 356.844 384.938C356.308 384.624 355.833 384.201 355.25 384C353.977 383.56 352.597 383.384 351.25 383.406Z" fill="#000000" stroke="none"/>
</g>
<g opacity="1">
<path d="M451.531 390.406C449.315 390.137 447.014 390.584 444.844 391.75C443.87 392.274 442.748 393.211 441.969 394.031C439.284 396.854 438.097 400.568 437.969 404.406C437.896 406.577 438.267 408.7 438.531 410.844C438.688 412.118 438.673 413.407 438.75 414.688C438.839 416.164 438.956 417.663 439.188 419.125C440.049 424.573 442.183 429.543 446 433.562C447.817 435.476 449.93 436.915 452.5 437.625C453.444 437.886 454.365 438.025 455.312 438.031C456.26 438.038 457.235 437.913 458.188 437.656C462.585 436.471 465.483 433.043 466.625 428.75C466.886 427.77 467.072 426.59 466.938 425.562C466.927 425.486 466.814 425.649 466.781 425.719C466.743 425.8 466.723 425.887 466.688 425.969C466.627 426.107 466.681 425.963 466.406 426.531C467.494 423.991 467.439 421.27 466.531 418.875C467.473 417.131 467.956 415.177 467.906 413.125C467.878 411.945 467.713 410.736 467.438 409.562C466.989 407.651 466.252 405.797 465.469 404C464.28 401.274 462.6 398.667 460.375 396.781C459.665 395.508 458.844 394.292 457.719 393.281C455.897 391.645 453.747 390.675 451.531 390.406ZM446.281 422.125C446.21 422.395 446.143 422.67 446.062 422.938C446.017 423.09 445.99 423.225 445.938 423.375C445.92 423.426 445.891 423.583 445.875 423.531C445.761 423.156 446.014 422.771 446.156 422.406C446.193 422.312 446.243 422.22 446.281 422.125Z" fill="#000000" stroke="none"/>
</g>
<g opacity="1">
<path d="M456.094 390.562C452.39 390.973 448.993 393.133 447.031 396.438C445.702 398.675 445.309 401.043 444.969 403.562C444.929 403.856 444.911 404.158 444.812 404.438C444.664 404.859 444.225 405.152 444.156 405.594C444.093 406.001 444.09 406.437 444.156 406.844C444.402 408.354 444.457 409.939 445.062 411.344C445.658 412.727 446.672 413.918 447.688 415.031C448.293 415.695 449.104 416.133 449.875 416.594C450.369 416.889 450.898 417.079 451.438 417.281C451.673 417.369 452.205 417.487 452.562 417.562C452.559 418.063 452.503 418.562 452.531 419.062C452.598 420.244 452.753 421.425 452.938 422.594C452.968 422.789 453.074 422.877 453.094 423.094C453.234 424.659 453.068 426.22 453.312 427.781C453.895 431.496 455.976 434.82 459.594 436.219C460.202 436.454 460.858 436.633 461.5 436.75C462.53 436.937 463.981 436.938 465 436.719C466.469 436.403 467.891 435.753 469.062 434.812C470.176 433.918 471.07 432.725 471.688 431.438C472.344 430.068 472.609 428.551 472.531 427.062C472.453 425.574 472.05 424.115 471.406 422.781C471.29 422.541 470.943 421.938 470.75 421.656C470.805 420.968 470.817 420.283 470.938 419.594C471.247 417.818 471.443 416.014 471.594 414.219C471.725 412.665 471.769 411.121 471.719 409.562C471.481 402.152 468.01 392.538 459.844 390.781C458.585 390.51 457.328 390.426 456.094 390.562ZM459.312 398.031C459.417 397.888 459.644 398.071 459.812 398.125C460.146 398.233 460.512 398.321 460.812 398.5C461.404 398.852 462.043 399.173 462.5 399.688C462.585 399.783 462.635 399.904 462.719 400C461.72 399.187 460.557 398.525 459.25 398.125C459.295 398.043 458.768 398.775 459.312 398.031ZM456.094 425.156C456.11 425.622 456.11 426.098 456.094 426.562C456.086 426.783 456.118 427.861 455.906 427.438C455.635 426.895 455.824 425.994 455.969 425.469C455.998 425.363 456.062 425.262 456.094 425.156Z" fill="#000000" stroke="none"/>
</g>
<g opacity="1">
<path d="M465.781 410.156C463.007 409.868 460.538 411.882 460.25 414.656C461.341 417.261 462.041 418.34 461.344 417.281C460.979 416.728 460.721 415.932 460.094 415.719C459.755 415.603 459.984 416.432 459.906 416.781C459.897 416.823 459.884 416.864 459.875 416.906C456.711 414.376 452.22 413.865 448.469 415.969C443.53 418.739 441.761 424.967 444.531 429.906C444.465 429.974 444.411 430.058 444.344 430.125C444.507 430.092 444.673 430.052 444.812 430.125C444.957 430.201 444.911 430.41 444.969 430.562C445.17 431.098 445.362 431.596 445.594 432.125C446.204 433.523 446.925 434.877 447.938 436.031C448.425 436.586 448.953 437.135 449.531 437.594C451.718 439.328 454.283 440.158 456.906 440.25C459.53 440.342 462.207 439.681 464.594 438.406C466.911 437.168 468.535 435.384 469.969 433.219C470.839 431.904 471.571 430.568 472.062 429.062C472.405 428.015 472.681 426.861 472.594 425.75C472.533 424.976 472.268 424.254 471.875 423.594C471.708 423.313 471.478 423.079 471.344 422.781C471.138 422.324 471.333 421.769 471.219 421.281C471.02 420.435 470.484 419.696 470.312 418.844C470.109 417.833 470.226 416.737 470.281 415.719C470.569 412.945 468.555 410.444 465.781 410.156ZM444.344 430.125C444.278 430.138 444.218 430.115 444.156 430.125C444.114 430.132 444.212 430.24 444.25 430.219C444.288 430.197 444.313 430.156 444.344 430.125ZM457.719 421.062C457.708 421.093 457.7 421.126 457.688 421.156C457.402 421.866 457.035 422.463 456.562 423.062C456.433 423.226 456.062 423.776 455.812 423.844C455.722 423.868 455.787 423.653 455.812 423.562C455.849 423.436 455.889 423.31 455.938 423.188C456.079 422.829 456.305 422.496 456.406 422.125C456.49 421.817 455.917 421.786 456.031 421.562C456.131 421.368 456.463 421.262 456.625 421.188C456.934 421.046 457.337 421.126 457.719 421.062Z" fill="#000000" stroke="none"/>
</g>
<g opacity="1">
<path d="M784.75 247.656C780.755 247.708 776.979 250.099 775.375 254.031C774.84 255.342 774.608 256.699 774.625 258.031C774.676 262.027 777.068 265.802 781 267.406C781.882 268.055 782.673 268.772 783.781 269.031C784.323 269.158 784.927 268.996 785.469 269.125C785.973 269.245 786.406 269.562 786.875 269.781C789.642 271.076 792.337 272.5 795.031 273.938C796.808 274.885 798.59 275.79 800.344 276.781C803.411 278.515 806.228 280.662 809.125 282.656C811.229 284.104 813.413 285.407 815.438 286.969C817.492 288.553 819.304 290.439 821.375 292C823.533 293.626 825.979 294.849 828.094 296.531C829.376 297.551 830.438 298.797 831.688 299.844C832.995 300.94 834.542 301.669 835.844 302.781C838.425 304.988 840.622 307.628 842.875 310.156C844.697 312.268 847.888 312.478 850 310.656C851.056 309.745 851.655 308.508 851.75 307.219C851.845 305.93 851.442 304.587 850.531 303.531C848.308 300.869 845.955 298.286 843.969 295.438C842.956 293.984 842.298 292.332 841.25 290.906C840.235 289.525 839.007 288.306 837.969 286.938C836.215 284.626 834.822 282.063 832.938 279.844C831.089 277.667 828.865 275.851 826.812 273.875C824.743 271.883 822.769 269.755 820.594 267.875C817.961 265.599 815.13 263.63 812.312 261.594C810.892 260.567 809.471 259.5 808.031 258.5C805.07 256.444 801.936 254.683 798.719 253.062C797.607 252.503 796.566 251.997 795.438 251.469C794.882 251.209 794.261 251.057 793.75 250.719C793.209 250.361 792.862 249.752 792.312 249.406C791.266 248.749 789.969 248.605 788.75 248.406C787.439 247.872 786.082 247.639 784.75 247.656Z" fill="#000000" stroke="none"/>
</g>
<g opacity="1">
<path d="M786.156 260.531C780.494 260.531 775.906 265.119 775.906 270.781C775.708 273.063 775.516 275.335 775.438 277.625C775.414 278.323 775.349 279.645 775.406 280.344C775.52 281.721 775.91 283.093 776.031 284.469C776.19 286.27 776.063 288.13 776.062 289.938C776.062 292.461 776.091 294.98 776.219 297.5C776.307 299.231 776.435 300.986 776.312 302.719C776.224 303.974 775.989 305.219 775.844 306.469C775.738 307.382 775.678 308.31 775.531 309.219C775.507 309.367 775.487 309.436 775.469 309.531C774.776 309.899 774.045 310.253 773.312 310.531C769.583 311.95 765.601 312.538 761.75 313.531C760.082 313.961 758.408 314.432 756.781 315C755.607 315.41 754.459 315.944 753.281 316.344C751.035 317.106 748.77 317.746 746.625 318.781C741.082 321.457 737.298 326.603 738.125 333C739.054 340.187 744.844 343.904 750.969 346.375C753.405 347.358 755.829 348.447 758.344 349.219C761.436 350.168 764.597 350.744 767.781 351.281C769.345 351.545 770.894 351.834 772.469 352.031C775.796 352.449 779.159 352.469 782.5 352.688C784.144 352.795 785.809 352.915 787.406 353.344C788.04 353.514 788.603 353.778 789.188 354.031C789.222 354.119 789.275 354.204 789.281 354.219C789.411 354.54 789.509 354.819 789.625 355.188C789.709 355.453 789.801 355.731 789.875 356C790.533 358.39 791.212 360.817 791.688 363.25C793.426 372.149 792.642 381.725 796.906 390C797.831 391.795 798.907 393.675 800.5 394.969C805.53 399.052 811.821 396.045 815.688 391.906C816.894 390.615 817.914 389.183 819.062 387.844C820.339 386.355 821.686 384.918 822.938 383.406C824.924 381.007 826.803 378.508 828.562 375.938C832.728 369.851 836.431 363.453 840.562 357.344C842.138 355.042 841.552 351.919 839.25 350.344C836.948 348.769 833.794 349.355 832.219 351.656C829.96 354.918 827.812 358.231 825.656 361.562C822.863 365.879 820.016 370.24 816.594 374.094C814.226 376.76 811.469 379.1 808.656 381.281C808.492 381.409 808.323 381.532 808.156 381.656C807.045 377.019 807.694 372.006 807.844 367.312C807.925 364.768 807.908 362.221 807.625 359.688C807.468 358.284 807.178 356.921 806.938 355.531C806.419 352.532 805.893 349.507 804.625 346.719C803.917 345.162 803.009 343.692 801.875 342.406C800.163 340.466 797.981 339.122 795.625 338.094C790.121 335.691 784.101 335.512 778.219 334.906C775.494 334.626 772.844 333.921 770.188 333.281C769.015 332.999 767.866 332.678 766.719 332.344C774.424 330.728 782.738 329.782 789.062 324.625C793.535 320.978 795.1 315.449 795.781 309.938C796.136 307.066 796.554 304.213 796.562 301.312C796.57 299.018 796.401 296.729 796.312 294.438C796.202 291.575 796.218 288.707 796.25 285.844C796.271 283.977 796.786 282.192 796.938 280.344C796.995 279.644 796.899 278.323 796.875 277.625C796.797 275.335 796.604 273.063 796.406 270.781C796.406 265.119 791.819 260.531 786.156 260.531Z" fill="#000000" stroke="none"/>
</g>
<g opacity="1">
<path d="M878.156 339.219C875.397 339.625 873.5 342.178 873.906 344.938C874.303 347.953 874.761 350.966 875 354C875.118 355.493 875.216 357.038 875.031 358.531C874.968 359.042 874.793 359.518 874.75 360.031C874.663 361.063 874.802 362.126 874.906 363.156C875.053 364.605 875.305 366.035 875.531 367.469C875.519 367.461 875.513 367.445 875.5 367.438C874.285 366.723 873.012 366.125 871.781 365.438C868.382 363.54 865.376 361.194 862.312 358.812C859.37 356.525 856.371 354.321 853.406 352.062C853.019 351.767 852.603 351.492 852.25 351.156C851.519 350.462 851.054 349.522 850.281 348.875C849.658 348.354 848.357 347.842 847.625 347.531C843.067 344.171 836.642 345.161 833.281 349.719C829.921 354.277 830.911 360.702 835.469 364.062C836.082 364.788 836.612 365.605 837.406 366.125C838.205 366.648 839.21 366.796 840.031 367.281C840.848 367.764 841.558 368.425 842.312 369C843.468 369.881 844.619 370.753 845.781 371.625C848.205 373.442 850.665 375.17 853.25 376.75C855.485 378.116 857.777 379.408 860.062 380.688C862.125 381.842 864.256 382.835 866.375 383.875C870.596 385.948 875.071 388.593 879.781 388.719C881.351 388.761 882.945 388.537 884.562 387.906C885.141 387.68 885.713 387.407 886.25 387.094C886.809 386.768 887.343 386.378 887.844 385.969C888.716 385.255 889.544 384.333 890.188 383.406C890.844 382.461 891.335 381.508 891.75 380.438C893.279 376.487 892.812 372.21 891.125 368.406C890.224 366.374 888.932 364.485 888.281 362.344C887.889 361.052 887.933 359.685 887.5 358.406C887.324 357.887 887.017 357.415 886.812 356.906C886.423 355.936 886.138 354.918 885.875 353.906C884.983 350.477 884.474 346.961 883.906 343.469C883.5 340.709 880.916 338.813 878.156 339.219ZM875.906 374.406C875.88 374.5 875.89 374.615 875.844 374.688C875.833 374.704 875.798 374.73 875.781 374.719C875.735 374.687 875.878 374.526 875.906 374.406Z" fill="#000000" stroke="none"/>
</g>
<g opacity="1">
<path d="M888.75 283.562C885.846 283.817 883.064 284.806 880.375 285.969C878.681 286.701 877.01 287.583 875.25 288.156C873.926 288.587 872.428 288.672 871.062 288.906C868.876 289.281 866.717 289.72 864.562 290.25C862.114 290.853 859.68 291.512 857.25 292.188C856.553 292.381 855.852 292.583 855.156 292.781C854.818 292.877 854.506 293.029 854.156 293.062C853.387 293.135 852.601 292.878 851.844 293.031C850.849 293.233 849.805 293.946 848.938 294.438C843.507 296.042 840.426 301.757 842.031 307.188C843.636 312.618 849.319 315.698 854.75 314.094C855.742 314.035 856.997 314.093 857.938 313.719C858.593 313.457 859.058 312.82 859.688 312.5C860.001 312.341 860.349 312.315 860.688 312.219C861.664 311.941 862.645 311.641 863.625 311.375C867.559 310.306 871.487 309.277 875.406 308.156C877.922 307.437 880.428 306.729 882.844 305.719C882.382 307.522 881.983 309.332 881.531 311.156C881.126 312.793 880.436 314.436 880.281 316.125C880.184 317.181 880.213 318.196 880.031 319.25C879.34 323.26 877.914 327.131 876.688 331C875.806 333.646 877.229 336.524 879.875 337.406C880.536 337.627 881.221 337.708 881.875 337.656C883.837 337.502 885.62 336.203 886.281 334.219C887.511 330.703 888.624 327.091 890.219 323.719C890.661 322.783 891.143 321.863 891.719 321C892.106 320.42 892.514 319.849 892.812 319.219C893.686 317.376 894.249 315.379 895.125 313.531C895.382 312.99 895.617 312.454 895.969 311.969C896.457 311.295 896.687 311.208 897.281 310.594C897.95 309.902 898.609 309.184 899.219 308.438C902.09 304.919 904.44 300.339 904.156 295.688C903.754 289.087 898.059 284.194 891.688 283.562C890.696 283.464 889.718 283.478 888.75 283.562Z" fill="#000000" stroke="none"/>
</g>
<g opacity="1">
<path d="M691.844 629.469C686.685 629.956 681.835 632.315 679.312 637C677.692 640.011 677.152 643.431 677 646.812C676.902 648.991 676.99 651.17 676.781 653.344C676.569 655.548 676.211 657.732 676 659.938C675.578 664.343 675.323 668.772 675.031 673.188C674.993 673.769 674.95 674.804 674.812 675.375C674.643 676.08 674.32 676.747 674.25 677.469C674.143 678.562 674.291 679.724 674.375 680.812C674.068 684.938 677.187 688.505 681.312 688.812C685.438 689.12 689.005 686.031 689.312 681.906C689.557 680.841 689.88 679.753 689.938 678.656C689.977 677.89 689.764 677.107 689.688 676.344C689.545 674.908 689.814 673.372 689.906 671.938C690.287 665.997 690.839 660.047 690.969 654.094C691.001 652.627 690.934 651.153 690.906 649.688C690.891 648.878 690.86 648.091 690.875 647.281C690.885 646.701 690.93 645.96 691 645.375C691.1 644.531 691.352 643.883 691.562 643.094C691.58 643.03 691.433 643.248 691.406 643.188C691.343 643.046 691.915 642.698 692 642.656C692.169 642.574 692.357 642.508 692.531 642.438C692.673 642.381 692.792 642.326 692.938 642.281C693.096 642.232 693.275 642.191 693.438 642.156C693.537 642.135 693.676 642.113 693.812 642.094C693.947 642.285 694.077 642.491 694.188 642.656C694.788 643.553 695.391 644.434 696.062 645.281C698.091 647.84 700.391 650.194 702.344 652.812C703.862 654.849 705.055 657.149 706.688 659.094C708.636 661.415 710.496 663.77 711.969 666.438C713.171 668.615 714.06 670.96 715.094 673.219C715.924 675.079 718.108 675.924 719.969 675.094C721.364 674.471 722.185 673.094 722.156 671.656C722.147 671.177 722.051 670.684 721.844 670.219C720.911 668.072 720.076 665.875 719.094 663.75C718.106 661.613 716.903 659.602 715.906 657.469C715.267 656.1 714.831 654.629 714.156 653.281C713.656 652.281 713.053 651.346 712.5 650.375C711.379 648.406 710.297 646.416 709.312 644.375C708.086 641.833 706.759 639.392 705.312 636.969C703.891 634.588 702.335 632.245 699.906 630.781C697.484 629.322 694.594 629.209 691.844 629.469Z" fill="#000000" stroke="none"/>
</g>
<g opacity="1">
<path d="M679.844 682.344C678.166 682.441 676.388 682.467 674.781 683.031C674.226 683.226 673.741 683.613 673.188 683.812C671.591 684.389 669.801 684.637 668.156 685.062C663.7 686.216 659.261 687.505 654.906 689C650.25 690.599 645.658 692.381 641.031 694.062C638.235 695.078 635.105 695.472 632.875 697.656C632.402 698.119 631.952 698.6 631.594 699.156C631.229 699.723 630.912 700.355 630.719 701C630.501 701.728 630.376 702.49 630.375 703.25C630.374 704.014 630.502 704.768 630.719 705.5C630.913 706.155 631.242 706.789 631.594 707.375C632.265 708.492 633.392 709.417 634.375 710.25C638.321 713.595 643.109 715.678 647.781 717.781C651.246 719.341 654.659 721.089 658.25 722.344C661.053 723.323 663.961 723.935 666.844 724.625C669.634 725.293 672.42 726.116 675.25 726.594C676.466 726.799 677.651 726.817 678.875 726.938C681.991 727.244 685.114 728.143 688.25 727.594C691.814 726.969 694.75 724.884 697.812 723.094C699.58 722.08 700.201 719.83 699.188 718.062C698.174 716.295 695.924 715.674 694.156 716.688C692.947 717.368 691.746 718.109 690.531 718.781C689.469 719.369 688.324 719.969 687.094 720.094C685.688 720.237 684.258 719.702 682.938 719.312C681.059 718.759 679.298 717.934 677.438 717.344C674.168 716.307 670.963 715.555 667.844 714.062C664.01 712.227 660.425 709.903 656.594 708.062C654.777 707.189 652.973 706.331 651.188 705.406C652.859 704.882 654.537 704.339 656.219 703.844C662.435 702.015 668.618 700.009 674.938 698.562C675.451 698.445 675.976 698.299 676.5 698.25C677.036 698.2 677.558 698.324 678.094 698.281C679.626 698.158 681.151 697.543 682.594 697.062C686.659 696.298 689.327 692.378 688.562 688.312C687.798 684.247 683.909 681.58 679.844 682.344Z" fill="#000000" stroke="none"/>
</g>
<g opacity="1">
<path d="M721.781 671.625C720.99 671.604 719.996 671.803 719.219 671.938C715.082 671.885 711.677 675.208 711.625 679.344C711.572 683.48 714.895 686.854 719.031 686.906C719.654 687.03 720.751 687.297 721.406 687.312C722.185 687.332 722.912 686.983 723.688 686.906C724.069 686.869 724.46 686.978 724.844 687C725.623 687.046 726.409 687.099 727.188 687.156C729.991 687.361 732.789 687.627 735.594 687.812C739.277 688.056 742.966 688.113 746.656 688.219C746.617 688.291 746.571 688.365 746.531 688.438C745.695 689.959 744.84 691.462 743.875 692.906C743.178 693.95 742.385 694.937 741.719 696C741.272 696.712 740.964 697.496 740.594 698.25C740.227 698.996 739.782 699.7 739.344 700.406C737.561 703.277 735.494 705.962 733.5 708.688C732.278 710.318 732.62 712.622 734.25 713.844C735.88 715.066 738.184 714.755 739.406 713.125C741.458 710.454 743.452 707.715 745.719 705.219C746.275 704.606 746.854 703.991 747.469 703.438C748.089 702.879 748.75 702.367 749.312 701.75C750.149 700.832 750.87 699.81 751.688 698.875C752.817 697.583 754.028 696.39 755.281 695.219C756.592 693.993 757.87 692.748 759.062 691.406C759.313 691.124 759.566 690.849 759.812 690.562C760.022 690.581 760.14 690.308 760.312 690.188C760.722 689.901 761.152 689.629 761.562 689.344C763.909 687.711 766.059 685.77 766.312 682.688C766.658 678.497 763.537 675.461 759.812 674.281C757.744 673.626 755.545 673.582 753.406 673.812C752.034 673.961 750.688 674.297 749.312 674.406C747.967 674.514 746.53 674.306 745.188 674.219C742.418 674.04 739.692 673.543 736.938 673.219C733.21 672.78 729.466 672.469 725.719 672.25C725.285 672.225 724.834 672.264 724.406 672.188C723.527 672.03 722.675 671.648 721.781 671.625Z" fill="#000000" stroke="none"/>
</g>
<g opacity="1">
<path d="M677.156 716.688C674.238 716.645 671.469 718.317 670.219 721.156C669.939 721.547 669.629 721.905 669.375 722.312C669.131 722.704 668.839 723.086 668.719 723.531C668.595 723.985 668.757 724.509 668.656 724.969C668.566 725.38 668.327 725.74 668.156 726.125C666.948 728.85 665.377 731.718 663.812 734.031C663.428 734.6 662.667 735.082 662.156 735.469C661.47 735.988 660.747 736.478 660.062 737C657.575 738.898 655.362 741.241 654.625 744.375C653.407 749.554 656.314 754.759 661.844 755.406C665.789 755.868 668.947 753.466 672.406 752.094C674.08 751.43 675.715 750.888 677.281 749.969C679.157 748.868 680.772 747.383 682.688 746.344C684.136 745.558 685.683 745.063 687.156 744.344C688.666 743.606 689.995 742.605 691.531 741.906C694.052 740.76 696.687 739.87 699.281 738.906C700.721 738.394 701.667 737.06 701.75 735.625C701.778 735.147 701.702 734.667 701.531 734.188C700.848 732.268 698.732 731.254 696.812 731.938C694.203 732.827 691.612 733.788 688.938 734.469C687.283 734.89 685.559 734.939 683.906 735.344C683.362 735.477 682.848 735.709 682.312 735.875C681.342 736.176 680.358 736.386 679.375 736.625C679.713 735.997 680.092 735.391 680.406 734.75C680.907 733.728 681.156 733.189 681.625 732.156C681.817 731.735 681.926 731.288 682.188 730.906C682.462 730.505 682.931 730.257 683.188 729.844C683.425 729.46 683.507 728.998 683.625 728.562C683.747 728.11 683.812 727.646 683.906 727.188C685.573 723.402 683.849 718.979 680.062 717.312C679.116 716.896 678.129 716.702 677.156 716.688ZM662.969 741.938C663.041 741.934 663.116 741.938 663.188 741.938C663.018 741.973 662.85 742.04 662.688 742.031C662.662 742.03 662.627 742.025 662.625 742C662.616 741.878 662.846 741.943 662.969 741.938Z" fill="#000000" stroke="none"/>
</g>
<g opacity="1">
<path d="M735.719 708.531C734.298 708.75 733.093 709.8 732.719 711.281C731.874 714.474 731.135 717.677 730.312 720.875C730.075 721.798 729.723 723.163 729.406 724.062C729.219 724.594 728.956 725.12 728.781 725.656C728.27 727.225 728.065 728.886 727.75 730.5C727.015 734.266 725.731 737.899 725.094 741.688C724.826 743.278 724.653 744.871 724.438 746.469C724.37 746.971 724.353 747.47 724.281 747.969C724.171 747.636 724.046 747.302 723.938 746.969C723.293 744.993 722.657 743.068 721.562 741.281C720.73 739.922 720.045 738.932 719.094 737.656C718.685 737.108 718.214 736.606 717.844 736.031C717.488 735.479 717.287 734.838 716.938 734.281C716.293 733.256 715.391 732.415 714.5 731.594C711.976 728.317 707.246 727.726 703.969 730.25C700.692 732.774 700.101 737.473 702.625 740.75C702.938 741.326 703.193 741.927 703.562 742.469C703.927 743.004 704.355 743.511 704.812 743.969C705.25 744.407 705.787 744.713 706.219 745.156C706.978 745.937 707.572 746.851 708.188 747.75C708.5 748.206 708.859 748.656 709.094 749.156C709.777 750.611 710.091 752.221 710.75 753.688C711.096 754.458 711.461 755.22 711.906 755.938C712.959 757.634 714.448 759.085 715.812 760.531C718.283 763.149 720.941 765.677 724.469 766.75C725.709 767.127 726.981 767.282 728.219 767.219C731.933 767.029 735.361 764.9 736.75 761.125C737.507 759.066 737.475 756.863 737.188 754.719C737.039 753.608 736.787 752.487 736.656 751.375C736.585 750.768 736.697 750.171 736.75 749.562C736.984 746.877 737.39 744.198 737.469 741.5C737.547 738.805 737.3 736.101 737.406 733.406C737.489 731.303 737.949 729.197 737.938 727.094C737.935 726.555 737.819 726.039 737.812 725.5C737.799 724.444 737.907 723.392 738.031 722.344C738.401 719.213 739.139 716.123 739.875 713.062C740.374 711.087 739.163 709.093 737.188 708.594C736.694 708.469 736.192 708.458 735.719 708.531Z" fill="#000000" stroke="none"/>
</g>
<g opacity="1">
<path d="M198.719 113.656C193.193 113.19 187.846 116.976 184.594 121.219C180.736 126.252 179.089 132.451 176.469 138.125C175.223 140.824 173.635 143.354 172.344 146.031C171.505 147.77 170.737 149.56 170 151.344C168.219 155.654 166.851 160.135 165.062 164.438C164.532 165.714 163.671 166.75 163.156 168.031C162.658 169.27 162.351 170.622 162 171.906C161.61 172.864 161.455 173.84 161.469 174.812C161.509 177.731 163.251 180.487 166.125 181.656C167.083 182.046 168.09 182.232 169.062 182.219C171.981 182.179 174.706 180.436 175.875 177.562C176.562 176.323 177.31 175.081 177.812 173.75C178.324 172.395 178.415 170.996 178.875 169.625C179.745 167.029 180.776 164.465 181.75 161.906C182.998 158.627 184.249 155.352 185.625 152.125C187.014 148.868 188.638 145.716 189.906 142.406C191.072 139.366 192.165 136.298 193.469 133.312C194.32 131.364 195.351 129.269 196.844 127.719C197.187 127.363 197.568 127.132 197.938 126.875C198.288 127.204 198.705 127.464 198.969 127.781C199.984 129.001 200.838 130.339 201.719 131.656C202.393 132.664 203.068 133.675 203.781 134.656C204.431 135.551 205.282 136.319 205.656 137.375C206.407 139.493 206.46 141.812 206.906 144C207.154 145.213 207.538 146.395 207.844 147.594C208.352 149.583 208.813 151.534 209.594 153.438C210.675 156.074 211.433 158.818 212.188 161.562C213.26 165.462 214.239 169.389 215.219 173.312C215.697 175.293 217.676 176.51 219.656 176.031C221.637 175.553 222.853 173.574 222.375 171.594C221.271 166.867 220.118 162.14 219.188 157.375C218.879 155.793 218.589 154.196 218.406 152.594C218.313 151.783 218.317 150.967 218.219 150.156C217.93 147.782 217.21 145.451 216.812 143.094C216.307 140.102 216.872 137.038 216.344 134.031C215.879 131.385 214.426 129.072 213.156 126.75C210.918 122.657 208.225 118.337 204.281 115.688C203.299 115.028 202.222 114.484 201.094 114.125C200.302 113.873 199.508 113.723 198.719 113.656Z" fill="#000000" stroke="none"/>
</g>
<g opacity="1">
<path d="M121.75 163.312C117.652 163.001 114.175 165.548 113.75 169.781C113.549 171.778 114.37 173.688 115.219 175.438C116.577 178.237 118.383 180.74 120.625 182.906C122.703 184.914 125.046 186.642 127.281 188.469C128.558 189.512 129.808 190.698 131.219 191.562C131.696 191.855 132.232 192.067 132.719 192.344C133.663 192.881 134.55 193.499 135.438 194.125C138.405 196.218 141.084 198.604 143.688 201.125C144.412 201.841 145.368 202.224 146.312 202.219C147.257 202.213 148.19 201.818 148.906 201.094C150.339 199.645 150.324 197.339 148.875 195.906C146.935 193.947 144.949 192.071 142.906 190.219C141.3 188.762 139.634 187.306 138.219 185.656C137.865 185.243 137.581 184.781 137.219 184.375C136.705 183.799 135.858 183.079 135.219 182.5C135.306 182.52 135.382 182.576 135.469 182.594C137.045 182.921 138.661 183.087 140.25 183.344C146.153 184.296 152.065 184.621 158.031 184.875C159.34 184.931 160.661 184.986 161.969 185.062C162.398 185.088 162.83 185.066 163.25 185.156C163.688 185.251 164.095 185.523 164.531 185.625C165.78 185.916 167.152 185.703 168.406 185.594C172.531 185.904 176.096 182.812 176.406 178.688C176.716 174.563 173.625 170.966 169.5 170.656C168.647 170.45 167.721 170.178 166.844 170.094C166.384 170.049 165.897 170.017 165.438 170.062C164.967 170.109 164.533 170.331 164.062 170.375C163.162 170.46 162.247 170.292 161.344 170.25C157.39 170.066 153.426 169.856 149.469 169.75C145.782 169.651 141.769 169.599 138.25 168.969C136.645 168.681 135.117 167.898 133.625 167.281C131.211 166.284 128.784 165.316 126.312 164.469C124.831 163.961 123.322 163.432 121.75 163.312Z" fill="#000000" stroke="none"/>
</g>
<g opacity="1">
<path d="M158.812 208.031C156.896 208.015 154.975 208.706 153.5 210.156C152.574 210.84 151.593 211.465 150.781 212.281C149.958 213.109 149.371 214.158 148.562 215C147.336 216.278 145.88 217.41 144.562 218.594C142.048 220.852 139.606 223.172 137.188 225.531C134.845 227.817 132.429 230.069 130.781 232.938C129.432 235.287 128.634 238.056 128.031 240.688C127.122 244.657 126.724 249.433 129.781 252.656C130.247 253.147 130.743 253.604 131.312 253.969C131.901 254.345 132.556 254.656 133.219 254.875C133.863 255.088 134.543 255.189 135.219 255.25C136.32 255.35 137.786 255.094 138.844 254.906C140.173 254.67 141.262 254.42 142.562 254.062C146.683 252.929 150.626 251.245 154.531 249.531C157.741 248.122 160.9 246.59 163.906 244.781C166.318 243.33 168.617 241.677 171.062 240.281C173.622 238.82 176.505 237.834 178.969 236.25C179.53 235.889 180.013 235.442 180.562 235.062C181.631 234.323 182.764 233.643 183.875 232.969C187.626 230.691 191.485 228.68 195.438 226.781C196.821 226.132 197.619 224.718 197.562 223.281C197.544 222.802 197.435 222.336 197.219 221.875C196.352 220.031 194.157 219.228 192.312 220.094C187.669 222.226 183.172 224.764 178.438 226.688C177.289 227.154 176.083 227.488 174.906 227.875C172.124 228.79 169.449 230.098 166.719 231.156C164.046 232.192 161.328 233.055 158.656 234.094C154.161 235.841 149.878 238.128 145.25 239.531C144.598 239.729 143.911 239.801 143.25 239.969C143.561 239.608 143.863 239.241 144.188 238.938C144.968 238.207 145.798 237.525 146.594 236.812C147.942 235.605 149.241 234.33 150.562 233.094C152.273 231.494 154.007 229.938 155.75 228.375C156.656 227.563 157.515 226.694 158.469 225.938C159.455 225.155 160.619 224.585 161.562 223.75C162.419 222.992 163.302 221.74 164 220.844C166.949 217.943 166.995 213.199 164.094 210.25C162.643 208.775 160.729 208.047 158.812 208.031Z" fill="#000000" stroke="none"/>
</g>
<g opacity="1">
<path d="M227.312 210.719C225.891 210.936 224.657 211.988 224.281 213.469C223.329 217.061 222.495 220.714 221.344 224.25C220.769 226.015 219.939 227.601 219.25 229.312C218.586 230.962 218.13 232.688 217.469 234.344C216.666 236.355 215.612 238.239 214.5 240.094C212.793 242.94 210.905 245.753 208.75 248.281C208.116 249.025 207.442 249.769 206.625 250.312C206.56 250.356 206.475 250.365 206.406 250.406C206.323 250.319 206.222 250.243 206.125 250.125C205.694 249.598 205.347 248.993 205.062 248.375C204.427 246.995 205.098 244.69 205.312 243.281C205.87 239.609 205.781 235.924 205.781 232.219C205.781 230.897 205.645 229.565 205.781 228.25C205.851 227.579 206.117 226.952 206.188 226.281C206.326 224.963 206.108 223.622 205.906 222.312C205.906 218.176 202.543 214.812 198.406 214.812C194.27 214.812 190.906 218.176 190.906 222.312C190.704 223.622 190.486 224.963 190.625 226.281C190.696 226.952 190.962 227.579 191.031 228.25C191.167 229.565 191.031 230.897 191.031 232.219C191.031 234.417 191.117 236.648 191.031 238.844C190.929 241.454 190.478 244.002 190.562 246.625C190.652 249.393 191.267 252.016 192.5 254.5C195.213 259.967 200.657 265.087 207.188 264.188C208.593 263.994 209.98 263.534 211.25 262.906C212.647 262.216 213.918 261.304 215.062 260.25C217.069 258.402 218.642 256.178 220.219 253.969C221.768 251.798 223.292 249.638 224.312 247.156C225.449 244.392 225.924 241.481 226.625 238.594C227.172 236.344 227.996 234.13 228.375 231.844C228.687 229.957 228.74 228.017 229.062 226.125C229.684 222.473 230.563 218.879 231.438 215.281C231.939 213.307 230.756 211.314 228.781 210.812C228.288 210.687 227.786 210.646 227.312 210.719ZM205.5 250.656C205.61 250.629 205.683 250.691 205.781 250.688C205.708 250.703 205.628 250.739 205.562 250.719C205.54 250.712 205.477 250.662 205.5 250.656Z" fill="#000000" stroke="none"/>
</g>
<g opacity="1">
<path d="M223.812 175.188C220.905 175.445 218.295 177.391 217.344 180.344C216.075 184.281 218.219 188.513 222.156 189.781C223.042 190.277 224.097 190.947 225.125 191.094C225.506 191.148 225.898 191.039 226.281 191.062C226.648 191.085 226.984 191.173 227.344 191.25C228.765 191.554 230.175 191.99 231.594 192.312C235.902 193.292 240.211 193.844 244.625 194.031C245.337 194.061 246.063 194.065 246.781 194.094C246.056 195.11 245.341 196.141 244.531 197.094C243.233 198.621 241.579 199.738 240.188 201.156C239.698 201.656 239.309 202.228 238.844 202.75C238.512 203.121 237.71 203.882 237.344 204.219C235.001 206.373 232.453 208.342 230.031 210.406C228.464 211.708 228.261 214.026 229.562 215.594C230.864 217.161 233.183 217.396 234.75 216.094C236.873 214.376 238.998 212.661 241.281 211.156C242.146 210.586 243.036 210.016 243.969 209.562C244.621 209.246 245.309 209.017 245.938 208.656C247.497 207.763 248.9 206.525 250.375 205.5C253.8 203.119 257.271 200.827 260.25 197.875C263.66 194.496 266.331 190.068 264.719 185.094C263.688 181.914 261.06 179.685 257.781 179.125C255.677 178.766 253.616 179.097 251.562 179.562C250.824 179.73 249.075 180.268 248.562 180.219C247.957 180.161 247.354 180.103 246.75 180.031C244.6 179.777 242.475 179.371 240.344 179C237.593 178.521 234.857 177.959 232.156 177.25C231.591 177.102 230.887 176.927 230.375 176.625C230.089 176.456 229.89 176.18 229.594 176.031C228.802 175.635 227.608 175.629 226.75 175.531C225.766 175.214 224.782 175.102 223.812 175.188Z" fill="#000000" stroke="none"/>
</g>
</g>
</svg>
