<?xml version="1.0" encoding="UTF-8" standalone="no"?>
<!DOCTYPE svg PUBLIC "-//W3C//DTD SVG 1.1//EN" "http://www.w3.org/Graphics/SVG/1.1/DTD/svg11.dtd"
[
<!ATTLIST g
  xmlns:vectornator CDATA #FIXED "http://vectornator.io"
  vectornator:layerName CDATA #IMPLIED >
<!ATTLIST g
  xmlns:vectornator CDATA #FIXED "http://vectornator.io"
  vectornator:mask CDATA #IMPLIED >
<!ATTLIST text
  xmlns:vectornator CDATA #FIXED "http://vectornator.io"
  vectornator:width CDATA #IMPLIED >

<!ATTLIST path
  xmlns:vectornator CDATA #FIXED "http://vectornator.io"
  vectornator:blendMode CDATA #IMPLIED >
<!ATTLIST path
  xmlns:vectornator CDATA #FIXED "http://vectornator.io"
  vectornator:shadowColor CDATA #IMPLIED >
<!ATTLIST path
  xmlns:vectornator CDATA #FIXED "http://vectornator.io"
  vectornator:shadowOpacity CDATA #IMPLIED >
<!ATTLIST path
  xmlns:vectornator CDATA #FIXED "http://vectornator.io"
  vectornator:shadowRadius CDATA #IMPLIED >
<!ATTLIST path
  xmlns:vectornator CDATA #FIXED "http://vectornator.io"
  vectornator:shadowOffset CDATA #IMPLIED >
<!ATTLIST path
  xmlns:vectornator CDATA #FIXED "http://vectornator.io"
  vectornator:shadowAngle CDATA #IMPLIED >

<!ATTLIST image
  xmlns:vectornator CDATA #FIXED "http://vectornator.io"
  vectornator:blendMode CDATA #IMPLIED >
<!ATTLIST image
  xmlns:vectornator CDATA #FIXED "http://vectornator.io"
  vectornator:shadowColor CDATA #IMPLIED >
<!ATTLIST image
  xmlns:vectornator CDATA #FIXED "http://vectornator.io"
  vectornator:shadowOpacity CDATA #IMPLIED >
<!ATTLIST image
  xmlns:vectornator CDATA #FIXED "http://vectornator.io"
  vectornator:shadowRadius CDATA #IMPLIED >
<!ATTLIST image
  xmlns:vectornator CDATA #FIXED "http://vectornator.io"
  vectornator:shadowOffset CDATA #IMPLIED >
<!ATTLIST image
  xmlns:vectornator CDATA #FIXED "http://vectornator.io"
  vectornator:shadowAngle CDATA #IMPLIED >

<!ATTLIST g
  xmlns:vectornator CDATA #FIXED "http://vectornator.io"
  vectornator:blendMode CDATA #IMPLIED >
<!ATTLIST g
  xmlns:vectornator CDATA #FIXED "http://vectornator.io"
  vectornator:shadowColor CDATA #IMPLIED >
<!ATTLIST g
  xmlns:vectornator CDATA #FIXED "http://vectornator.io"
  vectornator:shadowOpacity CDATA #IMPLIED >
<!ATTLIST g
  xmlns:vectornator CDATA #FIXED "http://vectornator.io"
  vectornator:shadowRadius CDATA #IMPLIED >
<!ATTLIST g
  xmlns:vectornator CDATA #FIXED "http://vectornator.io"
  vectornator:shadowOffset CDATA #IMPLIED >
<!ATTLIST g
  xmlns:vectornator CDATA #FIXED "http://vectornator.io"
  vectornator:shadowAngle CDATA #IMPLIED >

<!ENTITY % SVG.filter.extra.content  "| feDropShadow" >
<!ELEMENT feDropShadow EMPTY>
<!ATTLIST feDropShadow
  xmlns:svg CDATA #FIXED "http://www.w3.org/Graphics/SVG/1.1/DTD/svg11.dtd"
  dx CDATA #IMPLIED>
<!ATTLIST feDropShadow
  xmlns:svg CDATA #FIXED "http://www.w3.org/Graphics/SVG/1.1/DTD/svg11.dtd"
  dy CDATA #IMPLIED>
<!ATTLIST feDropShadow
  xmlns:svg CDATA #FIXED "http://www.w3.org/Graphics/SVG/1.1/DTD/svg11.dtd"
  stdDeviation CDATA #IMPLIED>
<!ATTLIST feDropShadow
  xmlns:svg CDATA #FIXED "http://www.w3.org/Graphics/SVG/1.1/DTD/svg11.dtd"
  flood-opacity CDATA #IMPLIED>
<!ATTLIST feDropShadow
  xmlns:svg CDATA #FIXED "http://www.w3.org/Graphics/SVG/1.1/DTD/svg11.dtd"
  in CDATA #IMPLIED>
<!ATTLIST feDropShadow
  xmlns:svg CDATA #FIXED "http://www.w3.org/Graphics/SVG/1.1/DTD/svg11.dtd"
  result CDATA #IMPLIED>
<!ATTLIST feDropShadow
  xmlns:svg CDATA #FIXED "http://www.w3.org/Graphics/SVG/1.1/DTD/svg11.dtd"
  flood-color CDATA #IMPLIED>
]
>
<!-- Created with Vectornator (http://vectornator.io/) -->
<svg height="100%" stroke-miterlimit="10" style="fill-rule:nonzero;clip-rule:evenodd;stroke-linecap:round;stroke-linejoin:round;" version="1.1" viewBox="0 0 1024 1024" width="100%" xml:space="preserve" xmlns="http://www.w3.org/2000/svg" xmlns:vectornator="http://vectornator.io" xmlns:xlink="http://www.w3.org/1999/xlink">
<defs/>
<g id="레이어-9" vectornator:layerName="레이어 9">
<g opacity="1">
<path d="M157.938 258.906C154.965 258.951 151.973 259.132 149 259.438C148.828 259.435 148.652 259.471 148.531 259.469C148.08 259.462 147.639 259.444 147.188 259.438C146.569 259.428 145.931 259.403 145.312 259.406C142.141 259.424 138.952 259.691 135.875 260.5C132.994 261.257 130.176 262.36 127.656 263.969C126.531 264.687 125.452 265.476 124.438 266.344C123.37 267.257 122.35 268.244 121.438 269.312C120.481 270.434 119.603 271.612 118.844 272.875C118.057 274.185 117.378 275.58 116.812 277C116.302 278.281 115.94 279.626 115.625 280.969C115.24 282.61 115.023 284.299 114.969 286C114.914 287.701 115.023 289.398 115.25 291.062C116.157 297.714 119.47 303.845 124.156 308.594C125.314 309.767 126.554 310.908 127.844 311.938C128.022 312.08 128.205 312.237 128.406 312.344C128.458 312.371 128.429 312.145 128.469 312.188C129.582 313.377 130.487 314.799 131.469 316.094C132.29 317.176 133.13 318.251 133.938 319.344C138.598 325.646 143.651 331.666 149.375 337.031C153.846 341.222 158.752 344.9 163.219 349.094C165.646 351.372 168.006 353.822 170.25 356.281C172.054 358.259 173.704 360.314 175.656 362.156C176.143 362.616 176.624 363.093 177.156 363.5C178.269 364.35 179.561 364.982 180.688 365.812C182.839 367.399 184.807 369.296 186.75 371.125C188.693 372.953 190.475 374.942 192.312 376.875C197.343 382.168 202.111 387.71 206.938 393.188C211.7 398.75 220.063 399.388 225.625 394.625C231.187 389.862 231.825 381.5 227.062 375.938C222.412 370.347 217.711 364.825 213.312 359.031C211.712 356.923 210.064 354.827 208.594 352.625C207.128 350.43 205.585 348.179 204.406 345.812C203.796 344.587 203.436 343.249 202.812 342.031C202.507 341.435 202.148 340.873 201.781 340.312C200.331 338.099 198.593 336.104 197 334C195.019 331.384 193.089 328.654 191.344 325.875C189.225 322.502 187.441 318.945 185.562 315.438C184.964 314.321 184.255 313.257 183.625 312.156C187.283 312.811 190.968 313.401 194.656 313.688C203.791 314.397 213.004 314.043 222.125 314.906C223.477 315.034 224.813 315.202 226.156 315.406C226.596 315.473 227.052 315.439 227.469 315.594C228.297 315.902 229.412 316.884 230.031 317.438C230.38 317.749 230.736 318.129 231.188 318.25C231.696 318.386 232.229 318.367 232.75 318.438C234.484 318.672 236.193 318.6 237.938 318.719C252.063 323.355 267.302 315.657 271.938 301.531C276.573 287.405 268.876 272.199 254.75 267.562C253.124 266.642 251.465 265.684 249.75 264.938C248.88 264.559 247.961 264.304 247.062 264C245.807 263.574 244.564 263.019 243.219 262.969C240.996 262.886 238.835 263.539 236.594 263.375C234.972 263.256 233.393 262.839 231.781 262.625C228.764 262.225 225.724 261.948 222.688 261.75C215.155 261.258 207.603 261.309 200.062 261.125C195.101 261.004 190.167 260.77 185.219 260.375C176.137 259.651 167.041 258.77 157.938 258.906ZM159.094 277.125C159.057 277.037 159.238 277.222 159.312 277.281C159.382 277.337 159.467 277.407 159.531 277.469C159.789 277.717 160.048 277.991 160.25 278.281C160.436 278.548 160.52 278.876 160.688 279.156C160.107 278.522 159.391 277.841 159.094 277.125Z" fill="#000000" stroke="none"/>
</g>
<g opacity="1">
<path d="M317.656 234.719C313.689 234.861 309.743 235.233 305.812 236.062C297.446 237.829 289.534 241.431 281.719 244.781C277.017 246.797 272.327 248.87 267.844 251.344C262.217 254.448 256.867 258.291 252.188 262.688C249.69 265.034 247.349 267.546 245.094 270.125C244.529 270.771 243.993 271.408 243.438 272.062C243.166 272.382 242.939 272.753 242.625 273.031C241.915 273.66 241.219 273.839 240.344 274.156C239.946 274.3 239.488 274.375 239.125 274.594C238.512 274.963 238.199 275.644 237.844 276.219C237.115 277.397 236.75 278.692 236.219 279.969C226.438 291.166 227.584 308.157 238.781 317.938C249.978 327.718 267.001 326.572 276.781 315.375C278.261 314.51 279.651 313.61 280.906 312.438C281.395 311.981 282.177 311.354 282.438 310.688C282.596 310.283 282.592 309.836 282.656 309.406C282.798 308.455 282.735 308.001 283.219 307.156C283.534 306.606 284.055 306.169 284.469 305.688C284.855 305.238 285.232 304.787 285.625 304.344C287.66 302.051 289.825 300.098 292.312 298.312C293.344 297.572 294.446 296.875 295.469 296.125C298.842 293.651 302.233 291.148 305.906 289.125C309.876 286.939 314.103 285.344 318.281 283.625C320.523 282.703 322.686 281.64 325.031 281C326.984 280.467 329.007 280.165 331.031 280.094C334.441 279.974 337.838 280.447 341.25 280.281C345.06 280.096 348.869 279.287 352.688 279.438C355.089 279.532 357.558 280.044 359.844 280.781C360.768 281.08 361.686 281.407 362.625 281.656C363.102 281.783 363.572 281.984 364.062 282.031C365.153 282.137 366.25 281.809 367.344 281.875C368.37 281.937 369.375 282.2 370.375 282.438C372.351 282.907 374.19 283.692 376.031 284.531C380.086 286.379 383.805 288.843 387.438 291.406C393.324 295.762 401.613 294.512 405.969 288.625C410.324 282.738 409.074 274.449 403.188 270.094C398.837 266.738 394.299 263.672 389.75 260.594C387.658 259.178 385.513 257.842 383.5 256.312C382.465 255.526 381.401 254.779 380.438 253.906C379.417 252.982 378.628 251.801 377.531 250.969C377.013 250.575 376.415 250.311 375.844 250C374.697 249.377 373.48 248.86 372.281 248.344C369.255 247.04 366.244 245.661 363.312 244.156C360.251 242.584 357.297 240.821 354.156 239.406C351.631 238.269 348.999 237.303 346.312 236.625C340.869 235.251 335.175 235.078 329.594 234.844C325.602 234.676 321.623 234.577 317.656 234.719Z" fill="#000000" stroke="none"/>
</g>
<g opacity="0">
<path d="M397.844 185.938C393.338 186 388.861 186.978 384.812 189.062C376.458 193.364 371.434 200.979 369.406 210C368.895 212.272 368.619 214.591 368.406 216.906C368.298 218.086 368.253 219.267 368.062 220.438C367.644 223.014 367.12 225.565 366.781 228.156C366.306 231.791 366.045 235.449 366.094 239.094C366.142 242.739 366.504 246.369 367.281 249.969C368.322 254.786 370.018 259.426 372.125 263.875C375.065 270.084 378.869 275.743 382.531 281.531C384.026 283.894 385.449 286.305 386.75 288.781C387.448 290.11 388.191 291.475 388.656 292.906C389.716 296.169 390.438 299.548 391.281 302.875C392.204 306.517 393.259 310.089 394.531 313.625C395.992 317.684 397.514 321.712 399.031 325.75C399.51 327.023 399.996 328.319 400.469 329.594C400.621 330.005 400.867 330.38 400.938 330.812C401.162 332.189 400.604 333.627 400.688 335C400.747 335.978 401.07 336.511 401.469 337.375C401.706 337.89 402.247 339.072 402.531 339.562C403.175 340.676 403.948 341.728 404.594 342.844C408.981 357.049 424.045 365.013 438.25 360.625C452.455 356.237 460.419 341.174 456.031 326.969C455.832 324.3 455.504 321.721 454.844 319.125C454.59 318.128 454.338 317.084 453.781 316.219C452.922 314.883 451.512 313.913 450.719 312.531C450.231 311.681 450.03 310.699 449.688 309.781C448.869 307.59 448.039 305.41 447.219 303.219C445.871 299.618 444.442 295.999 443.344 292.312C441.711 286.833 440.47 281.227 438.25 275.938C435.854 270.229 432.626 264.919 429.062 259.875C427.102 257.1 425.001 254.425 423.031 251.656C421.023 248.834 419.007 245.992 417.312 242.969C416.208 240.998 415.106 238.92 414.531 236.719C414.044 234.854 413.824 232.922 413.719 231C413.713 230.896 413.724 230.792 413.719 230.688C418.742 230.063 423.753 229.278 428.812 229.031C431.579 228.896 434.356 228.842 437.125 228.875C439.892 228.908 442.636 229.13 445.406 229.031C447.357 228.962 449.128 228.289 451.031 227.938C453.761 227.434 456.639 227.395 459.406 227.281C461.699 227.187 463.988 227.289 466.281 227.344C469.223 227.414 472.197 227.438 475.125 227.75C479.055 228.168 482.936 228.92 486.844 229.5C494.071 230.68 500.882 225.758 502.062 218.531C502.21 217.628 502.285 216.755 502.25 215.875C502.004 209.713 497.449 204.345 491.125 203.312C486.896 202.559 482.696 201.643 478.438 201.062C472.809 200.295 467.084 199.914 461.5 198.844C458.744 198.315 455.926 197.799 453.25 196.938C451.386 196.337 449.693 195.434 447.75 195.094C444.969 194.607 442.173 194.424 439.375 194.094C434.726 193.545 430.079 192.805 425.531 191.688C422.302 190.894 419.12 189.981 415.875 189.25C414.503 188.941 413.13 188.615 411.75 188.344C410.942 188.185 410.093 188.14 409.312 187.875C409.192 187.834 409.181 187.64 409.062 187.594C406.964 186.769 404.567 186.416 402.344 186.156C400.848 185.981 399.346 185.917 397.844 185.938Z" fill="#000000" stroke="none"/>
</g>
<g opacity="0">
<path d="M547.031 240.406C541.871 240.662 537.105 243.936 535.219 249.094C532.703 255.971 536.248 263.578 543.125 266.094C545.406 266.958 547.711 267.686 550.031 268.438C551.446 268.896 553.048 269.318 554.312 270.156C554.56 270.422 554.895 270.593 555.125 270.875C555.494 271.328 555.793 271.888 556.125 272.375C557.059 273.743 558.012 275.116 558.969 276.469C561.208 279.634 563.863 282.542 565.906 285.844C566.777 287.251 567.306 288.875 568.219 290.25C568.675 290.937 569.26 291.518 569.781 292.156C570.993 293.642 572.313 295.048 573.562 296.5C575.485 298.733 577.3 301.164 578.875 303.656C582.253 309 584.809 314.831 588.062 320.25C590.781 324.778 593.785 329.173 597.375 333.062C598.465 334.243 599.642 335.367 600.781 336.5C601.523 337.238 602.331 337.945 602.969 338.781C602.997 338.818 602.89 338.713 602.844 338.719C602.766 338.728 602.613 338.524 602.594 338.5C602.545 338.438 602.439 338.24 602.469 338.312C602.945 339.47 603.508 340.589 603.906 341.781C605.568 346.758 605.753 352.207 605.812 357.406C605.876 362.993 605.253 368.705 604.031 374.156C603.199 377.87 602.101 381.52 601.094 385.188C600.263 388.212 599.439 391.23 598.594 394.25C598.04 396.228 597.535 398.23 596.812 400.156C596.259 401.633 595.594 403.071 594.75 404.406C593.81 405.895 592.612 407.219 591.469 408.562C591.885 408.418 592.273 408.201 592.75 408.094C593.024 408.032 593.314 407.971 593.594 407.938C593.758 407.918 593.898 407.923 594.062 407.938C594.184 407.948 593.893 408.108 593.781 408.156C593.558 408.253 593.354 408.357 593.125 408.438C592.785 408.557 592.44 408.649 592.094 408.75C591.774 408.843 591.447 408.913 591.125 409C590.904 409.26 590.718 409.552 590.5 409.812C590.014 410.392 589.513 410.975 589 411.531C588.847 411.697 588.722 411.845 588.562 412C588.541 412.021 588.518 412.086 588.5 412.062C588.241 411.739 588.214 411.443 588.281 411.031C588.32 410.79 588.339 410.527 588.5 410.344C588.801 410 589.187 409.733 589.562 409.469C588.904 409.661 588.243 409.842 587.594 410.062C573.009 412.948 563.52 427.134 566.406 441.719C569.292 456.303 583.447 465.761 598.031 462.875C598.143 462.918 598.292 462.914 598.375 463C598.423 463.05 598.326 463.17 598.375 463.219C598.473 463.315 598.617 463.342 598.75 463.375C600.365 463.772 602.135 463.538 603.75 463.312C605.343 463.09 606.912 462.788 608.469 462.375C611.785 461.496 614.71 460.213 617.438 458.094C618.956 456.914 620.308 455.492 621.594 454.062C622.156 453.437 622.636 452.763 623.219 452.156C623.751 451.602 624.346 451.12 624.906 450.594C625.933 449.629 626.884 448.685 627.844 447.656C629.554 445.822 631.147 443.865 632.75 441.938C637.332 436.428 641.342 430.558 644.281 424C646.82 418.335 648.657 412.304 649.875 406.219C650.638 402.405 651.138 398.523 651.781 394.688C653.317 385.53 654.849 376.317 655.312 367.031C655.681 359.645 655.433 352.138 653.969 344.875C652.376 336.975 649.42 329.482 645.656 322.375C643.794 318.858 641.868 315.312 639.469 312.125C636.69 308.435 633.296 305.39 630 302.188C628.886 301.105 627.906 299.881 626.844 298.75C624.834 296.61 622.786 294.521 620.625 292.531C616.102 288.367 611.189 284.63 606.75 280.375C604.153 277.886 601.565 275.366 599.031 272.812C597.183 270.95 595.334 269.119 593.344 267.406C593.031 267.137 592.741 266.865 592.406 266.625C590.971 265.599 589.3 264.968 587.812 264.031C586.405 263.145 585.057 262.082 583.719 261.094C583.053 260.602 582.281 260.14 581.656 259.594C580.848 258.887 580.194 258.032 579.5 257.219C578.473 256.016 577.434 254.771 576.344 253.625C574.14 251.308 571.711 249.234 569 247.531C563.85 244.296 557.879 243.158 552.219 241.188C550.499 240.559 548.751 240.321 547.031 240.406ZM589.562 409.469C589.949 409.356 590.331 409.231 590.719 409.125C590.855 409.088 590.988 409.037 591.125 409C591.245 408.859 591.349 408.704 591.469 408.562C590.968 408.736 590.453 408.828 589.938 409.156C589.801 409.243 589.696 409.375 589.562 409.469Z" fill="#000000" stroke="none"/>
</g>
<g opacity="1">
<path d="M218.344 371.844C210.748 371.767 203.471 376.158 200.25 383.562C198.663 386.186 197.217 388.812 196.062 391.656C195.667 392.63 195.07 394.018 194.875 395.062C194.543 396.845 194.78 398.712 194.531 400.5C194.369 401.666 193.996 402.793 193.719 403.938C193.454 405.03 193.181 406.121 192.938 407.219C192.329 409.97 191.82 412.754 191.344 415.531C189.286 427.538 187.857 439.921 189.562 452.062C190.261 457.033 191.5 461.955 192.969 466.75C195.627 475.431 199.336 483.868 204.719 491.219C209.432 497.654 215.324 503.178 221.75 507.875C225.844 510.867 230.169 513.486 234.531 516.062C238.95 518.673 243.224 521.537 248.062 523.344C251.235 524.528 254.544 525.003 257.781 525.938C260.555 526.738 263.046 528.371 265.656 529.562C268.626 530.918 271.759 531.959 274.969 532.562C278.355 533.199 281.749 533.439 285.125 533.406C295.252 533.307 305.328 530.752 315.312 529.125C318.309 528.637 321.333 528.287 324.312 527.688C324.828 527.584 324.864 527.489 325.375 527.312C326.146 527.046 326.977 526.878 327.781 526.75C328.865 526.578 329.971 526.543 331.062 526.469C332.823 526.348 334.565 526.223 336.312 525.969C341.221 525.254 346.111 524.309 351 523.469C357.49 522.353 364.004 521.367 370.531 520.5C375.794 519.852 379.523 515.044 378.875 509.781C378.227 504.518 373.45 500.789 368.188 501.438C361.967 502.144 355.771 503.016 349.562 503.812C345.042 504.392 340.436 504.954 335.875 505C331.133 505.047 326.619 503.085 321.875 503.25C315.413 503.475 309.034 504.629 302.562 504.781C297.525 504.9 292.471 504.266 287.562 503.156C285.442 502.677 283.327 502.075 281.312 501.25C280.925 501.091 280.552 500.854 280.188 500.656C279.148 500.092 278.104 499.564 277.062 499C274.761 497.755 272.428 496.533 269.969 495.625C267.578 494.742 265.114 494.123 262.656 493.469C261.836 493.25 260.723 493.082 260 492.594C258.546 491.611 256.708 490.167 255.156 488.969C252.459 486.886 249.756 484.847 247.094 482.719C241.666 478.38 236.026 473.867 232.562 467.719C229.686 462.612 228.376 456.721 227.531 450.969C227.253 449.075 227.174 447.161 227.125 445.25C226.973 439.288 227.508 433.401 228.344 427.5C229.087 422.255 229.877 416.921 231.312 411.812C231.424 411.414 231.509 410.998 231.688 410.625C232.238 409.471 233.278 408.558 233.875 407.438C234.202 406.824 234.417 405.817 234.594 405.156C235.131 403.155 235.5 401.135 236 399.125C240.294 389.253 235.779 377.763 225.906 373.469C223.438 372.395 220.876 371.869 218.344 371.844Z" fill="#000000" stroke="none"/>
</g>
<g opacity="1">
<path d="M603.312 418.594C594.675 418.853 586.312 423.273 581.344 431.125C578.363 435.836 577.032 441.099 577.188 446.281C577.447 454.919 581.867 463.282 589.719 468.25C590.621 469.047 591.504 469.907 592.188 470.906C592.316 471.094 592.68 471.529 592.719 471.75C592.724 471.781 592.608 471.693 592.625 471.719C592.721 471.867 592.87 471.979 592.969 472.125C593.07 472.275 593.021 472.667 593.219 472.75C593.505 472.87 593.848 472.891 594.125 473.031C595.074 473.51 596.152 474.403 596.781 475.25C597.311 475.963 597.646 476.809 598.062 477.594C598.635 478.673 599.039 479.446 599.625 480.531C600.853 482.806 602.128 485.034 603.406 487.281C610.037 498.941 615.515 511.144 620.844 523.438C622.892 528.163 625.198 532.771 627.438 537.406C628.82 540.268 630.307 543.165 631.312 546.188C635.92 560.034 637.92 574.635 641.062 588.844C645.313 608.064 651.194 626.879 654.781 646.25C656.719 656.716 657.751 667.295 659.094 677.844C660.312 687.412 661.736 696.934 663.188 706.469C664.013 711.895 664.717 717.395 665.062 722.875C665.351 727.448 665.349 732.045 665.312 736.625C665.272 741.701 664.711 746.805 664.469 751.875C664.339 754.586 664.751 757.315 664.75 760.031C664.749 762.37 664.522 764.769 664.281 767.094C663.819 771.568 663.084 776.001 662.031 780.375C661.515 782.519 661 785.098 659.469 786.812C659.21 787.102 658.879 787.31 658.594 787.562C658.018 787.899 657.353 788.164 656.75 788.406C655.547 788.89 654.349 789.325 653.125 789.75C648.736 791.274 644.254 792.578 639.812 793.938C632.793 796.024 628.789 803.418 630.875 810.438C632.962 817.457 640.356 821.43 647.375 819.344C652.563 817.851 657.79 816.45 662.906 814.719C668.376 812.867 673.151 810.865 677.5 806.969C681.967 802.967 685.143 797.774 687.312 792.219C688.775 788.475 689.705 784.585 690.875 780.75C692.486 775.472 693.828 770.129 695.406 764.844C696.181 762.247 697.229 759.699 697.875 757.062C698.339 755.169 698.59 753.176 698.875 751.25C699.382 747.819 699.694 744.395 699.969 740.938C700.394 735.578 700.882 730.241 701.25 724.875C701.659 718.908 702.317 712.957 702.844 707C703.597 698.487 704.052 689.893 703.844 681.344C703.575 670.297 702.236 659.301 700.906 648.344C699.164 633.989 697.589 619.602 695.156 605.344C694.404 600.934 693.578 596.534 692.656 592.156C691.702 587.622 690.6 583.112 689.719 578.562C688.047 569.938 686.549 561.267 684.969 552.625C683.623 545.266 682.353 537.832 680.312 530.625C677.341 520.128 672.527 510.286 668.406 500.219C664.682 491.12 660.598 482.162 656.125 473.406C653.226 467.732 650.066 462.208 647 456.625C646.048 454.891 645.107 453.158 644.188 451.406C643.947 450.948 643.666 450.51 643.469 450.031C643.038 448.984 642.795 447.876 642.406 446.812C641.735 444.975 640.959 443.161 640.094 441.406C639.774 440.758 639.479 440.08 639.094 439.469C638.273 438.167 637.246 437.02 636.219 435.875C635.118 434.648 634.009 433.542 632.812 432.406C628.586 428.391 623.731 425.293 618.5 422.75C613.789 419.769 608.495 418.438 603.312 418.594Z" fill="#000000" stroke="none"/>
</g>
<g opacity="1">
<path d="M346 753.781C342.505 753.88 338.975 754.675 335.594 756.219C333.864 756.614 332.109 757.022 330.438 757.625C329.4 757.999 328.018 758.675 327.031 759.156C326.474 759.428 325.891 759.625 325.375 759.969C323.216 761.405 322.126 763.891 320.188 765.562C319.719 765.967 319.214 766.285 318.719 766.656C317.24 767.764 315.786 768.933 314.375 770.125C304.71 778.294 296.326 788.526 291.25 800.188C289.364 804.52 287.979 809.132 287 813.75C285.544 820.619 285.377 827.508 285.531 834.5C285.776 845.603 287.67 857.753 294.531 866.844C298.872 872.595 304.584 876.921 311.125 879.875C314.389 881.349 317.801 882.405 321.375 882.781C323.812 883.038 326.281 883.037 328.719 882.812C329.052 882.782 329.387 882.731 329.719 882.688C329.932 882.659 330.133 882.636 330.344 882.594C330.436 882.575 330.571 882.577 330.625 882.5C330.659 882.452 330.525 882.457 330.469 882.438C330.368 882.402 330.054 882.375 330.156 882.344C330.558 882.22 330.988 882.364 331.406 882.406C332.254 882.492 333.128 882.646 333.969 882.781C336.385 883.171 338.763 883.66 341.188 884C345.503 884.606 349.889 885.004 354.25 884.812C359.481 884.583 364.653 883.622 369.688 882.219C376.444 880.336 383.13 878.047 389.625 875.406C392.182 874.367 394.66 873.27 397.031 871.844C397.614 871.493 398.215 871.201 398.75 870.781C399.852 869.917 400.75 868.794 401.75 867.812C403.199 866.39 404.727 865.065 406.219 863.688C408.673 861.421 411.156 859.163 413.531 856.812C418.951 851.45 423.916 845.635 428.438 839.5C432.872 833.673 431.733 825.372 425.906 820.938C420.079 816.503 411.778 817.61 407.344 823.438C403.702 828.056 399.864 832.525 395.156 836.094C393.348 837.465 391.474 838.735 389.375 839.625C388.213 840.117 386.941 840.569 385.688 840.75C384.831 840.874 383.946 840.758 383.094 840.906C382.711 840.973 382.34 841.133 381.969 841.25C380.536 841.703 379.159 842.299 377.719 842.719C375.54 843.353 373.112 843.699 370.844 843.625C368.269 843.541 365.751 842.985 363.25 842.406C360.493 841.769 357.724 841.143 354.938 840.656C351.885 840.123 348.816 839.757 345.781 839.125C342.627 838.469 339.527 837.547 336.344 837.031C336.136 836.998 335.926 836.998 335.719 836.969C335.701 836.425 335.656 835.884 335.656 835.344C335.656 833.439 335.638 831.406 336 829.531C336.321 827.87 336.967 826.228 337.719 824.719C340.137 819.862 343.362 815.384 347.375 811.719C348.379 810.802 349.412 809.909 350.5 809.094C350.709 808.937 350.917 808.762 351.156 808.656C352.321 808.139 353.567 808.99 354.688 808.469C354.911 808.365 355.063 808.16 355.25 808C355.484 807.8 356.107 807.287 356.312 807.062C356.895 806.428 357.332 805.787 357.969 805.188C371.492 799.011 377.458 783.023 371.281 769.5C366.649 759.357 356.486 753.484 346 753.781ZM328.75 836.062C329.411 836.147 330.047 836.314 330.688 836.5C330.593 836.494 330.501 836.475 330.406 836.469C329.655 836.422 328.905 836.395 328.156 836.312C327.962 836.291 327.753 836.264 327.562 836.219C327.493 836.202 327.344 836.19 327.375 836.125C327.479 835.909 328.42 836.02 328.75 836.062Z" fill="#000000" stroke="none"/>
</g>
<g opacity="1">
<path d="M552.5 797.969C549.298 797.868 546.198 798.345 543.031 798.688C542.033 798.796 540.933 798.788 539.969 798.875C537.232 799.122 534.513 799.523 531.812 800.031C525.621 801.196 519.58 802.962 513.312 803.719C506.958 804.486 500.609 804.854 494.219 805.156C480.573 805.803 466.935 805.666 453.281 805.375C450.656 805.319 447.938 805.493 445.375 804.844C443.352 804.331 441.46 803.38 439.344 803.25C437.978 803.166 436.615 803.356 435.25 803.438C432.481 803.603 429.735 804.117 427 804.562C412.133 804.512 400.051 816.508 400 831.375C399.949 846.242 411.945 858.356 426.812 858.406C428.738 858.733 430.692 859.134 432.625 859.406C433.894 859.585 435.161 859.675 436.438 859.781C437.082 859.835 437.728 859.957 438.375 859.938C441.077 859.857 443.523 858.425 446.219 858.25C447.535 858.164 448.837 858.315 450.156 858.344C451.478 858.373 452.803 858.409 454.125 858.438C468.714 858.749 483.384 859.017 497.938 857.719C506.838 856.925 515.758 855.467 524.469 853.469C526.751 852.945 529.018 852.416 531.281 851.812C533.799 851.142 536.344 850.51 538.875 849.875C539.141 856.03 539.254 862.147 541.062 868.125C542.416 872.597 544.49 876.758 547 880.688C548.872 883.619 550.998 886.361 553.438 888.844C555.758 891.206 558.341 893.212 560.781 895.438C561.579 896.165 562.316 896.969 563.094 897.719C564.739 899.305 566.476 900.806 568.344 902.125C573.059 905.456 578.355 907.449 584.094 908.062C594.466 909.172 604.531 905.937 614.094 902.312C622.273 899.212 630.153 895.608 637.312 890.531C642.834 886.616 648.014 881.796 651 875.625C651.769 874.036 652.428 872.414 653.094 870.781C653.769 869.125 654.49 867.479 655.062 865.781C657.145 859.599 658.607 853.16 659.406 846.688C660.717 836.075 660.41 825.334 661.312 814.688C662.008 807.398 656.665 800.915 649.375 800.219C642.085 799.523 635.602 804.867 634.906 812.156C634.467 816.3 634.154 820.434 633.906 824.594C633.552 830.539 633.289 836.498 632.062 842.344C631.223 846.347 629.927 850.188 627.625 853.594C627.189 854.239 626.687 854.927 626.125 855.469C625.877 855.708 625.559 855.889 625.281 856.094C624.924 856.358 624.581 856.649 624.219 856.906C623.641 857.316 623.012 857.67 622.469 858.125C620.66 859.64 618.843 861.254 616.75 862.375C612.492 864.656 607.717 865.618 602.938 865.938C600.159 866.123 597.323 866.156 594.531 865.938C594.501 865.905 594.468 865.877 594.438 865.844C593.714 865.059 592.973 864.287 592.219 863.531C590.507 861.813 588.688 860.206 586.906 858.562C586.709 858.381 586.507 858.215 586.312 858.031C586.056 857.788 585.795 857.516 585.562 857.25C585.284 856.768 584.97 856.293 584.812 855.75C584.706 855.384 585.105 856.077 585.125 856.031C585.262 855.712 585.245 855.174 585.281 854.844C585.365 854.082 585.426 853.326 585.5 852.562C585.697 850.524 585.804 848.475 586 846.438C586.126 845.128 586.477 843.837 586.656 842.531C587.646 835.319 587.051 828.168 584.344 821.375C580.9 812.734 574.447 804.968 565.875 801.062C561.638 799.132 557.149 798.115 552.5 797.969ZM538.625 836.906C538.636 836.843 538.661 837.035 538.688 837.094C538.703 837.128 538.743 837.151 538.75 837.188C538.778 837.334 538.774 837.476 538.781 837.625C538.793 837.87 538.814 838.13 538.812 838.375C538.812 838.536 538.817 838.726 538.812 838.906C538.686 838.285 538.521 837.51 538.625 836.906ZM591.125 865.094C591.352 865.121 591.56 865.163 591.781 865.219C592.359 865.365 592.874 865.652 593.406 865.906C593.293 865.894 593.176 865.889 593.062 865.875C592.35 865.788 591.647 865.678 590.969 865.438C590.931 865.424 590.553 865.31 590.5 865.219C590.423 865.087 590.886 865.065 591.125 865.094Z" fill="#000000" stroke="none"/>
</g>
<g opacity="1">
<path d="M713.719 705.594C711.923 705.606 710.131 705.743 708.344 705.906C706.6 706.066 704.794 706.214 703.094 706.656C701.444 707.085 699.724 707.775 698.156 708.438C695.469 709.572 692.833 710.883 690.344 712.406C687.09 714.398 684.127 716.853 681.094 719.156C675.046 722.963 671.652 729.389 671.438 736.031C671.309 740.017 672.31 744.09 674.594 747.719C680.685 757.395 693.48 760.278 703.156 754.188C706.255 752.563 709.294 750.848 712.5 749.438C712.981 749.226 713.685 748.956 714.188 748.812C714.45 748.738 714.806 748.771 715.062 748.656C715.646 748.396 716.216 747.936 716.781 747.625C716.925 747.546 717.169 747.531 717.219 747.375C717.252 747.269 717.009 747.292 716.906 747.25C716.785 747.201 716.638 747.169 716.531 747.094C716.35 746.967 716.602 746.825 716.688 746.812C717.22 746.732 718.094 747.011 718.594 747.094C719.938 747.316 721.303 747.559 722.656 747.719C725.646 748.071 728.651 748.132 731.656 748.25C743.168 748.702 754.698 749.011 766.219 749.125C771.113 749.174 775.982 749.027 780.875 749C784.502 748.98 788.185 748.998 791.781 749.531C793.583 749.799 795.38 750.226 797.156 750.625C800.345 751.341 803.512 752.103 806.688 752.875C814.465 754.767 822.285 756.638 830.219 757.75C841.423 759.321 852.854 759.68 863.75 763C866.501 763.838 869.199 764.864 871.812 766.062C872.658 766.451 873.59 766.776 874.375 767.281C875.617 768.08 876.675 769.157 877.781 770.125C879.118 771.294 880.449 772.456 881.812 773.594C886.294 777.333 890.633 781.171 894.594 785.469C901.228 792.666 906.868 800.692 912.438 808.719C914.718 812.005 916.879 815.421 919.438 818.5C920.644 819.952 921.946 821.295 923.219 822.688C923.92 823.455 924.73 824.222 925.25 825.125C926.731 827.699 927.649 830.74 928.406 833.594C929.611 838.133 930.42 842.811 930.719 847.5C931.195 854.974 930.115 862.813 926 869.219C923.015 873.866 918.32 877.037 913.656 879.812C910.608 881.627 907.506 883.267 904.188 884.531C901.587 885.521 898.916 886.347 896.219 887.031C894.908 887.364 893.564 887.591 892.25 887.906C889.568 888.55 886.907 889.31 884.156 889.625C876.086 890.55 867.839 889.632 859.844 888.5C854.616 887.76 849.403 886.944 844.188 886.125C841.656 885.727 839.148 885.314 836.594 885.094C832.66 884.755 828.581 884.932 824.688 884.219C823.991 884.091 823.313 883.888 822.625 883.719C822.584 883.707 822.568 883.706 822.5 883.688C822.49 883.685 822.479 883.69 822.469 883.688C822.376 883.647 822.412 883.626 822.281 883.562C822.081 883.465 821.905 883.34 821.719 883.219C821.111 882.825 820.536 882.386 819.969 881.938C818.444 880.733 816.912 879.513 815.312 878.406C810.692 875.187 804.344 876.317 801.125 880.938C797.906 885.558 799.036 891.906 803.656 895.125C805.21 896.218 806.657 897.492 808.156 898.656C810.46 900.444 812.947 902.066 815.719 903.031C821.869 905.172 828.296 905.091 834.688 905.719C838.472 906.09 842.271 906.928 846 907.656C858.776 910.152 871.574 912.68 884.594 913.406C888.983 913.651 893.435 913.948 897.812 913.375C907.506 912.106 916.682 908.774 925.375 904.375C931.812 901.118 938.117 897.359 943.562 892.594C949.298 887.574 954.007 881.426 957.438 874.625C963.121 863.357 964.971 850.441 963.844 837.938C962.93 827.808 960.467 817.493 955.594 808.5C954.297 806.108 952.735 803.874 951 801.781C949.472 799.937 947.722 798.269 946.219 796.406C945.512 795.531 944.957 794.501 944.344 793.562C943.412 792.136 942.483 790.715 941.562 789.281C935.509 779.849 929.62 770.294 922.562 761.562C918.938 757.078 915.025 752.815 910.844 748.844C909.147 747.232 907.365 745.719 905.625 744.156C902.318 741.185 899.182 738.079 895.469 735.594C892.399 733.539 889.055 731.91 885.688 730.406C877.388 726.7 868.621 724.244 859.688 722.625C851.912 721.216 844.023 720.592 836.25 719.188C827.435 717.594 818.869 714.827 810.25 712.438C806.298 711.342 802.331 710.175 798.281 709.5C789.832 708.092 781.19 708.294 772.656 708.375C769.458 708.405 766.261 708.346 763.062 708.312C751.462 708.189 739.836 707.897 728.25 707.281C726.846 707.207 725.449 706.904 724.062 706.688C722.408 706.429 720.752 706.166 719.094 705.938C717.311 705.692 715.514 705.582 713.719 705.594Z" fill="#000000" stroke="none"/>
</g>
<g opacity="1">
<path d="M731.438 760.312C724.782 760.336 718.119 760.382 711.469 760.656C709.072 760.755 706.675 760.875 704.281 761.031C703.475 761.084 702.683 761.235 701.875 761.219C701.047 761.202 700.23 761.026 699.406 760.938C698.153 760.803 696.88 760.675 695.625 760.562C695.206 760.525 694.796 760.429 694.375 760.438C693.154 760.462 691.858 760.8 690.656 761C686.87 761.628 683.206 762.582 679.531 763.688C669.677 765.415 662.679 773.843 662.406 783.469C662.367 784.844 662.472 786.249 662.719 787.656C664.693 798.918 675.425 806.443 686.688 804.469C689.784 804.299 692.841 804.277 695.938 804.062C696.908 803.995 698.017 804.046 698.969 803.844C699.646 803.7 700.282 803.378 700.938 803.156C702.218 802.723 703.577 802.124 704.906 801.875C706.216 801.63 707.67 801.7 709 801.625C711.411 801.489 713.805 801.378 716.219 801.312C723.901 801.102 731.597 801.127 739.281 801.062C745.695 801.008 752.119 800.898 758.531 800.75C766.546 800.565 774.617 800.368 782.594 801.344C788.059 802.012 793.382 803.551 798.625 805.188C804.898 807.145 811.087 809.307 817.375 811.219C822.066 812.645 826.848 813.859 831.688 814.656C836.002 815.367 840.383 815.763 844.719 816.312C849.306 816.894 853.614 818.506 857.812 820.406C867.195 824.653 875.164 831.286 879.469 840.812C880.163 842.349 880.824 843.895 881.344 845.5C881.672 846.513 881.922 847.621 882.281 848.625C882.087 848.728 881.88 848.854 881.719 848.938C879.743 849.961 877.599 850.544 875.438 851.031C872.752 851.637 870.02 852.026 867.344 852.656C865.198 853.162 863.099 853.918 860.938 854.375C858.857 854.815 856.772 855.14 854.688 855.562C845.053 857.516 835.446 859.805 826.406 863.75C822.386 865.505 818.249 867.496 814.781 870.219C812.778 871.791 811.095 873.694 809.562 875.719C808.435 877.208 807.411 878.779 806.219 880.219C802.594 884.529 803.127 890.969 807.438 894.594C811.748 898.218 818.188 897.654 821.812 893.344C823.045 891.894 824.17 890.363 825.312 888.844C825.9 888.062 826.673 886.894 827.469 886.406C833.1 882.96 839.279 880.912 845.719 879.562C849.608 878.747 853.557 878.205 857.531 878.062C859.371 877.997 861.222 877.973 863.062 878.031C865.452 878.108 867.858 878.431 870.25 878.406C871.627 878.392 873.005 878.232 874.375 878.094C876.593 877.87 878.783 877.564 880.969 877.125C891.599 874.991 902.472 870.906 908.25 861.062C909.186 859.469 909.939 857.793 910.5 856.031C911.412 853.166 911.79 850.179 911.844 847.188C911.898 844.196 911.642 841.193 911.281 838.25C910.714 833.619 909.658 829.074 908.062 824.688C906.913 821.527 905.456 818.399 903.75 815.5C895.877 802.128 882.662 793.421 868.906 786.969C863.491 784.429 857.915 782.282 852.094 780.875C846.621 779.553 841.021 778.752 835.625 777.125C819.927 772.389 804.797 765.683 788.562 762.844C769.723 759.549 750.478 760.245 731.438 760.312ZM883.719 847.469C883.544 847.809 883.189 848.07 882.812 848.312C882.946 848.054 883.066 847.771 883.281 847.562C883.316 847.529 883.844 847.225 883.719 847.469Z" fill="#000000" stroke="none"/>
</g>
<g opacity="1">
<path d="M293.375 513C287.832 512.52 282.095 514.168 277.5 518.031C277.232 518.027 276.954 518.022 276.688 518C276.507 517.985 276.337 517.889 276.156 517.906C275.932 517.928 275.662 517.942 275.531 518.125C275.31 518.435 275.336 518.856 275.219 519.219C275.078 519.652 275.022 520.135 274.75 520.5C274.478 520.865 274.017 521.067 273.656 521.344C268.392 525.383 264.383 530.122 261.625 536.188C259.225 541.468 258.538 546.709 257.969 552.406C257.597 556.126 257.108 559.877 257.281 563.625C257.413 566.479 257.87 569.34 258.094 572.188C258.361 575.584 258.037 579.088 258.938 582.406C259.675 585.123 261.224 587.47 262.25 590.062C262.719 591.248 263.085 592.47 263.344 593.719C263.47 594.332 263.466 594.957 263.625 595.562C263.786 596.176 263.968 596.793 264.281 597.344C264.638 597.97 265.212 598.451 265.594 599.062C265.931 599.604 266.201 600.22 266.438 600.812C267.744 604.094 267.981 607.748 268.406 611.219C268.929 617.109 274.141 621.46 280.031 620.938C285.921 620.415 290.273 615.234 289.75 609.344C289.554 605.778 289.046 602.014 289.688 598.469C289.801 597.843 289.898 597.188 290.125 596.594C290.376 595.938 290.862 595.381 291.094 594.719C291.296 594.141 291.391 593.548 291.438 592.938C291.481 592.36 291.356 591.766 291.375 591.188C291.414 590.003 291.552 588.804 291.844 587.656C292.434 585.336 293.692 583.247 294.25 580.906C294.736 578.865 294.52 576.819 294.719 574.75C294.945 572.387 295.883 570.244 296.469 567.969C297.052 565.702 297.245 563.336 297.625 561.031C297.832 559.78 298.025 558.546 298.531 557.375C298.839 556.663 299.219 556.005 299.656 555.375C299.831 555.197 299.989 555.005 300.188 554.969C300.571 554.898 300.985 555.033 301.375 555.031C301.824 555.029 302.313 555.129 302.719 554.938C303.142 554.738 303.38 554.29 303.688 553.938C304.386 553.135 304.947 552.24 305.469 551.312C314.658 543.587 315.851 529.877 308.125 520.688C304.262 516.093 298.918 513.48 293.375 513ZM300.344 554.344C300.248 554.478 300.13 554.618 300.031 554.75C300.091 554.656 300.156 554.561 300.219 554.469C300.254 554.417 300.304 554.38 300.344 554.344Z" fill="#000000" stroke="none"/>
</g>
<g opacity="1">
<path d="M272.906 602.906C272.238 602.929 271.56 602.985 270.906 603.125C269.66 603.393 268.531 604.092 267.281 604.344C266.185 604.564 265.054 604.462 263.938 604.531C262.063 604.648 260.158 604.829 258.281 604.688C255.036 604.442 251.822 604.142 248.562 604.5C246.595 604.716 244.648 605.186 242.75 605.75C233.223 608.581 225.478 615.075 220.344 623.5C215.851 630.874 214.135 639.18 216.719 647.5C218.1 651.949 220.506 655.992 223.469 659.562C229.58 666.926 237.695 672.398 246.781 675.375C251.362 676.876 256.13 677.739 260.906 678.312C265.644 678.882 270.422 679.274 275.188 679.531C277.114 679.635 279.044 679.67 280.969 679.781C283.126 679.905 285.24 680.235 287.406 680.219C291.8 680.185 295.984 679.195 299.75 676.875C303.024 674.858 305.484 671.797 307.219 668.406C308.21 666.47 308.778 664.396 309.625 662.406C311.507 657.988 313.457 653.714 314.594 649.031C315.44 645.546 315.887 641.701 315.125 638.156C314.473 635.125 313.188 632.152 311.969 629.312C310.37 625.59 308.411 621.89 305.281 619.219C303.909 618.048 302.358 617.15 300.719 616.406C299.23 615.731 297.657 615.322 296.094 614.875C293.779 608.893 288.228 604.446 281.406 603.969C279.424 603.541 280.446 604.861 279.406 603.531C278.935 602.929 277.915 603.249 277.156 603.156C275.75 602.984 274.323 602.858 272.906 602.906ZM293.094 632.094C293.313 632.23 293.583 632.314 293.781 632.469C293.831 632.508 293.653 632.43 293.594 632.406C293.587 632.403 293.505 632.379 293.5 632.375C293.458 632.342 293.356 632.232 293.375 632.281C293.455 632.486 293.623 632.665 293.688 632.875C293.991 633.857 294.153 634.859 294.281 635.875C294.377 636.634 294.547 637.451 294.469 638.219C294.394 638.955 294.046 639.624 293.906 640.344C293.664 641.597 293.525 642.881 293.094 644.094C292.443 645.923 291.339 647.721 290.219 649.281C289.498 650.285 288.767 651.282 288.031 652.281C287.989 652.273 287.949 652.259 287.906 652.25C287.366 652.136 286.721 652.007 286.188 651.906C284.466 651.581 282.746 651.43 281 651.312C276.509 651.011 272.018 650.712 267.594 649.844C261.868 648.719 255.528 646.353 251 642.562C250.205 641.897 249.525 641.096 248.844 640.312C249.485 639.666 250.16 638.997 250.969 638.562C251.306 638.381 251.641 638.226 252 638.094C252.1 638.057 252.211 638.033 252.312 638C252.365 637.983 252.398 637.956 252.469 637.938C252.744 637.924 253.035 638.013 253.312 638.031C253.485 638.043 253.64 638.048 253.812 638.062C254.901 638.153 256.002 638.255 257.094 638.312C260.069 638.469 263.03 638.308 266 638.125C267.143 638.055 268.295 637.82 269.438 637.906C270.516 637.988 271.528 638.53 272.594 638.719C273.856 638.942 275.252 638.693 276.5 638.469C276.875 638.401 276.492 638.476 279 638.031C284.586 638.422 289.697 636.03 293.094 632.094ZM252.312 637.938C252.342 637.931 252.376 637.941 252.406 637.938C252.327 637.959 252.237 637.989 252.156 638C252.104 638.007 252.261 637.949 252.312 637.938ZM247.281 638.312C247.292 638.273 247.359 638.369 247.375 638.406C247.403 638.47 247.413 638.528 247.438 638.594C247.372 638.48 247.264 638.376 247.281 638.312ZM287.188 653.438C286.798 653.954 286.378 654.496 285.875 654.906C285.755 655.004 285.593 655.067 285.438 655.062C285.366 655.061 285.212 655.165 285.219 655.094C285.232 654.942 285.659 654.447 285.781 654.312C286.148 653.909 286.692 653.707 287.188 653.438Z" fill="#000000" stroke="none"/>
</g>
<g opacity="1">
<path d="M289.469 662.031C280.039 661.907 272.281 669.476 272.156 678.906C271.907 679.637 271.606 680.348 271.406 681.094C271.318 681.423 271.191 681.754 271.219 682.094C271.25 682.47 271.433 682.814 271.594 683.156C271.777 683.548 272.14 683.863 272.25 684.281C272.346 684.646 272.181 685.03 272.156 685.406C272.105 686.177 272.062 686.948 272 687.719C271.8 690.211 271.52 692.696 271.312 695.188C271.164 696.971 270.996 698.773 270.938 700.562C270.828 703.902 270.905 707.222 270.906 710.562C270.908 715.687 270.814 720.867 271.688 725.938C272.432 730.258 273.857 734.429 275.375 738.531C276.841 742.491 278.432 746.525 280.875 750C283.014 753.042 285.779 755.467 288.312 758.156C290.88 760.882 293.078 764.101 296.156 766.281C296.797 766.735 297.538 767.046 298.219 767.438C299.109 767.949 299.954 768.517 300.844 769.031C305.167 771.532 309.693 773.718 313.906 776.406C317.766 778.99 322.979 777.954 325.562 774.094C328.146 770.234 327.11 764.99 323.25 762.406C321.481 761.174 319.663 760.06 317.844 758.906C316.004 757.74 314.105 756.491 312.656 754.844C312.28 754.416 311.839 753.708 311.688 753.156C311.603 752.849 311.769 752.517 311.656 752.219C311.461 751.704 311.188 751.223 310.906 750.75C309.797 748.891 308.556 747.373 307.812 745.281C307.044 743.119 306.725 740.797 306.094 738.594C305.807 737.593 305.373 736.275 304.969 735.312C304.211 733.507 303.304 731.811 302.906 729.875C302.416 727.484 302.611 725.045 302.594 722.625C302.566 718.718 302.428 714.79 302.969 710.906C303.309 708.461 303.786 706.033 304.156 703.594C304.955 698.325 305.395 692.971 305.75 687.656C305.781 687.197 305.672 686.719 305.812 686.281C305.976 685.772 306.403 685.362 306.625 684.875C306.829 684.427 307.032 683.988 307.094 683.5C307.155 683.013 307.067 682.517 307 682.031C306.844 680.905 306.641 680.396 306.312 679.344C306.437 669.914 298.899 662.156 289.469 662.031Z" fill="#000000" stroke="none"/>
</g>
<g opacity="1">
<path d="M332.5 511.594C332.169 511.555 331.858 511.717 331.531 511.781C331.215 511.843 330.909 511.902 330.594 511.969C329.292 512.243 328.063 512.739 326.812 513.188C317.441 514.244 310.693 522.691 311.75 532.062C312.807 541.434 321.285 548.182 330.656 547.125C332.364 547.312 334.001 547.433 335.719 547.375C336.007 547.365 336.293 547.449 336.562 547.344C337.642 546.922 338.591 546.11 339.719 545.844C340.656 545.623 341.632 545.677 342.594 545.625C343.961 545.552 345.319 545.517 346.688 545.562C352.078 545.742 357.38 546.891 362.719 547.562C368.02 548.23 373.363 548.473 378.688 548.875C382.051 549.129 385.397 549.452 388.75 549.812C391.077 550.063 393.437 550.263 395.75 550.625C397.528 550.903 399.294 551.285 401.031 551.75C401.482 551.871 401.926 552.028 402.375 552.156C402.702 552.25 402.491 552.15 402.844 552.281C402.912 552.307 403.101 552.406 403.062 552.344C403.091 552.37 403.137 552.383 403.156 552.406C403.302 552.582 403.418 552.76 403.562 552.938C404.089 553.586 404.589 554.239 405.094 554.906C406.477 556.735 407.879 558.562 409.469 560.219C411.359 562.189 413.549 563.866 415.375 565.906C416.518 567.184 417.591 568.586 418.562 570C419.463 571.31 420.193 572.787 421.188 574.031C421.858 574.87 422.716 575.552 423.406 576.375C424.074 577.172 424.628 578.073 425.156 578.969C428.092 583.948 429.072 589.851 429.844 595.5C430.405 600.111 434.608 603.374 439.219 602.812C443.83 602.251 447.124 598.08 446.562 593.469C446.014 588.336 445.136 583.267 443.906 578.25C443.411 576.229 442.809 574.231 442.281 572.219C441.931 570.882 441.498 569.565 441.188 568.219C440.871 566.846 440.743 565.425 440.281 564.094C439.606 562.147 438.451 560.329 437.469 558.531C435.763 555.409 434.089 552.292 432.594 549.062C432.12 548.039 431.616 547.03 431.156 546C430.205 543.866 429.521 541.643 428.438 539.562C426.092 535.057 422.769 531.104 418.5 528.312C415.32 526.233 411.776 524.912 408.25 523.562C406.735 522.983 405.217 522.355 403.688 521.812C399.094 520.185 394.385 518.985 389.562 518.281C386.093 517.775 382.611 517.376 379.125 517C376.545 516.721 373.981 516.444 371.438 515.906C368.718 515.331 366.027 514.565 363.312 513.969C359.897 513.219 356.447 512.639 352.969 512.281C349.686 511.944 346.361 511.853 343.062 511.938C341.556 511.976 340.157 512.044 338.656 512.156C337.965 512.208 337.287 512.351 336.594 512.344C335.904 512.337 335.209 512.249 334.531 512.125C333.847 512 333.191 511.674 332.5 511.594Z" fill="#000000" stroke="none"/>
</g>
<g opacity="1">
<path d="M485.625 591.688C484.574 591.87 483.431 592.576 482.375 592.844C481.288 593.119 480.141 593.042 479.031 593.062C477.487 593.091 475.951 593.137 474.406 593.156C465.71 593.267 456.967 593.277 448.312 594.25C443.648 594.775 439.044 595.695 434.469 596.719C431.967 597.278 429.424 597.544 426.938 598.188C423.854 598.986 420.896 600.147 418.188 601.844C413.776 604.606 410.559 608.734 408.562 613.5C407.522 615.985 406.887 618.581 406.25 621.188C404.627 627.829 404.311 634.604 404.938 641.406C405.262 644.923 405.753 648.488 406.781 651.875C407.505 654.259 408.566 656.576 409.656 658.812C411.952 663.523 415.017 667.889 419.156 671.156C426.091 676.63 434.898 678.714 443.594 678.562C448.654 678.475 453.677 677.383 458.719 677.438C461.806 677.471 464.955 677.985 467.969 678.625C470.371 679.135 472.824 679.785 475.281 679.969C476.898 680.09 478.536 680.049 480.156 680.156C483.919 680.405 487.646 680.849 491.406 681.125C494.485 681.351 497.574 681.405 500.656 681.594C504.59 681.834 508.487 682.272 512.375 682.906C516.951 683.701 521.299 680.608 522.094 676.031C522.889 671.455 519.826 667.107 515.25 666.312C511.468 665.615 507.703 665.092 503.875 664.719C498.963 664.24 494.004 663.885 489.188 662.75C487.926 662.453 486.727 662.009 485.5 661.594C484.433 661.232 483.853 661.063 482.844 660.594C481.487 659.963 480.244 659.253 478.812 658.781C476.394 657.983 473.929 657.399 471.469 656.75C468.284 655.91 465.116 655.115 461.906 654.375C457.617 653.386 453.25 652.645 448.906 651.938C445.558 651.392 442.082 650.904 438.875 649.75C438.451 649.598 437.044 649.009 436.969 648.75C436.83 648.276 436.497 647.806 436.312 647.344C435.977 646.504 435.691 645.657 435.469 644.781C435.408 644.544 435.353 644.304 435.312 644.062C435.283 643.888 435.379 644.299 435.406 644.125C435.462 643.767 435.409 643.359 435.406 643C435.4 642.318 435.389 641.619 435.406 640.938C435.478 638.175 435.675 635.397 436.031 632.656C436.194 631.403 436.526 630.257 436.844 629.062C437.352 629.015 437.868 628.964 438.375 628.906C441.701 628.529 444.97 627.971 448.312 627.719C459.163 626.899 470.034 626.928 480.906 626.688C481.738 626.669 482.585 626.644 483.406 626.781C484.665 626.991 485.944 627.572 487.219 627.656C488.066 627.712 488.907 627.502 489.75 627.406C491.893 627.162 493.972 626.679 496.062 626.156C505.461 625.373 512.439 617.117 511.656 607.719C510.873 598.321 502.617 591.342 493.219 592.125C491.411 591.982 489.627 591.749 487.812 591.719C487.09 591.707 486.337 591.564 485.625 591.688Z" fill="#000000" stroke="none"/>
</g>
<g opacity="1">
<path d="M469.094 662.094C466.885 661.892 464.59 662.127 462.344 662.844C453.36 665.712 448.412 675.329 451.281 684.312C451.473 686.027 451.381 687.883 451.812 689.562C452.141 690.838 453.169 691.708 453.562 692.938C453.685 693.319 453.674 693.727 453.719 694.125C453.806 694.899 453.885 695.786 453.938 696.562C454.399 703.401 453.668 710.282 453.125 717.094C452.859 720.438 452.769 723.804 452.656 727.156C452.492 732.022 452.358 736.873 451.875 741.719C451.72 743.276 451.558 744.813 451.469 746.375C451.462 746.488 451.444 746.624 451.438 746.75C450.274 747.362 449.121 748.001 447.938 748.562C440.862 751.916 433.108 752.996 425.438 754.062C421.682 754.585 417.966 755.244 414.25 756C410.4 756.783 406.58 757.722 402.688 758.281C400.08 758.656 397.438 758.914 394.812 759.125C392.189 759.336 389.531 759.372 386.938 759.875C385.893 760.078 384.912 760.611 383.844 760.781C380.594 761.299 377.206 761.011 373.938 760.969C369.776 760.915 365.493 761.157 361.469 762.312C359.537 762.867 357.73 763.712 356.031 764.781C353.901 766.122 352.031 767.782 349.969 769.219C346.129 771.833 345.136 777.067 347.75 780.906C350.364 784.746 355.567 785.739 359.406 783.125C361.001 782.058 362.541 780.907 364.094 779.781C364.594 779.418 365.176 778.99 365.781 778.812C368.076 778.141 370.712 778.388 373.031 778.625C376.398 778.969 379.737 779.697 383.062 780.312C384.669 780.61 386.272 781.063 387.906 781.188C390.531 781.387 393.157 781.21 395.781 781.188C398.427 781.165 401.108 781.214 403.75 781.344C410.628 781.682 417.406 782.701 424.312 782.5C429.794 782.341 435.279 781.58 440.688 780.719C445.053 780.024 449.413 779.258 453.719 778.25C457.036 777.473 460.198 776.397 463.375 775.188C465.138 774.517 466.88 773.861 468.562 773C472.578 770.946 476.151 768.049 478.594 764.219C480.237 761.642 481.383 758.844 482.094 755.875C483.006 752.064 483.104 748.099 483.594 744.219C484.298 738.639 484.965 733.054 485.625 727.469C486.263 722.073 486.91 716.67 487.312 711.25C487.682 706.271 487.855 701.271 487.625 696.281C487.534 694.302 487.378 692.312 487.156 690.344C487.08 689.667 486.93 688.993 486.906 688.312C486.83 686.132 487.335 684.124 486.906 681.938C486.354 679.121 485.075 676.486 483.812 673.938C481.661 667.2 475.721 662.699 469.094 662.094ZM453.938 745.344C453.965 745.324 454.041 745.312 454.031 745.344C453.987 745.485 453.8 745.529 453.656 745.594C453.753 745.516 453.838 745.415 453.938 745.344Z" fill="#000000" stroke="none"/>
</g>
<g opacity="1">
<path d="M305.625 412.5C302.338 412.383 298.968 413.219 295.969 415.094C287.972 420.092 285.533 430.628 290.531 438.625C291.048 439.072 291.493 439.613 292.094 439.938C292.84 440.34 293.656 440.667 294.5 440.75C295.82 440.879 297.174 440.578 298.5 440.562C299.687 440.548 300.844 440.628 302.031 440.656C304.493 444.595 309.686 445.806 313.625 443.344C317.564 440.882 318.774 435.689 316.312 431.75C316.807 430.671 317.248 429.561 317.781 428.5C318.377 427.315 319.225 426.243 319.688 425C319.983 424.205 320.066 423.347 320.031 422.5C320.003 421.817 319.675 421.16 319.5 420.5C316.376 415.502 311.103 412.695 305.625 412.5Z" fill="#000000" stroke="none"/>
</g>
<g opacity="1">
<path d="M306.438 415C303.151 414.883 299.811 415.688 296.812 417.562C291.814 420.686 288.976 425.991 288.781 431.469C288.664 434.756 289.501 438.095 291.375 441.094C291.892 441.541 292.336 442.113 292.938 442.438C293.684 442.84 294.5 443.167 295.344 443.25C296.664 443.379 297.986 443.078 299.312 443.062C300.5 443.048 301.688 443.128 302.875 443.156C305.337 447.095 310.53 448.274 314.469 445.812C318.408 443.351 319.587 438.189 317.125 434.25C317.62 433.171 318.092 432.061 318.625 431C319.22 429.815 320.069 428.743 320.531 427.5C320.827 426.705 320.91 425.816 320.875 424.969C320.847 424.286 320.519 423.66 320.344 423C317.22 418.002 311.916 415.195 306.438 415Z" fill="#000000" stroke="none"/>
</g>
<g opacity="1">
<path d="M395.844 187.781C394.48 187.688 393.074 187.69 391.688 187.812C381.998 188.666 372.523 194.217 368.688 203.438C367.609 206.029 367.085 208.676 366.906 211.469C366.552 217.012 367.969 222.631 369.969 227.75C371.017 230.434 372.409 232.955 373.406 235.656C373.672 236.376 373.796 237.093 373.969 237.844C374.286 239.22 374.63 240.583 374.906 241.969C376.052 247.725 376.867 253.538 377.906 259.312C378.689 263.659 379.629 267.993 380.688 272.281C382.451 279.425 384.578 286.492 386.812 293.5C387.969 297.127 389.274 300.713 390.312 304.375C390.771 305.991 390.655 307.828 390.688 309.5C390.694 309.832 390.665 310.172 390.719 310.5C390.874 311.454 391.379 312.414 391.719 313.312C392.072 314.248 392.371 315.212 392.781 316.125C393.457 317.628 394.196 319.122 394.875 320.625C398.121 332.184 410.129 338.902 421.688 335.656C433.246 332.41 439.965 320.403 436.719 308.844C436.354 305.905 435.987 303.035 435.281 300.156C435.036 299.155 434.867 297.944 434.438 297C433.516 294.975 431.852 293.394 431.094 291.281C430.393 289.327 429.826 287.319 429.188 285.344C427.639 280.551 426.14 275.729 424.688 270.906C422.69 264.273 421.151 257.527 419.594 250.781C418.751 247.13 417.86 243.507 416.938 239.875C418.404 240.566 419.899 241.2 421.344 241.938C423.497 243.037 425.6 244.276 427.719 245.438C430.549 246.989 433.355 248.515 436.188 250.062C440.183 252.245 444.272 254.255 448.25 256.469C451.22 258.122 454.101 259.733 456.688 261.969C460.669 265.41 464.099 269.573 467.281 273.75C468.312 275.102 469.277 276.495 470.312 277.844C470.987 278.723 471.717 279.57 472.406 280.438C472.845 280.99 473.243 281.572 473.719 282.094C474.947 283.439 476.398 284.588 477.594 285.969C479.74 288.448 481.626 291.177 483.438 293.906C486.352 298.297 488.896 302.984 491.5 307.562C494.627 313.062 497.78 318.536 501.125 323.906C504.203 328.956 510.763 330.546 515.812 327.469C520.862 324.391 522.484 317.799 519.406 312.75C514.784 304.999 510.574 297.083 506.562 289C505.521 286.901 504.41 284.805 503.406 282.688C501.85 279.405 500.253 276.133 498.781 272.812C497.924 270.88 497.324 268.829 496.375 266.938C495.803 265.798 495.021 264.703 494.344 263.625C492.995 261.477 491.551 259.44 490.125 257.344C487.848 253.996 485.597 250.593 483.312 247.25C480.19 242.681 477.142 238.024 473.312 234C469.135 229.61 464.463 225.622 459.469 222.188C454.973 219.096 450.229 216.432 445.5 213.719C440.35 210.765 435.155 207.882 430 204.938C425.678 202.469 421.528 199.717 417.281 197.125C415.934 196.303 414.541 195.561 413.188 194.75C412.569 194.379 412.009 193.898 411.406 193.5C410.163 192.678 408.885 191.878 407.562 191.188C403.883 189.267 399.934 188.062 395.844 187.781Z" fill="#000000" stroke="none"/>
</g>
<g opacity="1">
<path d="M499.156 293.094C488.67 292.789 478.516 298.673 473.875 308.812C472.328 312.192 471.539 315.723 471.438 319.219C471.133 329.705 477.017 339.828 487.156 344.469C487.98 345.157 488.67 345.953 489.469 346.656C489.936 347.067 490.461 347.391 490.969 347.75C491.234 347.937 491.477 348.199 491.781 348.312C492.845 348.709 494.012 348.193 495.094 348.312C495.93 348.405 496.241 348.682 496.938 349.094C497.833 349.623 498.744 350.167 499.625 350.719C505.465 354.373 510.962 358.562 516.375 362.812C520.797 366.285 525.362 369.529 529.562 373.281C531.905 375.374 533.709 378.211 535.469 380.781C538.102 384.628 540.645 388.505 543.594 392.125C547.124 396.458 551.223 400.303 554.625 404.75C557.81 408.913 560.203 413.57 563.219 417.844C564.653 419.877 566.097 421.91 567.625 423.875C568.357 424.816 569.109 425.719 569.719 426.75C571.52 429.796 572.468 433.396 573.281 436.812C573.819 439.074 574.192 441.381 575.031 443.562C575.675 445.236 576.776 446.581 577.594 448.156C578.621 450.136 579.409 452.319 580.188 454.406C580.965 456.493 581.546 458.628 582.219 460.75C584.035 466.479 585.556 472.31 587.188 478.094C588.82 484.29 594.561 488.313 600.719 487.969C601.598 487.92 602.49 487.764 603.375 487.531C609.571 485.899 613.594 480.157 613.25 474C613.201 473.12 613.046 472.229 612.812 471.344C611.418 465.652 609.944 459.964 608.938 454.188C608.576 452.114 608.193 450.035 608 447.938C607.807 445.843 607.615 443.666 607.75 441.562C607.857 439.903 608.33 438.334 608.281 436.656C608.22 434.551 607.744 432.484 607.469 430.406C607.241 428.689 607.133 426.943 606.969 425.219C606.276 417.963 605.862 410.715 604.031 403.625C603.121 400.099 601.912 396.665 600.344 393.375C596.88 386.11 592.165 379.486 588.094 372.562C586.808 370.376 585.453 368.23 584.188 366.031C583.336 364.552 582.58 363.022 581.75 361.531C578.767 356.177 575.544 350.864 571.938 345.906C568.93 341.772 565.495 338.031 562.031 334.281C558.567 330.531 555.028 326.815 551.281 323.344C546.659 319.061 541.578 315.197 536.438 311.562C533.595 309.553 530.701 307.596 527.75 305.75C526.066 304.696 524.26 303.781 522.625 302.656C522.205 302.367 521.767 302.079 521.406 301.719C520.279 300.59 519.573 299.007 518.188 298.125C517.761 297.854 517.249 297.754 516.781 297.562C516.302 297.367 515.827 297.154 515.344 296.969C513.477 296.251 511.531 295.854 509.562 295.531C506.183 293.984 502.652 293.195 499.156 293.094Z" fill="#000000" stroke="none"/>
</g>
<g opacity="1">
<path d="M294.438 442.312C290.456 441.919 286.203 442.179 282.719 444.375C281.94 444.866 281.206 445.405 280.531 446.031C279.808 446.703 279.128 447.44 278.562 448.25C277.979 449.087 277.479 449.993 277.094 450.938C276.714 451.868 276.461 452.854 276.281 453.844C276.13 454.678 276.078 455.527 276.094 456.375C276.11 457.21 276.198 458.059 276.375 458.875C276.582 459.83 276.859 460.76 277.25 461.656C277.642 462.555 278.146 463.423 278.719 464.219C279.269 464.983 279.898 465.679 280.594 466.312C281.238 466.9 281.977 467.418 282.719 467.875C286.009 469.903 289.797 469.953 293.5 469.562C294.244 469.484 294.975 469.422 295.719 469.344C296.016 469.312 296.346 469.355 296.594 469.188C296.761 469.075 296.593 469.037 296.375 469C297.287 469.332 298.247 469.588 299.25 469.719C299.229 469.793 299.254 469.689 299.219 469.812C299.177 469.961 298.756 469.899 298.938 470.219C299.234 470.742 299.919 470.127 300.344 469.969C300.534 470.034 300.719 470.123 300.906 470.188C304.531 471.439 307.863 472.102 311.594 470.688C312.875 470.202 314.154 469.562 315.219 468.688C316.022 468.028 316.808 467.326 317.438 466.5C318.194 465.508 318.874 464.436 319.344 463.281C319.831 462.083 320.133 460.785 320.281 459.5C320.413 458.365 320.286 457.232 320.188 456.094C320.146 455.614 319.978 455.158 319.875 454.688C319.874 454.685 319.877 454.656 319.875 454.656C319.599 453.918 319.394 453.137 319.031 452.438C318.557 451.522 317.956 450.673 317.344 449.844C316.825 449.14 315.986 448.35 315.281 447.781C313.849 446.625 312.158 445.897 310.438 445.281C309.841 445.068 309.194 445.023 308.656 444.688C308.006 444.282 307.567 443.549 306.875 443.219C306.232 442.912 304.863 443.003 304.156 443C303.874 442.999 304.144 443 302.688 443.031C302.169 442.965 301.667 443.007 301.156 443C300.686 442.948 300.221 442.821 299.75 442.781C299.075 442.725 298.428 442.781 297.75 442.719C296.645 442.617 295.542 442.422 294.438 442.312Z" fill="#497ccc" stroke="none"/>
</g>
<g opacity="1">
<path d="M293.25 449.969C292.357 449.93 291.448 449.979 290.531 450.125C283.196 451.296 278.173 458.196 279.344 465.531C279.214 466.5 278.947 467.647 279.156 468.625C279.221 468.927 279.371 469.205 279.531 469.469C279.711 469.764 280.029 469.974 280.188 470.281C280.342 470.58 280.369 470.921 280.438 471.25C280.688 472.454 280.785 473.791 280.938 475C281.324 478.069 281.612 481.154 282.031 484.219C282.364 486.652 282.814 489.052 283.031 491.5C283.248 493.939 283.269 496.429 283.344 498.875C283.462 502.729 283.931 506.55 283.938 510.406C283.94 511.796 284.012 513.149 284.156 514.531C284.165 514.619 284.179 514.671 284.188 514.75C283.967 515.488 283.78 516.223 283.594 516.938C282.983 519.275 282.718 521.803 283.594 524.125C283.882 524.888 284.148 525.682 284.625 526.344C285.429 527.458 286.306 528.583 287.406 529.406C288.503 530.228 289.772 530.824 291.094 531.188C292.37 531.539 293.74 531.539 295.062 531.5C295.857 531.476 296.613 531.227 297.375 531C300.94 529.937 303.953 526.793 305.438 523.469C306.549 520.98 306.893 518.232 306.812 515.531C306.781 514.49 306.644 513.476 306.562 512.438C306.538 512.12 306.511 511.933 306.562 511.656C307.208 508.174 307.769 504.599 308 501.062C308.229 497.548 308.145 494.05 308.156 490.531C308.165 487.734 308.272 484.922 308.188 482.125C308.124 480.028 307.934 477.93 307.719 475.844C307.505 473.773 307.241 471.689 306.969 469.625C306.875 468.914 306.713 468.215 306.656 467.5C306.63 467.165 306.603 466.832 306.656 466.5C306.722 466.094 306.96 465.717 307.031 465.312C307.097 464.938 307.105 464.565 307.062 464.188C306.951 463.19 306.333 462.165 305.906 461.281C304.882 454.863 299.5 450.241 293.25 449.969ZM302.719 515.562C302.964 516.012 303.192 516.459 303.375 516.938C303.541 517.374 303.662 518.114 303.656 518.625C303.656 518.639 303.652 518.943 303.5 518.875C303.228 518.753 303 517.605 302.938 517.344C302.797 516.754 302.783 516.159 302.719 515.562Z" fill="#497ccc" stroke="none"/>
</g>
<g opacity="1">
<path d="M433.375 437.062C428.638 437.478 424.056 439.245 420.812 442.875C419.681 444.141 418.762 445.681 418.188 447.281C417.951 447.941 417.759 448.625 417.625 449.312C416.814 453.462 418.14 457.87 421.156 460.844C422.815 462.479 424.942 463.57 427.062 464.469C427.98 464.857 428.951 465.262 429.938 465.438C431.873 465.781 433.608 464.984 435.5 464.781C435.685 464.761 435.876 464.786 436.062 464.781C436.074 464.819 436.037 464.874 436.062 464.906C436.109 464.966 436.501 464.851 436.625 464.812C436.906 464.821 437.187 464.793 437.469 464.812C443.962 468.114 451.907 465.668 455.375 459.219C458.893 452.677 456.448 444.518 449.906 441C449.524 440.273 449.437 441.62 449.531 440.281C449.551 440.002 449.178 439.787 448.906 439.719C448.574 439.635 448.249 439.866 447.906 439.875C447.605 439.883 447.29 439.833 447 439.75C446.711 439.667 446.462 439.497 446.188 439.375C445.409 439.03 444.264 438.569 443.531 438.312C441.772 437.697 439.981 437.264 438.125 437.094C436.557 436.95 434.954 436.924 433.375 437.062ZM436.5 443.969C436.649 443.922 436.952 444.055 437.031 444.094C437.267 444.209 437.497 444.33 437.719 444.469C438.294 444.83 438.761 445.315 439.188 445.844C439.534 446.273 439.673 446.83 439.938 447.312C439.877 447.352 439.841 447.427 439.781 447.469C439.622 447.382 439.45 447.305 439.312 447.188C438.47 446.471 438.191 445.56 437.5 444.75C437.275 444.486 437.18 444.429 436.906 444.25C436.748 444.146 436.403 443.999 436.5 443.969ZM439.031 457.5C439.26 457.723 439.422 457.994 439.688 458.188C439.648 458.252 439.603 458.311 439.562 458.375C439.415 458.526 439.365 458.789 439.312 457.938C439.301 457.756 439.151 457.635 439.031 457.5Z" fill="#497ccc" stroke="none"/>
</g>
<g opacity="1">
<path d="M295.469 472.844C294.336 472.642 292.946 472.698 291.812 472.906C290.1 473.222 288.502 473.911 287.094 474.938C283.785 477.35 282.488 481.13 281.875 485C281.699 486.11 281.492 487.654 281.625 488.781C281.696 489.382 281.854 489.963 281.938 490.562C282.091 491.662 282.185 493.078 282.25 494.188C282.325 495.481 282.33 496.77 282.344 498.062C278.264 500.458 275.53 504.873 275.656 509.938C275.542 510.802 276.612 510.183 275.562 510.812C275.24 511.006 275.516 511.561 275.5 511.938C275.485 512.291 275.471 512.646 275.469 513C275.462 514.014 275.557 515.034 275.75 516.031C275.847 516.532 275.894 517.062 276.094 517.531C276.471 518.419 277.236 519.085 277.625 519.969C277.78 520.321 277.834 520.723 277.938 521.094C278.121 521.753 278.326 522.449 278.438 523.125C278.459 523.256 278.456 523.368 278.469 523.5C278.471 523.52 278.468 523.537 278.469 523.562C277.485 528.089 276.797 532.783 278.312 537.281C279.851 541.847 283.546 546.014 288.25 547.438C289.065 547.684 289.901 547.938 290.75 548C292.047 548.095 293.343 548.125 294.625 547.906C295.939 547.682 297.252 547.297 298.438 546.688C299.735 546.02 300.913 545.098 302 544.125C302.733 543.469 303.281 542.65 303.844 541.844C305.53 539.427 306.231 536.383 306.531 533.5C306.726 531.633 306.709 529.779 306.812 527.906C306.955 525.327 307.149 522.776 307.062 520.188C306.868 514.369 306.073 508.592 305.781 502.781C305.618 499.528 305.752 496.282 305.562 493.031C305.481 491.632 305.424 490.833 305.156 489.469C305.141 489.393 305.098 489.619 305.031 489.656C305.008 489.669 304.981 489.648 304.969 489.625C304.864 489.421 304.888 489.094 304.875 488.875C304.736 486.597 304.824 484.277 304.344 482.031C303.34 477.336 300.339 473.713 295.469 472.844ZM299.25 487.094C299.268 487.061 299.248 487.151 299.25 487.188C299.255 487.296 299.297 487.259 299.25 487.406C299.21 487.532 299.126 487.655 299.062 487.781C299.13 487.552 299.136 487.303 299.25 487.094ZM281.156 529.625C281.098 529.851 281.12 530.146 281.031 530.281C280.991 530.342 281.015 530.133 281.031 530.062C281.066 529.913 281.105 529.769 281.156 529.625Z" fill="#497ccc" stroke="none"/>
</g>
<g opacity="1">
<path d="M444.969 417.156C435.538 417.156 427.906 424.788 427.906 434.219C428.039 434.88 428.249 436.121 428.5 436.75C428.872 437.683 429.567 438.477 430.125 439.312C430.396 439.719 430.449 440.273 430.844 440.562C431.653 441.156 432.697 441.394 433.594 441.844C434.387 442.241 435.263 442.518 435.938 443.094C436.297 443.401 436.351 443.952 436.562 444.375C436.562 449.02 440.324 452.781 444.969 452.781C449.614 452.781 453.375 449.02 453.375 444.375C453.586 443.952 453.671 443.401 454.031 443.094C454.706 442.518 455.55 442.241 456.344 441.844C457.241 441.394 458.285 441.156 459.094 440.562C459.488 440.273 459.541 439.719 459.812 439.312C460.37 438.477 461.065 437.683 461.438 436.75C461.689 436.121 461.93 434.88 462.062 434.219C462.062 424.788 454.4 417.156 444.969 417.156Z" fill="#000000" stroke="none"/>
</g>
<g opacity="1">
<path d="M304.875 418.312C295.445 418.395 287.855 426.101 287.938 435.531C288.02 444.962 295.757 452.52 305.188 452.438C305.603 452.349 305.984 452.233 306.406 452.188C306.873 452.137 307.379 452.222 307.844 452.156C308.817 452.018 309.689 451.489 310.625 451.188C311.075 451.042 311.567 451.096 312 450.906C312.492 450.69 312.88 450.27 313.344 450C313.773 449.75 314.261 449.599 314.688 449.344C315.149 449.067 315.66 448.823 316 448.406C316.52 447.769 316.721 446.927 317.188 446.25C317.537 445.743 318.048 445.353 318.438 444.875C318.856 444.362 319.112 443.7 319.625 443.281C319.953 443.014 320.438 443.029 320.844 442.906C325.465 442.433 328.817 438.308 328.344 433.688C327.87 429.067 323.746 425.714 319.125 426.188C318.703 426.15 318.212 426.271 317.844 426.062C317.304 425.756 317.005 425.154 316.562 424.719C316.155 424.318 315.674 424.005 315.312 423.562C314.821 422.96 314.522 422.171 314 421.594C313.407 420.938 312.461 420.771 311.688 420.344C311.28 420.118 310.96 419.745 310.531 419.562C310.187 419.417 309.762 419.488 309.406 419.375C308.656 419.136 307.998 418.641 307.219 418.531C306.86 418.481 306.485 418.569 306.125 418.531C305.703 418.487 305.292 418.394 304.875 418.312Z" fill="#000000" stroke="none"/>
</g>
<g opacity="1">
<path d="M448.25 415.438C440.973 415.612 433.968 419.431 429.969 425.562C428.968 427.096 428.205 428.593 427.656 430.344C426.148 435.154 426.618 440.497 429.094 444.906C430.936 448.188 433.83 450.363 437 452.25C439.29 453.613 441.716 454.989 444.375 455.438C449.008 456.218 454.382 454.562 457.938 451.562C458.655 450.957 459.151 450.17 459.75 449.469C462.499 448.374 465.03 446.606 466.969 444.094C472.729 436.627 471.342 425.886 463.875 420.125C463.032 418.941 463.119 420.688 463.031 418.969C462.993 418.222 461.927 417.957 461.312 417.531C460.764 417.152 460.213 416.708 459.562 416.562C458.902 416.415 458.207 416.689 457.531 416.656C456.573 416.61 455.161 416.2 454.219 416C452.257 415.584 450.255 415.389 448.25 415.438ZM445.375 431.875C445.094 433.149 445.089 434.42 445.406 435.688C444.951 435.25 444.131 435.129 443.906 434.469C443.816 434.202 444.114 433.756 444.219 433.531C444.499 432.931 444.922 432.358 445.375 431.875ZM446.25 437.75C446.613 438.388 446.925 439.049 447.469 439.594C447.243 439.359 446.82 440.812 447.25 439.375C447.342 439.068 446.865 438.861 446.688 438.594C446.545 438.38 446.425 438.169 446.312 437.938C446.285 437.881 446.273 437.81 446.25 437.75ZM443 447.188C443.877 447.864 444.797 448.425 445.75 448.906C445.474 449.063 445.214 449.287 444.906 449.281C444.564 449.274 444.295 448.967 444.031 448.75C443.693 448.472 444.034 448.753 443 447.188Z" fill="#000000" stroke="none"/>
</g>
<g opacity="1">
<path d="M443.844 417.156C434.413 417.156 426.781 424.788 426.781 434.219C426.866 434.642 426.988 435.07 427.031 435.5C427.116 436.342 426.947 437.193 427.062 438.031C427.183 438.909 427.62 439.706 427.844 440.562C427.952 440.976 427.96 441.422 428.031 441.844C428.103 442.268 428.201 442.671 428.281 443.094C428.311 443.247 428.977 444.375 429 444.375L458.688 444.375C458.693 444.375 458.691 444.349 458.688 444.344C458.733 444.304 459.378 443.245 459.406 443.094C459.487 442.671 459.584 442.268 459.656 441.844C459.728 441.422 459.735 440.977 459.844 440.562C460.068 439.706 460.505 438.908 460.625 438.031C460.74 437.193 460.572 436.342 460.656 435.5C460.699 435.071 460.821 434.642 460.906 434.219C460.906 424.788 453.274 417.156 443.844 417.156Z" fill="#000000" stroke="none"/>
</g>
<g opacity="1">
<path d="M317.875 418.75C316.794 418.592 315.655 418.644 314.531 418.938C310.037 420.111 307.326 424.693 308.5 429.188C305.179 427.671 304.139 426.801 305.188 427.688C306.267 428.599 307.638 429.114 308.656 430.094C308.924 430.351 308.853 430.848 308.875 431.219C308.895 431.557 308.912 431.906 308.781 432.219C308.599 432.656 308.233 432.982 307.969 433.375C307.794 433.634 307.632 433.921 307.469 434.188C307.371 434.348 307.343 434.55 307.188 434.656C306.9 434.852 306.562 434.979 306.219 435.031C305.847 435.088 305.464 435.033 305.094 434.969C304.871 434.93 304.57 434.901 304.438 434.719C304.267 434.484 304.324 434.162 304.281 433.875C304.187 433.246 304.228 433.145 304.219 432.5C304.203 431.387 304.311 430.427 304.406 429.312C304.443 428.878 304.366 428.424 304.469 428C304.61 427.416 304.849 426.846 305.125 426.312C305.328 425.92 305.611 425.574 305.875 425.219C306.058 424.973 306.285 424.777 306.469 424.531C306.634 424.31 306.969 423.972 306.719 423.656C306.48 423.354 306.146 423.564 305.906 423.688C305.659 423.815 305.424 423.978 305.188 424.125C304.86 424.328 304.595 424.67 304.219 424.75C303.594 424.883 302.112 424.144 302.312 424.75C302.743 426.054 302.313 424.732 301.875 426.156C294.494 432.026 293.255 442.775 299.125 450.156C304.98 457.519 315.683 458.757 323.062 452.938C323.002 452.869 322.931 452.821 322.875 452.75C322.837 452.701 322.979 452.69 323.031 452.656C323.177 452.563 323.328 452.475 323.469 452.375C323.698 452.211 323.919 452.037 324.125 451.844C324.413 451.573 324.671 451.292 324.938 451C326.181 449.638 327.589 448.406 328.781 447C329.333 446.349 329.899 445.698 330.344 444.969C330.868 444.109 331.346 443.197 331.688 442.25C331.972 441.46 332.056 440.605 332.219 439.781C332.635 437.68 332.828 435.582 332.781 433.438C332.772 433.011 332.765 432.58 332.719 432.156C332.665 431.662 332.669 431.155 332.5 430.688C332.307 430.153 332.018 429.627 331.656 429.188C330.898 428.266 329.761 427.724 328.812 427C328.523 426.779 328.329 426.459 328.031 426.25C327.736 426.042 327.414 425.866 327.062 425.781C326.128 425.555 325.27 425.879 324.781 424.938C323.901 421.567 321.118 419.223 317.875 418.75ZM323.062 452.938C323.254 453.155 323.436 453.364 323.688 453.5C323.935 453.634 323.316 453.113 323.125 452.906C323.106 452.921 323.081 452.923 323.062 452.938Z" fill="#000000" stroke="none"/>
</g>
<g opacity="1">
<path d="M527.375 430.25C526.733 430.238 526.102 430.484 525.469 430.594C521.856 430.619 518.944 433.544 518.969 437.156C518.994 440.769 521.95 443.681 525.562 443.656C526.197 443.757 526.827 443.99 527.469 443.969C528.131 443.947 528.748 443.61 529.406 443.531C530.687 443.378 531.992 443.513 533.281 443.469C535.208 443.402 537.113 443.181 539.031 443C540.928 442.821 542.822 442.763 544.719 442.594C546.61 442.424 548.456 442.039 550.344 441.844C551.596 441.714 552.877 441.727 554.125 441.562C556.026 441.312 557.802 440.631 559.688 440.312C560.311 440.207 560.939 440.196 561.562 440.094C562.805 439.89 564.008 439.455 565.25 439.25C567.108 438.944 569.061 438.996 570.938 438.938C572.717 438.914 574.148 437.435 574.125 435.656C574.102 433.877 572.623 432.477 570.844 432.5C568.964 432.491 567.024 432.564 565.156 432.312C563.854 432.137 562.59 431.774 561.281 431.656C560.652 431.6 560.004 431.655 559.375 431.594C557.433 431.405 555.585 430.826 553.625 430.75C552.367 430.701 551.102 430.828 549.844 430.812C547.948 430.79 546.085 430.592 544.188 430.594C541.684 430.596 539.192 430.659 536.688 430.594C534.82 430.545 532.961 430.589 531.094 430.625C530.476 430.637 529.833 430.716 529.219 430.656C528.587 430.595 528.009 430.262 527.375 430.25Z" fill="#000000" stroke="none"/>
</g>
<g opacity="1">
<path d="M587.188 463.844C584.082 463.773 580.978 464.007 577.875 464.062C574.767 464.118 571.671 464.014 568.562 464.062C564.236 464.13 559.921 464.375 555.594 464.406C549.44 464.45 543.278 464.567 537.125 464.656C536.512 464.665 535.892 464.75 535.281 464.688C534.657 464.624 534.063 464.338 533.438 464.281C532.298 464.179 530.863 464.465 529.75 464.625C526.137 464.638 523.206 467.575 523.219 471.188C523.232 474.8 526.2 477.701 529.812 477.688C530.938 477.841 532.415 478.117 533.562 478C534.204 477.934 534.798 477.64 535.438 477.562C536.684 477.411 537.932 477.523 539.188 477.5C544.825 477.399 550.439 477.15 556.062 476.75C560.411 476.44 564.779 476.312 569.125 475.969C572.22 475.724 575.31 475.324 578.406 475.094C581.501 474.863 584.603 474.797 587.688 474.438C590.771 474.078 593.817 473.467 596.906 473.156C598.758 472.97 600.624 472.953 602.469 472.719C604.312 472.484 606.108 472.085 607.969 471.938C611.687 471.643 615.429 471.615 619.156 471.531C620.935 471.507 622.368 470.06 622.344 468.281C622.32 466.502 620.842 465.07 619.062 465.094C615.334 465.11 611.6 465.195 607.875 465C605.967 464.9 604.093 464.539 602.188 464.438C599.705 464.306 597.206 464.492 594.719 464.344C592.205 464.194 589.707 463.901 587.188 463.844Z" fill="#000000" stroke="none"/>
</g>
<g opacity="1">
<path d="M199.719 443.844C199.303 443.794 198.865 443.846 198.438 443.969C194.616 445.028 190.771 446.495 186.812 446.938C185.977 447.031 185.12 446.989 184.281 447.031C182.001 447.147 179.732 447.591 177.438 447.531C175.041 447.469 172.649 447.167 170.25 447.094C167.764 447.018 165.298 447.156 162.812 447.188C160.245 447.22 157.66 447.17 155.094 447.281C151.108 447.454 147.242 448.187 143.344 448.969C137.861 450.069 132.575 451.716 127.281 453.5C126.118 453.892 124.946 454.269 123.781 454.656C123.399 454.783 123.021 454.959 122.625 455.031C122.214 455.106 121.788 455.034 121.375 455.094C120.165 455.27 119.081 455.877 118 456.406C114.548 457.47 112.624 461.11 113.688 464.562C114.751 468.015 118.391 469.97 121.844 468.906C123.107 468.725 124.374 468.589 125.531 468C125.919 467.803 126.264 467.469 126.656 467.281C127.748 466.758 129.07 466.481 130.219 466.094C132.915 465.185 135.616 464.281 138.312 463.375C142.008 462.134 145.648 460.908 149.469 460.094C151.673 459.624 153.927 459.35 156.156 459.031C158.515 458.694 160.872 458.384 163.25 458.219C166.757 457.975 170.244 457.981 173.719 457.375C176.258 456.932 178.774 456.381 181.312 455.938C182.813 455.676 184.384 455.582 185.844 455.125C187.666 454.554 189.442 453.693 191.25 453.062C194.227 452.024 197.23 451.059 200.25 450.156C201.96 449.664 202.93 447.866 202.438 446.156C202.068 444.874 200.965 443.994 199.719 443.844Z" fill="#000000" stroke="none"/>
</g>
<g opacity="1">
<path d="M223.875 477.906C223.46 477.852 223.022 477.85 222.594 477.969C218.866 478.964 215.139 480.052 211.375 480.906C209.49 481.334 207.569 481.538 205.688 481.969C203.208 482.537 200.795 483.366 198.312 483.938C195.825 484.51 193.333 484.987 190.875 485.688C187.831 486.556 184.885 487.752 181.906 488.812C178.924 489.874 175.893 490.801 172.938 491.938C168.193 493.761 163.559 495.894 158.906 497.938C154.782 499.749 150.757 501.725 146.781 503.844C145.637 504.454 144.512 505.063 143.375 505.688C142.803 506.002 142.255 506.398 141.656 506.656C141.044 506.921 140.358 506.976 139.75 507.25C138.55 507.791 137.559 508.675 136.531 509.469C133.4 511.27 132.323 515.244 134.125 518.375C135.927 521.506 139.9 522.583 143.031 520.781C144.23 520.293 145.427 519.908 146.5 519.156C147.022 518.791 147.417 518.274 147.938 517.906C148.447 517.546 149.015 517.3 149.562 517C154.965 514.032 160.448 511.146 165.938 508.344C169.749 506.398 173.675 504.721 177.562 502.938C180.342 501.662 183.087 500.282 185.906 499.094C188.733 497.903 191.656 496.944 194.469 495.719C197.316 494.479 200.027 492.979 202.906 491.812C204.64 491.11 206.455 490.575 208.188 489.875C209.949 489.163 211.592 488.263 213.375 487.594C216.946 486.253 220.649 485.236 224.312 484.188C226.027 483.713 227.037 481.934 226.562 480.219C226.207 478.933 225.12 478.069 223.875 477.906Z" fill="#000000" stroke="none"/>
</g>
</g>
</svg>
