<?xml version="1.0" encoding="UTF-8" standalone="no"?>
<!DOCTYPE svg PUBLIC "-//W3C//DTD SVG 1.1//EN" "http://www.w3.org/Graphics/SVG/1.1/DTD/svg11.dtd"
[
<!ATTLIST g
  xmlns:vectornator CDATA #FIXED "http://vectornator.io"
  vectornator:layerName CDATA #IMPLIED >
<!ATTLIST g
  xmlns:vectornator CDATA #FIXED "http://vectornator.io"
  vectornator:mask CDATA #IMPLIED >
<!ATTLIST text
  xmlns:vectornator CDATA #FIXED "http://vectornator.io"
  vectornator:width CDATA #IMPLIED >

<!ATTLIST path
  xmlns:vectornator CDATA #FIXED "http://vectornator.io"
  vectornator:blendMode CDATA #IMPLIED >
<!ATTLIST path
  xmlns:vectornator CDATA #FIXED "http://vectornator.io"
  vectornator:shadowColor CDATA #IMPLIED >
<!ATTLIST path
  xmlns:vectornator CDATA #FIXED "http://vectornator.io"
  vectornator:shadowOpacity CDATA #IMPLIED >
<!ATTLIST path
  xmlns:vectornator CDATA #FIXED "http://vectornator.io"
  vectornator:shadowRadius CDATA #IMPLIED >
<!ATTLIST path
  xmlns:vectornator CDATA #FIXED "http://vectornator.io"
  vectornator:shadowOffset CDATA #IMPLIED >
<!ATTLIST path
  xmlns:vectornator CDATA #FIXED "http://vectornator.io"
  vectornator:shadowAngle CDATA #IMPLIED >

<!ATTLIST image
  xmlns:vectornator CDATA #FIXED "http://vectornator.io"
  vectornator:blendMode CDATA #IMPLIED >
<!ATTLIST image
  xmlns:vectornator CDATA #FIXED "http://vectornator.io"
  vectornator:shadowColor CDATA #IMPLIED >
<!ATTLIST image
  xmlns:vectornator CDATA #FIXED "http://vectornator.io"
  vectornator:shadowOpacity CDATA #IMPLIED >
<!ATTLIST image
  xmlns:vectornator CDATA #FIXED "http://vectornator.io"
  vectornator:shadowRadius CDATA #IMPLIED >
<!ATTLIST image
  xmlns:vectornator CDATA #FIXED "http://vectornator.io"
  vectornator:shadowOffset CDATA #IMPLIED >
<!ATTLIST image
  xmlns:vectornator CDATA #FIXED "http://vectornator.io"
  vectornator:shadowAngle CDATA #IMPLIED >

<!ATTLIST g
  xmlns:vectornator CDATA #FIXED "http://vectornator.io"
  vectornator:blendMode CDATA #IMPLIED >
<!ATTLIST g
  xmlns:vectornator CDATA #FIXED "http://vectornator.io"
  vectornator:shadowColor CDATA #IMPLIED >
<!ATTLIST g
  xmlns:vectornator CDATA #FIXED "http://vectornator.io"
  vectornator:shadowOpacity CDATA #IMPLIED >
<!ATTLIST g
  xmlns:vectornator CDATA #FIXED "http://vectornator.io"
  vectornator:shadowRadius CDATA #IMPLIED >
<!ATTLIST g
  xmlns:vectornator CDATA #FIXED "http://vectornator.io"
  vectornator:shadowOffset CDATA #IMPLIED >
<!ATTLIST g
  xmlns:vectornator CDATA #FIXED "http://vectornator.io"
  vectornator:shadowAngle CDATA #IMPLIED >

<!ENTITY % SVG.filter.extra.content  "| feDropShadow" >
<!ELEMENT feDropShadow EMPTY>
<!ATTLIST feDropShadow
  xmlns:svg CDATA #FIXED "http://www.w3.org/Graphics/SVG/1.1/DTD/svg11.dtd"
  dx CDATA #IMPLIED>
<!ATTLIST feDropShadow
  xmlns:svg CDATA #FIXED "http://www.w3.org/Graphics/SVG/1.1/DTD/svg11.dtd"
  dy CDATA #IMPLIED>
<!ATTLIST feDropShadow
  xmlns:svg CDATA #FIXED "http://www.w3.org/Graphics/SVG/1.1/DTD/svg11.dtd"
  stdDeviation CDATA #IMPLIED>
<!ATTLIST feDropShadow
  xmlns:svg CDATA #FIXED "http://www.w3.org/Graphics/SVG/1.1/DTD/svg11.dtd"
  flood-opacity CDATA #IMPLIED>
<!ATTLIST feDropShadow
  xmlns:svg CDATA #FIXED "http://www.w3.org/Graphics/SVG/1.1/DTD/svg11.dtd"
  in CDATA #IMPLIED>
<!ATTLIST feDropShadow
  xmlns:svg CDATA #FIXED "http://www.w3.org/Graphics/SVG/1.1/DTD/svg11.dtd"
  result CDATA #IMPLIED>
<!ATTLIST feDropShadow
  xmlns:svg CDATA #FIXED "http://www.w3.org/Graphics/SVG/1.1/DTD/svg11.dtd"
  flood-color CDATA #IMPLIED>
]
>
<!-- Created with Vectornator (http://vectornator.io/) -->
<svg height="100%" stroke-miterlimit="10" style="fill-rule:nonzero;clip-rule:evenodd;stroke-linecap:round;stroke-linejoin:round;" version="1.1" viewBox="0 0 1024 1024" width="100%" xml:space="preserve" xmlns="http://www.w3.org/2000/svg" xmlns:vectornator="http://vectornator.io" xmlns:xlink="http://www.w3.org/1999/xlink">
<defs/>
<g id="레이어-1" vectornator:layerName="레이어 1">
<g opacity="1">
<path d="M205.781 718.406C193.102 718.511 182.927 728.883 183.031 741.562C182.73 744.035 182.404 746.539 182.344 749.031C182.314 750.253 182.401 751.467 182.438 752.688C182.471 753.823 182.387 754.983 182.625 756.094C183.086 758.243 184.345 760.181 184.781 762.344C185.08 763.825 185.102 765.465 185.25 766.969C185.463 769.122 185.663 771.307 185.75 773.469C186.015 780.027 185.489 786.592 184.969 793.125C184.65 797.125 184.147 801.109 183.688 805.094C183.032 810.776 182.316 816.446 181.406 822.094C180.666 826.692 179.833 831.212 178.125 835.562C177.047 838.309 175.831 840.979 174.594 843.656C174.227 844.451 173.821 845.27 173.469 846.094C173.288 846.312 173.12 846.533 172.938 846.75C172.581 847.175 172.228 847.603 171.875 848.031C171.174 848.881 170.406 849.821 169.75 850.719C167.132 854.302 165.073 858.423 164.375 862.844C164.186 864.043 164.05 865.254 164.031 866.469C164.012 867.756 164.096 869.07 164.281 870.344C164.476 871.686 164.77 873.022 165.188 874.312C165.621 875.654 166.184 876.926 166.812 878.188C167.671 879.911 168.838 881.478 170.094 882.938C172.591 885.841 175.92 888.103 179.5 889.438C188.068 892.631 196.773 890.228 203.875 884.906C204.824 884.195 205.737 883.442 206.625 882.656C206.94 882.378 207.292 882.134 207.562 881.812C207.588 881.782 207.476 881.771 207.438 881.781C207.29 881.821 206.873 882.053 207 881.969C207.883 881.382 208.853 880.95 209.781 880.438C211.398 879.546 213.024 878.638 214.625 877.719C219.708 874.802 224.787 871.864 229.969 869.125C238.303 864.719 246.851 860.762 255.062 856.125C262.06 852.174 268.786 847.714 276 844.156C279.441 842.459 283.014 840.85 286.594 839.469C289.117 838.495 291.673 837.622 294.188 836.625C295.267 836.197 296.392 835.851 297.438 835.344C299.151 834.512 300.745 833.416 302.469 832.594C303.516 832.094 304.672 831.741 305.75 831.312C308.199 830.338 310.683 829.448 313.219 828.719C324.242 825.55 335.754 824.319 347.188 824.125C353.433 824.078 358.453 818.964 358.406 812.719C358.359 806.474 353.245 801.453 347 801.5C337.336 801.483 327.762 802.291 318.188 803.562C312.656 804.297 307.164 805.328 301.656 806.219C299.1 806.632 296.544 807.108 293.969 807.375C291.835 807.596 289.685 807.676 287.594 808.188C279.34 810.205 271.419 813.398 263.281 815.812C257.59 817.501 251.845 819.016 246.188 820.812C240.176 822.722 234.22 824.829 228.406 827.281C227.085 827.839 225.835 828.559 224.531 829.156C225.831 823.605 227.039 818.022 228 812.406C229.259 805.05 230.013 797.566 230.531 790.125C230.791 786.397 231.005 782.644 231.031 778.906C231.065 774.07 230.84 769.256 230.438 764.438C230.298 762.772 230.132 761.101 229.969 759.438C229.916 758.899 229.817 758.354 229.812 757.812C229.799 756.237 230.169 754.638 230.438 753.094C230.522 752.606 230.695 752.119 230.719 751.625C230.765 750.674 230.515 749.723 230.375 748.781C230.247 747.923 230.154 747.073 230 746.219C229.695 744.532 229.235 742.878 228.938 741.188C228.833 728.508 218.46 718.302 205.781 718.406ZM180.719 850.625C180.644 850.675 180.575 850.732 180.5 850.781C180.338 850.889 179.957 851.165 179.719 851.219C179.807 851.149 179.904 851.059 180 851C180.168 850.896 180.324 850.809 180.5 850.719C180.577 850.679 180.645 850.661 180.719 850.625Z" fill="#000000" stroke="none"/>
</g>
<g opacity="1">
<path d="M599.469 137.406C587.501 137.537 575.551 137.642 563.594 138.188C539.532 139.286 515.555 141.932 491.469 142.562C481.563 142.822 471.653 143.022 461.75 143.375C444.776 143.979 427.797 144.805 410.812 145.062C400.196 145.223 389.585 144.97 378.969 144.938C370.615 144.912 362.254 145.118 353.906 145.438C340.241 145.961 326.607 146.844 312.969 147.844C304.052 148.497 295.136 149.259 286.219 149.906C273.767 150.81 261.278 150.953 248.812 151.562C240.925 151.948 233.085 152.569 225.25 153.562C207.509 155.812 189.772 159.045 172.844 164.938C164.617 167.801 156.661 171.325 149 175.469C142.004 179.253 135.085 183.278 129.094 188.562C125.416 191.806 122.189 195.494 119.406 199.531C113.134 208.63 109.682 219.187 108.125 230.062C107.13 237.014 106.879 244.061 106.469 251.062C105.438 268.652 104.184 286.228 103.062 303.812C102.512 312.444 102.275 321.073 102.25 329.719C102.225 338.364 102.399 347.016 102.656 355.656C103.02 367.863 103.623 380.072 103.875 392.281C104.295 412.66 101.856 433.039 103.281 453.406C103.75 460.099 104.755 466.759 105.844 473.375C106.905 479.822 108.114 486.246 108.781 492.75C109.71 501.808 109.852 510.923 110.938 519.969C111.394 523.773 112.01 527.553 112.562 531.344C113.709 539.215 114.904 547.099 116.062 554.969C117.995 568.091 119.616 581.226 121.344 594.375C122.116 600.257 122.921 606.136 123.594 612.031C123.995 615.548 124.464 619.08 124.344 622.625C124.108 629.588 122.692 636.463 122.188 643.406C121.474 653.221 121.071 663.037 120.875 672.875C120.65 684.157 120.821 695.461 122.625 706.625C123.588 712.582 124.957 718.456 126.75 724.219C128.097 728.55 129.678 732.819 131.969 736.75C134.077 740.368 136.691 743.699 139.844 746.469C147.584 753.268 157.761 755.787 167.875 755.125C173.956 754.727 179.887 753.24 185.906 752.375C192.871 751.374 199.875 750.885 206.906 750.719C219.586 750.646 229.822 740.304 229.75 727.625C229.678 714.946 219.336 704.74 206.656 704.812C197.821 704.704 189.008 705 180.219 705.938C177.394 706.239 174.561 706.62 171.75 707.031C170.963 703.836 170.339 700.578 169.938 697.312C169.289 692.035 169.345 686.773 169.125 681.469C168.898 676.003 168.583 670.562 168.406 665.094C168.251 660.289 168.147 655.463 168.125 650.656C168.111 647.679 168.072 644.694 168.219 641.719C168.616 633.699 169.886 625.77 169.531 617.719C169.372 614.113 168.94 610.49 168.531 606.906C167.83 600.757 166.994 594.637 166.188 588.5C165.365 582.236 164.639 575.951 163.812 569.688C162.815 562.126 161.745 554.576 160.625 547.031C159.526 539.632 158.391 532.246 157.312 524.844C156.693 520.593 156.021 516.338 155.594 512.062C155.017 506.284 154.752 500.477 154.312 494.688C154.023 490.874 153.649 487.077 153.188 483.281C151.742 471.394 148.861 459.71 148.281 447.719C147.854 438.875 148.23 429.996 148.562 421.156C148.935 411.228 149.29 401.312 149.094 391.375C148.849 379.009 148.23 366.643 147.844 354.281C147.328 337.79 147.149 321.287 148.188 304.812C149.347 286.43 150.611 268.049 151.594 249.656C151.855 244.762 152.039 239.846 152.812 235C153.432 231.123 154.433 227.29 156.812 224.094C158.703 221.555 161.437 219.768 164.094 218.125C167.839 215.809 171.731 213.649 175.688 211.719C187.314 206.047 199.874 202.569 212.531 200.094C220.266 198.581 228.079 197.388 235.906 196.469C250.431 194.762 265.105 194.747 279.688 193.875C289.136 193.31 298.538 192.355 307.969 191.562C323.852 190.227 339.762 188.993 355.688 188.281C362.267 187.987 368.851 187.789 375.438 187.75C384.986 187.693 394.545 187.956 404.094 187.906C414.742 187.851 425.391 187.433 436.031 187.031C449.359 186.528 462.669 185.885 476 185.469C486.839 185.13 497.671 184.961 508.5 184.344C527.533 183.259 546.521 181.37 565.562 180.438C579.546 179.753 593.565 179.626 607.562 179.469C629.81 179.218 652.065 179.205 674.312 179.5C685.389 179.647 696.46 179.961 707.531 180.312C714.629 180.538 721.725 180.684 728.812 181.125C742.041 181.948 755.167 184.171 768.406 184.906C775.061 185.276 781.662 184.661 788.312 184.688C791.863 184.701 795.429 185.003 798.969 185.25C805.804 185.728 812.618 186.4 819.438 187.062C828.577 187.951 837.712 188.854 846.875 189.469C853.998 189.946 861.132 190.289 868.25 190.844C873.712 191.269 879.182 191.826 884.594 192.688C886.18 192.94 887.762 193.253 889.344 193.531C889.904 193.63 890.472 193.735 891.031 193.844C891.276 194.011 891.524 194.153 891.75 194.344C892.392 194.884 892.967 195.516 893.469 196.188C894.828 198.007 895.713 200.113 896.438 202.25C898.782 209.167 899.322 216.649 899.938 223.875C900.579 231.408 900.742 239.005 900.75 246.562C900.766 261.374 899.95 276.18 899.219 290.969C898.74 300.641 898.31 310.317 898.125 320C897.851 334.333 898.041 348.672 898.438 363C899.275 393.229 901.169 423.411 901.406 453.656C901.542 470.997 900.971 488.332 899.688 505.625C897.245 538.543 892.927 571.273 889.5 604.094C888.921 609.64 888.437 615.199 887.906 620.75C887.489 625.121 886.991 629.469 886.625 633.844C886.258 638.223 886.038 642.646 885.75 647.031C885.384 652.599 884.984 658.148 884.656 663.719C884.42 667.72 884.277 671.718 884.031 675.719C883.64 682.074 883.179 688.436 882.656 694.781C881.502 708.804 880.147 722.807 878.5 736.781C878.085 740.305 877.642 743.833 876.938 747.312C876.293 750.5 875.388 753.729 873.688 756.531C872.2 758.983 870.146 760.991 867.875 762.719C861.943 767.23 854.964 769.461 848.031 771.938C844.684 773.133 841.36 774.435 838 775.594C832.817 777.381 827.573 778.94 822.25 780.25C809.551 783.376 796.511 785.165 783.562 786.906C767.274 789.097 750.935 791.304 734.5 792.062C724.523 792.523 714.513 792.088 704.531 792.312C696.631 792.49 688.744 792.825 680.844 793.031C665.569 793.431 650.279 793.748 635 793.969C615.78 794.246 596.566 794.299 577.344 794.375C543.557 794.509 509.787 794.517 476 794.531C455.913 794.54 435.873 793.071 415.812 792.25C403.145 791.732 390.381 791.403 377.719 792.219C362.495 793.2 347.665 797.054 332.75 800C326.622 801.203 322.641 807.153 323.844 813.281C325.047 819.409 330.997 823.391 337.125 822.188C351.056 819.469 364.941 815.757 379.156 814.875C385.336 814.491 391.56 814.47 397.75 814.531C409.242 814.646 420.714 815.277 432.188 815.906C441.996 816.444 451.805 817.005 461.625 817.281C467.579 817.449 473.544 817.458 479.5 817.469C526.664 817.556 573.836 818.055 621 818.094C637.935 818.108 654.877 818.11 671.812 818.031C683.294 817.978 694.769 817.742 706.25 817.906C715.898 818.044 725.536 818.524 735.188 818.438C757.72 818.236 780.321 816.767 802.625 813.531C816.109 811.575 829.532 809.261 842.562 805.188C847.754 803.565 852.813 801.623 857.938 799.812C863.253 797.934 868.618 796.172 873.719 793.75C877.983 791.725 882.013 789.25 885.781 786.406C893.457 780.614 899.559 773.124 903.125 764.156C907.172 753.978 908.134 742.815 909.438 732.031C911.129 718.04 912.67 704.008 913.906 689.969C914.612 681.955 915.14 673.922 915.812 665.906C916.324 659.811 916.918 653.717 917.469 647.625C917.793 644.035 918.047 640.458 918.438 636.875C918.961 632.074 919.642 627.26 920.25 622.469C921.709 610.962 923.3 599.482 924.938 588C930.188 551.193 935.814 514.422 937.719 477.25C939.804 436.545 937.168 395.796 936.406 355.094C936.192 343.656 936.161 332.188 936.406 320.75C936.628 310.401 937.181 300.086 937.719 289.75C938.512 274.517 939.294 259.253 939.219 244C939.194 238.916 939.058 233.834 938.812 228.75C938.351 219.208 937.652 209.57 935.781 200.188C932.991 186.192 927.109 172.939 915.75 163.812C913.837 162.276 911.781 160.834 909.625 159.656C907.626 158.564 905.535 157.628 903.375 156.906C901.081 156.139 898.684 155.663 896.312 155.219C893.846 154.757 891.385 154.326 888.906 153.938C878.27 152.271 867.54 151.537 856.812 150.75C851.459 150.358 846.093 149.959 840.75 149.438C825.816 147.979 810.94 145.946 795.969 144.875C792.124 144.6 788.292 144.488 784.438 144.531C780.842 144.572 777.252 144.756 773.656 144.688C771.642 144.649 769.631 144.452 767.625 144.281C763.716 143.949 759.829 143.525 755.938 143.031C747.868 142.007 739.802 140.899 731.688 140.281C724.18 139.71 716.645 139.405 709.125 139.062C692.645 138.313 676.151 137.849 659.656 137.562C639.604 137.214 619.522 137.186 599.469 137.406Z" fill="#000000" stroke="none"/>
</g>
<g opacity="1">
<path d="M341.188 272.906C338.617 272.962 336.046 273.104 333.5 273.344C316.206 274.974 299.1 280.845 284.438 290.125C281.034 292.279 277.746 294.611 274.625 297.156C272.873 298.585 271.252 300.132 269.531 301.594C266.746 303.961 263.788 306.132 261 308.5C259.917 309.42 258.768 310.289 257.781 311.312C255.928 313.236 254.266 315.536 252.594 317.625C249.077 322.018 245.917 326.667 242.656 331.25C234.563 341.011 235.896 355.469 245.656 363.562C255.417 371.656 269.907 370.292 278 360.531C280.969 357.446 283.992 354.416 286.875 351.25C288.048 349.962 289.168 348.63 290.344 347.344C291.47 346.112 292.756 344.946 293.812 343.656C294.495 342.823 295.049 341.89 295.656 341C296.546 339.696 297.445 338.401 298.375 337.125C298.913 336.387 299.521 335.568 300.156 334.906C301.085 333.94 302.181 333.065 303.219 332.219C304.938 330.816 306.751 329.531 308.625 328.344C319.696 321.334 333.346 317.553 346.469 318.125C353.115 318.415 359.714 319.953 365.531 323.25C368.062 324.684 370.291 326.591 372.5 328.469C375.537 331.05 378.508 333.712 381.5 336.344C387.768 341.858 394.346 346.939 401.344 351.5C413.581 359.477 427.064 365.778 441.438 368.688C451.509 370.726 461.794 371.052 472 369.969C481.375 368.974 490.607 366.909 499.625 364.188C510.839 360.802 521.728 356.466 532.719 352.438C554.84 344.329 577.051 336.525 599.594 329.656C605.329 327.908 611.028 325.979 616.875 324.625C624.548 322.848 632.378 321.782 640.188 320.812C643.131 320.447 646.084 320.084 649.031 319.75C651.288 319.494 653.574 319.236 655.844 319.469C663.983 320.305 671.284 324.76 678.188 328.812C682.193 331.164 686.155 333.564 690.219 335.812C693.485 337.62 696.829 339.279 700.188 340.906C702.032 341.8 703.864 342.76 705.75 343.562C707.157 344.161 708.636 344.667 710.062 345.219C714.291 346.855 718.514 348.443 722.688 350.219C727.182 352.131 731.358 354.655 736.156 355.812C740.36 356.827 744.996 357.089 749.312 357.25C761.623 357.709 773.891 355.807 785.969 353.625C789.341 353.016 792.727 352.356 796.094 351.719C799.819 351.013 803.417 350.168 806.875 348.562C812.132 346.122 816.687 342.355 821.438 339.094C826.603 335.584 827.916 328.54 824.406 323.375C820.896 318.21 813.884 316.865 808.719 320.375C806.203 322.068 803.764 323.868 801.25 325.562C799.777 326.555 798.21 327.632 796.531 328.25C795.069 328.788 793.462 328.977 791.938 329.25C789.662 329.658 787.401 330.097 785.125 330.5C777.564 331.839 769.958 333.033 762.281 333.438C757.783 333.674 753.266 333.648 748.781 333.188C747.311 333.037 745.854 332.832 744.406 332.531C743.762 332.397 743.086 332.301 742.469 332.062C740.044 331.126 737.867 329.39 735.656 328.062C733.36 326.684 730.952 325.501 728.656 324.125C726.611 322.899 724.633 321.597 722.625 320.312C721.354 319.5 720.075 318.651 718.781 317.875C717.099 316.866 715.339 315.985 713.625 315.031C708.594 312.231 703.497 309.478 698.625 306.406C693.6 303.238 688.718 299.867 683.562 296.906C674.97 291.972 665.654 288.009 655.75 286.812C649.953 286.112 644.017 286.303 638.188 286.281C626.983 286.24 615.63 286.753 604.625 289C598.712 290.207 592.89 291.896 587.094 293.562C576.861 296.505 566.727 299.768 556.594 303.031C543.455 307.262 530.261 311.306 517.062 315.344C505.999 318.728 495.013 322.411 483.75 325.094C475.451 327.07 466.812 328.563 458.25 328.062C441.885 327.105 427.505 318.322 415.406 307.812C407.637 301.064 400.75 293.217 392.312 287.25C377.492 276.769 359.183 272.518 341.188 272.906Z" fill="#000000" stroke="none"/>
</g>
<g opacity="1">
<path d="M342.781 430.344C340.773 430.389 338.772 430.561 336.781 430.938C331.259 431.983 326.074 434.413 320.875 436.469C315.146 438.735 309.458 441.149 304.156 444.312C297.106 448.519 290.963 453.929 285.031 459.562C281.675 462.75 278.281 465.9 275.25 469.406C273.023 471.983 270.962 474.694 269.031 477.5C268.097 478.857 267.256 480.265 266.281 481.594C265.8 482.25 265.253 482.861 264.75 483.5C263.27 485.382 261.841 487.319 260.469 489.281C260.021 489.922 259.538 490.537 259.156 491.219C258.776 491.897 258.507 492.635 258.188 493.344C257.568 494.717 256.96 496.081 256.375 497.469C254.478 501.966 253.003 506.59 251.562 511.25C250.356 514.181 249.815 517.237 249.844 520.219C249.93 529.165 255.269 537.599 264.062 541.219C266.994 542.425 270.049 542.998 273.031 542.969C281.978 542.882 290.411 537.544 294.031 528.75C295.448 526.037 296.975 523.36 298.406 520.656C299.217 519.124 299.942 517.534 300.75 516C301.263 515.025 301.873 514.105 302.312 513.094C303.365 510.672 303.674 507.966 304.781 505.562C305.541 503.913 306.777 502.373 307.875 500.938C310.306 497.76 313.297 495.091 316.188 492.344C319.662 489.041 323.201 485.624 327.344 483.156C330.588 481.224 334.133 479.816 337.625 478.406C340.124 477.397 342.624 476.379 345.125 475.375C345.22 475.385 345.307 475.394 345.406 475.406C346.374 475.522 347.351 475.704 348.281 476C351.462 477.012 354.203 479.141 356.625 481.375C357.833 482.489 358.914 483.737 360.094 484.875C360.18 484.958 359.943 484.661 359.875 484.562C359.822 484.485 359.796 484.425 359.75 484.344C359.696 484.248 359.877 484.502 359.938 484.594C359.994 484.681 360.039 484.786 360.094 484.875C360.132 484.937 360.181 485 360.219 485.062C360.373 485.316 360.534 485.558 360.688 485.812C361.091 486.478 361.452 487.16 361.875 487.812C362.491 488.762 363.104 489.719 363.781 490.625C365.406 492.8 367.309 494.711 369.188 496.656C371.111 498.648 373.038 500.64 375 502.594C381.477 509.044 388.202 515.177 395.531 520.656C401.994 525.488 408.98 529.632 416.75 531.969C424.058 534.167 431.735 534.455 439.312 534.125C441.632 534.024 443.971 533.954 446.281 533.719C458.198 532.504 469.164 527.324 478.969 520.656C486.335 515.647 493.114 509.822 500.5 504.844C505.955 501.167 511.67 497.83 517.656 495.094C524.349 492.034 531.349 489.653 538.406 487.594C543.249 486.181 548.092 484.726 552.969 483.438C554.723 482.974 556.488 482.584 558.281 482.312C559.447 482.136 560.758 481.944 561.938 482.125C563.047 482.296 564.127 482.723 565.156 483.156C567.422 484.109 569.567 485.405 571.656 486.688C576.678 489.769 581.535 493.138 586.5 496.312C592.342 500.048 598.134 503.853 603.719 507.969C605.442 509.239 607.079 510.609 608.781 511.906C612.142 514.467 615.73 516.952 619.531 518.812C629.729 523.803 641.303 525.05 652.5 524.031C657.658 523.562 662.825 522.619 667.75 521C670.223 520.187 672.676 519.242 675 518.062C677.43 516.83 679.719 515.247 681.969 513.719C685.126 511.573 688.204 509.34 691.312 507.125C696.419 503.53 697.657 496.482 694.062 491.375C690.467 486.268 683.419 485.061 678.312 488.656C675.081 490.904 671.855 493.154 668.562 495.312C667.562 495.968 666.561 496.609 665.531 497.219C665.269 497.374 664.862 497.521 664.625 497.719C663.333 498.263 662.028 498.796 660.688 499.219C657.816 500.124 654.838 500.605 651.844 500.875C647.107 501.303 642.276 501.052 637.656 499.875C635.316 499.279 633.075 498.425 631.031 497.125C630.402 496.725 629.848 496.228 629.25 495.781C628.868 495.496 628.467 495.27 628.125 494.938C625.94 492.812 623.676 490.692 621.688 488.375C619.353 485.654 617.128 482.726 614.438 480.344C611.489 477.733 608.325 475.327 605.062 473.125C602.523 471.411 599.887 469.798 597.406 468C589.741 462.446 582.31 456.23 573.5 452.531C570.682 451.348 567.752 450.53 564.75 449.969C555.7 448.277 546.502 449.453 537.5 450.844C531.244 451.81 524.969 452.736 518.844 454.375C507.304 457.462 496.403 462.285 486.156 468.406C479.136 472.6 472.497 477.315 465.781 481.969C460.238 485.809 454.097 489.994 447.5 491.75C444.524 492.542 441.558 492.464 438.5 492.438C436.371 492.419 434.212 492.39 432.094 492.156C431.037 492.04 429.983 491.897 428.969 491.562C427.026 490.922 425.03 489.58 423.281 488.344C421.32 486.958 419.476 485.466 417.625 483.938C410.754 478.264 404.503 471.746 398.625 465.062C398.495 464.915 398.8 465.3 398.688 465.062C398.53 464.729 398.362 464.419 398.188 464.094C397.875 463.512 397.517 462.879 397.188 462.312C396.337 460.85 395.426 459.445 394.406 458.094C392.265 455.255 389.841 452.589 387.344 450.062C376.88 439.474 363.831 431.975 348.812 430.562C346.8 430.373 344.79 430.298 342.781 430.344Z" fill="#000000" stroke="none"/>
</g>
<g opacity="1">
<path d="M337.531 592.625C334.725 592.609 331.979 592.937 329.25 593.594C320.999 595.58 313.646 600.548 307.344 606.094C303.742 609.263 300.445 612.76 297.062 616.156C293.6 619.633 290.059 623.032 286.812 626.719C283.638 630.323 280.643 634.074 277.75 637.906C276.96 638.953 276.205 640.023 275.406 641.062C275.008 641.58 274.648 642.131 274.188 642.594C273.255 643.532 272.107 644.244 271.094 645.094C270.601 645.507 270.075 645.887 269.656 646.375C269.248 646.85 268.985 647.436 268.656 647.969C268.334 648.491 268.008 649.008 267.688 649.531C266.404 651.624 265.398 653.831 264.312 656.031C261.557 659.906 260.169 664.36 260.062 668.781C259.885 676.149 263.261 683.469 269.719 688.062C280.052 695.411 294.37 692.989 301.719 682.656C303.037 681.318 304.438 680.027 305.688 678.625C306.497 677.716 307.235 676.728 308 675.781C308.374 675.319 308.829 674.891 309.125 674.375C309.43 673.844 309.573 673.263 309.781 672.688C310.19 671.554 310.412 670.334 310.938 669.25C311.427 668.241 312.206 667.4 312.875 666.5C313.85 665.189 314.837 663.881 315.844 662.594C318.038 659.786 320.315 657.04 322.75 654.438C324.6 652.461 326.576 650.622 328.469 648.688C331.132 645.966 333.691 643.14 336.406 640.469C336.921 639.963 337.45 639.473 337.969 638.969C338.526 639.467 339.148 639.895 339.688 640.406C341.768 642.379 343.862 644.402 345.75 646.562C347.859 648.977 349.678 651.618 351.5 654.25C353.95 657.787 356.382 661.35 358.938 664.812C360.088 666.371 361.334 667.853 362.531 669.375C363.109 670.11 363.645 670.881 364.25 671.594C365.231 672.749 366.323 673.814 367.375 674.906C368.321 675.888 369.231 676.903 370.188 677.875C371.599 679.31 373.084 680.697 374.562 682.062C379.235 686.378 384.182 690.419 390.031 693.031C392.668 694.209 395.447 695.009 398.25 695.688C405.485 697.441 413.002 697.724 420.406 697.219C423.896 696.981 427.369 696.547 430.844 696.156C434.816 695.71 438.781 695.506 442.719 694.75C446.228 694.076 449.663 693.053 453.031 691.875C456.8 690.557 460.468 689.092 463.969 687.156C466.202 685.921 468.007 684.214 470.031 682.688C471.893 681.284 473.881 679.995 475.812 678.688C479.042 676.501 482.322 674.387 485.5 672.125C491.302 667.996 496.952 663.661 502.844 659.656C504.467 658.553 506.139 657.481 507.781 656.406C513.041 653.04 514.554 646.073 511.188 640.812C507.821 635.552 500.854 634.008 495.594 637.375C492.033 639.603 488.505 641.858 485.031 644.219C479.416 648.035 473.833 652.067 467.75 655.125C465.492 656.26 463.102 657.207 460.75 658.125C459.754 658.513 458.771 658.933 457.75 659.25C456.237 659.72 454.646 659.947 453.125 660.375C452.179 660.641 451.299 661.041 450.375 661.375C446.783 662.674 443.241 664.026 439.406 664.375C436.743 664.618 434.186 664.096 431.562 663.688C428.381 663.192 425.225 662.63 422.062 662.031C418.216 661.304 414.385 660.511 410.594 659.531C409.325 659.203 406.465 658.502 405.812 658.062C403.8 656.708 402.129 655.043 400.469 653.281C399.204 651.939 398.082 650.54 396.938 649.094C396.428 648.451 395.842 647.839 395.438 647.125C394.532 645.526 393.543 643.958 392.656 642.344C390.406 638.247 388.226 634.113 385.781 630.125C383.492 626.39 381.028 622.766 378.25 619.375C376.034 616.67 373.592 614.133 371.156 611.625C367.002 607.348 362.603 603.361 357.688 599.969C353.883 597.343 349.723 594.944 345.25 593.688C342.751 592.986 340.126 592.64 337.531 592.625Z" fill="#000000" stroke="none"/>
</g>
</g>
</svg>
