<?xml version="1.0" encoding="UTF-8" standalone="no"?>
<!DOCTYPE svg PUBLIC "-//W3C//DTD SVG 1.1//EN" "http://www.w3.org/Graphics/SVG/1.1/DTD/svg11.dtd"
[
<!ATTLIST g
  xmlns:vectornator CDATA #FIXED "http://vectornator.io"
  vectornator:layerName CDATA #IMPLIED >
<!ATTLIST g
  xmlns:vectornator CDATA #FIXED "http://vectornator.io"
  vectornator:mask CDATA #IMPLIED >
<!ATTLIST text
  xmlns:vectornator CDATA #FIXED "http://vectornator.io"
  vectornator:width CDATA #IMPLIED >

<!ATTLIST path
  xmlns:vectornator CDATA #FIXED "http://vectornator.io"
  vectornator:blendMode CDATA #IMPLIED >
<!ATTLIST path
  xmlns:vectornator CDATA #FIXED "http://vectornator.io"
  vectornator:shadowColor CDATA #IMPLIED >
<!ATTLIST path
  xmlns:vectornator CDATA #FIXED "http://vectornator.io"
  vectornator:shadowOpacity CDATA #IMPLIED >
<!ATTLIST path
  xmlns:vectornator CDATA #FIXED "http://vectornator.io"
  vectornator:shadowRadius CDATA #IMPLIED >
<!ATTLIST path
  xmlns:vectornator CDATA #FIXED "http://vectornator.io"
  vectornator:shadowOffset CDATA #IMPLIED >
<!ATTLIST path
  xmlns:vectornator CDATA #FIXED "http://vectornator.io"
  vectornator:shadowAngle CDATA #IMPLIED >

<!ATTLIST image
  xmlns:vectornator CDATA #FIXED "http://vectornator.io"
  vectornator:blendMode CDATA #IMPLIED >
<!ATTLIST image
  xmlns:vectornator CDATA #FIXED "http://vectornator.io"
  vectornator:shadowColor CDATA #IMPLIED >
<!ATTLIST image
  xmlns:vectornator CDATA #FIXED "http://vectornator.io"
  vectornator:shadowOpacity CDATA #IMPLIED >
<!ATTLIST image
  xmlns:vectornator CDATA #FIXED "http://vectornator.io"
  vectornator:shadowRadius CDATA #IMPLIED >
<!ATTLIST image
  xmlns:vectornator CDATA #FIXED "http://vectornator.io"
  vectornator:shadowOffset CDATA #IMPLIED >
<!ATTLIST image
  xmlns:vectornator CDATA #FIXED "http://vectornator.io"
  vectornator:shadowAngle CDATA #IMPLIED >

<!ATTLIST g
  xmlns:vectornator CDATA #FIXED "http://vectornator.io"
  vectornator:blendMode CDATA #IMPLIED >
<!ATTLIST g
  xmlns:vectornator CDATA #FIXED "http://vectornator.io"
  vectornator:shadowColor CDATA #IMPLIED >
<!ATTLIST g
  xmlns:vectornator CDATA #FIXED "http://vectornator.io"
  vectornator:shadowOpacity CDATA #IMPLIED >
<!ATTLIST g
  xmlns:vectornator CDATA #FIXED "http://vectornator.io"
  vectornator:shadowRadius CDATA #IMPLIED >
<!ATTLIST g
  xmlns:vectornator CDATA #FIXED "http://vectornator.io"
  vectornator:shadowOffset CDATA #IMPLIED >
<!ATTLIST g
  xmlns:vectornator CDATA #FIXED "http://vectornator.io"
  vectornator:shadowAngle CDATA #IMPLIED >

<!ENTITY % SVG.filter.extra.content  "| feDropShadow" >
<!ELEMENT feDropShadow EMPTY>
<!ATTLIST feDropShadow
  xmlns:svg CDATA #FIXED "http://www.w3.org/Graphics/SVG/1.1/DTD/svg11.dtd"
  dx CDATA #IMPLIED>
<!ATTLIST feDropShadow
  xmlns:svg CDATA #FIXED "http://www.w3.org/Graphics/SVG/1.1/DTD/svg11.dtd"
  dy CDATA #IMPLIED>
<!ATTLIST feDropShadow
  xmlns:svg CDATA #FIXED "http://www.w3.org/Graphics/SVG/1.1/DTD/svg11.dtd"
  stdDeviation CDATA #IMPLIED>
<!ATTLIST feDropShadow
  xmlns:svg CDATA #FIXED "http://www.w3.org/Graphics/SVG/1.1/DTD/svg11.dtd"
  flood-opacity CDATA #IMPLIED>
<!ATTLIST feDropShadow
  xmlns:svg CDATA #FIXED "http://www.w3.org/Graphics/SVG/1.1/DTD/svg11.dtd"
  in CDATA #IMPLIED>
<!ATTLIST feDropShadow
  xmlns:svg CDATA #FIXED "http://www.w3.org/Graphics/SVG/1.1/DTD/svg11.dtd"
  result CDATA #IMPLIED>
<!ATTLIST feDropShadow
  xmlns:svg CDATA #FIXED "http://www.w3.org/Graphics/SVG/1.1/DTD/svg11.dtd"
  flood-color CDATA #IMPLIED>
]
>
<!-- Created with Vectornator (http://vectornator.io/) -->
<svg height="100%" stroke-miterlimit="10" style="fill-rule:nonzero;clip-rule:evenodd;stroke-linecap:round;stroke-linejoin:round;" version="1.1" viewBox="0 0 1024 1024" width="100%" xml:space="preserve" xmlns="http://www.w3.org/2000/svg" xmlns:vectornator="http://vectornator.io" xmlns:xlink="http://www.w3.org/1999/xlink">
<defs/>
<g id="레이어-6" vectornator:layerName="레이어 6">
<g opacity="1">
<path d="M911.75 512.094C907.568 512.385 903.38 513.484 899.406 515.5C896.698 516.366 893.947 517.301 891.312 518.375C889.863 518.966 888.477 519.706 887.062 520.375C886.186 520.79 885.27 521.096 884.438 521.594C883.641 522.07 882.984 522.766 882.344 523.438C881.44 524.386 880.595 525.399 879.656 526.312C879.383 526.578 879.098 526.883 878.781 527.094C878.185 527.491 877.495 527.7 876.844 528C875.243 528.738 873.624 529.37 871.969 529.969C872.032 529.945 871.816 530.017 871.75 530.031C871.672 530.048 871.609 530.047 871.531 530.062C871.311 530.105 871.096 530.156 870.875 530.188C870.089 530.3 869.291 530.374 868.5 530.438C866.491 530.599 864.48 530.689 862.469 530.812C856.733 531.164 851.092 531.834 845.469 533.031C838.395 534.537 831.448 536.592 824.406 538.219C821.074 538.989 817.707 539.661 814.344 540.281C806.479 541.731 798.596 543.122 790.688 544.312C785.092 545.155 779.48 545.849 773.875 546.625C766.107 547.701 758.362 548.815 750.625 550.094C734.453 552.765 718.83 557.866 702.781 561.094C691.211 563.421 679.37 564.087 667.719 565.875C662.386 566.693 657.036 567.608 651.75 568.688C644.354 570.198 636.96 571.843 629.469 572.812C624.325 573.478 619.108 574.04 613.938 574.438C611.519 574.623 609.106 574.688 606.688 574.875C604.252 575.063 601.8 575.395 599.375 575.688C596.225 576.067 593.231 577.365 590.125 578C585.381 578.969 580.553 579.653 575.75 580.25C572.41 580.665 569.039 580.887 565.688 581.188C553.277 582.299 540.815 582.88 528.375 583.562C519.605 583.954 512.828 591.386 513.219 600.156C513.61 608.927 521.011 615.704 529.781 615.312C542.286 614.883 554.8 614.34 567.312 614.219C570.693 614.186 574.089 614.083 577.469 614.156C582.319 614.261 587.201 614.432 592.031 614.906C595.155 615.213 598.312 616.221 601.438 616.281C603.839 616.327 606.255 616.384 608.656 616.344C611.075 616.303 613.487 616.134 615.906 616.094C621.096 616.007 626.312 616.083 631.5 616.25C637.13 616.431 642.763 617.017 648.375 617.469C656.912 618.156 665.495 618.686 674.062 618.406C690.332 617.875 706.477 615.467 722.594 613.344C734.721 611.746 746.852 610.183 759 608.75C772.034 607.213 785.029 605.463 798.094 604.188C805.941 603.422 813.814 602.731 821.656 601.906C826.951 601.35 832.253 600.798 837.5 599.875C845.366 598.491 853.025 596.086 860.906 594.781C864.173 594.24 867.545 594.208 870.844 594C875.16 593.728 879.47 593.299 883.719 592.469C889.268 591.384 894.611 589.573 899.812 587.375C901.631 586.606 903.438 585.788 905.219 584.938C905.784 584.667 906.325 584.328 906.906 584.094C909.147 583.193 911.631 582.799 913.969 582.219C915.179 581.918 916.041 581.755 917.156 581.188C918.081 580.717 918.907 580.09 919.781 579.531C920.991 578.758 922.25 578.01 923.406 577.156C925.177 575.849 926.812 574.361 928.594 573.062C944.489 564.997 950.847 545.582 942.781 529.688C936.732 517.766 924.297 511.221 911.75 512.094Z" fill="#000000" stroke="none"/>
</g>
<g opacity="1">
<path d="M911.75 512.094C907.568 512.385 903.38 513.484 899.406 515.5C896.698 516.366 893.947 517.301 891.312 518.375C889.863 518.966 888.477 519.706 887.062 520.375C886.186 520.79 885.27 521.096 884.438 521.594C883.641 522.07 882.984 522.766 882.344 523.438C881.44 524.386 880.595 525.399 879.656 526.312C879.383 526.578 879.098 526.883 878.781 527.094C878.185 527.491 877.495 527.7 876.844 528C875.243 528.738 873.624 529.37 871.969 529.969C872.032 529.945 871.816 530.017 871.75 530.031C871.672 530.048 871.609 530.047 871.531 530.062C871.311 530.105 871.096 530.156 870.875 530.188C870.089 530.3 869.291 530.374 868.5 530.438C866.491 530.599 864.48 530.689 862.469 530.812C856.733 531.164 851.092 531.834 845.469 533.031C838.395 534.537 831.448 536.592 824.406 538.219C821.074 538.989 817.707 539.661 814.344 540.281C806.479 541.731 798.596 543.122 790.688 544.312C785.092 545.155 779.48 545.849 773.875 546.625C766.107 547.701 758.362 548.815 750.625 550.094C734.453 552.765 718.83 557.866 702.781 561.094C691.211 563.421 679.37 564.087 667.719 565.875C662.386 566.693 657.036 567.608 651.75 568.688C644.354 570.198 636.96 571.843 629.469 572.812C624.325 573.478 619.108 574.04 613.938 574.438C611.519 574.623 609.106 574.688 606.688 574.875C604.252 575.063 601.8 575.395 599.375 575.688C596.225 576.067 593.231 577.365 590.125 578C585.381 578.969 580.553 579.653 575.75 580.25C572.41 580.665 569.039 580.887 565.688 581.188C553.277 582.299 540.815 582.88 528.375 583.562C519.605 583.954 512.828 591.386 513.219 600.156C513.61 608.927 521.011 615.704 529.781 615.312C542.286 614.883 554.8 614.34 567.312 614.219C570.693 614.186 574.089 614.083 577.469 614.156C582.319 614.261 587.201 614.432 592.031 614.906C595.155 615.213 598.312 616.221 601.438 616.281C603.839 616.327 606.255 616.384 608.656 616.344C611.075 616.303 613.487 616.134 615.906 616.094C621.096 616.007 626.312 616.083 631.5 616.25C637.13 616.431 642.763 617.017 648.375 617.469C656.912 618.156 665.495 618.686 674.062 618.406C690.332 617.875 706.477 615.467 722.594 613.344C734.721 611.746 746.852 610.183 759 608.75C772.034 607.213 785.029 605.463 798.094 604.188C805.941 603.422 813.814 602.731 821.656 601.906C826.951 601.35 832.253 600.798 837.5 599.875C845.366 598.491 853.025 596.086 860.906 594.781C864.173 594.24 867.545 594.208 870.844 594C875.16 593.728 879.47 593.299 883.719 592.469C889.268 591.384 894.611 589.573 899.812 587.375C901.631 586.606 903.438 585.788 905.219 584.938C905.784 584.667 906.325 584.328 906.906 584.094C909.147 583.193 911.631 582.799 913.969 582.219C915.179 581.918 916.041 581.755 917.156 581.188C918.081 580.717 918.907 580.09 919.781 579.531C920.991 578.758 922.25 578.01 923.406 577.156C925.177 575.849 926.812 574.361 928.594 573.062C944.489 564.997 950.847 545.582 942.781 529.688C936.732 517.766 924.297 511.221 911.75 512.094ZM150.281 537.438C146.529 537.356 142.784 537.367 139.031 537.531C132.392 537.821 125.814 538.859 119.188 539.281C118.525 539.323 117.88 539.402 117.219 539.344C115.051 539.152 112.94 538.241 110.75 538.156C110.066 538.13 109.366 538.253 108.688 538.344C107.132 538.552 105.554 539.001 104.031 539.375C98.548 540.721 93.0358 542.809 88.3438 546C87.1077 546.841 85.874 547.671 84.75 548.656C83.2949 549.932 81.8359 551.24 80.625 552.75C78.9935 554.784 77.3878 556.889 76.2812 559.25C74.8097 562.39 73.5205 565.701 72.9688 569.125C72.6817 570.907 72.533 572.716 72.5312 574.531C72.5295 576.346 72.681 578.151 72.9375 579.938C73.3975 583.142 74.5118 586.269 75.8438 589.219C76.9237 591.611 78.4974 593.761 80.0938 595.844C81.2177 597.31 82.5995 598.572 83.9688 599.812C84.995 600.742 86.141 601.526 87.2812 602.312C88.6597 603.263 90.1395 604.041 91.6562 604.75C102.747 610.655 115.681 609.34 125.312 602.594C125.356 602.588 125.395 602.569 125.438 602.562C126.543 602.407 127.669 602.322 128.781 602.219C132.003 601.919 135.216 601.575 138.438 601.281C142.804 600.883 147.217 600.949 151.594 601.062C157.06 601.204 162.504 601.501 167.969 601.688C170.967 601.79 173.969 601.746 176.969 601.781C182.42 601.845 187.862 601.887 193.312 602C206.058 602.265 218.767 603.325 231.5 603.875C235.737 604.058 239.977 604.191 244.219 604.219C249.741 604.254 255.272 604.129 260.781 604.594C273.837 605.695 286.819 608.44 299.969 608.125C310.809 607.865 321.415 605.506 332.125 604.094C334.149 603.827 336.186 603.683 338.219 603.5C340.628 603.283 343.054 603.065 345.469 602.906C349.467 602.644 353.457 602.599 357.438 602.062C359.873 601.734 362.147 600.653 364.531 600.094C365.694 599.821 366.917 599.678 368.094 599.469C370.817 598.985 373.534 598.578 376.281 598.25C379.004 597.925 381.795 597.866 384.531 597.688C388.023 597.46 391.501 597.222 395 597.125C401.26 596.951 407.55 597.078 413.812 597.062C422.591 597.153 429.784 590.122 429.875 581.344C429.966 572.565 422.935 565.372 414.156 565.281C407.752 565.133 401.343 564.943 394.938 564.844C386.873 564.719 378.789 564.607 370.75 563.906C368.38 563.7 365.934 563.458 363.594 563.031C361.187 562.592 358.885 561.645 356.438 561.438C352.502 561.103 348.564 561.255 344.625 561.156C338.794 561.01 332.957 560.572 327.188 559.719C322.967 559.094 318.782 558.184 314.594 557.375C311.271 556.734 307.933 556.262 304.594 555.719C302.321 555.349 300.035 555.009 297.75 554.719C296.575 554.569 295.389 554.522 294.219 554.344C289.474 553.622 284.697 553.056 279.969 552.219C273.919 551.147 267.906 549.825 261.875 548.656C256.924 547.697 251.93 546.896 246.938 546.188C231.063 543.935 215.058 543.194 199.125 541.5C190.503 540.583 181.885 539.546 173.25 538.75C169.356 538.391 165.434 538.181 161.531 537.938C157.784 537.704 154.034 537.519 150.281 537.438ZM122 547.781C122.958 548.129 123.847 548.674 124.688 549.25C125.622 549.89 126.568 550.52 127.406 551.281C128.617 552.38 129.821 553.512 130.812 554.812C128.352 552.063 125.447 549.616 122 547.781Z" fill="#000000" stroke="none"/>
</g>
<g opacity="1">
<path d="M554.906 590.438C551.232 590.025 547.762 592.336 544.188 593.281C543.934 593.348 543.714 593.547 543.469 593.688C545.483 592.998 547.487 592.237 549.531 591.656C545.215 593.035 541.003 594.865 537.25 597.375C534.674 599.098 533.077 601.983 531.312 604.531C530.361 605.906 529.787 607.514 529.156 609.062C528.784 609.977 528.569 610.953 528.312 611.906C526.818 617.453 527.743 623.47 528.031 629.094C528.403 636.361 528.497 643.663 528.625 650.938C528.899 666.52 528.439 682.084 529.25 697.656C529.947 711.041 531.468 724.37 533.188 737.656C533.995 743.897 534.856 750.118 535.531 756.375C536.201 762.58 536.791 768.823 537.438 775.031C537.958 780.027 538.334 785.038 538.875 790.031C539.146 792.526 539.507 795.013 539.844 797.5C540.016 798.776 540.15 800.044 540.375 801.312C541.033 805.024 542.219 808.658 543.125 812.312C543.885 815.377 544.424 818.471 545.062 821.562C546.078 826.479 547.107 831.408 548.031 836.344C548.953 841.268 549.767 846.206 550.719 851.125C550.723 851.145 550.715 851.167 550.719 851.188C551.095 856.435 551.424 861.71 551.406 866.969C551.405 867.401 551.097 867.966 550.969 868.375C550.572 869.644 550.198 870.946 549.812 872.219C549.501 873.245 549.099 874.233 548.875 875.281C548.534 876.878 548.613 878.597 548.531 880.219C548.41 882.618 548.207 885.004 548.219 887.406C548.22 887.679 548.193 888.743 548.312 889.188C547.467 891.44 546.799 893.764 546.469 896.25C544.122 913.919 556.55 930.153 574.219 932.5C581.673 932.672 579.211 933.132 581.656 932.688C585.941 931.909 590.195 930.684 594.156 928.875C596.81 927.663 599.047 925.662 601.25 923.75C602.712 922.482 603.898 920.928 605.094 919.406C605.947 918.321 606.661 917.119 607.375 915.938C607.872 915.115 608.291 914.236 608.719 913.375C610.487 909.812 611.667 905.982 612.719 902.156C613.885 897.917 614.814 893.661 615.469 889.312C615.797 887.135 616.174 884.943 616.375 882.75C616.442 882.024 616.515 881.292 616.5 880.562C616.485 879.84 616.353 879.125 616.281 878.406C616.042 876.021 615.769 873.632 615.5 871.25C615.357 869.987 615.123 868.736 615.031 867.469C614.909 865.769 614.971 864.047 614.938 862.344C614.883 859.564 614.79 856.777 614.656 854C614.206 844.61 613.336 835.242 612.25 825.906C610.795 813.406 608.917 800.964 607.188 788.5C605.913 779.311 604.798 770.093 603.5 760.906C601.386 745.941 598.978 731.038 596.938 716.062C595.151 702.953 593.532 689.79 591.938 676.656C591.209 670.658 590.559 664.652 589.812 658.656C589.206 653.791 588.614 648.926 588 644.062C587.524 640.294 587.066 636.519 586.594 632.75C586.323 630.594 586.039 628.439 585.781 626.281C585.59 624.68 585.401 623.102 585.219 621.5C584.72 617.116 584.546 612.423 582.781 608.344C582.169 606.929 581.659 605.433 580.75 604.188C578.799 601.515 577.172 598.208 574.25 596.656C569.344 594.051 564.008 592.084 558.531 591.031C559.337 591.086 560.134 591.158 560.938 591.188C560.801 591.163 560.669 591.097 560.531 591.094C559.17 591.064 557.781 590.826 556.406 590.688C555.906 590.615 555.408 590.494 554.906 590.438ZM560.938 591.188C561.396 591.27 561.857 591.371 562.312 591.438C562.438 591.456 562.061 591.371 561.938 591.344C561.697 591.29 561.465 591.195 561.219 591.188C561.125 591.185 561.031 591.191 560.938 591.188ZM583.469 619.312C583.468 619.625 583.484 619.937 583.469 620.25C583.462 620.385 583.446 620.522 583.438 620.656C583.446 620.207 583.46 619.762 583.469 619.312ZM562.5 272.438C548.804 273.274 535.615 280.773 522.469 285.312C521.394 285.684 521.921 287.512 521.688 288.625C521.344 290.266 521.407 291.962 521.406 293.625C521.406 294.042 521.377 294.458 521.375 294.875C521.387 294.604 521.358 294.357 521.344 294.094C521.33 293.84 521.316 293.567 521.312 293.312C521.31 293.137 521.359 292.621 521.312 292.594C521.234 292.548 521.292 292.785 521.281 292.875C521.264 293.018 521.236 293.138 521.219 293.281C521.162 293.751 521.119 294.217 521.062 294.688C520.893 296.098 520.701 297.527 520.531 298.938C520.072 302.76 519.677 306.597 519.406 310.438C518.631 321.447 518.448 332.473 518.062 343.5C517.71 353.572 516.748 363.643 516.5 373.719C516.183 386.587 516.447 399.476 516.656 412.344C516.687 414.25 516.716 416.156 516.75 418.062C516.759 418.553 516.838 419.044 516.781 419.531C516.493 422.021 514.693 424.105 514.75 426.656C514.774 427.708 514.959 428.735 515.062 429.781C515.172 430.881 515.292 432.039 515.5 433.125C515.861 435.011 515.496 433.116 517 438.688C518.185 456.472 533.559 469.935 551.344 468.75C569.128 467.565 582.592 452.191 581.406 434.406C582.564 426.717 582.36 429.31 582.562 426.719C582.637 425.766 582.743 424.822 582.5 423.875C582.374 423.384 582.131 422.937 581.938 422.469C581.384 421.13 580.578 419.694 580.344 418.25C580.199 417.356 580.296 416.437 580.281 415.531C580.258 414.116 580.242 412.697 580.219 411.281C580.143 406.604 580.089 401.928 580.031 397.25C579.933 389.318 579.927 381.397 579.656 373.469C579.34 364.178 578.615 354.889 578.375 345.594C578.063 333.501 578.598 321.403 578.188 309.312C578.029 304.647 577.785 299.975 577.562 295.312C577.518 294.37 577.582 293.441 577.531 292.5C577.493 291.78 577.675 290.968 577.375 290.312C574.609 284.264 575.03 273.105 568.406 272.5C566.428 272.319 564.457 272.318 562.5 272.438ZM577.375 296.031C577.385 296.17 577.358 296.335 577.344 296.469C577.328 296.62 577.302 296.755 577.281 296.906C577.236 297.237 577.225 297.579 577.156 297.906C576.941 298.93 577.319 300.539 576.531 301.062C576.676 300.145 576.813 299.233 576.969 298.312C577.064 297.75 577.131 297.296 577.219 296.781C577.256 296.563 577.287 296.235 577.375 296.031ZM563.844 137.562C560.718 137.552 557.621 138.51 554.656 139.5C552.573 140.196 550.692 141.408 548.844 142.594C547.543 143.428 546.391 144.489 545.25 145.531C544.494 146.222 543.824 147.005 543.156 147.781C539.219 152.361 537.444 158.003 535.906 163.719C534.718 168.136 533.705 172.594 532.594 177.031C530.483 185.459 528.627 193.994 528.469 202.719C528.389 207.143 528.684 211.541 529.156 215.938C529.19 216.249 529.215 216.563 529.25 216.875C528.231 221.575 527.184 226.244 526.188 230.938C525.644 233.499 525.231 236.108 524.781 238.688C523.94 243.511 523.132 248.345 522.406 253.188C521.67 258.1 520.937 263.014 520.281 267.938C520.103 269.277 519.954 270.598 519.781 271.938C519.72 272.415 519.73 272.913 519.594 273.375C519.192 274.74 518.182 275.989 517.5 277.219C517.242 277.684 516.932 278.115 516.781 278.625C516.64 279.102 516.679 279.628 516.656 280.125C516.636 280.562 516.63 281 516.625 281.438C516.614 282.38 516.555 283.308 516.594 284.25C516.669 286.09 516.569 284.255 517.312 289.781C515.598 307.523 528.602 323.285 546.344 325C564.085 326.715 579.848 313.741 581.562 296C583.311 291.129 582.809 292.763 583.312 291.125C583.549 290.354 583.68 289.54 583.844 288.75C583.933 288.322 584.015 287.899 584.094 287.469C584.161 287.101 584.324 286.747 584.281 286.375C584.234 285.958 583.975 285.586 583.844 285.188C583.546 284.285 583.294 283.351 583.031 282.438C582.915 282.034 582.72 281.669 582.688 281.25C582.624 280.428 582.895 279.599 583 278.781C583.211 277.141 583.431 275.514 583.656 273.875C584.285 269.298 584.951 264.722 585.656 260.156C586.579 254.178 587.508 248.187 588.281 242.188C588.789 238.247 589.116 234.266 589.5 230.312C590.198 223.12 590.882 215.931 591.688 208.75C593.04 196.694 594.28 184.616 593.75 172.469C593.602 169.08 593.67 165.672 593.125 162.312C592.898 160.913 592.613 159.376 592.188 158.031C591.85 156.965 591.502 155.89 591.031 154.875C590.315 153.33 589.613 151.763 588.625 150.375C587.222 148.404 585.779 146.406 583.906 144.875C581.319 142.76 578.547 140.703 575.406 139.562C571.729 138.227 567.756 137.576 563.844 137.562ZM589.406 178.438C589.427 178.855 588.768 179.943 588.562 180.312C588.407 180.591 588.199 180.85 588.031 181.125C588.278 180.484 588.511 179.831 588.812 179.219C588.886 179.069 588.979 178.926 589.062 178.781C589.067 178.773 589.389 178.089 589.406 178.438Z" fill="#000000" stroke="none"/>
</g>
<g opacity="1">
<path d="M418.469 565.656C409.727 566.467 403.314 574.196 404.125 582.938C405.424 598.29 406.881 613.637 407.594 629.031C407.836 634.252 408.128 639.492 408.094 644.719C408.065 649.162 407.93 653.595 407.688 658.031C407.614 659.382 407.586 660.748 407.438 662.094C407.091 665.246 406.384 668.372 406.125 671.531C405.98 673.299 406.045 675.101 406 676.875C405.899 680.899 405.906 684.913 405.906 688.938C405.906 693.863 405.65 698.8 405.406 703.719C405.295 705.965 405.23 708.226 405.062 710.469C404.318 720.433 402.838 730.33 401.688 740.25C400.952 746.587 400.374 752.924 399.844 759.281C399.39 764.717 399.163 770.176 398.969 775.625C398.691 783.423 398.441 791.239 398.031 799.031C397.412 810.819 396.105 822.541 394.656 834.25C393.482 843.743 392.177 853.23 390.969 862.719C390.567 865.874 390.171 869.03 389.781 872.188C389.649 873.262 389.539 874.332 389.406 875.406C389.376 875.648 389.342 875.883 389.312 876.125C389.225 876.353 389.116 876.583 389.031 876.812C388.878 877.224 388.714 877.619 388.562 878.031C387.903 879.82 387.275 881.604 386.75 883.438C385.414 888.103 384.699 892.983 384.906 897.844C385.07 901.676 385.803 905.431 386.812 909.125C389.358 918.44 394.208 927.343 401.5 933.781C408.906 940.32 417.998 943.725 427.5 943.906C430.667 943.967 433.878 943.661 437.094 943C440.271 942.347 443.328 941.338 446.375 940.25C447.041 940.012 447.924 939.704 448.75 939.438C449.056 939.339 449.357 939.172 449.625 939.125C449.666 939.118 449.709 939.086 449.75 939.094C449.844 939.113 449.591 939.19 449.5 939.219C449.333 939.27 449.169 939.33 449 939.375C448.916 939.397 448.862 939.414 448.75 939.438C449.425 939.417 450.078 939.302 450.75 939.219C452.348 939.021 453.963 938.84 455.562 938.656C459.547 938.2 463.535 937.78 467.531 937.438C481.61 936.232 495.679 935.557 509.812 935.688C517.988 935.763 526.175 935.97 534.344 936.312C536.862 936.418 539.388 936.551 541.906 936.656C543.37 936.718 544.824 936.747 546.281 936.906C547.574 937.048 548.987 937.17 550.25 937.469C551.66 937.802 552.984 938.346 554.375 938.75C557.253 939.585 560.155 940.24 563.125 940.625C564.326 940.781 565.539 940.944 566.75 940.938C569.28 940.924 571.973 940.489 574.438 940C579.167 939.062 583.885 937.603 588.219 935.469C590.621 934.285 592.784 932.762 595.094 931.438C611.884 925.457 620.637 906.978 614.656 890.188C608.676 873.397 590.228 864.644 573.438 870.625C570.881 871.27 568.384 872.076 565.844 872.781C565.289 872.935 564.718 873.06 564.156 873.188C564.155 873.313 564.2 873.427 564.219 873.5C564.24 873.58 564.444 873.641 564.375 873.688C564.104 873.87 563.747 873.927 563.438 874.031C563.139 874.132 562.837 874.238 562.531 874.312C562.122 874.412 561.731 874.489 561.312 874.531C560.787 874.584 560.246 874.629 559.719 874.594C559.064 874.55 558.431 874.406 557.781 874.312C550.351 873.24 542.868 873.003 535.375 872.719C515.558 871.967 495.713 871.67 475.938 873.438C471.107 873.869 466.299 874.562 461.5 875.25C457.299 875.852 453.12 876.598 448.938 877.312C449.361 872.953 449.747 868.587 450.062 864.219C451.059 850.411 451.249 836.553 451.562 822.719C451.792 812.562 452.143 802.437 452.406 792.281C452.588 785.286 452.754 778.279 452.719 771.281C452.687 764.869 452.417 758.464 452.062 752.062C451.348 739.179 449.785 726.36 448.781 713.5C448.419 708.857 448.261 704.185 448.062 699.531C447.925 696.312 447.707 693.096 447.625 689.875C447.495 684.738 447.315 679.626 446.938 674.5C446.835 673.107 446.818 671.664 446.625 670.281C446.497 669.366 446.244 668.469 446.062 667.562C445.599 665.242 445.074 662.923 444.656 660.594C444.081 657.39 443.725 654.13 443.281 650.906C442.224 643.227 441.479 635.519 440.656 627.812C438.955 611.882 437.389 595.94 435.781 580C434.971 571.259 427.21 564.846 418.469 565.656ZM564.156 873.188C564.157 873.089 564.23 872.972 564.125 872.938C563.869 872.855 563.196 873.108 562.906 873.219C562.816 873.253 562.15 873.416 562.125 873.531C562.115 873.578 562.233 873.565 562.281 873.562C562.416 873.554 562.555 873.524 562.688 873.5C562.942 873.453 563.184 873.427 563.438 873.375C563.679 873.326 563.916 873.242 564.156 873.188ZM429.062 122.125C423.621 121.864 418.294 122.68 412.969 123.719C402.066 125.846 391.646 129.895 383.812 138.094C376.646 145.594 373.15 155.055 373.344 165.375C373.393 168.019 373.71 170.64 374.125 173.25C374.433 175.184 374.909 177.114 375.125 179.062C375.354 181.134 375.436 183.237 375.656 185.312C376.266 191.059 377.114 196.771 377.594 202.531C377.898 206.188 378.003 209.863 378.031 213.531C378.164 230.633 377.988 247.741 378.125 264.844C378.201 274.292 378.496 283.739 378.562 293.188C378.65 305.602 378.602 318.025 378.906 330.438C379.26 344.883 380.002 359.316 380.656 373.75C380.97 380.662 381.307 387.587 381.594 394.5C381.683 396.639 381.755 398.767 381.844 400.906C381.888 401.976 382.016 403.06 381.906 404.125C381.851 404.657 381.704 405.164 381.594 405.688C381.257 407.289 380.921 408.897 380.594 410.5C380.376 411.565 380.145 412.632 380.156 413.719C380.172 415.281 380.449 416.912 380.594 418.469C380.691 419.513 380.751 420.552 380.875 421.594C381.257 424.801 381.95 428.006 382.5 431.188C383.112 449.001 398.03 462.956 415.844 462.344C433.657 461.731 447.612 446.782 447 428.969C447.33 425.757 447.807 422.538 447.969 419.312C448.051 417.665 448.007 415.993 448.031 414.344C448.047 413.272 448.165 412.195 448.094 411.125C448.022 410.04 447.705 408.983 447.406 407.938C446.654 405.303 445.609 402.619 445.438 399.875C445.27 397.206 445.236 394.515 445.125 391.844C444.924 386.999 444.684 382.157 444.469 377.312C443.873 363.926 443.261 350.567 442.531 337.188C441.401 316.467 439.313 295.798 438.406 275.062C437.542 255.305 437.835 235.478 435.844 215.781C435.219 209.603 434.507 203.399 433.438 197.281C432.519 192.027 431.261 186.842 430.312 181.594C429.834 178.944 429.502 176.285 429.125 173.625C430.641 173.251 432.327 173.226 433.844 173.188C435.808 173.138 437.788 173.145 439.75 173.031C445.671 172.688 451.545 171.652 457.438 171C463.671 170.311 469.926 169.858 476.188 169.531C480.731 169.294 485.264 169.111 489.812 169.031C493.227 168.972 496.622 168.82 500.031 168.625C501.167 168.56 502.309 168.551 503.438 168.406C506.294 168.04 509.095 167.245 511.938 166.781C514.19 166.414 516.482 166.245 518.75 166C522.922 165.549 527.125 165.164 531.312 164.875C535.574 164.581 539.855 164.424 544.125 164.312C546.133 164.26 548.149 164.318 550.156 164.25C550.019 165.549 549.895 166.852 549.844 168.156C549.489 176.928 556.322 184.332 565.094 184.688C573.866 185.043 581.27 178.209 581.625 169.438C581.688 167.952 581.994 166.552 582.281 165.094C582.717 162.883 583.148 160.654 583.344 158.406C584.005 150.829 581.926 143.134 576.344 137.719C575.123 136.535 573.884 135.575 572.438 134.688C568.243 132.114 563.34 131.137 558.469 131.156C555.555 131.168 552.687 131.606 549.781 131.688C548.49 131.724 547.164 131.513 545.875 131.438C543.989 131.328 542.107 131.269 540.219 131.219C537.043 131.134 533.863 131.162 530.688 131.062C528.67 130.999 526.639 130.82 524.625 130.688C522.037 130.518 519.486 130.286 516.906 130.031C515.202 129.863 513.475 129.729 511.781 129.469C508.934 129.03 506.11 128.246 503.25 127.906C501.57 127.707 499.846 127.738 498.156 127.656C493.61 127.437 489.048 127.495 484.5 127.375C474.834 127.121 465.142 126.653 455.531 125.562C451.06 125.055 446.54 124.694 442.094 124C441.011 123.831 439.954 123.538 438.875 123.344C435.636 122.762 432.353 122.283 429.062 122.125ZM420.875 176.75C420.85 176.764 420.838 176.799 420.812 176.812C420.726 176.858 420.623 176.972 420.531 176.938C420.486 176.921 420.613 176.865 420.656 176.844C420.728 176.808 420.803 176.784 420.875 176.75Z" fill="#000000" stroke="none"/>
</g>
<g opacity="1">
<path d="M867.375 360.031C863.454 359.785 859.5 359.816 855.562 360.062C846.396 360.637 837.417 362.443 828.375 363.938C821.601 365.057 814.786 365.796 808.031 367.031C804.085 367.753 800.17 368.741 796.281 369.719C782.688 373.136 769.367 377.616 756 381.812C748.73 384.095 741.444 386.275 734.156 388.5C731.789 389.223 729.395 389.857 727.031 390.594C724.235 391.466 721.386 392.272 718.625 393.25C718.321 393.358 718.025 393.526 717.719 393.625C714.921 394.533 712.087 395.273 709.281 396.156C700.448 398.938 691.637 401.832 682.719 404.344C673.249 407.011 663.63 409.09 653.969 410.938C650.85 411.534 647.689 411.978 644.562 412.531C641.423 413.086 638.305 413.773 635.188 414.438C633.78 414.738 632.425 415.26 631.062 415.719C629.024 416.405 626.995 417.155 624.938 417.781C622.564 418.504 620.123 419.01 617.719 419.625C612.628 420.927 607.48 422.143 602.312 423.094C584.301 426.408 565.95 426.945 547.719 428.188C538.956 428.713 532.287 436.237 532.812 445C533.338 453.763 540.862 460.464 549.625 459.938C564.967 459.142 580.332 458.615 595.656 457.5C600.665 457.136 605.635 456.507 610.625 455.969C616.92 455.29 623.272 454.88 629.594 454.562C633.178 454.383 636.761 454.818 640.344 454.688C642.114 454.623 643.895 454.312 645.656 454.125C650.27 453.634 654.845 452.966 659.438 452.312C666.192 451.352 673.028 450.631 679.812 449.906C688.072 449.024 696.38 448.659 704.656 447.969C706.759 447.793 708.871 447.702 710.969 447.469C713.048 447.237 715.113 446.869 717.188 446.594C721.196 446.061 725.231 445.551 729.219 444.875C732.516 444.316 735.773 443.413 739.031 442.656C753.435 439.312 767.447 434.556 781.781 430.938C792.325 428.276 803.025 426.198 813.812 424.812C818.57 424.201 823.381 424.015 828.156 423.594C832.976 423.168 837.749 422.51 842.531 421.781C848.597 420.856 854.718 419.732 860.875 419.75C861.475 419.752 862.308 419.775 863.094 419.812C863.639 421.897 864.167 423.988 864.75 426.062C865.764 429.669 866.942 433.23 867.938 436.844C869.292 441.764 870.48 446.723 871.656 451.688C875.084 466.151 877.319 480.906 879.531 495.594C880.387 501.277 881.23 506.975 882.094 512.656C882.434 514.895 882.884 517.155 883.125 519.406C883.273 520.79 883.094 522.148 883.031 523.531C882.945 525.423 882.812 527.326 882.75 529.219C882.734 529.719 882.676 530.22 882.719 530.719C882.794 531.599 883.088 532.45 883.281 533.312C883.497 534.279 883.712 535.223 883.938 536.188C884.369 538.038 884.763 539.931 885.312 541.75C886.258 544.878 887.364 547.977 888.438 551.062C891.657 566.323 905.145 576.748 920.156 576.656C922.301 576.643 924.476 576.429 926.656 575.969C941.916 572.749 952.373 559.23 952.281 544.219C952.268 542.074 952.022 539.899 951.562 537.719C951.322 534.759 951.202 531.803 950.969 528.844C950.84 527.212 950.585 525.591 950.375 523.969C950.218 522.758 950.092 521.554 949.938 520.344C949.882 519.905 949.868 519.457 949.75 519.031C949.533 518.25 949.096 517.559 948.781 516.812C947.939 514.815 946.965 512.776 946.281 510.719C945.876 509.501 945.725 508.23 945.531 506.969C945.269 505.261 945.007 503.553 944.75 501.844C941.109 477.613 937.93 453.163 931.25 429.531C929.62 423.766 927.693 418.091 925.625 412.469C924.978 410.71 924.29 408.963 923.688 407.188C921.884 401.87 920.311 396.474 917.844 391.406C913.825 383.152 908.074 376.026 900.5 370.781C890.612 363.935 879.139 360.771 867.375 360.031ZM121.094 412.75C108.2 413.506 95.7448 420.751 87.7188 430.719C83.1473 436.396 80.0711 443.03 78.9688 450.25C78.4844 453.422 78.3868 456.609 78.5 459.812C78.5649 461.65 78.7955 463.474 78.8125 465.312C78.8411 468.411 78.627 471.502 78.4688 474.594C78.2543 478.784 78.095 482.97 77.8125 487.156C77.5302 491.339 77.2338 495.493 77.1875 499.688C77.176 500.731 77.1146 501.772 77.1875 502.812C77.368 505.389 78.003 507.967 78.3125 510.531C78.5551 512.542 78.6009 514.575 78.75 516.594C79.0077 520.083 79.2168 523.596 79.3125 527.094C79.3811 529.6 79.3592 532.118 79.4062 534.625C79.6562 547.953 79.7219 561.264 79.9062 574.594C79.9376 583.373 87.0961 590.469 95.875 590.438C104.654 590.406 111.719 583.279 111.688 574.5C111.772 561.914 111.808 549.317 112.562 536.75C112.734 533.887 112.851 531.011 113.125 528.156C113.49 524.352 114.048 520.542 114.719 516.781C114.972 515.362 115.191 513.902 115.531 512.5C116.097 510.169 117.028 507.932 117.562 505.594C117.891 504.155 117.987 502.617 118.188 501.156C118.848 496.348 119.216 491.516 119.969 486.719C120.498 483.346 121.06 479.976 121.719 476.625C122.109 474.64 122.631 472.695 123.062 470.719C123.345 469.425 123.592 468.112 123.844 466.812C123.856 466.751 123.863 466.687 123.875 466.625C124.066 466.674 124.246 466.733 124.438 466.781C126.405 467.278 128.404 467.751 130.406 468.094C133.269 468.584 136.148 468.878 139.031 469.219C142.375 469.614 145.721 469.99 149.062 470.406C167.342 472.683 185.508 475.738 203.875 477.281C216.167 478.314 228.478 479.332 240.781 480.219C254.164 481.183 267.579 482.239 281 482.5C296.598 482.803 312.225 482.291 327.812 481.781C331.658 481.656 335.498 481.509 339.344 481.375C341.216 481.31 343.233 481.017 345.094 481.312C346.079 481.469 347.001 481.822 347.969 482.062C348.935 482.303 349.908 482.541 350.875 482.781C351.358 482.902 351.848 483.079 352.344 483.125C352.821 483.169 353.304 483.07 353.781 483.031C354.726 482.954 355.651 482.844 356.594 482.75C358.017 482.609 359.463 482.519 360.875 482.281C363.266 481.879 365.62 481.34 368 480.875C385.814 480.289 399.804 465.377 399.219 447.562C398.633 429.748 383.689 415.789 365.875 416.375C363.47 416.067 361.069 415.682 358.656 415.438C357.208 415.291 355.766 415.291 354.312 415.25C353.341 415.223 352.347 415.168 351.375 415.156C350.896 415.151 350.41 415.11 349.938 415.188C348.954 415.349 348.072 415.786 347.125 416.094C345.266 416.697 343.397 417.517 341.438 417.688C339.541 417.852 337.59 417.809 335.688 417.875C332.365 417.991 329.042 418.11 325.719 418.219C314.919 418.572 304.114 418.817 293.312 419.094C289.157 419.2 284.999 419.233 280.844 419.344C268.426 419.675 256.051 420.209 243.625 419.969C237.6 419.852 231.546 419.384 225.531 419.031C215.825 418.461 206.125 417.87 196.406 417.562C184.925 417.2 173.412 417.358 161.938 416.781C155.617 416.464 149.327 415.949 143.031 415.312C141.751 415.183 140.465 415.096 139.188 414.938C137.152 414.685 135.138 414.069 133.125 413.688C129.157 412.936 125.135 412.513 121.094 412.75ZM125.719 460.75C126.05 460.727 125.899 461.717 125.875 461.844C125.756 462.481 125.484 463.066 125.312 463.688C125.26 463.879 125.284 464.204 125.188 464.375C125.109 464.514 124.88 464.623 124.906 464.781C124.925 464.893 125.111 464.651 125.219 464.688C125.283 464.709 125.223 464.843 125.25 464.906C125.31 465.047 125.654 465.193 125.781 465.25C125.865 465.287 125.91 465.39 126 465.406C126.098 465.424 126.406 465.37 126.312 465.406C125.606 465.678 124.855 465.633 124.125 465.719C124.416 464.25 124.661 462.762 125.188 461.375C125.24 461.236 125.543 460.762 125.719 460.75Z" fill="#000000" stroke="none"/>
</g>
<g opacity="1">
<path d="M413.594 393.156C406.399 393.941 401.215 400.431 402 407.625C401.973 409.517 401.928 411.391 402.031 413.281C402.065 413.908 402.058 414.536 402.156 415.156C402.405 416.729 403.22 418.096 403.469 419.656C403.738 421.343 403.68 423.17 403.688 424.875C403.703 428.419 403.492 432.76 401.406 435.812C399.27 436.545 397.208 437.533 395.219 438.594C394.549 438.951 393.89 439.333 393.219 439.688C392.991 439.808 392.736 439.843 392.531 440C389.512 440.39 386.424 440.474 383.438 440.469C379.255 440.461 375.101 440.535 370.938 440.969C367.608 441.316 364.438 442.519 362.219 445.156C361.785 445.671 361.403 446.22 361.031 446.781C360.803 447.125 360.636 447.513 360.438 447.875C360.339 448.094 360.209 448.306 360.125 448.531C359.943 449.022 359.757 449.494 359.625 450C359.323 451.161 359.18 452.298 359.219 453.5C359.317 456.557 360.615 459.451 362.75 461.625C363.607 462.497 365.075 463.717 366.281 464.094C367.266 464.401 368.227 464.747 369.219 465.031C369.409 465.086 369.617 465.101 369.812 465.125C371.579 465.346 373.384 465.227 375.156 465.156C377.022 465.082 378.886 464.987 380.75 464.875C381.617 465.091 382.533 465.141 383.469 464.969C383.666 464.934 383.865 464.91 384.062 464.875C391.849 464.99 399.634 465.121 407.094 462.375C407.286 462.304 407.465 462.199 407.656 462.125C409.94 461.64 412.235 461.067 414.312 460C417.524 458.351 419.826 455.738 421.031 452.656C425.994 446.635 428.543 438.982 429.25 431.031C429.542 427.755 429.581 424.472 429.438 421.188C429.387 420.026 429.233 418.848 429.219 417.688C429.196 415.835 429.682 414.022 429.562 412.156C429.519 411.479 429.365 410.825 429.25 410.156C428.936 408.335 428.497 406.576 428.062 404.781C427.277 397.587 420.788 392.371 413.594 393.156Z" fill="#000000" stroke="none"/>
</g>
<g opacity="1">
<path d="M421.875 391.906C414.638 391.887 408.738 397.763 408.719 405C408.611 407.317 408.486 409.629 408.25 411.938C407.967 414.704 407.632 417.489 407.094 420.219C406.798 421.717 406.326 423.167 406 424.656C405.474 427.056 405.058 429.709 403.75 431.844C401.955 434.774 398.877 436.871 395.719 438.062C394.568 438.497 393.23 439.001 392 439.125C390.606 439.266 389.157 439.018 387.781 438.875C386.511 438.743 385.014 438.559 383.75 438.5C378.944 438.275 374.216 438.92 369.938 441.219C368.161 442.173 366.393 443.442 365.094 445C364.612 445.577 364.153 446.159 363.781 446.812C363.246 447.752 362.708 448.711 362.406 449.75C362.215 450.41 362.181 451.101 362.062 451.781C360.389 451.752 358.679 451.804 357.094 452.344C356.532 452.535 355.955 452.709 355.438 453C354.585 453.479 353.664 453.939 353 454.656C351.863 455.883 350.661 457.177 350.094 458.75C349.447 460.542 349.309 462.539 349.469 464.438C349.528 465.144 349.731 465.804 350 466.469C350.017 466.606 349.943 466.739 349.969 466.875C350.11 467.632 350.399 468.365 350.781 469.031C351.591 470.443 352.758 471.185 354.062 471.719C357.206 474.054 361.748 475 365.531 475.188C368.299 475.324 371.058 475.045 373.812 474.812C374.033 474.794 374.248 474.738 374.469 474.719C376.21 474.747 377.955 474.682 379.688 474.438C381.621 474.502 383.545 474.462 385.5 474.188C386.182 474.092 386.831 473.914 387.5 473.781C389.448 473.607 391.388 473.314 393.312 472.969C393.335 472.965 393.352 472.941 393.375 472.938C393.85 472.852 394.339 472.846 394.812 472.75C395.237 472.664 395.64 472.501 396.062 472.406C396.972 472.207 397.847 471.914 398.75 471.688C399.323 471.533 399.9 471.388 400.469 471.219C400.908 471.081 401.378 471.058 401.812 470.906C401.909 470.872 401.997 470.816 402.094 470.781C402.113 470.775 402.137 470.787 402.156 470.781C402.375 470.762 402.594 470.774 402.812 470.75C404.774 470.534 406.694 470.195 408.594 469.656C409.797 469.315 410.985 468.878 412.188 468.531C419.414 466.445 428.104 464.125 430.781 456.125C434.116 453.396 437.042 450.277 438.312 445.969C438.628 444.897 438.818 444.022 438.938 442.906C439.021 442.122 439.025 441.134 438.969 440.344C438.858 438.796 438.504 437.163 437.781 435.781C437.367 434.989 436.964 434.144 436.344 433.5C435.309 432.426 434.18 431.377 432.875 430.656C433.374 428.766 433.82 426.85 434.125 424.938C435.177 418.347 435.213 411.715 434.938 405.062C434.956 397.826 429.112 391.925 421.875 391.906Z" fill="#000000" stroke="none"/>
</g>
<g opacity="1">
<path d="M740.812 399.562C739.942 399.594 739.067 399.725 738.188 399.938C733.298 401.042 728.525 402.516 723.75 404.031C720.512 405.059 717.236 406.195 713.875 406.75C707.855 407.744 701.689 407.327 695.625 407.812C690.554 408.218 685.459 409.037 680.5 410.156C677.391 410.858 674.322 411.75 671.25 412.594C664.709 414.391 658.203 416.367 651.688 418.25C646.245 419.823 640.733 421.203 635.219 422.5C632.022 423.252 628.811 423.964 625.594 424.625C624.032 424.946 622.458 425.309 620.875 425.5C619.614 425.652 618.179 425.429 616.938 425.375C615.414 425.309 613.898 425.313 612.375 425.375C609.909 425.475 607.436 425.645 604.969 425.75C600.618 425.935 596.288 426.048 591.938 426.25C589.339 426.371 586.719 426.522 584.125 426.719C582.138 426.869 580.169 427.065 578.188 427.281C574.751 427.656 571.329 428.142 567.938 428.812C565.491 429.296 562.879 429.838 560.812 431.344C559.926 431.99 559.004 432.617 558.312 433.469C557.302 434.713 556.265 436.045 555.75 437.562C555.499 438.302 555.336 439.07 555.188 439.844C553.808 439.805 552.442 439.736 551.062 439.719C549.454 439.699 547.835 439.718 546.25 440.031C544.668 440.344 543.247 441.234 541.781 441.906C541.391 442.085 541.006 442.475 540.688 442.75C539.674 443.624 538.802 444.656 538.125 445.812C537.565 446.77 537.127 447.802 536.844 448.875C536.599 449.802 536.712 450.764 536.688 451.719C536.675 451.817 536.601 451.9 536.594 452C536.583 452.135 536.629 452.272 536.625 452.406C536.639 452.847 536.501 453.281 536.562 453.719C536.616 454.099 536.67 454.468 536.75 454.844C536.789 455.024 536.859 455.197 536.906 455.375C536.941 455.479 536.968 455.583 537 455.688C537.344 457 537.854 458.285 538.406 459.5C538.975 460.752 540.257 461.525 541.312 462.406C541.818 462.828 542.441 463.085 543.031 463.375C544.19 463.945 545.566 464.166 546.969 464.281C548.334 464.598 549.741 464.726 551.062 464.844C551.593 464.891 552.126 464.899 552.656 464.938C552.842 464.959 553.032 464.948 553.219 464.969C554.914 465.433 556.7 465.581 558.438 465.688C562.409 465.931 566.396 466.087 570.375 466.031C571.623 466.014 572.878 465.935 574.125 465.875C579.516 466.107 584.906 466.426 590.312 466.406C593.019 466.396 595.724 466.443 598.438 466.438C601.151 466.432 603.893 466.344 606.594 466.125C607.941 466.016 609.447 465.866 610.781 465.656C613.518 465.226 616.697 464.746 619.031 463.094C619.255 462.935 619.438 462.735 619.656 462.562C621.593 462.385 623.545 462.241 625.469 461.938C631.465 460.992 637.315 459.286 643.219 457.906C646.926 457.04 650.629 456.15 654.344 455.312C657.952 454.781 661.536 454.146 665.125 453.5C674.145 452.374 683.156 451.144 692.062 449.344C697.631 448.218 703.15 446.86 708.656 445.469C710.699 444.953 712.739 444.422 714.781 443.906C715.596 443.701 716.447 443.439 717.281 443.312C723.291 442.405 729.597 442.787 734.375 438.219C734.851 437.763 735.314 437.27 735.719 436.75C736.199 436.132 736.667 435.505 737.031 434.812C737.465 433.988 737.827 433.112 738.094 432.219C738.365 431.311 738.547 430.381 738.625 429.438C738.683 428.733 738.617 428.018 738.562 427.312C740.487 426.668 742.381 425.92 744.344 425.406C750.498 423.916 754.592 418.31 754.375 412.219C754.344 411.349 754.213 410.473 754 409.594C752.51 403.439 746.903 399.345 740.812 399.562Z" fill="#000000" stroke="none"/>
</g>
</g>
</svg>
