<?xml version="1.0" encoding="UTF-8" standalone="no"?>
<!DOCTYPE svg PUBLIC "-//W3C//DTD SVG 1.1//EN" "http://www.w3.org/Graphics/SVG/1.1/DTD/svg11.dtd"
[
<!ATTLIST g
  xmlns:vectornator CDATA #FIXED "http://vectornator.io"
  vectornator:layerName CDATA #IMPLIED >
<!ATTLIST g
  xmlns:vectornator CDATA #FIXED "http://vectornator.io"
  vectornator:mask CDATA #IMPLIED >
<!ATTLIST text
  xmlns:vectornator CDATA #FIXED "http://vectornator.io"
  vectornator:width CDATA #IMPLIED >

<!ATTLIST path
  xmlns:vectornator CDATA #FIXED "http://vectornator.io"
  vectornator:blendMode CDATA #IMPLIED >
<!ATTLIST path
  xmlns:vectornator CDATA #FIXED "http://vectornator.io"
  vectornator:shadowColor CDATA #IMPLIED >
<!ATTLIST path
  xmlns:vectornator CDATA #FIXED "http://vectornator.io"
  vectornator:shadowOpacity CDATA #IMPLIED >
<!ATTLIST path
  xmlns:vectornator CDATA #FIXED "http://vectornator.io"
  vectornator:shadowRadius CDATA #IMPLIED >
<!ATTLIST path
  xmlns:vectornator CDATA #FIXED "http://vectornator.io"
  vectornator:shadowOffset CDATA #IMPLIED >
<!ATTLIST path
  xmlns:vectornator CDATA #FIXED "http://vectornator.io"
  vectornator:shadowAngle CDATA #IMPLIED >

<!ATTLIST image
  xmlns:vectornator CDATA #FIXED "http://vectornator.io"
  vectornator:blendMode CDATA #IMPLIED >
<!ATTLIST image
  xmlns:vectornator CDATA #FIXED "http://vectornator.io"
  vectornator:shadowColor CDATA #IMPLIED >
<!ATTLIST image
  xmlns:vectornator CDATA #FIXED "http://vectornator.io"
  vectornator:shadowOpacity CDATA #IMPLIED >
<!ATTLIST image
  xmlns:vectornator CDATA #FIXED "http://vectornator.io"
  vectornator:shadowRadius CDATA #IMPLIED >
<!ATTLIST image
  xmlns:vectornator CDATA #FIXED "http://vectornator.io"
  vectornator:shadowOffset CDATA #IMPLIED >
<!ATTLIST image
  xmlns:vectornator CDATA #FIXED "http://vectornator.io"
  vectornator:shadowAngle CDATA #IMPLIED >

<!ATTLIST g
  xmlns:vectornator CDATA #FIXED "http://vectornator.io"
  vectornator:blendMode CDATA #IMPLIED >
<!ATTLIST g
  xmlns:vectornator CDATA #FIXED "http://vectornator.io"
  vectornator:shadowColor CDATA #IMPLIED >
<!ATTLIST g
  xmlns:vectornator CDATA #FIXED "http://vectornator.io"
  vectornator:shadowOpacity CDATA #IMPLIED >
<!ATTLIST g
  xmlns:vectornator CDATA #FIXED "http://vectornator.io"
  vectornator:shadowRadius CDATA #IMPLIED >
<!ATTLIST g
  xmlns:vectornator CDATA #FIXED "http://vectornator.io"
  vectornator:shadowOffset CDATA #IMPLIED >
<!ATTLIST g
  xmlns:vectornator CDATA #FIXED "http://vectornator.io"
  vectornator:shadowAngle CDATA #IMPLIED >

<!ENTITY % SVG.filter.extra.content  "| feDropShadow" >
<!ELEMENT feDropShadow EMPTY>
<!ATTLIST feDropShadow
  xmlns:svg CDATA #FIXED "http://www.w3.org/Graphics/SVG/1.1/DTD/svg11.dtd"
  dx CDATA #IMPLIED>
<!ATTLIST feDropShadow
  xmlns:svg CDATA #FIXED "http://www.w3.org/Graphics/SVG/1.1/DTD/svg11.dtd"
  dy CDATA #IMPLIED>
<!ATTLIST feDropShadow
  xmlns:svg CDATA #FIXED "http://www.w3.org/Graphics/SVG/1.1/DTD/svg11.dtd"
  stdDeviation CDATA #IMPLIED>
<!ATTLIST feDropShadow
  xmlns:svg CDATA #FIXED "http://www.w3.org/Graphics/SVG/1.1/DTD/svg11.dtd"
  flood-opacity CDATA #IMPLIED>
<!ATTLIST feDropShadow
  xmlns:svg CDATA #FIXED "http://www.w3.org/Graphics/SVG/1.1/DTD/svg11.dtd"
  in CDATA #IMPLIED>
<!ATTLIST feDropShadow
  xmlns:svg CDATA #FIXED "http://www.w3.org/Graphics/SVG/1.1/DTD/svg11.dtd"
  result CDATA #IMPLIED>
<!ATTLIST feDropShadow
  xmlns:svg CDATA #FIXED "http://www.w3.org/Graphics/SVG/1.1/DTD/svg11.dtd"
  flood-color CDATA #IMPLIED>
]
>
<!-- Created with Vectornator (http://vectornator.io/) -->
<svg height="100%" stroke-miterlimit="10" style="fill-rule:nonzero;clip-rule:evenodd;stroke-linecap:round;stroke-linejoin:round;" version="1.1" viewBox="0 0 1024 1024" width="100%" xml:space="preserve" xmlns="http://www.w3.org/2000/svg" xmlns:vectornator="http://vectornator.io" xmlns:xlink="http://www.w3.org/1999/xlink">
<defs/>
<g id="레이어-2" vectornator:layerName="레이어 2">
<g opacity="1">
<path d="M597.6 834.02C600.121 839.03 606.489 840.588 611.271 839.811C616.393 838.98 619.99 833.055 624.349 829.677C628.708 826.299 633.264 823.27 637.426 819.543C654.093 804.619 670.35 789.002 687.358 774.663C722.939 744.666 756.223 710.818 790.789 679.111C794.48 675.725 798.931 673.72 802.678 670.425C825.106 650.699 846.422 629.159 868.065 608.172C871.134 605.196 873.408 601.147 876.387 598.037C881.744 592.446 887.83 587.918 893.031 582.112C902.12 571.967 913.034 563.274 919.186 550.262C921.44 545.493 918.609 538.462 915.619 534.337C912.101 529.482 906.331 527.924 901.353 525.65C891.003 520.924 879.707 519.892 869.254 515.516C862.364 512.632 855.74 508.877 849.043 505.382C832.672 496.838 817.573 485.616 801.489 476.427C773.399 460.379 743.685 448.091 717.08 428.651C697.761 414.536 681.957 394.27 664.77 376.532C658.567 370.131 653.58 361.974 646.937 356.264C622.057 334.877 596.205 315.088 569.661 296.906C557.304 288.442 544.477 281.013 531.618 273.742C525.188 270.107 519.564 260.569 512.596 262.16C508.312 263.139 512.407 272.782 512.596 278.086C513.027 290.148 513.068 302.237 513.785 314.279C515.395 341.34 517.512 368.356 519.729 395.353C523.752 444.34 538.428 490.829 547.073 538.68C553.769 575.746 559.738 613.002 566.095 650.156C573.39 692.796 577.415 736.178 583.928 779.006C584.772 784.56 587.34 789.525 588.683 794.931C591.9 807.874 591.797 822.49 597.6 834.02Z" fill="#ffffff" fill-opacity="0" fill-rule="evenodd" stroke="none"/>
<path d="M512.625 235.25C505.295 235.578 498.185 238.339 492.688 243.75C486.347 249.99 483.587 258.745 484 267.5C484.141 270.488 484.649 273.426 485.281 276.344C485.453 277.139 485.635 277.925 485.812 278.719C485.891 279.068 485.979 279.434 486.062 279.781C486.073 279.827 486.086 279.952 486.094 279.906C486.139 281.087 486.197 282.257 486.25 283.438C486.382 286.392 486.495 289.358 486.625 292.312C486.97 300.135 487.358 307.943 487.969 315.75C489.836 339.598 492.558 363.401 495.344 387.156C495.993 392.696 496.603 398.221 497.344 403.75C498.625 413.32 500.244 422.868 502.094 432.344C505.473 449.662 509.524 466.85 513.656 484C515.546 491.844 517.519 499.672 519.344 507.531C522.469 520.994 525.223 534.531 527.875 548.094C529.072 554.218 530.125 560.393 531.406 566.5C531.969 569.179 532.637 571.832 533.25 574.5C534.918 581.763 536.661 589.025 538.219 596.312C539.203 600.917 540.078 605.539 541 610.156C542.617 618.255 544.231 626.358 545.781 634.469C547.71 644.559 549.75 654.616 551.438 664.75C555.87 691.364 559.263 718.115 562.906 744.844C564.136 753.865 565.337 762.897 566.656 771.906C567.224 775.78 567.655 779.725 568.438 783.562C569.047 786.549 569.99 789.442 571 792.312C571.772 794.506 572.595 796.687 573.188 798.938C574.207 802.811 574.827 806.773 575.406 810.75C565.089 820.593 562.109 836.43 569.281 849.531C581.664 863.909 576.491 860.081 581.688 863.906C594.883 873.62 613.5 875.74 628.344 868.625C632.664 866.554 636.588 863.776 640.156 860.594C641.484 859.41 642.769 858.158 644.062 856.938C644.506 856.519 644.91 856.073 645.406 855.719C645.495 855.656 645.123 856.02 645.219 855.969C646.075 855.513 646.868 854.812 647.656 854.25C649.258 853.109 650.855 851.949 652.438 850.781C656.192 848.01 659.704 845.002 663.219 841.938C665.029 840.359 666.885 838.81 668.656 837.188C670.747 835.272 672.62 833.095 674.562 831.031C678.379 826.977 682.195 822.911 686.031 818.875C687.64 817.182 689.203 815.411 690.906 813.812C692.522 812.296 694.188 810.879 695.844 809.406C701.312 804.543 706.909 799.821 712.469 795.062C720.111 788.521 727.623 781.834 735.062 775.062C758.339 753.877 780.835 731.816 803.844 710.344C805.962 708.367 808.063 706.408 810.188 704.438C810.546 704.105 810.923 703.77 811.281 703.438C811.545 703.193 811.801 702.965 812.062 702.719C812.065 702.716 812.06 702.689 812.062 702.688C814.649 700.862 817.378 699.225 819.906 697.312C823.265 694.771 826.345 691.883 829.469 689.062C843.293 676.582 856.632 663.561 869.906 650.5C874.823 645.663 879.703 640.769 884.594 635.906C886.943 633.57 889.367 631.3 891.625 628.875C893.374 626.997 894.963 624.991 896.5 622.938C897.337 621.819 898.098 620.535 899.031 619.5C900.618 617.741 902.414 616.163 904.156 614.562C906.273 612.618 908.411 610.664 910.469 608.656C914.529 604.695 918.227 600.373 922.156 596.281C930.418 587.678 938.455 578.893 944.25 568.375C945.674 565.791 947.032 563.144 948.062 560.375C949.424 556.717 950.221 552.86 950.469 548.969C950.709 545.19 950.392 541.367 949.656 537.656C948.846 533.571 947.52 529.581 945.75 525.812C943.568 521.164 940.779 516.766 937.344 512.938C933.588 508.752 929.044 505.305 924.094 502.656C921.02 501.012 917.802 499.752 914.594 498.406C913.021 497.747 911.464 497.027 909.875 496.406C906.317 495.016 902.68 493.895 899 492.875C894.015 491.493 888.932 490.439 884 488.875C878.458 487.118 873.274 484.233 868.156 481.531C864.685 479.699 861.202 477.895 857.781 475.969C853.792 473.722 849.884 471.329 846 468.906C838.993 464.536 832.118 459.981 825.062 455.688C815.805 450.055 806.251 444.909 796.625 439.938C782.688 432.739 768.606 425.793 754.969 418.031C746.586 413.26 738.243 408.186 730.625 402.25C719.669 393.713 710.167 383.379 700.688 373.281C697.025 369.38 693.377 365.471 689.656 361.625C687.485 359.381 685.178 357.233 683.094 354.906C678.665 349.964 674.74 344.6 670.062 339.875C666.981 336.761 663.562 334.003 660.188 331.219C655.845 327.636 651.484 324.088 647.094 320.562C631.866 308.335 616.191 296.709 600.312 285.344C588.738 277.059 576.94 269.086 564.719 261.781C558.366 257.984 551.948 254.213 545.438 250.688C543.461 249.161 541.711 247.306 539.812 245.688C535.631 242.122 530.974 239.031 525.75 237.219C521.481 235.738 517.023 235.053 512.625 235.25ZM539.531 309.75C542.589 311.63 545.717 313.406 548.719 315.375C554.174 318.953 559.487 322.731 564.812 326.5C577.088 335.188 589.102 344.252 600.812 353.688C606.705 358.435 612.553 363.247 618.312 368.156C622.355 371.603 626.4 375.059 630.219 378.75C630.479 379.002 630.668 379.321 630.906 379.594C631.152 379.876 631.411 380.155 631.656 380.438C632.785 381.739 633.823 383.135 634.875 384.5C637.309 387.657 639.73 390.828 642.375 393.812C644.353 396.045 646.433 398.197 648.438 400.406C651.82 404.134 655.141 407.911 658.469 411.688C671.243 426.185 684.226 440.61 699.75 452.25C711.659 461.179 724.458 468.913 737.5 476.062C752.707 484.399 768.333 491.943 783.438 500.469C795.013 507.003 805.952 514.527 817.219 521.562C824.115 525.869 831.173 529.86 838.344 533.688C842.588 535.953 846.821 538.223 851.156 540.312C857.847 543.537 864.755 546.071 871.906 548.062C874.799 548.868 877.697 549.671 880.594 550.469C878.439 552.638 876.287 554.808 874.156 557C872.21 559.002 870.374 561.113 868.375 563.062C864.299 567.037 859.81 570.566 855.75 574.562C853.264 577.01 850.957 579.594 848.812 582.344C848.094 583.264 847.404 584.203 846.688 585.125C846.477 585.396 846.279 585.621 846.062 585.875C845.662 586.247 845.271 586.623 844.875 587C843.965 587.866 843.034 588.758 842.125 589.625C840.288 591.377 838.458 593.118 836.625 594.875C830.741 600.514 824.89 606.21 819.031 611.875C811.105 619.539 803.142 627.156 795.031 634.625C790.744 638.573 786.454 642.516 782.031 646.312C780.851 647.325 779.418 648.11 778.125 648.969C776.495 650.052 774.862 651.147 773.312 652.344C768.817 655.814 764.666 659.944 760.5 663.812C730.717 691.469 702.019 720.307 671.125 746.75C666.746 750.498 662.309 754.206 657.969 758C655.447 760.204 652.971 762.43 650.469 764.656C649.34 765.66 648.263 766.7 647.094 767.656C644.905 769.447 642.624 771.151 640.406 772.906C636.342 776.123 632.256 779.351 628.188 782.562C626.733 783.711 625.239 784.817 623.812 786C620.299 788.914 617.21 792.298 613.781 795.312C611.373 797.43 608.742 799.309 606.188 801.25C605.747 798.495 605.271 795.754 604.656 793.031C603.996 790.107 603.159 787.241 602.188 784.406C601.377 782.043 600.384 779.681 599.906 777.219C599.274 773.964 598.963 770.626 598.5 767.344C597.563 760.701 596.634 754.06 595.781 747.406C593.365 728.555 591.217 709.673 588.875 690.812C585.329 662.264 580.745 633.848 576.875 605.344C576.187 600.277 575.443 595.23 574.812 590.156C573.549 579.981 572.74 569.721 571.344 559.562C570.914 556.436 570.373 553.335 569.875 550.219C569.061 545.119 568.241 539.997 567.375 534.906C565.294 522.679 562.688 510.563 560.094 498.438C556.723 482.683 553.231 466.947 550.188 451.125C547.608 437.717 545.482 424.216 544.125 410.625C542.94 398.751 542.614 386.822 542.094 374.906C541.385 358.659 540.664 342.409 540.094 326.156C539.902 320.695 539.67 315.213 539.531 309.75Z" fill="#000000" stroke="none"/>
</g>
<g opacity="1">
<path d="M517.969 542.531C513.782 542.737 509.576 543.784 505.562 545.719C503.637 546.236 501.651 546.409 499.719 546.875C498.277 547.223 496.868 547.757 495.438 548.156C494.67 548.371 493.835 548.451 493.125 548.812C492.326 549.22 491.679 549.87 490.938 550.375C489.738 551.191 488.523 551.982 487.312 552.781C486.922 553.039 486.576 553.356 486.156 553.562C485.224 554.021 484.165 554.211 483.188 554.562C481.127 555.304 479.053 556.067 477.031 556.906C474.005 558.163 471.117 559.742 468.344 561.5C466.939 561.579 465.531 561.612 464.125 561.656C459.884 561.789 455.673 562.06 451.469 562.656C447.572 563.209 443.695 564.01 439.844 564.812C435.545 565.708 431.261 566.656 427 567.719C422.151 568.929 417.34 570.359 412.531 571.719C398.853 575.588 385.114 579.238 371.531 583.438C361.95 586.4 352.409 589.463 342.812 592.375C340.786 592.99 338.786 593.706 336.75 594.281C327.785 596.815 318.795 599.352 309.719 601.469C297.198 604.388 284.512 606.15 271.812 608.062C264.056 609.231 256.362 610.727 248.656 612.188C240.462 613.74 232.338 615.736 224.062 616.844C218.902 617.534 213.688 618.043 208.5 618.469C203.281 618.897 198.042 619.038 192.844 619.719C189.671 620.134 186.637 621.268 183.5 621.875C181.945 622.176 180.346 622.378 178.781 622.625C175.273 623.178 171.736 623.691 168.188 623.906C166.346 624.018 164.5 623.988 162.656 624C157.246 624.034 151.833 623.799 146.469 623.062C139.244 622.071 132.173 620.265 125.281 617.906C117.003 614.983 107.924 619.316 105 627.594C102.076 635.872 106.441 644.951 114.719 647.875C119.117 649.477 123.564 650.937 128.094 652.125C137.705 654.646 147.581 656.15 157.469 657.062C160.993 657.388 164.53 657.544 168.062 657.75C170.263 657.878 172.455 658.04 174.656 658.156C178.084 658.337 181.557 658.49 184.969 658.875C188.173 659.236 191.304 660.161 194.531 660.312C199.831 660.562 205.109 660.24 210.406 660.188C215.719 660.135 221.064 660.141 226.375 660.281C231.751 660.423 237.135 660.846 242.5 661.188C251.499 661.76 260.543 662.289 269.562 661.844C284.081 661.127 298.435 658.663 312.812 656.656C325.092 654.942 337.436 653.624 349.625 651.312C356.791 649.953 363.862 647.949 370.875 645.969C384.087 642.238 397.199 638.075 410.688 635.438C420.864 633.448 431.033 631.383 441.188 629.281C445.841 628.318 450.476 627.301 455.156 626.469C456.766 626.182 458.376 625.848 460 625.656C465.062 625.06 470.201 625.18 475.281 624.75C480.959 624.269 486.645 623.231 491.938 621.062C493.29 620.509 494.571 619.815 495.875 619.156C497.661 618.254 499.362 617.192 501.031 616.094C501.358 615.879 501.675 615.625 502 615.406C502.175 615.341 502.356 615.284 502.531 615.219C503.264 614.945 504.014 614.671 504.75 614.406C505.481 614.143 506.177 613.787 506.938 613.625C507.836 613.434 508.77 613.485 509.688 613.438C510.608 613.39 511.549 613.338 512.469 613.281C513.452 613.22 514.445 613.278 515.406 613.062C516.403 612.839 517.307 612.332 518.25 611.938C519.241 611.522 520.232 611.114 521.219 610.688C525.553 608.812 529.641 606.423 533.594 603.844C549.65 596.104 556.396 576.837 548.656 560.781C542.851 548.739 530.53 541.915 517.969 542.531Z" fill="#000000" stroke="none"/>
</g>
</g>
</svg>
