<?xml version="1.0" encoding="UTF-8" standalone="no"?>
<!DOCTYPE svg PUBLIC "-//W3C//DTD SVG 1.1//EN" "http://www.w3.org/Graphics/SVG/1.1/DTD/svg11.dtd"
[
<!ATTLIST g
  xmlns:vectornator CDATA #FIXED "http://vectornator.io"
  vectornator:layerName CDATA #IMPLIED >
<!ATTLIST g
  xmlns:vectornator CDATA #FIXED "http://vectornator.io"
  vectornator:mask CDATA #IMPLIED >
<!ATTLIST text
  xmlns:vectornator CDATA #FIXED "http://vectornator.io"
  vectornator:width CDATA #IMPLIED >

<!ATTLIST path
  xmlns:vectornator CDATA #FIXED "http://vectornator.io"
  vectornator:blendMode CDATA #IMPLIED >
<!ATTLIST path
  xmlns:vectornator CDATA #FIXED "http://vectornator.io"
  vectornator:shadowColor CDATA #IMPLIED >
<!ATTLIST path
  xmlns:vectornator CDATA #FIXED "http://vectornator.io"
  vectornator:shadowOpacity CDATA #IMPLIED >
<!ATTLIST path
  xmlns:vectornator CDATA #FIXED "http://vectornator.io"
  vectornator:shadowRadius CDATA #IMPLIED >
<!ATTLIST path
  xmlns:vectornator CDATA #FIXED "http://vectornator.io"
  vectornator:shadowOffset CDATA #IMPLIED >
<!ATTLIST path
  xmlns:vectornator CDATA #FIXED "http://vectornator.io"
  vectornator:shadowAngle CDATA #IMPLIED >

<!ATTLIST image
  xmlns:vectornator CDATA #FIXED "http://vectornator.io"
  vectornator:blendMode CDATA #IMPLIED >
<!ATTLIST image
  xmlns:vectornator CDATA #FIXED "http://vectornator.io"
  vectornator:shadowColor CDATA #IMPLIED >
<!ATTLIST image
  xmlns:vectornator CDATA #FIXED "http://vectornator.io"
  vectornator:shadowOpacity CDATA #IMPLIED >
<!ATTLIST image
  xmlns:vectornator CDATA #FIXED "http://vectornator.io"
  vectornator:shadowRadius CDATA #IMPLIED >
<!ATTLIST image
  xmlns:vectornator CDATA #FIXED "http://vectornator.io"
  vectornator:shadowOffset CDATA #IMPLIED >
<!ATTLIST image
  xmlns:vectornator CDATA #FIXED "http://vectornator.io"
  vectornator:shadowAngle CDATA #IMPLIED >

<!ATTLIST g
  xmlns:vectornator CDATA #FIXED "http://vectornator.io"
  vectornator:blendMode CDATA #IMPLIED >
<!ATTLIST g
  xmlns:vectornator CDATA #FIXED "http://vectornator.io"
  vectornator:shadowColor CDATA #IMPLIED >
<!ATTLIST g
  xmlns:vectornator CDATA #FIXED "http://vectornator.io"
  vectornator:shadowOpacity CDATA #IMPLIED >
<!ATTLIST g
  xmlns:vectornator CDATA #FIXED "http://vectornator.io"
  vectornator:shadowRadius CDATA #IMPLIED >
<!ATTLIST g
  xmlns:vectornator CDATA #FIXED "http://vectornator.io"
  vectornator:shadowOffset CDATA #IMPLIED >
<!ATTLIST g
  xmlns:vectornator CDATA #FIXED "http://vectornator.io"
  vectornator:shadowAngle CDATA #IMPLIED >

<!ENTITY % SVG.filter.extra.content  "| feDropShadow" >
<!ELEMENT feDropShadow EMPTY>
<!ATTLIST feDropShadow
  xmlns:svg CDATA #FIXED "http://www.w3.org/Graphics/SVG/1.1/DTD/svg11.dtd"
  dx CDATA #IMPLIED>
<!ATTLIST feDropShadow
  xmlns:svg CDATA #FIXED "http://www.w3.org/Graphics/SVG/1.1/DTD/svg11.dtd"
  dy CDATA #IMPLIED>
<!ATTLIST feDropShadow
  xmlns:svg CDATA #FIXED "http://www.w3.org/Graphics/SVG/1.1/DTD/svg11.dtd"
  stdDeviation CDATA #IMPLIED>
<!ATTLIST feDropShadow
  xmlns:svg CDATA #FIXED "http://www.w3.org/Graphics/SVG/1.1/DTD/svg11.dtd"
  flood-opacity CDATA #IMPLIED>
<!ATTLIST feDropShadow
  xmlns:svg CDATA #FIXED "http://www.w3.org/Graphics/SVG/1.1/DTD/svg11.dtd"
  in CDATA #IMPLIED>
<!ATTLIST feDropShadow
  xmlns:svg CDATA #FIXED "http://www.w3.org/Graphics/SVG/1.1/DTD/svg11.dtd"
  result CDATA #IMPLIED>
<!ATTLIST feDropShadow
  xmlns:svg CDATA #FIXED "http://www.w3.org/Graphics/SVG/1.1/DTD/svg11.dtd"
  flood-color CDATA #IMPLIED>
]
>
<!-- Created with Vectornator (http://vectornator.io/) -->
<svg height="100%" stroke-miterlimit="10" style="fill-rule:nonzero;clip-rule:evenodd;stroke-linecap:round;stroke-linejoin:round;" version="1.1" viewBox="0 0 1024 1024" width="100%" xml:space="preserve" xmlns="http://www.w3.org/2000/svg" xmlns:vectornator="http://vectornator.io" xmlns:xlink="http://www.w3.org/1999/xlink">
<defs/>
<g id="레이어-1" vectornator:layerName="레이어 1">
<g opacity="1">
<path d="M442.4 267.963C439.879 262.953 433.511 261.395 428.729 262.172C423.607 263.003 420.01 268.928 415.651 272.306C411.292 275.684 406.736 278.713 402.574 282.44C385.907 297.364 369.65 312.981 352.642 327.32C317.061 357.317 283.777 391.165 249.211 422.872C245.52 426.258 241.069 428.263 237.322 431.558C214.894 451.284 193.578 472.824 171.935 493.811C168.866 496.787 166.592 500.836 163.613 503.946C158.256 509.537 152.17 514.065 146.969 519.871C137.88 530.016 126.966 538.709 120.814 551.721C118.56 556.49 121.391 563.521 124.381 567.646C127.899 572.501 133.669 574.059 138.647 576.333C148.997 581.059 160.293 582.091 170.746 586.467C177.636 589.351 184.26 593.106 190.957 596.601C207.328 605.145 222.427 616.367 238.511 625.556C266.601 641.604 296.315 653.892 322.92 673.332C342.239 687.447 358.043 707.713 375.23 725.451C381.433 731.852 386.42 740.009 393.063 745.719C417.943 767.106 443.795 786.895 470.339 805.077C482.696 813.541 495.523 820.97 508.382 828.241C514.812 831.876 520.436 841.414 527.404 839.823C531.688 838.844 527.593 829.201 527.404 823.897C526.973 811.835 526.932 799.746 526.215 787.704C524.605 760.643 522.488 733.627 520.271 706.63C516.248 657.643 501.572 611.154 492.927 563.303C486.231 526.237 480.262 488.981 473.905 451.827C466.61 409.187 462.585 365.805 456.072 322.977C455.228 317.423 452.66 312.458 451.317 307.052C448.1 294.109 448.203 279.493 442.4 267.963Z" fill="#ffffff" fill-opacity="0" fill-rule="evenodd" stroke="none"/>
<path d="M429.469 229.156C423.326 229.31 417.223 230.676 411.656 233.344C407.336 235.415 403.412 238.224 399.844 241.406C398.516 242.59 397.231 243.811 395.938 245.031C395.494 245.45 395.09 245.896 394.594 246.25C394.505 246.313 394.877 245.949 394.781 246C393.925 246.456 393.132 247.189 392.344 247.75C390.742 248.891 389.145 250.02 387.562 251.188C383.808 253.958 380.296 256.967 376.781 260.031C374.971 261.61 373.115 263.19 371.344 264.812C369.253 266.728 367.38 268.905 365.438 270.969C361.621 275.023 357.805 279.089 353.969 283.125C352.36 284.818 350.797 286.558 349.094 288.156C347.478 289.673 345.812 291.121 344.156 292.594C338.688 297.457 333.091 302.179 327.531 306.938C319.889 313.479 312.377 320.166 304.938 326.938C281.661 348.123 259.165 370.153 236.156 391.625C234.038 393.602 231.937 395.561 229.812 397.531C229.454 397.864 229.077 398.198 228.719 398.531C228.455 398.776 228.199 399.035 227.938 399.281C225.351 401.107 222.621 402.744 220.094 404.656C216.735 407.198 213.655 410.117 210.531 412.938C196.707 425.418 183.368 438.408 170.094 451.469C165.177 456.306 160.297 461.199 155.406 466.062C153.057 468.398 150.633 470.669 148.375 473.094C146.626 474.972 145.037 476.978 143.5 479.031C142.663 480.149 141.902 481.465 140.969 482.5C139.382 484.259 137.586 485.837 135.844 487.438C133.727 489.382 131.589 491.305 129.531 493.312C125.471 497.274 121.773 501.596 117.844 505.688C109.582 514.29 101.545 523.076 95.75 533.594C94.3261 536.178 92.9684 538.856 91.9375 541.625C90.5758 545.283 89.7786 549.14 89.5312 553.031C89.291 556.81 89.6082 560.602 90.3438 564.312C91.1536 568.398 92.4807 572.387 94.25 576.156C96.4323 580.805 99.2211 585.234 102.656 589.062C106.412 593.248 110.956 596.664 115.906 599.312C118.98 600.957 122.198 602.248 125.406 603.594C126.979 604.253 128.536 604.942 130.125 605.562C133.683 606.953 137.32 608.105 141 609.125C145.985 610.507 151.068 611.53 156 613.094C161.542 614.851 166.726 617.767 171.844 620.469C175.315 622.301 178.798 624.074 182.219 626C186.208 628.247 190.116 630.64 194 633.062C201.007 637.433 207.882 642.02 214.938 646.312C224.195 651.945 233.749 657.091 243.375 662.062C257.312 669.261 271.394 676.176 285.031 683.938C293.414 688.709 301.757 693.814 309.375 699.75C320.331 708.287 329.833 718.589 339.312 728.688C342.975 732.589 346.623 736.498 350.344 740.344C352.515 742.588 354.822 744.736 356.906 747.062C361.335 752.004 365.26 757.4 369.938 762.125C373.019 765.239 376.438 767.966 379.812 770.75C384.155 774.333 388.516 777.881 392.906 781.406C408.134 793.634 423.809 805.259 439.688 816.625C451.262 824.91 463.06 832.883 475.281 840.188C481.634 843.985 488.052 847.756 494.562 851.281C496.539 852.808 498.289 854.694 500.188 856.312C504.369 859.878 509.026 862.969 514.25 864.781C525.635 868.731 538.516 866.907 547.312 858.25C553.653 852.01 556.413 843.255 556 834.5C555.859 831.512 555.351 828.543 554.719 825.625C554.547 824.83 554.365 824.044 554.188 823.25C554.109 822.901 554.021 822.567 553.938 822.219C553.927 822.173 553.914 822.017 553.906 822.062C553.861 820.891 553.802 819.702 553.75 818.531C553.618 815.577 553.505 812.642 553.375 809.688C553.03 801.865 552.642 794.026 552.031 786.219C550.164 762.37 547.442 738.599 544.656 714.844C544.007 709.304 543.397 703.747 542.656 698.219C541.375 688.649 539.756 679.101 537.906 669.625C534.527 652.307 530.476 635.15 526.344 618C524.454 610.156 522.481 602.328 520.656 594.469C517.531 581.006 514.777 567.438 512.125 553.875C510.928 547.751 509.875 541.607 508.594 535.5C508.031 532.821 507.363 530.137 506.75 527.469C505.082 520.206 503.339 512.975 501.781 505.688C500.797 501.083 499.922 496.43 499 491.812C497.383 483.714 495.769 475.611 494.219 467.5C492.29 457.41 490.25 447.353 488.562 437.219C484.13 410.605 480.737 383.854 477.094 357.125C475.864 348.103 474.663 339.072 473.344 330.062C472.776 326.188 472.345 322.274 471.562 318.438C470.953 315.451 470.01 312.558 469 309.688C468.228 307.494 467.405 305.313 466.812 303.062C465.792 299.186 465.173 295.199 464.594 291.219C474.911 281.376 477.891 265.57 470.719 252.469C458.336 238.091 463.509 241.919 458.312 238.094C450.065 232.022 439.707 228.9 429.469 229.156ZM433.812 300.719C434.254 303.484 434.727 306.236 435.344 308.969C436.004 311.893 436.841 314.759 437.812 317.594C438.623 319.957 439.616 322.319 440.094 324.781C440.726 328.036 441.037 331.373 441.5 334.656C442.437 341.299 443.366 347.94 444.219 354.594C446.635 373.445 448.783 392.327 451.125 411.188C454.671 439.736 459.255 468.12 463.125 496.625C463.813 501.691 464.557 506.77 465.188 511.844C466.451 522.019 467.26 532.247 468.656 542.406C469.086 545.533 469.627 548.665 470.125 551.781C470.939 556.881 471.759 561.972 472.625 567.062C474.706 579.29 477.312 591.406 479.906 603.531C483.277 619.286 486.769 635.021 489.812 650.844C492.392 664.251 494.518 677.753 495.875 691.344C497.06 703.218 497.386 715.178 497.906 727.094C498.615 743.341 499.336 759.591 499.906 775.844C500.098 781.303 500.329 786.757 500.469 792.219C497.411 790.339 494.283 788.562 491.281 786.594C485.826 783.015 480.513 779.269 475.188 775.5C462.912 766.812 450.898 757.716 439.188 748.281C433.295 743.533 427.447 738.722 421.688 733.812C417.645 730.366 413.6 726.941 409.781 723.25C409.521 722.998 409.332 722.679 409.094 722.406C408.848 722.124 408.589 721.845 408.344 721.562C407.215 720.261 406.177 718.834 405.125 717.469C402.692 714.312 400.27 711.172 397.625 708.188C395.647 705.955 393.567 703.803 391.562 701.594C388.18 697.866 384.859 694.089 381.531 690.312C368.757 675.815 355.774 661.39 340.25 649.75C328.341 640.821 315.542 633.087 302.5 625.938C287.293 617.601 271.667 610.026 256.562 601.5C244.987 594.966 234.048 587.442 222.781 580.406C215.885 576.1 208.827 572.14 201.656 568.312C197.412 566.047 193.179 563.745 188.844 561.656C182.153 558.432 175.245 555.898 168.094 553.906C165.211 553.103 162.325 552.295 159.438 551.5C161.582 549.341 163.723 547.182 165.844 545C167.79 542.998 169.626 540.855 171.625 538.906C175.701 534.932 180.19 531.434 184.25 527.438C186.736 524.99 189.042 522.375 191.188 519.625C191.906 518.704 192.596 517.765 193.312 516.844C193.524 516.572 193.721 516.348 193.938 516.094C194.338 515.722 194.729 515.346 195.125 514.969C196.035 514.102 196.966 513.242 197.875 512.375C199.712 510.623 201.542 508.851 203.375 507.094C209.259 501.455 215.11 495.79 220.969 490.125C228.895 482.461 236.858 474.845 244.969 467.375C249.256 463.427 253.546 459.453 257.969 455.656C259.149 454.643 260.582 453.89 261.875 453.031C263.505 451.948 265.138 450.821 266.688 449.625C271.183 446.154 275.334 442.056 279.5 438.188C309.283 410.531 337.981 381.693 368.875 355.25C373.254 351.502 377.691 347.794 382.031 344C384.553 341.796 387.029 339.539 389.531 337.312C390.66 336.309 391.737 335.269 392.906 334.312C395.095 332.522 397.376 330.817 399.594 329.062C403.658 325.846 407.744 322.649 411.812 319.438C413.267 318.289 414.761 317.183 416.188 316C419.701 313.086 422.79 309.671 426.219 306.656C428.627 304.539 431.258 302.66 433.812 300.719Z" fill="#000000" stroke="none"/>
</g>
<g opacity="1">
<path d="M784 440.094C779.488 439.946 774.947 439.902 770.438 440.125C755.919 440.841 741.565 443.305 727.188 445.312C714.908 447.027 702.564 448.376 690.375 450.688C683.209 452.047 676.138 454.019 669.125 456C655.913 459.731 642.801 463.925 629.312 466.562C619.136 468.552 608.967 470.617 598.812 472.719C594.159 473.682 589.524 474.699 584.844 475.531C583.234 475.818 581.624 476.152 580 476.344C574.938 476.94 569.799 476.789 564.719 477.219C559.041 477.699 553.355 478.738 548.062 480.906C546.71 481.46 545.429 482.154 544.125 482.812C542.339 483.715 540.638 484.808 538.969 485.906C538.635 486.126 538.3 486.34 537.969 486.562C537.802 486.625 537.636 486.687 537.469 486.75C536.736 487.024 535.986 487.329 535.25 487.594C534.519 487.857 533.823 488.182 533.062 488.344C532.164 488.535 531.23 488.484 530.312 488.531C529.392 488.579 528.451 488.631 527.531 488.688C526.548 488.748 525.555 488.691 524.594 488.906C523.597 489.13 522.693 489.637 521.75 490.031C520.759 490.446 519.768 490.886 518.781 491.312C514.447 493.188 510.359 495.546 506.406 498.125C490.35 505.865 483.604 525.163 491.344 541.219C499.084 557.275 518.382 564.021 534.438 556.281C536.363 555.764 538.349 555.56 540.281 555.094C541.724 554.746 543.132 554.243 544.562 553.844C545.33 553.629 546.165 553.518 546.875 553.156C547.674 552.749 548.321 552.13 549.062 551.625C550.262 550.809 551.477 549.987 552.688 549.188C553.078 548.93 553.424 548.644 553.844 548.438C554.776 547.979 555.835 547.758 556.812 547.406C558.873 546.664 560.947 545.933 562.969 545.094C565.995 543.837 568.883 542.227 571.656 540.469C573.061 540.39 574.469 540.357 575.875 540.312C580.116 540.179 584.327 539.909 588.531 539.312C592.428 538.76 596.305 537.959 600.156 537.156C604.455 536.261 608.739 535.313 613 534.25C617.849 533.04 622.66 531.61 627.469 530.25C641.147 526.381 654.886 522.762 668.469 518.562C678.05 515.6 687.591 512.506 697.188 509.594C699.214 508.979 701.214 508.263 703.25 507.688C712.215 505.154 721.205 502.648 730.281 500.531C742.802 497.612 755.489 495.85 768.188 493.938C775.944 492.769 783.638 491.241 791.344 489.781C799.538 488.229 807.662 486.264 815.938 485.156C821.098 484.466 826.311 483.957 831.5 483.531C836.718 483.103 841.958 482.962 847.156 482.281C850.329 481.866 853.363 480.701 856.5 480.094C858.055 479.793 859.654 479.622 861.219 479.375C864.727 478.822 868.264 478.31 871.812 478.094C873.654 477.982 875.5 477.981 877.344 477.969C882.754 477.934 888.168 478.17 893.531 478.906C900.756 479.898 907.827 481.735 914.719 484.094C922.997 487.017 932.076 482.653 935 474.375C937.924 466.097 933.559 457.017 925.281 454.094C920.883 452.492 916.436 451.063 911.906 449.875C902.295 447.354 892.419 445.85 882.531 444.938C879.007 444.612 875.47 444.456 871.938 444.25C869.737 444.122 867.545 443.929 865.344 443.812C861.916 443.631 858.443 443.478 855.031 443.094C851.827 442.732 848.696 441.839 845.469 441.688C840.169 441.438 834.891 441.729 829.594 441.781C824.281 441.834 818.936 441.859 813.625 441.719C808.249 441.577 802.865 441.123 797.5 440.781C793.001 440.495 788.512 440.241 784 440.094Z" fill="#000000" stroke="none"/>
</g>
</g>
</svg>
