<?xml version="1.0" encoding="UTF-8" standalone="no"?>
<!DOCTYPE svg PUBLIC "-//W3C//DTD SVG 1.1//EN" "http://www.w3.org/Graphics/SVG/1.1/DTD/svg11.dtd"
[
<!ATTLIST g
  xmlns:vectornator CDATA #FIXED "http://vectornator.io"
  vectornator:layerName CDATA #IMPLIED >
<!ATTLIST g
  xmlns:vectornator CDATA #FIXED "http://vectornator.io"
  vectornator:mask CDATA #IMPLIED >
<!ATTLIST text
  xmlns:vectornator CDATA #FIXED "http://vectornator.io"
  vectornator:width CDATA #IMPLIED >

<!ATTLIST path
  xmlns:vectornator CDATA #FIXED "http://vectornator.io"
  vectornator:blendMode CDATA #IMPLIED >
<!ATTLIST path
  xmlns:vectornator CDATA #FIXED "http://vectornator.io"
  vectornator:shadowColor CDATA #IMPLIED >
<!ATTLIST path
  xmlns:vectornator CDATA #FIXED "http://vectornator.io"
  vectornator:shadowOpacity CDATA #IMPLIED >
<!ATTLIST path
  xmlns:vectornator CDATA #FIXED "http://vectornator.io"
  vectornator:shadowRadius CDATA #IMPLIED >
<!ATTLIST path
  xmlns:vectornator CDATA #FIXED "http://vectornator.io"
  vectornator:shadowOffset CDATA #IMPLIED >
<!ATTLIST path
  xmlns:vectornator CDATA #FIXED "http://vectornator.io"
  vectornator:shadowAngle CDATA #IMPLIED >

<!ATTLIST image
  xmlns:vectornator CDATA #FIXED "http://vectornator.io"
  vectornator:blendMode CDATA #IMPLIED >
<!ATTLIST image
  xmlns:vectornator CDATA #FIXED "http://vectornator.io"
  vectornator:shadowColor CDATA #IMPLIED >
<!ATTLIST image
  xmlns:vectornator CDATA #FIXED "http://vectornator.io"
  vectornator:shadowOpacity CDATA #IMPLIED >
<!ATTLIST image
  xmlns:vectornator CDATA #FIXED "http://vectornator.io"
  vectornator:shadowRadius CDATA #IMPLIED >
<!ATTLIST image
  xmlns:vectornator CDATA #FIXED "http://vectornator.io"
  vectornator:shadowOffset CDATA #IMPLIED >
<!ATTLIST image
  xmlns:vectornator CDATA #FIXED "http://vectornator.io"
  vectornator:shadowAngle CDATA #IMPLIED >

<!ATTLIST g
  xmlns:vectornator CDATA #FIXED "http://vectornator.io"
  vectornator:blendMode CDATA #IMPLIED >
<!ATTLIST g
  xmlns:vectornator CDATA #FIXED "http://vectornator.io"
  vectornator:shadowColor CDATA #IMPLIED >
<!ATTLIST g
  xmlns:vectornator CDATA #FIXED "http://vectornator.io"
  vectornator:shadowOpacity CDATA #IMPLIED >
<!ATTLIST g
  xmlns:vectornator CDATA #FIXED "http://vectornator.io"
  vectornator:shadowRadius CDATA #IMPLIED >
<!ATTLIST g
  xmlns:vectornator CDATA #FIXED "http://vectornator.io"
  vectornator:shadowOffset CDATA #IMPLIED >
<!ATTLIST g
  xmlns:vectornator CDATA #FIXED "http://vectornator.io"
  vectornator:shadowAngle CDATA #IMPLIED >

<!ENTITY % SVG.filter.extra.content  "| feDropShadow" >
<!ELEMENT feDropShadow EMPTY>
<!ATTLIST feDropShadow
  xmlns:svg CDATA #FIXED "http://www.w3.org/Graphics/SVG/1.1/DTD/svg11.dtd"
  dx CDATA #IMPLIED>
<!ATTLIST feDropShadow
  xmlns:svg CDATA #FIXED "http://www.w3.org/Graphics/SVG/1.1/DTD/svg11.dtd"
  dy CDATA #IMPLIED>
<!ATTLIST feDropShadow
  xmlns:svg CDATA #FIXED "http://www.w3.org/Graphics/SVG/1.1/DTD/svg11.dtd"
  stdDeviation CDATA #IMPLIED>
<!ATTLIST feDropShadow
  xmlns:svg CDATA #FIXED "http://www.w3.org/Graphics/SVG/1.1/DTD/svg11.dtd"
  flood-opacity CDATA #IMPLIED>
<!ATTLIST feDropShadow
  xmlns:svg CDATA #FIXED "http://www.w3.org/Graphics/SVG/1.1/DTD/svg11.dtd"
  in CDATA #IMPLIED>
<!ATTLIST feDropShadow
  xmlns:svg CDATA #FIXED "http://www.w3.org/Graphics/SVG/1.1/DTD/svg11.dtd"
  result CDATA #IMPLIED>
<!ATTLIST feDropShadow
  xmlns:svg CDATA #FIXED "http://www.w3.org/Graphics/SVG/1.1/DTD/svg11.dtd"
  flood-color CDATA #IMPLIED>
]
>
<!-- Created with Vectornator (http://vectornator.io/) -->
<svg height="100%" stroke-miterlimit="10" style="fill-rule:nonzero;clip-rule:evenodd;stroke-linecap:round;stroke-linejoin:round;" version="1.1" viewBox="0 0 180 180" width="100%" xml:space="preserve" xmlns="http://www.w3.org/2000/svg" xmlns:vectornator="http://vectornator.io" xmlns:xlink="http://www.w3.org/1999/xlink">
<defs/>
<g id="레이어-1" vectornator:layerName="레이어 1">
<path d="M69.8784 80.3729C69.2641 76.8921 68.5495 73.5456 70.3944 70.2249C71.6458 67.9723 72.9896 65.7602 74.5224 63.6888C75.1258 62.8735 75.868 62.1105 76.7584 61.6248C79.0584 60.3703 81.5135 59.4049 83.9825 58.5288C85.0845 58.1378 86.2542 57.7907 87.4225 57.8408C90.3145 57.9647 93.1823 58.4861 96.0225 59.0448C104.832 60.7778 112.064 69.711 115.631 77.2769C117.637 81.5321 117.998 89.6712 117.351 94.305C116.84 97.9576 116.009 101.563 115.115 105.141C114.424 107.905 112.985 109.466 111.159 111.677C109.623 113.536 106.951 114.039 104.795 115.117C101.189 116.92 97.0806 117.286 93.0985 117.353C80.4492 117.567 71.043 116.34 59.5583 110.473C55.333 108.314 52.5145 104.101 49.2383 100.669C48.9848 100.403 48.756 100.113 48.5503 99.809C47.4365 98.1626 46.0276 96.6637 45.2823 94.821C43.9416 91.5064 43.13 87.9921 42.3583 84.5009C40.9507 78.1335 41.9288 72.6872 43.2183 66.0968C43.9056 62.5839 46.7342 59.8352 48.8943 56.9808C53.4945 50.902 59.4913 47.5617 65.7504 43.7367C72.5368 39.5894 80.1579 35.2892 88.2825 34.4487C98.351 33.4071 108.366 36.3483 117.695 39.9527C121.776 41.5297 125.367 44.2168 128.875 46.8327C129.98 47.6568 131.012 48.6249 131.799 49.7568C134.296 53.3498 136.722 57.023 138.679 60.9368C140.843 65.2651 141.122 70.3055 142.119 75.0409C143.955 83.762 144.527 92.2959 144.527 101.185C144.527 107.658 143.077 113.416 140.399 119.245C140.173 119.737 139.896 120.215 139.539 120.621C135.515 125.194 129.723 127.416 124.747 130.769C120.015 133.958 115.176 137.716 109.783 139.713C101.961 142.61 93.0866 143.633 84.8425 144.529C81.5083 144.892 78.0556 145.553 74.6944 145.217C63.5168 144.099 53.5568 140.39 44.4223 133.865C42.5089 132.498 41.0685 130.568 39.4342 128.877C35.3448 124.647 31.5739 120.044 28.4262 115.117C27.0906 113.027 25.3868 111.154 24.2982 108.925C22.98 106.226 22.0295 103.356 20.6862 100.669C18.9632 97.2231 18.2445 97.0195 17.5901 93.617C14.7388 78.7899 18.4108 66.3441 23.7822 52.5088C25.0953 49.1264 27.525 46.2912 29.4582 43.2207C30.1707 42.0891 30.6729 40.8136 31.5222 39.7807C38.2472 31.6016 47.5869 26.3525 57.6663 23.4406C62.8881 21.9321 68.5085 20.5865 73.8344 19.4846C75.3628 19.1684 78.325 19.2173 79.8545 18.4526" fill="none" fill-rule="evenodd" opacity="1" stroke="#000000" stroke-linecap="round" stroke-linejoin="round" stroke-width="10"/>
</g>
</svg>
