<?xml version="1.0" encoding="UTF-8" standalone="no"?>
<!DOCTYPE svg PUBLIC "-//W3C//DTD SVG 1.1//EN" "http://www.w3.org/Graphics/SVG/1.1/DTD/svg11.dtd"
[
<!ATTLIST g
  xmlns:vectornator CDATA #FIXED "http://vectornator.io"
  vectornator:layerName CDATA #IMPLIED >
<!ATTLIST g
  xmlns:vectornator CDATA #FIXED "http://vectornator.io"
  vectornator:mask CDATA #IMPLIED >
<!ATTLIST text
  xmlns:vectornator CDATA #FIXED "http://vectornator.io"
  vectornator:width CDATA #IMPLIED >

<!ATTLIST path
  xmlns:vectornator CDATA #FIXED "http://vectornator.io"
  vectornator:blendMode CDATA #IMPLIED >
<!ATTLIST path
  xmlns:vectornator CDATA #FIXED "http://vectornator.io"
  vectornator:shadowColor CDATA #IMPLIED >
<!ATTLIST path
  xmlns:vectornator CDATA #FIXED "http://vectornator.io"
  vectornator:shadowOpacity CDATA #IMPLIED >
<!ATTLIST path
  xmlns:vectornator CDATA #FIXED "http://vectornator.io"
  vectornator:shadowRadius CDATA #IMPLIED >
<!ATTLIST path
  xmlns:vectornator CDATA #FIXED "http://vectornator.io"
  vectornator:shadowOffset CDATA #IMPLIED >
<!ATTLIST path
  xmlns:vectornator CDATA #FIXED "http://vectornator.io"
  vectornator:shadowAngle CDATA #IMPLIED >

<!ATTLIST image
  xmlns:vectornator CDATA #FIXED "http://vectornator.io"
  vectornator:blendMode CDATA #IMPLIED >
<!ATTLIST image
  xmlns:vectornator CDATA #FIXED "http://vectornator.io"
  vectornator:shadowColor CDATA #IMPLIED >
<!ATTLIST image
  xmlns:vectornator CDATA #FIXED "http://vectornator.io"
  vectornator:shadowOpacity CDATA #IMPLIED >
<!ATTLIST image
  xmlns:vectornator CDATA #FIXED "http://vectornator.io"
  vectornator:shadowRadius CDATA #IMPLIED >
<!ATTLIST image
  xmlns:vectornator CDATA #FIXED "http://vectornator.io"
  vectornator:shadowOffset CDATA #IMPLIED >
<!ATTLIST image
  xmlns:vectornator CDATA #FIXED "http://vectornator.io"
  vectornator:shadowAngle CDATA #IMPLIED >

<!ATTLIST g
  xmlns:vectornator CDATA #FIXED "http://vectornator.io"
  vectornator:blendMode CDATA #IMPLIED >
<!ATTLIST g
  xmlns:vectornator CDATA #FIXED "http://vectornator.io"
  vectornator:shadowColor CDATA #IMPLIED >
<!ATTLIST g
  xmlns:vectornator CDATA #FIXED "http://vectornator.io"
  vectornator:shadowOpacity CDATA #IMPLIED >
<!ATTLIST g
  xmlns:vectornator CDATA #FIXED "http://vectornator.io"
  vectornator:shadowRadius CDATA #IMPLIED >
<!ATTLIST g
  xmlns:vectornator CDATA #FIXED "http://vectornator.io"
  vectornator:shadowOffset CDATA #IMPLIED >
<!ATTLIST g
  xmlns:vectornator CDATA #FIXED "http://vectornator.io"
  vectornator:shadowAngle CDATA #IMPLIED >

<!ENTITY % SVG.filter.extra.content  "| feDropShadow" >
<!ELEMENT feDropShadow EMPTY>
<!ATTLIST feDropShadow
  xmlns:svg CDATA #FIXED "http://www.w3.org/Graphics/SVG/1.1/DTD/svg11.dtd"
  dx CDATA #IMPLIED>
<!ATTLIST feDropShadow
  xmlns:svg CDATA #FIXED "http://www.w3.org/Graphics/SVG/1.1/DTD/svg11.dtd"
  dy CDATA #IMPLIED>
<!ATTLIST feDropShadow
  xmlns:svg CDATA #FIXED "http://www.w3.org/Graphics/SVG/1.1/DTD/svg11.dtd"
  stdDeviation CDATA #IMPLIED>
<!ATTLIST feDropShadow
  xmlns:svg CDATA #FIXED "http://www.w3.org/Graphics/SVG/1.1/DTD/svg11.dtd"
  flood-opacity CDATA #IMPLIED>
<!ATTLIST feDropShadow
  xmlns:svg CDATA #FIXED "http://www.w3.org/Graphics/SVG/1.1/DTD/svg11.dtd"
  in CDATA #IMPLIED>
<!ATTLIST feDropShadow
  xmlns:svg CDATA #FIXED "http://www.w3.org/Graphics/SVG/1.1/DTD/svg11.dtd"
  result CDATA #IMPLIED>
<!ATTLIST feDropShadow
  xmlns:svg CDATA #FIXED "http://www.w3.org/Graphics/SVG/1.1/DTD/svg11.dtd"
  flood-color CDATA #IMPLIED>
]
>
<!-- Created with Vectornator (http://vectornator.io/) -->
<svg height="100%" stroke-miterlimit="10" style="fill-rule:nonzero;clip-rule:evenodd;stroke-linecap:round;stroke-linejoin:round;" version="1.1" viewBox="0 0 1024 1024" width="100%" xml:space="preserve" xmlns="http://www.w3.org/2000/svg" xmlns:vectornator="http://vectornator.io" xmlns:xlink="http://www.w3.org/1999/xlink">
<defs/>
<g id="레이어-14" vectornator:layerName="레이어 14">
<g opacity="1">
<path d="M254.594 725.094C253.368 724.984 252.089 725.1 250.844 725.5C245.863 727.1 243.119 732.456 244.719 737.438C246.019 741.782 247.307 746.251 247.5 750.812C247.565 752.341 247.515 753.976 247.156 755.469C246.968 756.252 246.687 757.009 246.625 757.812C246.537 758.943 246.693 760.093 246.75 761.219C246.846 763.11 246.788 765.065 246.5 766.938C245.962 770.436 244.78 773.801 244.281 777.312C243.788 780.781 243.903 784.302 243.5 787.781C243.039 791.759 241.983 795.621 241.312 799.562C240.566 803.95 240.127 808.394 239.375 812.781C239.025 814.825 238.562 816.849 238.125 818.875C237.686 820.91 237.198 822.924 236.812 824.969C235.731 830.703 234.94 836.509 234.094 842.281C234.034 842.69 234.059 843.117 233.906 843.5C233.736 843.925 233.42 844.251 233.156 844.625C232.875 845.024 232.46 845.358 232.281 845.812C232.125 846.211 232.208 846.666 232.188 847.094C232.126 848.398 232.351 849.594 232.562 850.875C231.078 861.393 238.419 871.109 248.938 872.594C259.456 874.078 269.172 866.768 270.656 856.25C271.215 855.076 271.786 853.989 272.094 852.719C272.186 852.338 272.386 851.952 272.344 851.562C272.294 851.109 271.965 850.743 271.812 850.312C271.659 849.881 271.447 849.456 271.406 849C271.369 848.589 271.534 848.19 271.594 847.781C271.652 847.382 271.722 846.962 271.781 846.562C272.579 841.173 273.503 835.796 274.062 830.375C274.326 827.82 274.421 825.249 274.594 822.688C274.711 820.95 274.803 819.203 274.969 817.469C275.431 812.629 276.075 807.771 276.188 802.906C276.291 798.414 275.928 793.93 275.906 789.438C275.887 785.395 276.241 781.307 275.75 777.281C275.187 772.665 273.465 768.387 272.469 763.875C272.082 762.124 271.743 760.334 271.469 758.562C271.263 757.235 271.134 755.88 270.719 754.594C270.281 753.239 269.441 752.08 268.875 750.781C268.334 749.542 267.892 748.221 267.469 746.938C265.796 741.863 264.518 736.682 262.781 731.625C261.581 727.889 258.271 725.423 254.594 725.094Z" fill="#000000" stroke="none"/>
</g>
<g opacity="1">
<path d="M243.594 258.062C241.006 258.194 238.429 258.585 235.906 259.281C230.314 260.825 225.185 263.638 220.531 267.062C217.426 269.348 214.559 271.893 211.562 274.312C209.634 275.87 207.643 277.373 205.719 278.938C201.873 282.064 198.125 285.335 194.562 288.781C185.729 297.327 178.13 307.278 172.562 318.25C165.718 331.739 162.494 346.598 159.969 361.406C158.719 368.733 157.689 376.088 156.219 383.375C154.653 391.135 153.037 398.886 151.688 406.688C150.301 414.701 149.16 422.767 148.219 430.844C145.023 458.278 144.215 485.935 144.156 513.531C144.14 520.896 144.063 528.262 144.281 535.625C144.638 547.666 145.777 559.769 148.594 571.5C150.534 579.581 153.422 587.35 157 594.844C161.318 603.886 166.243 612.517 171.719 620.906C175.533 626.751 179.646 632.42 184.156 637.75C187.155 641.294 190.628 644.409 193.875 647.719C199.116 653.061 204.415 658.318 209.844 663.469C213.159 666.615 216.47 669.759 219.844 672.844C233.727 685.536 248.129 697.675 262.469 709.844C266.444 713.246 272.411 712.787 275.812 708.812C279.214 704.838 278.756 698.839 274.781 695.438C255.051 678.409 234.798 661.634 217.625 641.938C214.811 638.71 212.022 635.399 209.5 631.938C207.314 628.937 205.364 625.786 203.188 622.781C199.251 617.347 195.299 611.876 191.781 606.156C187.059 598.478 182.999 590.277 180.062 581.75C177.243 573.563 176.2 565.084 175.781 556.469C175.266 545.862 175.762 535.263 176.031 524.656C176.327 512.999 176.147 501.307 176.688 489.656C177.453 473.145 179.16 456.705 181.719 440.375C183.404 429.622 185.247 418.899 187.344 408.219C189.166 398.937 191.34 389.72 193 380.406C195.838 364.485 197.797 347.718 206.156 333.531C211.193 324.982 218.226 317.766 225.75 311.375C228.826 308.763 232.064 306.356 235.219 303.844C237.662 301.897 239.985 299.835 242.469 297.938C243.26 297.333 244.1 296.768 244.969 296.281C245.195 296.155 245.419 296.041 245.656 295.938C248.524 296.112 251.351 297.052 254.125 297.719C259.47 299.003 264.79 300.26 269.688 302.844C271.229 303.657 272.861 304.544 274.188 305.688C275.63 306.931 276.911 308.934 277.938 310.531C278.24 311.002 278.477 311.521 278.812 311.969C279.718 313.177 280.823 314.269 281.75 315.469C284.697 319.284 287.461 323.244 290.094 327.281C295.277 336.553 307.009 339.871 316.281 334.688C325.553 329.504 328.871 317.803 323.688 308.531C321.856 304.708 319.972 300.84 317.812 297.188C316.483 294.939 315.014 292.784 313.5 290.656C312.29 288.956 311.068 287.135 309.656 285.594C308.588 284.427 307.315 283.384 306.125 282.344C303.264 279.842 300.179 277.705 297.094 275.5C292.552 272.255 287.925 269.4 282.812 267.125C276.424 264.283 269.746 262.503 262.969 260.875C259.12 259.95 255.311 258.88 251.375 258.375C248.787 258.043 246.181 257.931 243.594 258.062Z" fill="#000000" stroke="none"/>
</g>
<g opacity="1">
<path d="M427.219 123.844C417.022 123.233 406.858 125.256 396.688 126.969C391.8 127.792 386.925 128.599 382.094 129.719C373.337 131.748 364.723 134.592 356.562 138.375C335.336 148.214 317.611 164.29 302.75 182.125C298.427 187.314 294.402 192.715 290.406 198.156C282.719 208.624 274.524 218.895 269.031 230.75C265.519 238.331 263.091 246.574 262.281 254.906C262.055 257.238 261.954 259.564 262 261.906C262.029 263.384 262.12 264.866 262.125 266.344C262.133 269.086 261.982 271.857 262.25 274.594C262.433 276.461 263 278.232 263.5 280.031C264.466 283.506 265.715 286.869 266.875 290.281C268.933 299.345 277.087 305.442 286.031 305.25C287.309 305.223 288.58 305.075 289.875 304.781C300.234 302.429 306.727 292.109 304.375 281.75C303.899 278.027 303.372 274.37 302.656 270.688C302.478 269.768 302.338 268.818 302.125 267.906C301.706 266.117 300.641 264.614 300.094 262.875C299.837 262.058 299.861 261.157 299.875 260.312C299.896 259.063 300.03 257.823 300.25 256.594C301.578 249.171 305.25 242.606 309.406 236.406C312.836 231.291 316.598 226.412 320.094 221.344C322.172 218.33 324.108 215.233 326.188 212.219C330.678 205.708 335.487 199.362 340.875 193.562C353.695 179.762 369.894 169.129 387.688 162.938C394.64 160.518 401.816 159.035 409.031 157.625C414.529 156.551 420.495 155.415 426.125 155.75C432.152 156.109 437.784 158.293 443.25 160.719C446.059 161.965 448.838 163.297 451.594 164.656C454.599 166.138 457.683 167.435 460.75 168.781C463.829 170.133 466.931 171.55 469.688 173.5C473.44 176.154 476.186 179.929 478.75 183.688C479.343 184.557 479.883 185.46 480.5 186.312C481.794 188.1 483.256 189.733 484.406 191.625C485.436 193.318 486.355 195.157 487.156 196.969C489.077 201.31 490.277 205.872 491.125 210.531C493.228 222.087 492.907 233.928 492.969 245.625C492.963 250.857 497.206 255.119 502.438 255.125C507.669 255.131 511.9 250.888 511.906 245.656C511.998 233.431 512.275 221.136 510.844 208.969C509.775 199.884 507.546 190.999 504.438 182.406C503.463 179.712 502.58 176.949 501.375 174.344C500.536 172.53 499.499 170.772 498.469 169.062C494.502 162.478 489.284 156.553 483.125 151.938C478.304 148.325 472.942 145.539 467.969 142.156C464.454 139.766 461.105 137.123 457.531 134.812C451.309 130.789 444.633 127.331 437.438 125.438C434.033 124.541 430.618 124.047 427.219 123.844Z" fill="#000000" stroke="none"/>
</g>
<g opacity="1">
<path d="M603.031 102.156C595.615 102.028 588.201 102.508 580.844 103.438C569.014 104.933 557.233 107.629 546.031 111.75C527.447 118.587 509.922 129.26 496.031 143.438C494.329 145.174 492.678 146.967 491.094 148.812C490.134 149.931 489.236 151.087 488.219 152.156C485.819 154.679 483.472 157.263 481.688 160.281C480.765 161.842 480.223 163.222 479.594 164.906C478.879 166.818 478.221 168.748 477.688 170.719C477.17 172.629 476.805 174.567 476.25 176.469C475.212 178.913 474.691 181.47 474.688 183.969C474.678 191.464 479.104 198.574 486.438 201.688C496.215 205.838 507.505 201.278 511.656 191.5C513.784 187.465 515.619 183.291 517.469 179.125C517.587 178.859 517.717 178.596 517.781 178.312C517.875 177.898 517.746 177.454 517.781 177.031C517.814 176.638 517.973 176.044 518.156 175.688C518.851 174.336 520.082 173.149 521.094 172.031C531.481 160.559 545.229 152.624 559.469 146.906C566.686 144.008 574.068 141.647 581.688 140.062C587.925 138.765 594.253 138.017 600.625 137.906C603.772 137.852 606.976 137.784 610.094 138.281C615.353 139.12 620.354 141.382 625.094 143.719C629.159 145.723 633.205 147.804 637.188 149.969C646.548 155.057 655.702 160.771 663.656 167.906C669.18 172.862 674.05 178.521 678.594 184.375C681.094 187.596 683.54 190.852 685.844 194.219C688.616 198.269 691.28 202.39 693.656 206.688C695.033 209.177 696.459 211.765 697.375 214.469C698.829 218.758 699.268 223.308 699.031 227.812C698.908 230.163 698.697 232.54 698.406 234.875C698.291 235.806 698.133 236.72 698.062 237.656C697.89 239.957 697.827 242.283 697.438 244.562C696.121 252.265 693.569 259.675 690.75 266.938C686.501 277.884 681.321 288.415 676.594 299.156C674.456 303.932 676.6 309.55 681.375 311.688C682.569 312.222 683.801 312.475 685.031 312.5C688.722 312.576 692.272 310.488 693.875 306.906C700.924 291.422 708.507 276.208 714.844 260.406C716.326 256.709 717.67 252.968 719.094 249.25C720.096 246.633 721.226 244.007 721.906 241.281C722.486 238.957 722.931 236.556 723.281 234.188C723.751 231.013 723.911 227.799 723.969 224.594C724.056 219.733 723.713 214.907 722.812 210.125C721.714 204.29 719.631 198.59 717.594 193.031C713.602 182.14 708.373 171.744 701.594 162.312C694.142 151.945 684.864 143.203 674.906 135.281C668.939 130.534 662.776 126.006 656.406 121.812C644.946 114.268 632.784 107.011 619.281 103.875C613.942 102.635 608.498 102.251 603.031 102.156Z" fill="#000000" stroke="none"/>
</g>
<g opacity="1">
<path d="M735.031 242.906C733.817 242.919 732.612 242.897 731.406 243.062C724.025 244.077 716.849 246.194 709.625 247.938C699.154 249.727 692.117 259.654 693.906 270.125C695.696 280.596 705.654 287.633 716.125 285.844C723.112 285.131 730.08 284.211 737.031 283.219C740.121 282.778 743.161 281.313 746.312 281.188C747.539 281.139 748.81 281.271 750.031 281.375C752.949 281.624 755.811 282.158 758.625 282.969C774.386 287.508 786.771 300.657 795.656 313.875C802.666 324.303 808.343 335.599 812.625 347.406C815.589 355.58 817.9 363.998 819.25 372.594C820.209 378.703 820.458 384.832 820.719 391C820.96 396.708 821.204 402.416 821.438 408.125C821.886 419.112 822.337 430.103 822.688 441.094C823.306 460.47 823.522 479.85 821.469 499.156C820.866 504.82 820.159 510.497 819.094 516.094C817.841 522.674 816.194 529.156 814.719 535.688C813.427 541.404 812.273 547.162 811.281 552.938C809.132 565.454 807.799 578.096 805.156 590.531C803.611 597.802 801.792 605.074 799.531 612.156C797.534 618.413 795.218 624.547 792.812 630.656C791.446 634.127 790.386 637.732 788.969 641.188C787.021 645.937 784.689 650.564 782.344 655.125C776.383 666.717 769.451 677.793 762.969 689.094C761.191 692.193 759.467 695.321 757.719 698.438C756.639 700.362 755.527 702.266 754.5 704.219C751.828 709.297 749.433 714.534 746.906 719.688C744.583 724.375 746.5 730.052 751.188 732.375C755.875 734.698 761.551 732.781 763.875 728.094C765.618 724.616 767.351 721.134 769.094 717.656C769.845 716.156 770.58 714.634 771.375 713.156C772.838 710.436 774.434 707.806 775.969 705.125C782.622 693.501 789.812 682.16 796.875 670.781C800.914 664.275 804.836 657.725 808.719 651.125C810.611 647.908 812.632 644.756 814.406 641.469C815.316 639.783 816.067 638 816.844 636.25C822.485 623.549 826.424 610.19 830.312 596.875C833.772 585.029 837.001 573.117 840.156 561.188C843.771 547.518 848.275 534.099 850.938 520.188C852.301 513.063 853.147 505.835 853.906 498.625C854.63 491.749 855.229 484.868 855.688 477.969C856.935 459.231 857.48 440.465 857.188 421.688C857.042 412.328 856.766 402.98 856.469 393.625C856.224 385.9 856.079 378.18 855.125 370.5C854.014 361.558 852.149 352.682 849.75 344C847.854 337.139 845.574 330.393 842.938 323.781C841.144 319.283 839.164 314.848 837.031 310.5C822.719 281.315 798.763 253.867 766.125 245.75C761.457 244.589 756.706 243.836 751.906 243.5C749.665 243.343 747.397 243.388 745.156 243.25C741.775 243.041 738.421 242.87 735.031 242.906Z" fill="#000000" stroke="none"/>
</g>
<g opacity="1">
<path d="M767.219 686.844C765.994 686.963 764.774 687.313 763.625 687.938C759.027 690.434 757.316 696.183 759.812 700.781C764.901 710.359 769 720.587 770.875 731.312C771.275 733.602 771.656 735.958 771.781 738.281C771.888 740.263 771.667 742.241 771.875 744.219C772.578 750.918 773.706 757.584 773.688 764.344C773.674 769.237 773.358 774.085 773.094 778.969C772.826 783.908 772.701 788.866 772.719 793.812C772.746 801.504 773.172 809.183 773.25 816.875C773.337 825.458 773.062 834.042 773.219 842.625C773.413 853.227 774.077 863.811 774.469 874.406C774.898 886.009 775.034 897.624 775.656 909.219C776.062 916.782 776.591 924.35 777.094 931.906C777.262 934.437 777.448 936.97 777.625 939.5C777.695 940.503 777.842 941.495 777.844 942.5C777.847 944.05 777.454 945.546 777.188 947.062C777.098 947.572 776.95 948.076 776.938 948.594C776.913 949.6 777.186 950.595 777.312 951.594C777.632 954.114 778.186 956.581 778.719 959.062C779.461 969.659 788.654 977.649 799.25 976.906C809.846 976.164 817.836 966.971 817.094 956.375C817.275 953.843 817.473 951.321 817.438 948.781C817.424 947.775 817.571 946.774 817.406 945.781C817.322 945.271 817.066 944.773 816.906 944.281C816.431 942.817 815.869 941.379 815.656 939.844C815.518 938.848 815.508 937.846 815.438 936.844C815.333 935.351 815.227 933.837 815.125 932.344C814.339 920.841 813.734 909.329 812.719 897.844C811.967 889.347 811.012 880.848 810.344 872.344C809.52 861.858 809.081 851.358 808.219 840.875C807.522 832.397 806.463 823.951 805.812 815.469C805.096 806.125 805.096 796.724 804.062 787.406C803.155 779.224 801.439 771.208 799.938 763.125C799.138 758.822 798.452 754.502 797.719 750.188C797.13 746.725 796.616 743.253 795.75 739.844C795.2 737.68 794.176 735.713 793.406 733.625C792.647 731.566 791.978 729.426 791.281 727.344C788.617 719.375 785.894 711.444 782.5 703.75C780.689 699.644 778.645 695.673 776.469 691.75C774.597 688.302 770.893 686.485 767.219 686.844Z" fill="#000000" stroke="none"/>
</g>
<g opacity="1">
<path d="M271.969 373.031C269.275 373.202 266.606 373.576 263.969 374.094C260.028 374.868 256.177 376.001 252.375 377.281C247.689 378.859 243.072 380.698 238.875 383.344C235.916 385.209 233.21 387.453 230.875 390.062C222.735 399.161 220.376 411.946 220.969 423.812C221.17 427.849 221.665 431.871 222.406 435.844C226.228 456.331 238.144 478.459 258.938 485.656C263.025 487.071 267.421 487.864 271.781 487.844C273.235 487.837 274.691 487.725 276.125 487.531C278.725 487.179 281.1 486.389 283.562 485.531C285.036 485.018 286.537 484.637 288 484.094C289.568 483.512 291.177 482.889 292.594 482C293.562 481.393 294.374 480.578 295.25 479.844C295.585 479.563 295.933 479.3 296.25 479C296.483 478.779 296.254 478.987 297 477.719C303.697 474.576 307.627 468.067 307.938 461.156C307.977 461.131 308.023 461.119 308.062 461.094C316.303 455.858 323.608 448.526 326.031 438.781C326.669 436.216 327.053 433.546 327.156 430.906C327.186 430.153 327.251 429.409 327.219 428.656C327.031 424.307 325.471 420.11 323.938 416.094C323.083 413.856 322.247 411.612 321.312 409.406C316.975 399.166 311.966 389.316 303.156 382.188C300.812 380.291 298.265 378.68 295.562 377.344C288.237 373.721 280.05 372.52 271.969 373.031ZM275.188 405.156C282.424 404.619 289.519 409.526 294.125 414.656C298.415 419.434 301.048 425.411 303.219 431.375C303.93 433.329 305.199 434.613 304.656 436.812C304.16 438.824 302.726 440.454 301.281 441.875C300.513 442.63 299.604 443.22 298.75 443.875C293.436 440.673 286.694 440.072 280.656 442.906C279.546 443.303 280.923 444.317 279.531 443.312C279.115 443.012 278.594 443.697 278.125 443.906C277.695 444.097 277.268 444.298 276.844 444.5C274.649 445.547 272.594 446.779 270.531 448.062C270.198 448.27 269.837 448.442 269.531 448.688C266.949 446.748 264.874 443.689 263.344 441.031C260.139 435.465 257.618 429.334 256.875 422.906C256.508 419.728 256.462 416.371 257.5 413.312C257.513 413.275 257.465 413.378 257.438 413.406C257.383 413.46 257.491 413.264 257.5 413.188C257.506 413.135 257.396 413.306 257.469 413.156C257.759 412.563 258.538 412.009 259.062 411.656C259.394 411.433 259.723 411.243 260.062 411.031C261.985 409.832 264.045 408.865 266.094 407.906C268.972 406.559 271.986 405.394 275.188 405.156Z" fill="#000000" stroke="none"/>
</g>
<g opacity="1">
<path d="M406.781 251.188C404.647 251.086 402.456 251.304 400.375 251.781C395.718 252.849 391.411 255.392 387.875 258.562C385.1 261.051 382.673 263.861 380.406 266.812C376.337 272.11 373.252 277.615 371.875 284.219C371.382 286.581 371.126 288.954 371.062 291.281C370.872 298.263 372.506 305.044 375.406 311.594C377.769 316.93 381.132 322.029 385.625 325.812C390.502 329.919 396.575 332.259 402.906 332.781C409.071 333.29 415.377 332.197 421.094 329.875C422.263 329.4 423.378 328.892 424.5 328.312C425.646 327.72 426.654 327.074 427.844 326.562C428.472 326.292 429.116 326.098 429.75 325.844C430.388 325.588 431.061 325.376 431.656 325.031C432.958 324.276 433.82 323.328 434.812 322.219C435.784 321.133 436.656 319.968 437.406 318.719C437.806 318.053 437.397 318.716 439.156 315.156C444.237 306.808 442.142 296.175 434.719 290.219C434.55 287.382 434.23 284.555 434.094 281.719C434.024 280.267 434.192 278.905 433.875 277.469C433.404 275.337 432.482 273.386 431.531 271.438C430.567 269.463 429.495 267.554 428.281 265.719C426.402 262.877 424.408 260.085 421.906 257.75C417.781 253.901 412.452 251.458 406.781 251.188ZM405.5 280.938C406.079 280.747 406.681 280.889 407.219 281.125C407.904 281.426 408.403 281.958 408.875 282.5C408.854 282.506 408.834 282.526 408.812 282.531C408.01 282.729 407.09 282.714 406.312 282.438C405.875 282.282 404.304 281.331 405.5 280.938ZM409.219 282.812C409.771 283.533 410.223 284.352 410.656 285.125C410.984 285.71 411.116 286.046 411.562 286.562C411.993 287.06 412.503 287.383 412.906 287.906C413.045 288.086 413.092 288.34 413.219 288.531C410.91 289.849 408.891 291.672 407.25 293.938C406.672 292.559 406.552 291.345 406.688 289.656C406.773 288.594 406.847 287.635 407.219 286.625C407.666 285.41 408.126 284.205 408.906 283.156C408.998 283.033 409.12 282.93 409.219 282.812ZM406.312 293.688C406.456 293.565 406.733 294.026 406.938 294.344C406.818 294.518 406.677 294.664 406.562 294.844C406.41 294.89 406.261 294.959 406.219 294.969C406.146 294.985 406.067 294.991 406 295C406.017 294.883 406.021 294.772 406.031 294.656C406.054 294.411 406.087 293.88 406.312 293.688ZM406 295.031C406.121 295.068 406.198 295.098 406.344 295.125C406.336 295.138 406.32 295.143 406.312 295.156C405.994 295.198 407.326 296.234 405.969 295.188C405.926 295.155 405.998 295.083 406 295.031ZM408.25 295.844C408.311 295.877 408.377 295.903 408.438 295.938C408.718 296.099 409.062 296.313 409.281 296.562C409.282 296.563 409.528 296.95 409.281 296.875C408.931 296.768 408.589 296.305 408.25 295.844Z" fill="#000000" stroke="none"/>
</g>
<g opacity="1">
<path d="M585.125 204.719C574.016 205.509 565.797 212.641 558.906 220.75C554.544 225.883 550.273 231.015 547.281 237.094C545.694 240.32 544.429 243.713 543.75 247.25C543.29 249.646 543.094 252.087 543.094 254.5C543.092 261.738 545.015 268.923 548.188 275.438C549.826 278.801 551.799 282.007 554 285.031C554.918 286.293 556.011 287.738 557.094 288.875C558.105 289.937 559.26 290.836 560.406 291.75C562.052 293.063 563.629 294.156 565.469 295.188C566.793 295.929 568.527 296.973 569.969 297.469C571.042 297.837 572.185 297.906 573.312 298.031C573.886 298.095 574.496 298.235 575.062 298.125C575.155 298.107 574.993 297.951 574.938 297.875C574.894 297.815 574.838 297.767 574.781 297.719C574.692 297.643 574.596 297.567 574.5 297.5C574.353 297.398 574.513 297.496 574.062 297.094C576.471 298.212 578.972 298.789 581.469 298.875C584.536 298.981 587.541 298.283 590.281 297C591.964 297.584 593.699 297.978 595.562 297.969C599.378 297.95 603.104 296.727 606.562 295.219C609.389 293.986 612.017 292.382 614.562 290.656C615.995 289.685 617.525 288.816 618.844 287.688C619.808 286.863 620.608 285.824 621.406 284.844C622.507 283.492 623.479 282.063 624.312 280.531C627.678 274.342 628.62 267.363 629.219 260.438C629.515 257.018 629.73 253.566 629.688 250.125C629.645 246.684 629.348 243.271 628.531 239.906C627.604 236.09 626.098 232.346 624.094 228.969C621.314 224.286 617.321 219.977 613.344 216.281C607.769 211.1 601.214 206.938 593.688 205.344C590.894 204.752 587.977 204.516 585.125 204.719ZM588.344 239.719C588.408 239.731 588.467 239.767 588.531 239.781C588.365 239.8 588.199 239.869 588.031 239.875C587.802 239.884 587.403 240.003 587.344 239.781C587.293 239.59 588.278 239.706 588.344 239.719ZM589.531 240.156C590.034 240.354 590.568 240.495 591.031 240.75C592.627 241.63 593.977 242.831 595.25 244.125C595.752 244.635 596.278 245.169 596.656 245.781C597.453 247.073 597.888 248.635 598.344 250.062C599.158 252.614 599.846 255.21 600.594 257.781C601.59 261.203 603 264.699 602.562 268.312C602.437 269.352 601.475 270.54 600.969 271.438C600.65 272.002 600.499 272.615 600.281 273.219C598.615 268.518 595.131 264.454 590.25 262.188C589.305 261.641 589.515 263.384 589.312 261.656C589.251 261.134 588.354 261.186 587.875 260.969C586.711 260.44 585.521 259.979 584.312 259.562C583.682 259.346 583.043 259.185 582.406 259C581.368 256.98 580.411 254.633 581.094 252.531C582.307 248.793 585.118 245.348 587.562 242.375C587.987 241.859 588.675 241.033 589.156 240.531C589.279 240.403 589.404 240.28 589.531 240.156Z" fill="#000000" stroke="none"/>
</g>
<g opacity="1">
<path d="M712.031 353.188C709.718 353.394 707.433 353.843 705.219 354.594C703.279 355.252 701.447 356.14 699.688 357.188C692.403 361.522 687.385 368.7 684.312 376.469C683.225 379.219 682.419 382.061 681.625 384.906C681.115 386.732 680.537 388.547 680.156 390.406C679.65 392.879 679.375 395.386 679.25 397.906C678.997 403.022 679.605 408.115 679.781 413.219C679.834 414.746 679.701 416.255 679.656 417.781C679.598 419.747 679.588 421.724 679.719 423.688C680.161 430.337 682.446 436.991 686.906 442.031C688.952 444.343 691.401 446.215 693.969 447.906C699.476 451.533 705.607 454.304 712 455.938C714.115 456.478 716.188 456.735 718.312 457.156C719.821 457.455 721.282 457.941 722.781 458.281C723.561 458.458 724.359 458.696 725.156 458.75C725.961 458.804 726.761 458.681 727.562 458.594C730.56 458.269 733.457 457.505 736.219 456.312C736.623 456.138 737.008 455.938 737.406 455.75C737.817 455.556 737.406 455.764 739.5 454.656C749.28 450.511 753.864 439.218 749.719 429.438C749.381 428.642 748.927 427.944 748.5 427.219C748.551 426.986 748.639 426.764 748.688 426.531C749.359 423.323 749.682 420.031 750.438 416.844C750.934 414.749 751.419 412.666 751.875 410.562C752.202 409.055 752.692 407.594 752.875 406.062C753.23 403.087 752.787 399.999 752.344 397.062C751.909 394.181 751.333 391.347 750.719 388.5C749.574 383.194 748.889 377.794 746.688 372.781C745.248 369.503 743.345 366.386 740.906 363.75C735.306 357.695 727.133 354.145 719 353.281C716.686 353.035 714.344 352.981 712.031 353.188ZM717.938 385.938C718.082 385.992 718.232 386.058 718.375 386.094C718.618 386.154 718.832 386.068 719.094 386.188C719.959 386.582 720.64 387.429 721.25 388.125C722.546 389.605 723.644 391.295 724.562 393.031C724.832 393.541 725.094 394.043 725.344 394.562C726.404 396.766 727.326 399.079 727.875 401.469C728.18 402.795 728.36 404.166 728.625 405.5C728.711 405.934 728.751 406.388 728.875 406.812C729.139 407.713 729.63 408.524 729.844 409.438C730.228 411.087 730.088 412.826 730.062 414.5C730.045 415.647 729.962 416.794 729.906 417.938C728.086 418.137 726.272 418.468 724.5 419.219C724.204 419.208 724.86 420.761 724.219 419.219C724.208 419.194 724.254 418.684 724.281 418.656C724.359 418.576 724.588 418.578 724.562 418.469C724.537 418.359 724.325 418.475 724.219 418.438C724.147 418.412 724.082 418.287 724.031 418.344C723.672 418.75 723.65 419.395 723 419.531C722.666 419.601 722.302 419.447 721.969 419.375C721.108 419.188 720.293 418.935 719.469 418.625C718.558 418.282 717.705 417.767 716.844 417.312C716.822 416.98 716.77 416.645 716.75 416.312C716.578 413.456 716.353 410.641 715.906 407.812C715.386 404.52 714.776 401.161 715.062 397.812C715.177 396.47 715.594 395.118 715.906 393.812C716.459 391.505 717.052 389.223 717.688 386.938C717.728 386.791 717.811 386.368 717.938 385.938Z" fill="#000000" stroke="none"/>
</g>
<g opacity="1">
<path d="M496 384.625C487.141 385.018 478.269 386.14 469.5 387.156C464.301 387.744 460.569 392.426 461.156 397.625C461.303 398.925 461.709 400.115 462.312 401.188C462.024 401.381 461.723 401.552 461.438 401.75C449.812 409.825 441.05 421.13 433.438 432.906C428.478 440.577 423.998 448.528 418.875 456.094C414.941 461.904 410.868 467.636 406.875 473.406C403.698 477.997 400.564 482.593 397.531 487.281C395.332 490.681 393.181 494.137 391.125 497.625C381.551 513.87 373.231 532.486 372.812 551.469C372.673 557.796 373.418 564.167 375.281 570.5C376.616 575.037 378.495 579.396 380.844 583.5C384.035 589.077 388.071 594.163 392.656 598.656C399.571 605.432 407.666 610.872 416.156 615.469C420.807 617.987 425.571 620.26 430.375 622.469C434.285 624.267 438.324 626.104 442.375 627.562C445.146 628.56 448.064 629.384 450.906 630.156C453.782 630.938 456.753 631.49 459.688 632C465.798 633.062 471.972 633.719 478.156 634.156C493.976 635.275 509.867 634.867 525.656 633.5C533.127 632.853 540.57 631.983 548.062 631.625C551.933 631.44 555.849 631.333 559.719 631.625C563.266 631.893 566.812 632.396 570.344 632.812C576.655 633.558 582.988 634.289 589.344 634.469C593.798 634.594 598.293 634.514 602.656 633.5C605.788 632.772 608.855 631.545 611.719 630.094C619.001 626.404 625.248 620.85 629.906 614.156C634.184 608.01 637.152 600.976 639.25 593.812C643.313 579.94 644.024 565.741 641.938 551.469C640.062 538.64 636.074 526.267 631.812 514.062C628.679 505.089 625.363 496.164 622.062 487.25C617.921 476.065 613.733 464.821 608.031 454.312C605.175 449.049 601.79 444.055 598.312 439.188C592.783 431.448 586.717 424.121 579.594 417.781C575.593 414.22 571.338 410.843 566.656 408.219C561.884 405.544 556.802 403.458 552.031 400.781C547.027 397.974 542.712 394.107 537.594 391.469C532.868 389.033 527.622 387.505 522.438 386.406C513.692 384.552 504.859 384.232 496 384.625ZM495.594 427.938C496.978 427.913 498.33 428.163 499.688 428.406C502.379 428.888 505.023 429.51 507.688 430.125C512.925 431.333 518.13 432.971 522.875 435.531C524.385 436.346 525.952 437.249 527.281 438.344C530.031 440.608 531.886 443.811 533.688 446.812C534.234 447.723 534.868 448.572 535.438 449.469C536.284 450.801 537.085 452.194 537.812 453.594C540.934 459.6 543.427 465.91 545.688 472.281C548.775 482.445 559.524 488.181 569.688 485.094C579.851 482.006 585.588 471.289 582.5 461.125C581.652 457.837 580.735 454.539 579.75 451.281C582.271 455.706 584.321 460.348 586.375 465C587.842 468.323 589.401 471.575 590.781 474.938C596.26 488.284 600.866 501.938 605.312 515.656C612.051 536.446 617.948 558.58 611.562 580.25C609.483 587.308 606.279 595.805 599.938 600.156C598.545 601.112 597.013 601.767 595.438 602.344C593.248 602.58 591.036 602.498 588.844 602.375C584.584 602.137 580.327 601.641 576.094 601.125C570.928 600.495 565.737 599.645 560.531 599.406C550.972 598.968 541.439 599.493 531.906 600.188C526.745 600.564 521.579 600.963 516.406 601.156C501.089 601.727 485.573 601.133 470.438 598.625C467.907 598.206 465.374 597.734 462.875 597.156C462.069 596.97 461.228 596.809 460.438 596.562C459.373 596.23 458.342 595.844 457.281 595.5C456.338 595.194 455.363 594.98 454.438 594.625C453.506 594.268 452.604 593.801 451.688 593.406C448.403 591.991 445.195 590.449 441.969 588.906C434.442 585.306 426.961 581.358 420.562 575.938C417.401 573.259 414.497 570.214 412.344 566.656C404.861 554.297 410.243 539.47 416.219 527.688C417.274 525.608 418.404 523.555 419.562 521.531C421.023 518.98 422.547 516.481 424.125 514C426.316 510.556 428.606 507.162 430.938 503.812C433.318 500.392 435.772 497.029 438.219 493.656C441.85 488.652 445.52 483.662 449.062 478.594C453.151 472.745 456.892 466.683 460.656 460.625C464.308 454.748 467.999 448.859 472.312 443.438C477.646 436.734 484.154 430.586 492.688 428.469C493.62 428.238 494.625 427.955 495.594 427.938Z" fill="#000000" stroke="none"/>
</g>
<g opacity="1">
<path d="M288.719 395.656C286.961 395.691 285.127 395.948 283.438 396.438C281.559 396.982 279.94 397.72 278.281 398.75C275.47 400.496 273.408 402.746 271.812 405.312C269.814 405.2 267.803 405.268 265.812 405.719C264.953 405.914 264.111 406.169 263.281 406.469C262.442 406.772 263.274 406.481 259.594 408.281C250.216 413.27 246.667 424.903 251.656 434.281C253.544 437.829 256.377 440.547 259.688 442.281C260.657 444.038 261.808 445.625 263.219 446.906C264.199 447.797 265.385 448.472 266.5 449.188C267.883 450.075 269.074 451.116 270.625 451.719C272.546 452.465 274.627 452.689 276.656 452.906C278.746 453.13 280.837 453.206 282.938 453.219C285.74 453.236 288.524 453.182 291.281 452.625C295.836 451.704 300.118 449.421 303.344 446.062C306.763 442.502 308.788 437.972 310.125 433.281C312.074 426.445 312.964 418.918 310.781 412.031C307.783 402.571 298.816 395.457 288.719 395.656ZM277.812 423.031C277.849 422.963 277.927 423.16 278 423.188C278.047 423.205 278.11 423.137 278.156 423.156C278.369 423.245 278.549 423.653 278.625 423.844C278.801 424.289 278.849 424.837 278.812 425.312C278.811 425.333 278.702 425.717 278.719 425.812C278.778 425.859 278.871 425.678 278.938 425.594C279.026 425.481 279.119 425.353 279.219 425.25C279.456 425.005 279.824 424.68 280.188 424.656C280.919 424.609 280.906 425.452 280.719 425.938C280.523 426.444 280.17 426.81 279.781 427.125C279.584 426.903 279.337 426.739 279.156 426.5C279.008 426.304 278.862 426.065 278.719 425.844C278.717 425.84 278.72 425.818 278.719 425.812C278.292 425.148 277.927 424.41 277.875 423.656C277.839 423.447 277.863 423.238 277.812 423.031ZM259.094 440.844C259.221 441.119 259.3 441.42 259.438 441.688C259.331 441.648 259.209 441.625 259.156 441.531C259.046 441.334 259.054 441.068 259.094 440.844Z" fill="#000000" stroke="none"/>
</g>
<g opacity="1">
<path d="M403.719 273.219C401.708 273.291 399.702 273.653 397.781 274.281C394.172 274.336 390.569 275.107 387.156 276.969C385.927 277.64 384.694 278.471 383.625 279.375C381.21 281.418 379.268 283.944 377.938 286.812C376.831 289.198 376.184 291.821 375.969 294.438C375.261 303.026 379.515 310.679 385.781 316.375C385.803 316.633 385.737 316.903 385.781 317.156C385.972 318.24 386.437 319.341 386.875 320.344C388.662 324.433 392.148 328.05 396.219 329.906C397.814 330.634 399.51 331.081 401.25 331.281C404.302 331.632 407.331 331.063 410.188 330C413.274 328.851 416.16 326.821 418.781 324.594C419.124 324.455 419.479 324.348 419.812 324.188C420.925 323.653 422.001 323.038 423 322.312C424.009 321.579 424.953 320.748 425.812 319.844C426.67 318.942 427.434 317.942 428.125 316.906C428.728 316.003 429.236 315.05 429.688 314.062C432.864 307.11 431.576 299.185 428.406 292.5C427.536 290.664 426.505 288.907 425.375 287.219C424.647 286.131 423.824 285.107 423.125 284C422.23 282.583 421.644 280.964 420.562 279.656C419.653 278.557 418.413 277.75 417.219 277C414.951 275.576 412.494 274.421 409.875 273.812C407.862 273.345 405.783 273.145 403.719 273.219Z" fill="#000000" stroke="none"/>
</g>
<g opacity="1">
<path d="M707.25 375.875C705.591 375.725 703.897 375.752 702.25 376C700.69 376.235 699.177 376.709 697.719 377.312C696.419 377.85 695.184 378.599 694.031 379.406C693.03 380.107 692.14 380.943 691.281 381.812C690.613 382.489 690.03 383.264 689.469 384.031C686.704 387.808 685.422 392.561 684.906 397.156C683.563 409.114 686.069 423.728 696.844 430.906C697.331 431.231 697.862 431.38 698.344 431.656C700.749 433.37 703.508 434.542 706.531 434.969C707.545 435.112 708.57 435.215 709.594 435.188C710.688 435.158 711.801 435.023 712.875 434.812C713.885 434.615 714.88 434.329 715.844 433.969C717.817 433.231 719.533 432.062 721.156 430.75C721.565 430.456 722.018 430.225 722.406 429.906C723.417 429.076 724.322 428.102 725.156 427.094C725.888 426.209 726.489 425.244 727.062 424.25C727.302 423.835 727.388 423.366 727.594 422.938C727.721 422.692 727.881 422.468 728 422.219C731.055 415.809 731.371 408.744 729.906 401.969C730.763 399.574 731.173 396.95 731 394.25C730.321 383.649 721.194 375.634 710.594 376.312C710.153 376.33 710.238 376.449 710.094 376.531C709.151 376.273 708.22 375.963 707.25 375.875ZM729.531 399.219C729.703 399.18 729.501 399.808 729.5 399.812C729.489 399.875 729.479 399.938 729.469 400C729.41 399.782 729.375 399.561 729.312 399.344C729.393 399.308 729.433 399.241 729.531 399.219ZM710.781 404.812C710.958 404.832 711.101 404.927 711.281 404.938C711.113 404.917 711.691 406.505 711.125 404.938C711.073 404.792 710.84 404.862 710.656 404.875C710.701 404.859 710.737 404.827 710.781 404.812ZM707.469 407.156C707.431 407.358 707.424 407.582 707.375 407.781C707.336 407.943 707.15 408.501 706.906 408.469C706.718 408.444 706.916 407.927 706.938 407.875C707.052 407.595 707.297 407.398 707.469 407.156Z" fill="#000000" stroke="none"/>
</g>
<g opacity="1">
<path d="M587.469 229.094C585.179 228.943 582.878 229.137 580.656 229.719C574.698 231.279 569.928 235.294 566.844 240.562C565.231 243.319 564.297 246.277 563.281 249.281C562.797 250.713 562.312 252.146 561.875 253.594C561.133 256.05 560.758 258.534 560.375 261.062C560.324 261.4 560.247 261.722 560.219 262.062C560.126 263.173 559.922 264.294 560 265.406C560.121 267.125 560.294 268.857 560.812 270.5C561.398 272.357 562.201 274.193 563.281 275.812C564.355 277.422 565.708 278.847 567.188 280.094C568.484 281.187 569.986 282.051 571.531 282.75C573.032 283.429 574.64 283.842 576.25 284.188C577.36 284.426 578.522 284.475 579.656 284.5C580.626 284.521 581.597 284.405 582.562 284.312C583.162 284.255 583.742 284.034 584.344 284.031C584.794 284.029 585.231 284.163 585.656 284.312C586.011 284.437 586.288 284.764 586.656 284.844C586.834 284.882 587.004 284.725 587.156 284.625C587.18 284.609 587.116 284.581 587.094 284.562C587.018 284.497 586.686 284.353 586.656 284.344C586.496 284.291 586.354 284.246 586.188 284.219C585.921 284.175 586.184 284.227 584.969 284C595.584 283.623 603.877 274.709 603.5 264.094C603.456 262.852 603.267 261.637 603 260.469C603.041 260.299 603.105 260.134 603.156 259.969C603.419 259.125 603.726 258.303 604.094 257.5C604.74 256.091 605.581 254.802 606.125 253.344C606.545 252.219 606.77 251.163 606.906 249.969C607.146 247.867 606.838 245.739 606.25 243.719C604.798 238.732 601.45 234.351 596.906 231.781C594 230.138 590.784 229.313 587.469 229.094ZM575.469 251.688C575.539 251.622 575.631 251.806 575.719 251.844C575.834 251.893 575.954 251.905 576.062 251.969C576.231 252.067 576.387 252.181 576.531 252.312C577.42 253.121 578.047 254.022 578.281 255.219C578.423 255.943 578.339 256.711 578.375 257.438C578.321 257.481 578.241 257.486 578.188 257.531C577.157 256.387 576.248 255.129 575.75 253.688C575.686 253.502 575.613 253.314 575.562 253.125C575.516 252.951 575.316 251.829 575.469 251.688ZM588.719 255.875C588.792 255.881 588.865 255.867 588.938 255.875C589.104 255.894 589.223 255.919 589.375 255.969C589.418 255.983 589.545 256.031 589.5 256.031C589.246 256.03 588.982 255.928 588.719 255.875ZM583.594 274.281C583.613 274.288 583.632 274.305 583.656 274.312C583.659 274.502 583.809 275.437 583.594 274.281Z" fill="#000000" stroke="none"/>
</g>
<g opacity="1">
<path d="M514.875 429.875C513.207 429.72 511.565 430.291 509.938 430.688C509.007 430.914 508.125 431.33 507.25 431.719C506.666 431.978 506.116 432.307 505.562 432.625C503.037 434.075 500.849 436.132 498.75 438.125C495.249 441.45 491.989 445.081 488.344 448.25C486.099 450.201 483.462 451.93 481.062 453.781C478.021 456.128 475.102 458.638 472.531 461.5C470.23 464.062 468.15 466.849 466.062 469.594C460.247 471.241 455.057 475.048 450.906 479.594C443.186 480.675 436.569 486.348 434.781 494.406C432.468 503.68 430.122 512.96 427.75 522.219C426.51 527.059 425.382 531.93 423.844 536.688C422.819 539.856 421.429 542.902 420.219 546C419.673 547.396 419.221 548.838 418.719 550.25C418.148 551.856 417.555 553.462 416.969 555.062C416.771 555.604 416.575 556.116 416.375 556.656C416.35 556.725 416.22 557.097 416.188 557.188C416.165 557.251 416.087 557.431 416.125 557.375C415.965 557.739 415.807 558.101 415.656 558.469C415.439 558.998 415.099 559.651 415.031 560.219C414.734 562.713 414.533 565.219 414.281 567.719C414.239 568.142 414.346 568.554 414.438 568.969C414.7 570.159 414.863 571.411 415.344 572.531C416.147 574.403 416.884 576.364 418.25 577.875C419.916 579.719 421.822 581.41 423.938 582.719C427.635 588.286 432.653 593.024 438.406 596.344C442.741 598.845 447.461 600.634 452.375 601.594C461.412 603.36 470.651 602.271 479.531 600.188C485.197 598.858 490.696 597.266 495.906 594.625C496.652 594.247 497.332 593.749 498.062 593.344C499.966 596.345 502.39 599.016 505.594 601.062C508.101 602.664 510.89 603.708 513.781 604.375C515.949 604.875 518.125 605.159 520.312 605.219C526.874 605.399 533.451 603.748 539.5 601.156C543.769 599.327 547.835 597.022 551.75 594.531C556.124 591.748 560.246 588.684 563.938 585.031C564.885 584.093 565.64 582.99 566.531 582C570.441 585.576 574.861 588.541 579.938 590.219C582.279 590.992 584.72 591.506 587.188 591.625C589.476 591.736 591.8 591.504 594 590.844C595.889 590.277 597.646 589.428 599.25 588.281C600.868 587.124 602.281 585.628 603.5 584.062C610.11 575.572 610.073 564.544 610.188 554.312C610.217 551.67 610.296 549.018 610.281 546.375C610.264 543.225 610.181 540.082 610 536.938C609.745 532.511 609.292 528.08 608.688 523.688C607.909 518.035 606.821 512.441 605.438 506.906C604.988 505.11 604.361 503.387 603.25 501.875C602.89 501.386 602.556 500.837 602.031 500.531C600.261 499.501 598.326 498.802 596.469 497.938C596.278 497.849 596.054 497.88 595.844 497.875C595.457 497.867 595.074 497.851 594.688 497.875C594.562 495.043 593.88 492.223 592.219 489.562C591.189 487.914 589.885 486.495 588.344 485.312C586.468 483.874 584.255 482.885 581.969 482.312C580.347 481.907 578.672 481.702 577 481.75C570.727 481.93 565.928 485.289 562.656 490.062C562.593 483.684 561.364 477.372 558.125 471.531C556.769 469.087 555.137 466.809 553.281 464.719C551.292 462.479 549.03 460.439 546.531 458.781C544.233 457.257 541.736 456.026 539.094 455.219C537.192 454.638 535.205 454.347 533.219 454.219C533.221 454.21 533.216 454.197 533.219 454.188C533.442 453.397 533.681 452.628 533.781 451.812C533.959 450.368 534.276 448.877 534.062 447.438C533.688 444.906 533.444 442.186 532.062 440.031C530.037 436.872 527.385 433.912 524.156 432C521.43 430.386 518.03 430.167 514.875 429.875ZM548.156 538.531C547.908 540.926 547.787 543.323 547.969 545.719C548.309 550.2 549.535 554.653 551.125 558.844C551.166 558.953 551.239 559.048 551.281 559.156C550.587 560.074 549.984 561.077 549.25 561.938C544.138 567.928 537.362 572.21 530.094 575.156C527.866 576.059 525.48 576.88 523.062 577.031C522.77 577.05 522.479 576.976 522.188 576.969C522.133 576.73 522.045 576.489 522 576.25C522.765 575.596 523.6 575.021 524.344 574.344C526.637 573.557 528.87 572.557 530.906 571.219C534.996 568.532 538.249 564.727 540.562 560.438C542.58 556.696 543.839 552.628 544.906 548.531C545.591 545.903 546.127 543.2 547.094 540.656C547.372 539.924 547.772 539.22 548.156 538.531ZM483.094 553.625C483.617 555.814 484.368 557.884 485.312 559.812C483.502 561.014 481.624 562.107 479.688 563.062C480.919 559.955 481.997 556.784 483.094 553.625ZM582.344 555.25C583.823 559.259 585.87 563.366 589.312 565.906C589.149 566.785 589.024 567.683 588.75 568.531C588.51 569.275 588.156 569.991 587.719 570.656C587.686 570.647 587.663 570.636 587.625 570.625C587.01 570.45 586.419 570.215 585.844 569.938C584.11 569.101 582.639 567.945 581.312 566.562C580.457 565.671 579.676 564.722 578.906 563.75C580.13 561.261 581.258 558.734 582.125 556.094C582.216 555.817 582.257 555.528 582.344 555.25Z" fill="#000000" stroke="none"/>
</g>
<g opacity="1">
<path d="M317.875 177.5C310.381 177.364 303.173 181.657 299.938 188.938C299.789 189.508 299.693 190.099 299.5 190.656C299.31 191.206 298.956 191.696 298.781 192.25C298.416 193.405 298.516 194.65 298.312 195.844C298.214 196.423 297.895 196.945 297.844 197.531C297.787 198.189 297.964 198.871 297.969 199.531C297.974 200.151 297.837 200.755 297.844 201.375C297.851 202.037 297.815 202.718 298.031 203.344C298.346 204.255 299.03 204.987 299.406 205.875C299.7 206.567 299.775 207.346 300 208.062C300.24 208.826 300.744 209.515 300.812 210.312C300.863 210.899 300.497 211.463 300.344 212.031C298.219 216.812 300.375 222.406 305.156 224.531C306.351 225.062 307.613 225.322 308.844 225.344C312.535 225.41 316.063 223.304 317.656 219.719C317.975 219.224 318.156 218.606 318.625 218.25C319.263 217.766 320.116 217.646 320.844 217.312C321.527 217 322.134 216.558 322.844 216.312C323.755 215.997 324.8 216.033 325.688 215.656C326.297 215.397 326.754 214.876 327.25 214.438C327.714 214.027 328.068 213.505 328.531 213.094C329.025 212.655 329.675 212.39 330.125 211.906C330.526 211.476 330.699 210.868 331.062 210.406C331.812 209.455 332.794 208.669 333.406 207.625C333.7 207.123 333.845 206.541 334.125 206.031C334.409 205.515 334.77 205.055 335.094 204.562C336.172 202.136 336.705 199.592 336.75 197.094C336.885 189.6 332.593 182.423 325.312 179.188C322.886 178.109 320.373 177.545 317.875 177.5Z" fill="#000000" stroke="none"/>
</g>
<g opacity="1">
<path d="M394.031 133.062C389.071 133.273 384.139 133.754 379.219 134.406C366.624 136.077 353.9 139.446 343.406 146.875C337.35 151.162 332.17 156.552 327.312 162.125C323.364 166.655 319.69 171.552 315.25 175.625C311.478 179.086 307.267 182.065 303.219 185.188C297.823 189.349 292.63 193.713 288.188 198.906C279.553 209 274.007 221.444 270.781 234.25C270.048 237.16 269.421 240.107 268.906 243.062C268.571 244.988 268.377 246.921 268.031 248.844C267.517 251.706 266.128 254.437 265.844 257.344C265.707 258.738 265.792 260.193 265.781 261.594C265.758 264.758 266.057 267.889 266.406 271.031C266.343 281.653 274.909 290.312 285.531 290.375C296.153 290.438 304.812 281.872 304.875 271.25C305.237 268.312 305.675 265.412 306 262.469C306.079 261.755 306.251 261.03 306.281 260.312C306.374 258.114 305.452 255.986 305.594 253.781C305.706 252.04 306.118 250.245 306.438 248.531C307.344 243.663 308.633 238.849 310.562 234.281C312.205 230.393 314.297 226.571 317 223.312C320.206 219.447 324.104 216.131 327.906 212.875C332.216 209.185 336.578 205.515 340.562 201.469C345.186 196.774 349.246 191.572 353.438 186.5C356.484 182.812 359.612 179.085 363.344 176.062C368.312 172.038 374.46 169.697 380.562 168C387.713 166.011 395.05 165.062 402.469 165.062C407.787 165.063 413.105 165.525 418.281 166.781C425.906 168.631 432.647 173.011 438.438 178.188C441.601 181.016 444.564 184.094 447.562 187.094C450.772 190.305 453.93 193.689 457.562 196.438C460.693 198.806 464.407 200.259 467.688 202.406C468.833 203.156 469.954 203.947 470.875 204.969C473.809 208.224 475.799 212.891 477.188 217C479.618 224.191 480.912 231.732 482.562 239.125C483.664 244.24 488.698 247.508 493.812 246.406C498.927 245.305 502.164 240.271 501.062 235.156C498.738 223.959 496.947 212.437 492.281 201.906C490.576 198.057 488.506 194.23 485.906 190.906C483.364 187.656 480.202 185.063 477.25 182.219C475.576 180.606 474.042 178.837 472.438 177.156C470.154 174.764 467.832 172.432 465.625 169.969C463.033 167.075 460.55 164.056 458 161.125C452.912 155.276 447.918 149.381 441.688 144.688C435.714 140.187 428.839 136.901 421.594 135.062C412.623 132.787 403.225 132.672 394.031 133.062Z" fill="#000000" stroke="none"/>
</g>
<g opacity="1">
<path d="M218.531 648.844C216.732 648.606 214.867 649.059 213.312 650.25C210.204 652.632 209.587 657.079 211.969 660.188C216.431 666.065 221.293 671.595 226.312 677C233.747 685.006 241.502 692.924 247.25 702.281C248.106 703.675 248.901 705.112 249.656 706.562C250.23 707.665 250.771 708.762 251.094 709.969C251.542 711.644 251.783 713.377 252.188 715.062C253.453 720.334 255.038 725.665 258.656 729.844C259.332 730.624 260.155 731.4 261.031 732.125C261.411 734.98 261.66 737.83 261.781 740.719C262.739 763.546 256.367 785.87 250.969 807.812C249.153 815.192 247.578 822.617 246.062 830.062C243.456 842.876 241.213 855.76 239.25 868.688C238.908 870.937 238.678 873.252 238.156 875.469C237.632 877.695 236.834 879.852 236.375 882.094C236.036 883.75 235.971 885.477 235.812 887.156C235.445 891.045 235.311 894.94 235.188 898.844C234.371 906.754 240.121 913.84 248.031 914.656C255.941 915.472 262.996 909.722 263.812 901.812C264.456 898.152 265.162 894.488 265.719 890.812C265.958 889.23 266.287 887.632 266.375 886.031C266.526 883.283 266.253 880.526 266.562 877.781C266.808 875.607 267.203 873.444 267.531 871.281C268.025 868.03 268.575 864.805 269.125 861.562C270.867 851.3 272.777 841.052 274.812 830.844C278.356 813.069 282.591 795.454 285.531 777.562C287.267 766.998 288.519 756.25 288.438 745.531C288.41 741.958 288.224 738.409 287.875 734.844C287.082 726.752 285.32 718.765 282.719 711.062C280.404 704.209 277.188 697.826 273.281 691.75C271.634 689.188 269.9 686.684 268.156 684.188C267.272 682.922 266.245 681.686 265.469 680.344C264.273 678.276 263.446 675.972 262.438 673.812C260.733 670.164 258.74 666.574 255.75 663.812C251.275 659.681 244.462 657.49 238.5 659.469C237.811 659.697 237.141 659.941 236.5 660.281C235.697 660.707 234.891 661.175 234.188 661.75C233.76 662.099 233.417 662.54 233.031 662.938C229.653 659.251 226.32 655.531 223.25 651.562C222.059 650.008 220.33 649.082 218.531 648.844Z" fill="#000000" stroke="none"/>
</g>
</g>
</svg>
