<?xml version="1.0" encoding="UTF-8" standalone="no"?>
<!DOCTYPE svg PUBLIC "-//W3C//DTD SVG 1.1//EN" "http://www.w3.org/Graphics/SVG/1.1/DTD/svg11.dtd"
[
<!ATTLIST g
  xmlns:vectornator CDATA #FIXED "http://vectornator.io"
  vectornator:layerName CDATA #IMPLIED >
<!ATTLIST g
  xmlns:vectornator CDATA #FIXED "http://vectornator.io"
  vectornator:mask CDATA #IMPLIED >
<!ATTLIST text
  xmlns:vectornator CDATA #FIXED "http://vectornator.io"
  vectornator:width CDATA #IMPLIED >

<!ATTLIST path
  xmlns:vectornator CDATA #FIXED "http://vectornator.io"
  vectornator:blendMode CDATA #IMPLIED >
<!ATTLIST path
  xmlns:vectornator CDATA #FIXED "http://vectornator.io"
  vectornator:shadowColor CDATA #IMPLIED >
<!ATTLIST path
  xmlns:vectornator CDATA #FIXED "http://vectornator.io"
  vectornator:shadowOpacity CDATA #IMPLIED >
<!ATTLIST path
  xmlns:vectornator CDATA #FIXED "http://vectornator.io"
  vectornator:shadowRadius CDATA #IMPLIED >
<!ATTLIST path
  xmlns:vectornator CDATA #FIXED "http://vectornator.io"
  vectornator:shadowOffset CDATA #IMPLIED >
<!ATTLIST path
  xmlns:vectornator CDATA #FIXED "http://vectornator.io"
  vectornator:shadowAngle CDATA #IMPLIED >

<!ATTLIST image
  xmlns:vectornator CDATA #FIXED "http://vectornator.io"
  vectornator:blendMode CDATA #IMPLIED >
<!ATTLIST image
  xmlns:vectornator CDATA #FIXED "http://vectornator.io"
  vectornator:shadowColor CDATA #IMPLIED >
<!ATTLIST image
  xmlns:vectornator CDATA #FIXED "http://vectornator.io"
  vectornator:shadowOpacity CDATA #IMPLIED >
<!ATTLIST image
  xmlns:vectornator CDATA #FIXED "http://vectornator.io"
  vectornator:shadowRadius CDATA #IMPLIED >
<!ATTLIST image
  xmlns:vectornator CDATA #FIXED "http://vectornator.io"
  vectornator:shadowOffset CDATA #IMPLIED >
<!ATTLIST image
  xmlns:vectornator CDATA #FIXED "http://vectornator.io"
  vectornator:shadowAngle CDATA #IMPLIED >

<!ATTLIST g
  xmlns:vectornator CDATA #FIXED "http://vectornator.io"
  vectornator:blendMode CDATA #IMPLIED >
<!ATTLIST g
  xmlns:vectornator CDATA #FIXED "http://vectornator.io"
  vectornator:shadowColor CDATA #IMPLIED >
<!ATTLIST g
  xmlns:vectornator CDATA #FIXED "http://vectornator.io"
  vectornator:shadowOpacity CDATA #IMPLIED >
<!ATTLIST g
  xmlns:vectornator CDATA #FIXED "http://vectornator.io"
  vectornator:shadowRadius CDATA #IMPLIED >
<!ATTLIST g
  xmlns:vectornator CDATA #FIXED "http://vectornator.io"
  vectornator:shadowOffset CDATA #IMPLIED >
<!ATTLIST g
  xmlns:vectornator CDATA #FIXED "http://vectornator.io"
  vectornator:shadowAngle CDATA #IMPLIED >

<!ENTITY % SVG.filter.extra.content  "| feDropShadow" >
<!ELEMENT feDropShadow EMPTY>
<!ATTLIST feDropShadow
  xmlns:svg CDATA #FIXED "http://www.w3.org/Graphics/SVG/1.1/DTD/svg11.dtd"
  dx CDATA #IMPLIED>
<!ATTLIST feDropShadow
  xmlns:svg CDATA #FIXED "http://www.w3.org/Graphics/SVG/1.1/DTD/svg11.dtd"
  dy CDATA #IMPLIED>
<!ATTLIST feDropShadow
  xmlns:svg CDATA #FIXED "http://www.w3.org/Graphics/SVG/1.1/DTD/svg11.dtd"
  stdDeviation CDATA #IMPLIED>
<!ATTLIST feDropShadow
  xmlns:svg CDATA #FIXED "http://www.w3.org/Graphics/SVG/1.1/DTD/svg11.dtd"
  flood-opacity CDATA #IMPLIED>
<!ATTLIST feDropShadow
  xmlns:svg CDATA #FIXED "http://www.w3.org/Graphics/SVG/1.1/DTD/svg11.dtd"
  in CDATA #IMPLIED>
<!ATTLIST feDropShadow
  xmlns:svg CDATA #FIXED "http://www.w3.org/Graphics/SVG/1.1/DTD/svg11.dtd"
  result CDATA #IMPLIED>
<!ATTLIST feDropShadow
  xmlns:svg CDATA #FIXED "http://www.w3.org/Graphics/SVG/1.1/DTD/svg11.dtd"
  flood-color CDATA #IMPLIED>
]
>
<!-- Created with Vectornator (http://vectornator.io/) -->
<svg height="100%" stroke-miterlimit="10" style="fill-rule:nonzero;clip-rule:evenodd;stroke-linecap:round;stroke-linejoin:round;" version="1.1" viewBox="0 0 1024 1024" width="100%" xml:space="preserve" xmlns="http://www.w3.org/2000/svg" xmlns:vectornator="http://vectornator.io" xmlns:xlink="http://www.w3.org/1999/xlink">
<defs/>
<g id="레이어-2" vectornator:layerName="레이어 2">
<g opacity="1">
<path d="M404.125 128.125C401.521 128.023 398.884 128.253 396.25 128.594C393.121 128.998 389.879 129.572 386.875 130.562C383.456 131.69 379.987 133.344 376.75 134.906C373.473 136.487 370.206 138.057 366.938 139.656C360.926 142.597 354.948 145.597 348.844 148.344C339.38 152.602 329.798 156.62 320.375 160.969C310.403 165.571 300.514 170.422 290.906 175.75C284.332 179.396 278.499 184.058 272.656 188.75C271.18 189.936 269.711 191.115 268.219 192.281C267.523 192.825 266.821 193.45 266.062 193.906C265.972 193.961 266.355 193.661 266.25 193.656C265.873 193.64 265.563 193.941 265.219 194.094C264.862 194.252 264.511 194.43 264.156 194.594C262.746 195.244 261.339 195.929 260 196.719C259.832 196.818 259.697 196.961 259.531 197.062C254.485 194.7 248.603 194.084 242.875 195.906C230.792 199.749 224.126 212.667 227.969 224.75C228.35 227.337 228.57 229.9 229.312 232.438C230.561 236.704 232.596 240.588 234.938 244.344C235.344 244.995 235.709 245.682 236.188 246.281C236.639 246.846 237.203 247.306 237.719 247.812C239.057 249.127 240.472 250.351 241.875 251.594C242.248 251.924 242.632 252.226 242.969 252.594C244.063 253.79 245.018 255.302 245.906 256.656C251.93 265.845 256.821 275.729 262.5 285.125C264.414 288.292 266.362 291.415 268.406 294.5C268.776 295.058 269.417 296.017 269.781 296.625C269.876 296.783 269.951 297.079 270.031 297.312C270.101 297.543 270.182 297.769 270.25 298C270.641 299.324 271.034 300.658 271.469 301.969C272.575 305.306 273.981 308.548 276.156 311.344C276.739 312.093 277.35 312.808 278.031 313.469C278.942 314.353 279.854 315.26 280.906 315.969C282.377 316.96 283.895 317.959 285.562 318.562C287.865 319.395 290.274 320.082 292.719 320.219C295.313 320.364 297.959 320.078 300.469 319.406C302.698 318.81 304.789 317.685 306.75 316.469C308.294 315.511 309.596 314.228 310.875 312.938C311.745 312.06 312.455 311.018 313.156 310C316.537 305.094 317.683 298.662 317.25 292.812C316.981 289.183 316.029 285.612 314.656 282.25C313.957 280.538 313.125 278.891 312.344 277.219C311.72 275.884 311.349 274.255 310.844 272.875C310.086 270.806 309.217 268.772 308.5 266.688C307.048 262.464 306.046 258.094 304.906 253.781C303.251 247.514 301.382 241.217 298.531 235.375C296.735 231.695 294.405 228.332 291.875 225.125C291.825 225.062 291.769 225.001 291.719 224.938C293.841 223.136 295.86 221.242 297.875 219.312C301.301 216.032 304.758 212.674 308.719 210.031C311.774 207.993 315.106 206.349 318.344 204.625C323.874 201.681 329.486 198.875 334.969 195.844C340.685 192.683 346.235 189.236 351.656 185.594C356.434 182.383 361.088 178.961 365.844 175.719C370.454 172.576 375.147 169.62 379.969 166.812C381.411 165.972 382.859 165.102 384.312 164.281C387.41 162.533 390.645 161.025 393.781 159.344C395.627 158.354 397.512 157.464 399.281 156.344C400.418 155.624 401.577 154.823 402.812 154.281C402.945 154.223 404.381 153.822 404.281 153.625C404.222 153.508 403.655 153.242 403.656 153.219C403.66 153.135 404.471 153.455 404.5 153.469C404.619 153.525 404.73 153.591 404.844 153.656C405.884 154.249 406.674 155.208 407.375 156.156C409.394 158.887 410.864 162.023 412.281 165.094C416.643 174.548 421.349 183.842 426 193.156C428.75 198.764 435.518 201.062 441.125 198.312C446.732 195.563 449.062 188.795 446.312 183.188C442.612 175.502 438.717 167.886 435.312 160.062C433.595 156.115 432.07 152.079 430.156 148.219C426.833 141.515 422.18 135.176 415.594 131.375C414.318 130.639 413.228 130.104 411.844 129.594C409.308 128.658 406.729 128.227 404.125 128.125ZM273.219 297.781C273.293 297.993 273.401 298.192 273.469 298.406C273.487 298.464 273.4 298.306 273.375 298.25C273.351 298.197 273.331 298.149 273.312 298.094C273.278 297.993 273.247 297.884 273.219 297.781Z" fill="#000000" stroke="none"/>
</g>
<g opacity="1">
<path d="M640.281 128.75C632.08 127.998 624.028 131.254 618.406 137.219C615.841 139.941 614.056 143.051 612.094 146.188C611.384 147.323 610.635 148.439 609.906 149.562C603.886 158.852 598.342 168.465 593.469 178.406C591.431 182.564 589.264 186.74 587.75 191.125C587.163 192.826 586.756 194.572 586.312 196.312C585.157 196.296 583.997 196.165 582.844 196.188C579.533 196.253 576.239 196.44 572.938 196.688C559.276 197.71 545.634 198.939 531.969 199.906C527.12 200.249 522.264 200.539 517.406 200.719C515.954 200.772 514.516 200.843 513.062 200.875C512.347 200.891 511.62 200.956 510.906 200.906C509.491 200.807 508.109 200.331 506.75 199.969C506.283 199.844 505.82 199.782 505.375 199.594C505.312 199.567 505.437 199.405 505.375 199.375C505.043 199.216 504.674 199.131 504.312 199.062C503.633 198.935 503.228 198.982 502.594 198.938C501.302 198.846 500.005 198.681 498.719 198.531C494.358 198.022 489.979 197.6 485.594 197.344C473.039 195.565 461.435 204.321 459.656 216.875C457.878 229.429 466.602 241.034 479.156 242.812C481.941 243.513 484.683 244.4 487.469 245.094C489.458 245.589 491.487 245.928 493.5 246.312C495.233 246.644 497.045 247.083 498.812 247.156C499.18 247.172 499.538 247.095 499.906 247.094C500.627 247.091 501.373 247.181 502.094 247.156C504.378 247.077 506.699 246.811 508.969 246.531C509.82 246.426 510.677 246.197 511.531 246.125C513.609 245.951 515.726 246.038 517.812 245.969C521.134 245.859 524.463 245.722 527.781 245.531C539.302 244.87 550.778 243.805 562.281 242.906C568.874 242.391 575.46 241.618 582.062 241.25C583.156 241.189 584.248 241.169 585.344 241.156C586.751 241.932 588.187 242.681 589.688 243.25C598.664 246.656 608.362 245.211 615.719 238.938C620.995 234.438 624.245 228.196 625.625 221.469C626.089 219.206 626.316 216.915 626.562 214.625C626.66 213.713 627.077 212.622 627.281 211.75C627.477 210.914 627.671 209.939 627.844 209.094C628.166 207.521 628.359 205.689 628.938 204.188C630.267 200.737 631.838 197.379 633.469 194.062C636.144 188.62 639.061 183.308 642.156 178.094C642.943 176.768 643.735 175.431 644.562 174.125C645.727 174.38 646.87 174.711 648.031 174.938C653.511 176.007 659.061 176.654 664.562 177.594C668.667 178.295 672.748 179.462 676.75 180.594C691.597 184.793 705.658 191.212 719.344 198.25C723.761 200.522 728.163 202.791 732.531 205.156C743.728 211.218 754.851 217.425 765.344 224.656C768.604 226.904 771.973 229.258 774.844 232C775.222 232.361 775.547 232.773 775.906 233.156C775.518 233.64 775.062 234.071 774.719 234.594C774.089 235.552 773.605 236.616 773.062 237.625C772.363 238.925 771.715 240.254 771.031 241.562C769.598 244.307 768.114 247.033 766.75 249.812C763.216 257.014 759.774 264.251 756.406 271.531C753.199 278.465 750.04 285.446 746.625 292.281C744.855 295.824 743.084 299.398 741.188 302.875C739.253 306.422 737.117 309.878 735.094 313.375C731.934 318.762 733.738 325.684 739.125 328.844C744.512 332.004 751.465 330.199 754.625 324.812C756.784 321.182 759.027 317.589 761.094 313.906C763.169 310.21 765.123 306.426 767.062 302.656C774.007 289.162 780.333 275.118 788.875 262.531C789.956 260.939 791.06 259.327 792.25 257.812C792.793 257.121 793.421 256.505 794 255.844C795.095 254.594 796.233 253.331 797.375 252.125C797.867 251.605 798.479 251.233 799.031 250.75C800.102 249.813 801.158 248.858 802.125 247.812C805.842 243.792 808.068 238.719 808 233.188C807.951 229.168 806.692 225.292 804.719 221.812C803.414 219.512 801.751 217.457 800.094 215.406C798.237 213.107 796.357 210.859 794.25 208.781C791.487 206.055 788.47 203.596 785.562 201.031C782.391 198.233 779.216 195.44 776.031 192.656C766.376 184.216 756.198 176.196 745.281 169.438C729.829 159.872 713.195 152.303 696.219 145.875C686.765 142.296 677.221 139.007 667.344 136.812C664.183 136.11 661.021 135.423 657.875 134.656C656.699 134.37 655.505 134.061 654.344 133.719C654.209 133.679 654.072 133.636 653.938 133.594C653.763 133.49 653.583 133.381 653.406 133.281C653.097 133.107 652.812 132.92 652.5 132.75C651.482 132.195 650.435 131.689 649.375 131.219C646.486 129.938 643.436 129.039 640.281 128.75Z" fill="#000000" stroke="none"/>
</g>
<g opacity="1">
<path d="M293.781 306.844C290.938 307.384 288.288 308.981 286.531 311.562C283.842 315.342 281.188 319.109 278.156 322.625C277.121 323.826 276.061 325.005 274.875 326.062C274.074 326.777 273.267 327.496 272.375 328.094C271.445 328.718 270.413 329.177 269.562 329.906C268.363 330.935 267.455 332.277 266.438 333.469C265.063 335.08 263.572 336.674 262 338.094C259.935 339.959 257.654 341.517 255.531 343.312C253.84 344.743 252.215 346.276 250.75 347.938C247.432 351.701 244.774 356.017 241.688 359.969C238.468 364.091 234.982 367.997 232.281 372.5C229.45 377.219 227.253 382.288 224.969 387.281C223.207 391.132 221.276 394.889 219.344 398.656C218.588 400.13 217.961 401.676 217.156 403.125C214.85 407.279 212.34 411.299 210.688 415.781C209.881 417.969 209.276 420.259 208.75 422.531C208.452 423.819 208.313 425.148 207.906 426.406C207.582 427.409 206.909 428.254 206.562 429.25C206.395 429.731 206.424 430.272 206.406 430.781C206.383 431.437 206.448 432.11 206.594 432.75C206.74 433.392 207.172 433.949 207.406 434.562C206.333 447.197 215.678 458.302 228.312 459.375C240.947 460.448 252.083 451.103 253.156 438.469C253.716 436.813 254.188 435.131 254.469 433.406C254.516 433.118 254.613 432.855 254.625 432.562C254.631 432.417 254.624 432.237 254.531 432.125C254.22 431.748 253.843 431.398 253.438 431.125C253.381 431.087 253.317 431.169 253.25 431.219C253.478 430.751 253.65 430.437 253.906 429.969C254.488 428.907 255.102 427.872 255.688 426.812C257.117 424.225 258.4 421.574 259.531 418.844C261.242 414.715 262.418 410.376 263.781 406.125C265.042 402.194 266.598 398.349 268.312 394.594C269.103 392.862 269.909 391.144 270.688 389.406C272.086 386.282 273.416 383.114 275.094 380.125C277.304 376.187 280.163 372.619 282.219 368.594C284.165 364.783 285.265 360.635 287.094 356.781C287.999 354.873 289.099 352.99 290.25 351.219C291.115 349.887 292.153 348.646 292.812 347.188C293.282 346.148 293.42 344.998 293.75 343.906C294.222 342.344 295.005 340.789 295.75 339.344C296.494 337.901 297.378 336.542 298.219 335.156C300.454 331.47 302.899 327.927 305.25 324.312C308.764 319.15 307.413 312.108 302.25 308.594C299.669 306.837 296.624 306.303 293.781 306.844Z" fill="#000000" stroke="none"/>
</g>
<g opacity="1">
<path d="M215 411C214.217 411.048 213.452 411.292 212.688 411.469C211.458 411.753 210.23 411.968 209 412.25C208.632 412.335 208.28 412.476 207.906 412.531C207.081 412.653 206.24 412.575 205.406 412.594C203.732 412.631 202.047 412.698 200.375 412.781C195.946 413.003 191.517 413.425 187.125 414.031C181.105 414.862 175.122 415.94 169.156 417.094C163.536 418.181 157.914 419.351 152.25 420.188C149.91 420.533 147.558 420.776 145.219 421.125C144.086 421.294 142.954 421.54 141.812 421.656C138.149 422.03 134.533 422.371 131 423.5C125.244 425.34 120.134 428.758 116.312 433.438C112.591 437.995 110.219 443.396 108.656 449.031C107.596 452.855 106.902 456.717 106.781 460.688C106.625 465.832 107.358 470.915 108.25 475.969C109.679 484.068 110.847 492.222 112.5 500.281C114.252 508.823 116.378 517.277 118.156 525.812C118.937 529.562 119.607 533.35 120.25 537.125C121.429 544.045 121.927 551.042 122.812 558C123.829 565.984 125.13 573.949 127 581.781C128.137 586.542 129.323 591.304 130.594 596.031C131.114 597.966 131.603 599.909 132.125 601.844C132.257 602.333 132.484 602.786 132.594 603.281C132.763 604.049 132.791 604.878 132.875 605.656C133.054 607.307 133.259 608.947 133.656 610.562C134.785 615.153 137.196 619.274 140.844 622.312C145.289 626.016 150.622 627.446 156.281 627.938C156.931 627.994 157.598 628.083 158.25 628.094C161.402 628.145 164.532 627.677 167.656 627.344C179.231 626.107 190.55 623.22 202.125 621.969C207.765 621.359 213.405 621.256 219.062 621.625C225.291 622.085 230.728 617.416 231.188 611.188C231.648 604.959 226.978 599.523 220.75 599.062C215.103 598.597 209.441 598.475 203.781 598.812C195.402 599.313 187.123 600.725 178.75 601.281C174.088 601.591 169.041 601.82 164.531 600.438C163.87 600.235 163.217 599.98 162.562 599.75C162.332 597.486 161.999 595.235 161.719 592.969C160.867 586.088 161.174 579.162 161.094 572.25C161.02 565.876 161.052 559.488 160.594 553.125C159.779 541.826 158.267 530.643 156.875 519.406C155.558 508.776 154.332 498.113 152.875 487.5C151.951 480.769 150.942 474.067 149.969 467.344C149.9 466.867 149.84 466.385 149.781 465.906C149.758 465.716 149.742 465.534 149.719 465.344C150.449 465.276 151.173 465.2 151.906 465.156C153.764 465.046 155.647 465 157.5 464.812C161 464.459 164.47 463.837 167.938 463.25C176.923 461.73 185.858 459.784 194.906 458.656C198.097 458.259 201.287 457.989 204.5 457.875C205.739 457.831 207.078 457.686 208.312 457.844C209.305 457.971 210.289 458.365 211.25 458.625C211.98 458.823 212.702 458.978 213.438 459.156C213.773 459.238 214.094 459.373 214.438 459.406C215.463 459.506 216.626 459.32 217.656 459.281C218.754 459.24 219.874 459.244 220.969 459.156C223.254 458.973 225.539 458.604 227.812 458.312C240.492 458.397 250.853 448.179 250.938 435.5C251.022 422.821 240.804 412.49 228.125 412.406C225.995 412.105 223.856 411.676 221.719 411.438C220.621 411.315 219.508 411.294 218.406 411.219C217.312 411.144 216.093 410.933 215 411ZM158.031 598.594C158.139 598.593 158.233 598.708 158.344 598.75C158.249 598.716 158.161 598.693 158.094 598.656C158.069 598.643 158.003 598.594 158.031 598.594Z" fill="#000000" stroke="none"/>
</g>
<g opacity="1">
<path d="M177.844 574.906C175.819 574.957 173.706 575.484 171.719 575.844C166.507 576.788 161.463 578.243 156.5 580.094C144.239 583.323 136.927 595.863 140.156 608.125C143.386 620.386 155.926 627.729 168.188 624.5C170.645 624.108 173.121 623.962 175.594 623.719C176.652 623.615 177.691 623.447 178.75 623.344C180.036 623.219 181.457 623.307 182.719 623.031C183.252 622.915 183.729 622.665 184.25 622.5C185.56 622.086 186.89 621.723 188.219 621.375C188.798 621.223 189.214 621.089 189.812 621.031C190.883 620.928 192.02 621.015 193.094 621.031C194.729 621.056 196.368 621.138 198 621.25C201.521 621.491 204.978 622.046 208.469 622.531C208.626 622.553 208.781 622.573 208.938 622.594C209.025 622.723 209.133 622.839 209.219 622.969C210.661 625.145 212.01 627.368 213.375 629.594C215.546 633.133 217.84 636.607 220.094 640.094C222.161 643.291 224.209 646.503 226.344 649.656C232.485 658.726 238.85 667.639 245.5 676.344C249.941 682.158 254.598 687.804 258.906 693.719C263.337 699.801 267.439 706.157 271.125 712.719C274.055 717.935 276.726 723.284 279.156 728.75C279.972 730.585 280.744 732.445 281.625 734.25C281.753 734.513 281.869 734.771 282 735.031C282.018 735.067 282.069 735.161 282.094 735.219C281.925 735.704 281.847 736.201 281.656 736.656C281.036 738.137 280.32 739.6 279.594 741.031C277.648 744.865 275.681 748.632 274 752.594C269.833 762.418 265.01 771.942 260.531 781.625C259.482 783.894 258.532 786.196 257.562 788.5C256.741 790.454 255.912 792.411 255.281 794.438C254.759 796.116 254.366 797.82 253.969 799.531C253.762 800.423 253.411 801.309 253.312 802.219C253.289 802.433 253.469 801.819 253.562 801.625C253.579 801.59 253.718 801.282 253.812 801.219C253.852 801.192 253.857 801.33 253.844 801.375C253.734 801.752 253.509 802.051 253.312 802.406C252.793 803.347 252.393 804.027 251.875 805C251.083 806.489 250.412 807.773 249.812 809.375C247.629 815.213 247.615 821.615 250.25 827.312C252.704 832.62 257.082 836.773 262.219 839.469C263.506 840.144 264.82 840.742 266.156 841.312C266.656 841.525 267.337 841.683 267.812 841.969C269.461 842.959 271.042 844.11 272.656 845.156C275.765 847.171 278.826 849.24 281.875 851.344C284.877 853.416 287.884 855.475 290.875 857.562C295.784 860.988 300.744 864.451 306.031 867.281C309.028 868.885 312.228 870.022 315.312 871.438C317.131 872.272 318.912 873.201 320.719 874.062C324.302 875.77 327.879 877.491 331.438 879.25C335.524 881.27 339.568 883.389 343.625 885.469C350.994 889.246 358.361 893.143 365.5 897.344C369.899 899.933 374.161 902.717 378.5 905.406C383.787 908.73 390.77 907.162 394.094 901.875C397.417 896.588 395.85 889.605 390.562 886.281C386.117 883.447 381.696 880.482 377.188 877.75C374.896 876.361 372.539 875.09 370.219 873.75C363.965 870.14 357.694 866.543 351.438 862.938C346.41 860.04 341.413 857.14 336.531 854C333.879 852.294 331.192 850.564 328.656 848.688C326.14 846.826 323.864 844.667 321.344 842.812C320.354 842.084 319.317 841.395 318.312 840.688C313.535 837.321 308.767 833.945 304.188 830.312C300.392 827.302 296.567 824.325 292.875 821.188C290.941 819.544 289.023 817.868 287.062 816.25C287.094 816.182 287.157 816.131 287.188 816.062C288.485 813.158 289.346 810.09 290.562 807.156C291.209 805.597 292.003 804.106 292.75 802.594C293.767 800.534 294.772 798.471 295.781 796.406C298.956 789.909 302.172 783.42 305.312 776.906C306.403 774.643 307.521 772.396 308.594 770.125C309.343 768.54 310.043 766.919 310.875 765.375C313.174 761.108 315.937 757.13 318.094 752.781C322.215 744.472 324.395 735.073 322.281 725.875C321.527 722.594 320.21 719.548 318.969 716.438C318.36 714.913 317.84 713.345 317.25 711.812C311.993 698.166 304.761 685.245 296.562 673.156C292.155 666.657 287.329 660.49 282.781 654.094C278.117 647.533 273.648 640.833 269.344 634.031C266.629 629.742 264.032 625.368 261.344 621.062C258.514 616.529 255.643 612.033 252.812 607.5C251.047 604.673 249.386 601.761 247.562 598.969C243.466 592.696 238.812 586.381 232.188 582.594C228.776 580.643 225.066 579.381 221.219 578.625C219.06 578.201 216.861 578.024 214.688 577.719C212.979 577.479 211.305 577.193 209.594 576.969C204.762 576.337 199.871 575.932 195 575.812C192.976 575.763 190.959 575.875 188.938 575.812C187.712 575.775 186.469 575.561 185.25 575.438C183.191 575.229 181.129 575.078 179.062 574.969C178.653 574.947 178.254 574.896 177.844 574.906ZM282.438 733.594C282.452 733.212 282.581 733.587 282.562 733.781C282.551 733.899 282.489 734.007 282.469 734.125C282.465 733.953 282.43 733.787 282.438 733.594ZM279.438 810.438C279.749 810.565 280.044 810.835 280.281 811.062C280.482 811.256 280.682 811.49 280.875 811.719C280.661 811.572 280.429 811.434 280.219 811.281C280.025 811.141 279.479 810.858 279.344 810.5C279.31 810.412 279.382 810.415 279.438 810.438Z" fill="#000000" stroke="none"/>
</g>
<g opacity="1">
<path d="M521.125 795.688C517.288 795.599 513.442 795.617 509.594 795.75C494.942 796.256 480.406 798.429 465.781 799.375C463.115 799.548 460.448 799.69 457.781 799.844C455.927 799.951 454.046 800.122 452.188 800.125C452.162 800.125 452.212 800.037 452.188 800.031C452.034 799.995 451.876 799.988 451.719 799.969C451.104 799.895 450.204 799.797 449.625 799.75C447.599 799.586 445.558 799.563 443.531 799.75C434.978 800.539 427.075 805.279 422.875 812.875C421.341 815.649 420.326 818.605 419.625 821.688C419.313 823.06 419.205 824.53 418.781 825.875C418.526 826.683 418.291 827.105 418.031 827.969C417.056 831.205 416.253 834.521 415.156 837.719C413.365 842.942 411.306 848.053 409.125 853.125C406.235 859.844 403.223 866.531 399.406 872.781C399.264 872.663 399.111 872.555 398.969 872.438C397.016 870.819 395.133 869.12 393.156 867.531C390.312 865.246 387.315 863.142 384.156 861.312C376.71 857.001 368.948 853.265 361.188 849.562C354.498 846.371 347.769 843.2 341.375 839.438C338.842 837.947 336.347 836.354 333.906 834.719C332.625 833.86 331.215 833.066 330.062 832.031C329.695 831.701 329.409 831.321 329.062 830.969C327.915 829.799 326.711 828.67 325.562 827.5C325.19 827.12 324.878 826.684 324.469 826.344C323.243 825.323 321.715 824.519 320.375 823.656C316.595 821.221 312.682 819.059 308.719 816.938C298.203 809.854 283.928 812.64 276.844 823.156C274.187 827.1 272.932 831.578 272.938 836C272.947 843.37 276.49 850.604 283.062 855.031C286.286 857.714 289.416 860.453 292.75 863C294.026 863.975 295.303 865.152 296.688 865.969C297.68 866.554 298.765 866.925 299.812 867.406C301.369 868.122 302.988 868.786 304.5 869.594C306.549 870.689 308.43 872.143 310.375 873.406C314.379 876.007 318.446 878.504 322.625 880.812C333.26 886.687 344.445 891.464 355.281 896.938C356.713 897.66 358.116 898.433 359.531 899.188C360.807 899.868 362.086 900.525 363.281 901.344C366.131 903.295 368.798 905.525 371.562 907.594C375.617 910.628 379.883 913.454 384.531 915.5C389.849 917.841 395.722 919.209 401.594 919.344C407.466 919.478 413.33 918.379 418.625 915.75C424.199 912.983 428.586 908.525 431.75 903.219C432.609 901.778 433.347 900.266 434.062 898.75C434.432 897.966 434.75 897.156 435.188 896.406C436.673 893.861 438.189 891.327 439.562 888.719C443.079 882.039 446.065 875.032 448.875 868.031C451.012 862.707 453.046 857.323 454.75 851.844C456.041 847.694 456.974 843.474 457.969 839.25C458.595 839.165 459.217 839.074 459.844 839C462.505 838.688 465.179 838.434 467.844 838.156C482.72 836.603 497.59 834.996 512.438 833.188C523.417 831.85 534.395 830.353 545.438 829.625C552.186 829.18 558.935 829.207 565.688 829.531C568.08 829.646 570.491 829.769 572.875 830C575.744 830.278 578.665 830.689 581.438 831.5C582.069 831.685 582.661 831.968 583.281 832.188C583.842 832.386 584.537 832.332 585.094 832.594C585.525 832.797 585.938 833.063 586.344 833.312C589.025 834.965 590.942 837.819 592.625 840.406C594.775 843.711 596.752 847.125 598.938 850.406C602.889 856.34 607.059 862.153 611.094 868.031C616.161 875.413 621.084 882.883 625.938 890.406C629.289 895.676 636.293 897.227 641.562 893.875C646.832 890.523 648.383 883.52 645.031 878.25C639.647 869.663 634.056 861.216 628.531 852.719C624.928 847.176 621.28 841.636 618.031 835.875C615.813 831.941 614.067 827.733 611.875 823.781C610.234 820.822 608.319 818.087 606.219 815.438C603.731 812.299 600.932 809.424 597.562 807.219C595.722 806.014 593.689 805.047 591.656 804.219C586.109 801.958 580.374 801.06 574.469 800.344C568.177 799.581 561.865 798.936 555.562 798.281C544.095 797.089 532.637 795.952 521.125 795.688ZM446.906 839.719C447.196 839.697 447.489 839.721 447.781 839.719C447.738 839.722 447.699 839.747 447.656 839.75C447.494 839.761 447.291 839.765 447.125 839.75C447.117 839.749 446.9 839.719 446.906 839.719Z" fill="#000000" stroke="none"/>
</g>
<g opacity="1">
<path d="M735.438 715.312C733.969 715.337 732.49 715.649 731.062 716.281C725.353 718.811 722.782 725.478 725.312 731.188C729.528 740.935 733.798 750.644 737.906 760.438C738.761 762.475 739.686 764.509 740.5 766.562C741.647 769.454 742.7 772.405 743.719 775.344C744.154 776.598 744.605 777.847 744.969 779.125C745.466 780.87 745.849 782.639 746.375 784.375C746.759 785.642 747.309 786.841 747.812 788.062C748.348 789.362 748.876 790.677 749.5 791.938C752.09 797.174 755.696 801.885 758.031 807.25C758.407 808.113 758.618 808.965 758.719 809.844C756.528 810.807 754.484 812.035 752.375 813.156C749.317 814.781 746.225 816.34 743.219 818.062C739.547 820.167 735.994 822.453 732.344 824.594C728.849 826.643 725.343 828.694 721.781 830.625C715.873 833.829 709.871 836.844 703.938 840C697.258 843.553 690.64 847.213 683.969 850.781C678.524 853.693 673.023 856.616 667.281 858.906C664.535 860.002 661.674 860.935 658.781 861.594C657.474 858.133 656.324 854.577 654.625 851.281C651.156 844.551 646.656 838.318 641.719 832.594C640.249 830.89 638.748 829.215 637.188 827.594C636.217 826.585 635.149 825.662 634.281 824.562C632.955 822.881 632.054 820.872 630.688 819.219C629.816 818.164 628.738 817.357 627.688 816.5C625.133 814.414 622.429 812.61 619.688 810.781C610.228 802.338 595.724 803.165 587.281 812.625C578.838 822.085 579.665 836.619 589.125 845.062C591.162 847.473 593.167 849.837 595.375 852.094C596.067 852.801 597.072 853.911 597.906 854.469C599.28 855.388 600.991 855.829 602.344 856.781C603.202 857.386 603.865 858.245 604.594 859C606.218 860.683 607.796 862.417 609.25 864.25C611.174 866.676 612.797 869.266 614.344 871.938C614.391 872.053 614.454 872.165 614.5 872.281C614.674 872.721 614.899 873.317 615.062 873.75C615.446 874.762 615.829 875.771 616.219 876.781C617.448 879.963 618.715 883.138 620.25 886.188C622.57 890.795 625.472 895.227 629.438 898.594C633.047 901.658 637.304 903.829 641.844 905.125C645.633 906.207 649.448 906.644 653.25 906.625C664.655 906.568 675.951 902.206 686.219 897.438C693.284 894.156 700.114 890.424 706.875 886.562C713.355 882.862 719.77 879.094 726.031 875.031C731.453 871.513 736.788 867.818 742.156 864.219C748.226 860.148 754.395 856.246 760.594 852.375C763.469 850.58 766.455 848.959 769.344 847.188C771.623 845.79 773.749 844.195 775.969 842.719C778.853 840.801 781.761 838.98 784.219 836.5C788.129 832.554 790.813 827.541 791.781 822.062C793.387 812.976 791.211 803.35 786.781 795.344C785.361 792.776 783.807 790.279 782.125 787.875C780.43 785.452 778.591 783.108 777.031 780.594C775.311 777.82 774.019 774.763 772.188 772.062C771.197 770.601 770.068 769.233 769.062 767.781C768.056 766.328 767.166 764.792 766.25 763.281C764.891 761.041 763.578 758.75 762.344 756.438C756.366 745.233 751.246 733.588 746 722.031C744.102 717.749 739.844 715.238 735.438 715.312ZM758.75 811.281C758.737 811.493 758.779 811.691 758.75 811.906C758.67 812.508 758.578 813.253 758.188 813.75C758.129 813.825 758.024 813.803 757.938 813.844C757.861 813.88 757.803 814.097 757.75 814.031C757.673 813.934 757.779 813.78 757.781 813.656C757.786 813.4 757.713 813.16 757.812 812.906C757.909 812.66 758.044 812.427 758.156 812.188C758.312 811.855 758.559 811.586 758.75 811.281ZM654.281 862.156C654.414 862.175 654.557 862.19 654.688 862.219C654.72 862.226 654.749 862.242 654.781 862.25C654.474 862.247 654.101 862.31 653.906 862.219C653.788 862.164 654.152 862.138 654.281 862.156Z" fill="#000000" stroke="none"/>
</g>
<g opacity="1">
<path d="M805.531 602.594C802.662 602.973 799.962 604.428 798.062 606.906C794.648 611.282 791.359 615.776 788.25 620.375C782.542 628.819 777.174 637.477 771.219 645.75C769.717 647.837 768.13 649.943 766.469 651.906C764.801 653.878 762.813 655.561 761.219 657.594C758.488 661.075 756.023 664.757 753.438 668.344C748.543 675.134 743.527 681.818 738.656 688.625C735.433 693.13 732.33 697.724 729.469 702.469C727.947 704.991 726.628 707.639 725.156 710.188C724.164 711.906 723.109 713.566 722.219 715.344C719.903 719.971 718.57 725.185 718.781 730.375C719.013 736.059 721.226 741.392 724.938 745.688C726.214 747.165 727.641 748.456 729.125 749.719C729.446 749.992 729.77 750.261 730.094 750.531C732.699 754.04 735.179 757.618 737.375 761.406C741.639 768.763 745.101 776.586 748.625 784.312C750.498 788.42 752.51 792.517 754.031 796.781C752.472 797.896 750.89 799.005 749.312 800.094C746.258 802.201 743.104 804.171 739.875 806C737.077 807.584 734.218 809.09 731.5 810.812C730.224 811.621 728.992 812.516 727.75 813.375C723.179 816.537 718.859 820.011 714.438 823.375C712.451 824.887 710.459 826.334 708.344 827.656C707.805 827.993 707.306 828.38 706.75 828.688C706.198 828.993 705.599 829.225 705.031 829.5C701.762 831.085 698.401 832.421 695.031 833.781C693.46 834.415 691.902 835.055 690.344 835.719C689.213 836.201 688.076 836.716 686.906 837.094C684.954 837.723 682.948 838.154 681 838.812C680.299 839.049 679.573 839.242 678.906 839.562C677.577 840.201 676.382 841.105 675.188 841.969C672.796 843.697 670.493 845.599 668.531 847.812C667.272 849.232 666.231 850.795 665.062 852.281C655.623 860.747 654.847 875.248 663.312 884.688C671.778 894.127 686.279 894.934 695.719 886.469C697.357 885.284 698.898 883.961 700.562 882.812C701.107 882.437 701.72 881.866 702.344 881.625C702.407 881.601 702.168 881.9 702.406 881.781C702.575 881.697 702.768 881.628 702.906 881.5C703.135 881.287 703.297 880.988 703.5 880.75C704.459 879.627 705.501 878.493 706.844 877.844C709.462 876.577 712.247 875.631 714.938 874.531C719.571 872.637 724.269 870.707 728.656 868.281C737.435 863.427 744.887 856.697 752.875 850.719C758.489 846.518 764.525 842.979 770.188 838.844C773.51 836.418 776.863 833.926 779.938 831.188C779.964 831.163 779.575 831.396 779.594 831.375C779.815 831.126 780.15 831.012 780.438 830.844C781.056 830.48 782.083 829.876 782.656 829.531C784.521 828.408 786.309 827.195 787.969 825.781C791.779 822.536 794.66 818.358 796.375 813.656C799.859 804.107 797.98 793.667 794.688 784.344C792.629 778.515 789.874 772.977 787.031 767.5C781.787 757.393 775.67 747.799 769.156 738.469C766.629 734.849 763.991 731.304 761.25 727.844C760.664 727.103 760.024 726.403 759.406 725.688C759.473 725.529 759.561 725.378 759.625 725.219C760.15 723.919 760.595 722.591 761.094 721.281C762.088 718.67 763.124 716.096 764.156 713.5C765.668 709.698 767.056 705.834 768.719 702.094C770.252 698.644 771.993 695.302 773.875 692.031C775.811 688.665 777.832 685.367 779.969 682.125C781.539 679.743 783.054 677.316 784.531 674.875C784.958 674.171 785.543 673.207 785.906 672.469C786.935 670.38 787.694 668.168 788.688 666.062C789.652 664.018 790.691 661.982 791.719 659.969C793.92 655.656 796.294 651.458 798.688 647.25C803.924 638.044 809.625 629.149 816 620.688C819.8 615.731 818.862 608.613 813.906 604.812C811.428 602.912 808.4 602.215 805.531 602.594Z" fill="#000000" stroke="none"/>
</g>
<g opacity="1">
<path d="M901.219 436.719C894.975 436.838 890.006 442.006 890.125 448.25C890.151 453.035 890.231 457.781 890.406 462.562C890.597 467.771 890.891 473.045 890.5 478.25C890.415 479.385 890.363 480.531 890.188 481.656C889.922 483.351 889.308 484.945 889.125 486.656C888.853 489.189 889.036 491.742 888.969 494.281C888.892 497.195 888.78 500.171 888.406 503.062C887.509 510.004 885.87 516.814 885.406 523.812C885.043 529.295 885.227 534.792 885.125 540.281C885.011 546.368 884.622 552.453 884.312 558.531C883.891 566.812 884.283 575.122 884 583.406C881.309 583.201 878.605 582.963 875.906 582.812C874.148 582.714 872.343 582.752 870.594 582.562C869.155 582.407 867.955 581.601 866.625 581.094C866.298 580.969 865.972 580.83 865.625 580.781C864.956 580.687 864.3 580.815 863.625 580.844C861.556 580.931 859.57 581.305 857.531 581.656C844.864 581.106 834.144 590.926 833.594 603.594C833.044 616.261 842.864 626.981 855.531 627.531C857.532 628.057 859.477 628.578 861.531 628.844C862.199 628.93 862.858 629.13 863.531 629.094C864.022 629.067 865.115 628.682 865.562 628.531C866.593 628.185 867.523 627.773 868.625 627.75C869.867 627.724 871.165 627.868 872.406 627.938C874.42 628.05 876.424 628.139 878.438 628.25C881.874 628.439 885.262 628.951 888.688 629.25C889.053 629.37 889.414 629.479 889.781 629.594C890.353 629.773 890.922 629.968 891.5 630.125C894.395 630.911 897.333 631.413 900.344 631.375C907.655 631.283 914.579 628.244 919.469 622.781C924.252 617.438 926.666 610.424 926.844 603.312C926.91 600.682 926.537 598.089 926.594 595.469C926.755 588.077 926.78 580.701 926.469 573.312C926.324 569.864 926.152 566.407 925.844 562.969C925.282 556.687 924.37 550.45 923.938 544.156C923.431 536.798 923.766 529.368 922.969 522.031C922.643 519.035 922.178 516.056 921.625 513.094C920.976 509.615 920.172 506.159 919.656 502.656C919.214 499.655 918.915 496.588 918.688 493.562C918.481 490.815 918.563 488.034 918.062 485.312C917.721 483.454 916.907 481.748 916.406 479.938C915.777 477.661 915.357 475.292 914.938 472.969C913.44 464.663 912.996 456.229 912.719 447.812C912.599 441.568 907.463 436.599 901.219 436.719ZM882.875 599.531C882.868 599.697 882.885 599.865 882.875 600.031C882.852 600.403 882.886 600.824 882.719 601.156C882.671 601.252 882.721 600.92 882.719 600.812C882.715 600.586 882.724 600.456 882.75 600.219C882.775 599.987 882.832 599.761 882.875 599.531Z" fill="#000000" stroke="none"/>
</g>
<g opacity="1">
<path d="M746.844 314.688C745.375 314.729 743.889 315.07 742.469 315.719C738.208 317.664 735.72 321.908 735.844 326.312C735.885 327.781 736.227 329.267 736.875 330.688C739.838 337.402 743.436 343.787 747.281 350.031C748.246 351.598 749.309 353.095 750.281 354.656C751.409 356.466 752.446 358.335 753.5 360.188C753.884 360.863 754.325 361.5 754.688 362.188C755.541 363.805 756.043 365.574 757.094 367.094C758.529 369.168 760.172 371.028 761.812 372.938C763.874 375.336 765.916 377.838 767.844 380.344C770.974 384.412 773.634 388.823 776.219 393.25C778.482 397.127 780.634 401.012 782.375 405.156C784.582 410.41 785.895 416.009 787.469 421.469C787.993 423.287 788.521 425.113 789.125 426.906C789.46 427.901 789.883 428.882 790.125 429.906C790.932 433.331 791.654 436.731 792.906 440.031C795.269 446.26 799.27 452.023 804.875 455.75C810.255 459.327 816.585 460.575 822.969 460.125C824.848 459.993 826.674 459.634 828.531 459.344C828.982 459.273 829.461 459.089 829.906 459.188C829.96 459.199 829.804 459.241 829.75 459.25C829.629 459.271 829.497 459.3 829.375 459.312C829.206 459.33 828.709 459.31 828.875 459.344C829.651 459.504 830.459 459.451 831.25 459.5C831.921 459.542 832.935 459.6 833.625 459.656C836.048 459.856 838.455 460.084 840.875 460.312C844.283 460.634 847.708 460.827 851.125 461.031C855.825 461.313 860.54 461.526 865.25 461.469C868.398 461.431 871.543 461.26 874.688 461.125C875.463 461.092 876.225 461.059 877 461.031C877.363 461.018 877.736 460.933 878.094 461C879.2 461.206 880.125 462.07 881.188 462.375C881.871 462.571 882.393 462.473 883.062 462.406C884.518 462.261 885.873 461.848 887.312 461.625C899.91 463.062 911.282 454.004 912.719 441.406C914.155 428.808 905.098 417.437 892.5 416C889.325 415.052 886.024 414.234 882.688 414.188C881.085 414.165 879.705 414.761 878.219 415.281C877.752 415.445 877.329 415.686 876.844 415.781C875.945 415.957 875.008 415.839 874.094 415.875C872.061 415.954 870.034 416.06 868 416.125C860.481 416.366 852.985 415.771 845.469 415.656C841.828 415.601 838.171 415.699 834.531 415.781C832.86 415.819 831.175 415.89 829.5 415.969C829.229 415.262 829.026 414.539 828.719 413.844C827.893 411.973 826.892 410.152 826 408.312C824.694 405.619 823.419 402.916 822.188 400.188C819.792 394.881 817.654 389.437 815 384.25C811.411 377.235 806.403 371.177 800.281 366.219C796.972 363.539 793.366 361.27 790.031 358.625C787.81 356.863 785.679 354.926 783.688 352.906C782.15 351.347 780.685 349.725 779.094 348.219C777.894 347.083 776.353 346.398 775.031 345.406C773.805 344.486 772.654 343.386 771.562 342.312C765.534 336.38 761.033 328.898 757.438 321.312C755.492 317.052 751.249 314.563 746.844 314.688Z" fill="#000000" stroke="none"/>
</g>
<g opacity="1">
<path d="M503.125 355.25C498.805 355.282 494.442 355.501 490.188 356.281C487.517 356.771 484.875 357.482 482.281 358.281C477.45 359.769 473.04 362.294 468.625 364.719C466.974 365.625 465.325 366.693 463.594 367.438C460.94 368.579 458.168 369.442 455.469 370.469C449.631 372.69 443.825 375.083 438.219 377.844C427.982 382.885 418.572 389.396 409.812 396.688C399.884 404.951 392.135 415.374 385.531 426.406C375.542 443.093 368.454 461.565 363.969 480.469C362.206 487.898 360.842 495.415 359.75 502.969C357.184 520.727 356.201 538.873 359.062 556.656C359.815 561.331 360.811 565.981 362.125 570.531C362.835 572.991 363.648 575.407 364.688 577.75C366.711 582.308 369.515 586.378 372.375 590.438C373.811 592.476 375.192 594.575 376.656 596.594C382.818 605.086 389.957 612.839 397.906 619.688C405.842 626.524 414.515 632.45 423.5 637.812C431.708 642.711 440.118 647.179 448.969 650.812C458.73 654.82 468.725 657.699 478.938 660.281C482.669 661.225 486.266 662.597 490.062 663.312C495.854 664.404 501.904 664.46 507.781 664.438C515.115 664.409 522.433 663.898 529.75 663.469C536.211 663.089 542.662 662.659 549.094 661.906C569.198 659.553 589.297 654.824 607.688 646.219C615.825 642.411 623.566 637.862 630.688 632.375C634.643 629.327 638.405 626.007 641.344 621.938C644.483 617.59 646.684 612.506 648.625 607.531C651.306 600.661 653.232 593.508 654.812 586.312C655.918 581.278 656.79 576.181 657.938 571.156C659.39 564.798 660.904 558.507 661.75 552.031C662.59 545.601 662.887 539.104 662.969 532.625C663.124 520.311 662.23 508.058 660.219 495.906C658.198 483.693 655.288 471.54 650.562 460.062C648.246 454.435 645.247 449.013 642.156 443.781C640.189 440.452 638.233 437.141 636.062 433.938C627.487 421.283 616.403 410.616 605.031 400.5C603.015 398.706 600.929 396.95 598.969 395.094C595.026 391.361 591.306 387.46 586.781 384.406C580.698 380.301 573.65 377.932 566.844 375.344C558.602 372.209 550.327 368.994 541.625 367.375C541.49 367.35 541.354 367.337 541.219 367.312C537.098 360.364 529.49 355.746 520.844 356C503.136 355.239 509.037 355.207 503.125 355.25ZM541.219 390.625C547.176 392.185 552.894 394.495 558.625 396.719C561.875 397.98 565.189 399.173 568.375 400.594C570.203 401.409 572.049 402.276 573.688 403.438C577.046 405.819 579.754 408.953 582.656 411.844C585.182 414.36 587.847 416.738 590.438 419.188C598.54 426.85 606.589 434.874 612.5 444.406C614.59 447.776 616.515 451.295 618.156 454.906C620.389 459.817 621.867 465.011 623.531 470.125C626.635 479.665 629.172 489.351 630.688 499.281C632.88 513.65 632.963 528.525 630.625 542.875C630.241 545.233 629.807 547.597 629.188 549.906C627.715 555.399 625.647 560.716 624 566.156C621.476 574.492 619.307 582.974 615.875 591C614.577 594.035 613.151 597.042 611.344 599.812C611.299 599.881 611.422 599.674 611.438 599.594C611.44 599.58 611.146 599.764 611.125 599.781C609.736 600.943 608.304 602.002 606.812 603.031C603.385 605.397 599.768 607.508 596.062 609.406C580.264 617.5 562.49 621.634 544.906 623.344C536.864 624.126 528.793 624.263 520.719 624.406C516.165 624.487 511.582 624.523 507.031 624.312C504.224 624.183 501.405 624.024 498.625 623.594C497.998 623.497 497.378 623.235 496.781 623.031C495.515 622.6 494.235 622.151 492.969 621.719C490.482 620.87 487.953 620.193 485.438 619.438C477.547 617.068 469.764 614.305 462.281 610.844C453.749 606.897 445.565 602.013 437.781 596.75C431.153 592.268 424.871 587.238 419.375 581.406C415.584 577.383 412.232 573.025 409.156 568.438C407.927 566.604 406.626 564.808 405.406 562.969C404.873 562.165 404.3 561.339 403.938 560.438C403.75 559.971 403.659 559.455 403.531 558.969C403.268 557.967 403.097 557.138 402.875 556.125C402.113 552.646 401.603 549.112 401.312 545.562C400.306 533.252 401.76 520.883 403.812 508.75C406.988 489.981 412.44 471.279 421.562 454.5C423.911 450.181 426.518 446.001 429.375 442C431.051 439.653 432.734 437.257 434.719 435.156C437.379 432.34 440.484 429.99 443.562 427.656C446.424 425.487 449.343 423.359 452.438 421.531C458.046 418.218 464.061 415.631 470.125 413.281C474.152 411.721 478.21 410.244 482.312 408.906C485.488 407.871 488.64 406.759 491.844 405.812C493.21 405.409 494.61 405.167 495.969 404.75C497.257 404.354 498.551 403.659 499.812 403.438C502.152 403.028 504.573 402.96 506.938 402.781C512.022 402.396 506.917 402.787 522.188 401.906C530.343 401.666 537.337 397.155 541.219 390.625Z" fill="#000000" stroke="none"/>
</g>
<g opacity="1">
<path d="M408.5 134.219C405.606 134.188 402.7 135.253 400.469 137.438C398.237 139.622 397.094 142.512 397.062 145.406C397.031 148.3 398.097 151.206 400.281 153.438C403.907 157.299 407.689 161.252 410.25 165.938C410.993 167.297 411.73 168.831 412.094 170.344C412.226 170.894 412.21 171.481 412.344 172.031C412.469 172.546 412.644 173.041 412.844 173.531C413.425 174.959 414.367 176.193 415.062 177.562C415.76 178.937 416.421 180.411 416.906 181.875C417.51 183.697 417.73 185.553 418 187.438C418.113 188.227 418.354 188.997 418.5 189.781C418.598 190.307 418.592 190.849 418.688 191.375C418.83 192.159 419.044 192.917 419.25 193.688C420.47 198.258 422.491 202.618 424.094 207.062C426.109 212.651 427.947 218.287 431.031 223.406C435.803 231.326 442.599 237.788 450.438 242.625C454.958 245.415 459.825 247.529 464.969 248.875C471.635 250.62 478.618 250.797 485.438 250C488.89 249.596 492.32 248.972 495.719 248.25C496.315 248.123 496.904 248 497.5 247.875C498.118 247.746 498.745 247.443 499.375 247.469C500.045 247.496 500.652 247.915 501.312 248.031C501.892 248.133 502.48 248.207 503.062 248.125C503.598 248.05 504.103 247.79 504.594 247.562C505.564 247.112 506.433 246.499 507.344 245.938C518.165 243.488 525.472 233.77 525.25 223.094C525.218 221.569 525.006 220.015 524.656 218.469C521.857 206.102 509.585 198.357 497.219 201.156C495.991 201.059 494.891 200.914 493.656 200.969C493.092 200.994 492.504 200.976 491.969 201.156C491.431 201.337 490.946 201.681 490.5 202.031C490.019 202.409 489.709 203.025 489.188 203.344C488.775 203.595 488.251 203.578 487.781 203.688C486.418 204.005 485.064 204.279 483.688 204.531C480.928 205.037 478.177 205.305 475.375 205.312C473.956 205.316 473.03 205.55 471.625 205.062C469.008 204.155 467.145 201.66 465.438 199.625C463.073 196.807 460.924 193.915 459.25 190.625C457.241 186.676 455.862 182.368 453.562 178.562C452.614 176.992 451.553 175.422 450.438 173.969C449.952 173.336 449.39 172.766 448.875 172.156C447.226 170.203 445.465 168.32 443.844 166.344C442.216 164.36 440.695 162.285 439.219 160.188C438.487 159.147 437.76 158.07 436.875 157.156C436.425 156.692 435.951 156.237 435.438 155.844C434.9 155.432 434.296 155.15 433.75 154.75C432.72 153.995 431.76 153.139 430.812 152.281C429.416 151.017 428.142 149.641 426.844 148.281C423.416 144.692 419.982 141.099 416.438 137.625C414.253 135.393 411.394 134.25 408.5 134.219Z" fill="#000000" stroke="none"/>
</g>
<g opacity="1">
<path d="M813.938 572.062C808.78 572.29 803.737 573.645 799.281 576.438C792.898 580.438 788.644 586.88 787.156 594.219C786.68 596.568 786.536 598.952 786.5 601.344C786.489 602.051 786.49 602.762 786.5 603.469C786.501 603.551 786.465 603.793 786.5 603.719C786.482 603.792 786.456 603.864 786.438 603.938C786.283 604.554 786.123 605.196 785.969 605.812C785.638 607.13 785.28 608.436 784.938 609.75C783.894 613.754 782.815 617.808 781.281 621.656C778.369 628.96 773.864 635.438 770.344 642.438C768.617 645.872 766.981 649.355 765.438 652.875C764.005 656.141 762.607 659.439 760.938 662.594C759.421 665.458 757.749 668.284 756.031 671.031C754.872 672.885 753.667 674.718 752.594 676.625C752.226 677.279 751.826 677.904 751.531 678.594C750.954 679.948 750.672 681.433 750.156 682.812C749.497 684.577 748.611 686.324 747.812 688.031C746.394 691.062 744.795 693.971 743.25 696.938C739.76 703.641 736.346 710.371 733.281 717.281C732.63 718.7 732.294 720.188 732.25 721.656C732.118 726.061 734.586 730.328 738.844 732.281C740.263 732.932 741.751 733.269 743.219 733.312C747.623 733.444 751.891 730.976 753.844 726.719C758.252 717.42 763.148 708.258 769.719 700.281C770.573 699.245 771.449 698.193 772.406 697.25C773.455 696.216 774.718 695.361 775.719 694.281C776.184 693.779 776.546 693.164 776.969 692.625C778.28 690.955 779.457 689.229 780.688 687.5C782.533 684.908 784.541 682.369 786.594 679.938C789.431 676.576 792.556 673.455 795.531 670.219C797.807 667.744 800.012 665.158 802.031 662.469C805.958 657.24 809.229 651.529 812.438 645.844C814.097 642.904 815.764 639.97 817.312 636.969C820.235 631.305 823.042 625.587 825.312 619.625C825.458 619.244 825.576 618.853 825.719 618.469C827.59 619.27 829.496 620.036 831.438 620.656C845.45 625.129 860.422 625.891 875.031 626.094C875.744 626.104 876.678 626.069 877.375 626.219C878.947 626.557 880.412 627.579 882.031 627.719C882.794 627.785 883.549 627.622 884.312 627.562C886.565 627.386 888.755 626.94 890.969 626.5C903.648 626.488 913.918 616.18 913.906 603.5C913.894 590.82 903.586 580.551 890.906 580.562C888.706 580.129 886.551 579.674 884.312 579.5C883.593 579.444 882.875 579.278 882.156 579.344C881.398 579.413 880.689 579.751 879.969 580C878.885 580.374 877.94 580.834 876.781 580.875C874.626 580.952 872.436 580.808 870.281 580.75C865.965 580.634 861.67 580.352 857.375 579.906C853.501 579.504 849.671 578.896 845.844 578.188C844.802 577.995 843.745 577.857 842.719 577.594C841.444 577.267 840.212 576.77 838.969 576.344C836.766 575.589 834.548 574.854 832.281 574.312C830.315 573.842 828.304 573.598 826.312 573.281C823.913 572.899 821.517 572.407 819.094 572.188C817.366 572.031 815.657 571.987 813.938 572.062Z" fill="#000000" stroke="none"/>
</g>
</g>
</svg>
