<?xml version="1.0" encoding="UTF-8" standalone="no"?>
<!DOCTYPE svg PUBLIC "-//W3C//DTD SVG 1.1//EN" "http://www.w3.org/Graphics/SVG/1.1/DTD/svg11.dtd"
[
<!ATTLIST g
  xmlns:vectornator CDATA #FIXED "http://vectornator.io"
  vectornator:layerName CDATA #IMPLIED >
<!ATTLIST g
  xmlns:vectornator CDATA #FIXED "http://vectornator.io"
  vectornator:mask CDATA #IMPLIED >
<!ATTLIST text
  xmlns:vectornator CDATA #FIXED "http://vectornator.io"
  vectornator:width CDATA #IMPLIED >

<!ATTLIST path
  xmlns:vectornator CDATA #FIXED "http://vectornator.io"
  vectornator:blendMode CDATA #IMPLIED >
<!ATTLIST path
  xmlns:vectornator CDATA #FIXED "http://vectornator.io"
  vectornator:shadowColor CDATA #IMPLIED >
<!ATTLIST path
  xmlns:vectornator CDATA #FIXED "http://vectornator.io"
  vectornator:shadowOpacity CDATA #IMPLIED >
<!ATTLIST path
  xmlns:vectornator CDATA #FIXED "http://vectornator.io"
  vectornator:shadowRadius CDATA #IMPLIED >
<!ATTLIST path
  xmlns:vectornator CDATA #FIXED "http://vectornator.io"
  vectornator:shadowOffset CDATA #IMPLIED >
<!ATTLIST path
  xmlns:vectornator CDATA #FIXED "http://vectornator.io"
  vectornator:shadowAngle CDATA #IMPLIED >

<!ATTLIST image
  xmlns:vectornator CDATA #FIXED "http://vectornator.io"
  vectornator:blendMode CDATA #IMPLIED >
<!ATTLIST image
  xmlns:vectornator CDATA #FIXED "http://vectornator.io"
  vectornator:shadowColor CDATA #IMPLIED >
<!ATTLIST image
  xmlns:vectornator CDATA #FIXED "http://vectornator.io"
  vectornator:shadowOpacity CDATA #IMPLIED >
<!ATTLIST image
  xmlns:vectornator CDATA #FIXED "http://vectornator.io"
  vectornator:shadowRadius CDATA #IMPLIED >
<!ATTLIST image
  xmlns:vectornator CDATA #FIXED "http://vectornator.io"
  vectornator:shadowOffset CDATA #IMPLIED >
<!ATTLIST image
  xmlns:vectornator CDATA #FIXED "http://vectornator.io"
  vectornator:shadowAngle CDATA #IMPLIED >

<!ATTLIST g
  xmlns:vectornator CDATA #FIXED "http://vectornator.io"
  vectornator:blendMode CDATA #IMPLIED >
<!ATTLIST g
  xmlns:vectornator CDATA #FIXED "http://vectornator.io"
  vectornator:shadowColor CDATA #IMPLIED >
<!ATTLIST g
  xmlns:vectornator CDATA #FIXED "http://vectornator.io"
  vectornator:shadowOpacity CDATA #IMPLIED >
<!ATTLIST g
  xmlns:vectornator CDATA #FIXED "http://vectornator.io"
  vectornator:shadowRadius CDATA #IMPLIED >
<!ATTLIST g
  xmlns:vectornator CDATA #FIXED "http://vectornator.io"
  vectornator:shadowOffset CDATA #IMPLIED >
<!ATTLIST g
  xmlns:vectornator CDATA #FIXED "http://vectornator.io"
  vectornator:shadowAngle CDATA #IMPLIED >

<!ENTITY % SVG.filter.extra.content  "| feDropShadow" >
<!ELEMENT feDropShadow EMPTY>
<!ATTLIST feDropShadow
  xmlns:svg CDATA #FIXED "http://www.w3.org/Graphics/SVG/1.1/DTD/svg11.dtd"
  dx CDATA #IMPLIED>
<!ATTLIST feDropShadow
  xmlns:svg CDATA #FIXED "http://www.w3.org/Graphics/SVG/1.1/DTD/svg11.dtd"
  dy CDATA #IMPLIED>
<!ATTLIST feDropShadow
  xmlns:svg CDATA #FIXED "http://www.w3.org/Graphics/SVG/1.1/DTD/svg11.dtd"
  stdDeviation CDATA #IMPLIED>
<!ATTLIST feDropShadow
  xmlns:svg CDATA #FIXED "http://www.w3.org/Graphics/SVG/1.1/DTD/svg11.dtd"
  flood-opacity CDATA #IMPLIED>
<!ATTLIST feDropShadow
  xmlns:svg CDATA #FIXED "http://www.w3.org/Graphics/SVG/1.1/DTD/svg11.dtd"
  in CDATA #IMPLIED>
<!ATTLIST feDropShadow
  xmlns:svg CDATA #FIXED "http://www.w3.org/Graphics/SVG/1.1/DTD/svg11.dtd"
  result CDATA #IMPLIED>
<!ATTLIST feDropShadow
  xmlns:svg CDATA #FIXED "http://www.w3.org/Graphics/SVG/1.1/DTD/svg11.dtd"
  flood-color CDATA #IMPLIED>
]
>
<!-- Created with Vectornator (http://vectornator.io/) -->
<svg height="100%" stroke-miterlimit="10" style="fill-rule:nonzero;clip-rule:evenodd;stroke-linecap:round;stroke-linejoin:round;" version="1.1" viewBox="0 0 1024 1024" width="100%" xml:space="preserve" xmlns="http://www.w3.org/2000/svg" xmlns:vectornator="http://vectornator.io" xmlns:xlink="http://www.w3.org/1999/xlink">
<defs/>
<g id="레이어-5" vectornator:layerName="레이어 5">
<g opacity="1">
<path d="M728.594 138.5C722.391 138.902 716.254 141.096 710.969 145.188C699.193 153.784 687.193 162.043 675.188 170.312C670.712 173.395 666.269 176.558 661.781 179.625C656.581 183.179 651.357 186.681 646.125 190.188C643.701 191.812 641.192 193.341 638.812 195.031C635.4 197.455 632.103 200.056 628.75 202.562C622.678 207.1 616.574 211.582 610.438 216.031C608.048 217.764 605.691 219.591 603.25 221.25C599.394 223.871 595.393 226.294 591.469 228.812C584.324 233.397 577.169 237.986 570 242.531C555.582 251.673 541.124 260.731 526.688 269.844C517.724 275.502 508.815 281.255 499.75 286.75C481.586 297.76 462.933 307.987 445.312 319.875C426.796 332.368 410.001 347.149 392.125 360.5C363.841 381.624 335.367 402.51 306.938 423.438C294.756 432.405 282.617 441.404 270.438 450.375C253.939 462.527 237.347 474.516 220.375 486C214.93 489.685 209.426 493.303 203.906 496.875C201.199 498.627 198.504 500.435 195.719 502.062C190.193 505.292 184.181 507.658 178.344 510.25C169.672 514.1 161.072 518.255 153.344 523.812C145.063 529.767 137.928 537.279 133 546.25C130.214 551.321 128.308 556.807 128 562.625C127.779 566.8 128.278 570.977 129.531 574.969C130.65 578.532 132.365 581.9 134.531 584.938C140.046 592.672 148.381 597.558 157.156 600.75C161.811 602.443 166.582 603.697 171.25 605.344C171.743 605.518 172.207 605.696 172.688 605.875C176.2 607.874 179.714 609.917 183.25 611.875C191.036 616.186 198.907 620.291 206.969 624.062C226.229 633.074 246.785 638.904 266.25 647.406C277.795 652.449 289.142 657.953 300.469 663.469C316.411 671.232 332.289 679.124 348.312 686.719C364.597 694.438 381.275 701.293 397.594 708.938C403.907 711.895 410.223 714.908 416.344 718.25C429.334 725.343 441.464 733.846 454.25 741.281C458.642 743.835 463.013 746.451 467.562 748.719C473.294 751.576 479.226 753.981 484.969 756.812C488.209 758.411 491.316 760.311 494.438 762.125C512.519 772.632 530.211 783.828 548.156 794.562C552.126 796.937 556.121 799.247 560.125 801.562C562.864 803.146 565.567 804.796 568.344 806.312C572.052 808.338 575.916 810.059 579.812 811.688C584.081 813.472 588.39 815.122 592.562 817.125C599.96 820.677 607.283 824.398 614.625 828.062C629.882 835.678 645.084 843.4 660.156 851.375C666.814 854.898 673.438 858.428 679.781 862.5C690.959 869.675 701.466 877.821 712.156 885.688C715.759 888.338 719.366 890.968 723.031 893.531C725.077 894.962 727.181 896.34 729.219 897.781C732.282 899.947 735.035 902.568 737.938 904.938C742.523 908.681 747.35 912.147 752.719 914.688C762.356 919.248 773.647 920.865 783.906 917.469C787.505 916.277 790.916 914.581 794.062 912.469C800.378 908.231 805.481 902.37 809.469 895.938C811.898 892.02 814.06 887.826 815.406 883.406C816.343 880.333 816.857 877.14 817.062 873.938C817.284 870.473 817.091 867.003 816.656 863.562C816.372 861.317 815.891 859.065 815.688 856.812C815.614 855.998 815.719 855.115 815.75 854.312C815.799 853.015 815.848 851.703 815.906 850.406C816.787 830.818 818.193 811.255 818.844 791.656C819.293 778.121 819.475 764.579 819.469 751.031C819.463 737.483 819.287 723.945 819.062 710.406C818.562 680.201 817.692 649.993 817.875 619.781C818.014 596.794 818.263 573.831 818.375 550.844C818.449 535.726 818.507 520.585 818.219 505.469C818.044 496.272 817.639 487.093 817.188 477.906C816.892 471.891 816.589 465.849 816.125 459.844C815.804 455.695 815.32 451.547 814.906 447.406C813.801 436.343 812.513 425.313 811.406 414.25C807.267 372.862 802.998 331.477 798.219 290.156C796.932 279.028 795.666 267.894 794.25 256.781C793.082 247.616 791.744 238.49 790.438 229.344C789.344 221.686 788.203 214.008 787.156 206.344C786.847 204.08 786.559 201.826 786.25 199.562C786.088 198.378 785.861 197.197 785.812 196C785.722 193.789 785.967 191.543 786.156 189.344C786.417 186.308 786.633 183.268 786.562 180.219C786.331 170.26 782.498 159.957 773.531 154.75C768.273 151.697 762.278 150.802 756.312 151.094C756.284 151.056 756.279 151.006 756.25 150.969C749.43 142.16 738.932 137.831 728.594 138.5ZM753.562 193.281C753.491 195.221 753.473 197.152 753.625 199.094C753.925 202.941 754.568 206.798 755.062 210.625C756.062 218.363 757.141 226.08 758.188 233.812C760.748 252.724 762.791 271.703 764.719 290.688C766.454 307.772 768.118 324.852 769.5 341.969C771.515 366.925 773.27 391.924 774.406 416.938C775.076 431.675 775.248 446.441 775.625 461.188C775.781 467.294 776.145 473.393 776.312 479.5C776.761 495.891 776.852 512.291 776.812 528.688C776.751 553.939 775.996 579.199 775.25 604.438C774.642 624.995 774.089 645.562 773.688 666.125C773.066 697.943 772.139 729.754 770.375 761.531C769.448 778.239 768.39 794.933 766.812 811.594C765.555 824.879 764.331 838.156 763.406 851.469C763.294 853.092 763.269 854.704 763.25 856.312C762.357 855.61 761.514 854.854 760.594 854.188C758.417 852.61 756.162 851.116 753.969 849.562C750.662 847.219 747.41 844.822 744.156 842.406C730.666 832.392 717.388 822.035 703 813.312C693.704 807.677 683.936 802.765 674.312 797.719C660.517 790.486 646.681 783.342 632.812 776.25C625.861 772.695 618.984 768.952 611.875 765.719C606.089 763.087 599.9 761.048 594.406 757.812C576.003 746.973 558.177 735.204 540.156 723.75C532.359 718.794 524.572 713.817 516.594 709.156C511.688 706.291 506.591 703.793 501.469 701.344C497.821 699.599 494.135 697.915 490.656 695.844C478.274 688.47 466.452 680.189 454.188 672.625C445.898 667.513 437.316 662.864 428.594 658.531C414.01 651.287 399.074 644.829 384.281 638.031C376.595 634.499 368.973 630.812 361.375 627.094C346.046 619.592 330.819 611.895 315.469 604.438C305.662 599.673 295.842 594.869 285.781 590.656C273.815 585.646 261.534 581.396 249.438 576.719C243.753 574.521 238.041 572.3 232.531 569.688C226.656 566.902 220.914 563.85 215.219 560.719C216.195 560.276 217.189 559.869 218.156 559.406C225.709 555.797 232.736 551.354 239.812 546.906C249.192 541.011 258.441 534.913 267.625 528.719C282.377 518.77 296.849 508.424 311.312 498.062C323.675 489.207 336.058 480.367 348.344 471.406C366.979 457.815 385.568 444.188 404.156 430.531C414.414 422.995 424.739 415.512 434.875 407.812C444.772 400.295 454.364 392.393 464.188 384.781C470.246 380.087 476.39 375.47 482.812 371.281C500.375 359.826 518.746 349.69 536.625 338.75C545.778 333.15 554.797 327.283 563.875 321.562C580.187 311.284 596.518 301.043 612.781 290.688C618.594 286.986 624.394 283.262 630.188 279.531C632.714 277.904 635.19 276.231 637.75 274.656C641.077 272.609 644.507 270.698 647.875 268.719C654.992 264.536 662.11 260.343 669.188 256.094C671.8 254.525 674.472 253.03 677.031 251.375C679.594 249.717 682.065 247.88 684.562 246.125C688.818 243.135 693.078 240.145 697.312 237.125C703.004 233.065 708.68 228.997 714.281 224.812C726.591 215.617 738.591 205.962 750.469 196.219C751.617 195.329 752.568 194.286 753.562 193.281Z" fill="#000000" stroke="none"/>
</g>
</g>
</svg>
